ISO-10303-21;
HEADER;
/* Generated by software containing ST-Developer
 * from STEP Tools, Inc. (www.steptools.com) 
 */

FILE_DESCRIPTION(
/* description */ (''),
/* implementation_level */ '2;1');

FILE_NAME(
/* name */ 'leftpalmrest.step',
/* time_stamp */ '2025-08-17T19:12:06-07:00',
/* author */ (''),
/* organization */ (''),
/* preprocessor_version */ 'ST-DEVELOPER v20.1',
/* originating_system */ 'Autodesk Translation Framework v14.10.0.0',
/* authorisation */ '');

FILE_SCHEMA (('AUTOMOTIVE_DESIGN { 1 0 10303 214 3 1 1 }'));
ENDSEC;

DATA;
#10=MECHANICAL_DESIGN_GEOMETRIC_PRESENTATION_REPRESENTATION('',(#17),#1379);
#11=ITEM_DEFINED_TRANSFORMATION($,$,#672,#721);
#12=(
REPRESENTATION_RELATIONSHIP($,$,#1390,#1389)
REPRESENTATION_RELATIONSHIP_WITH_TRANSFORMATION(#11)
SHAPE_REPRESENTATION_RELATIONSHIP()
);
#13=CONTEXT_DEPENDENT_SHAPE_REPRESENTATION(#12,#1388);
#14=NEXT_ASSEMBLY_USAGE_OCCURRENCE('palmrest:1','palmrest:1',
'palmrest:1',#1392,#1393,'palmrest:1');
#15=SHAPE_REPRESENTATION_RELATIONSHIP('SRR','None',#1390,#16);
#16=ADVANCED_BREP_SHAPE_REPRESENTATION('',(#18),#1378);
#17=STYLED_ITEM('',(#1403),#18);
#18=MANIFOLD_SOLID_BREP('Body1',#658);
#19=CONICAL_SURFACE('',#701,9.,0.785398163397447);
#20=CONICAL_SURFACE('',#705,9.,0.785398163397449);
#21=B_SPLINE_SURFACE_WITH_KNOTS('',3,1,((#971,#972),(#973,#974),(#975,#976),
(#977,#978)),.UNSPECIFIED.,.F.,.F.,.F.,(4,4),(2,2),(-0.509847045375816,
-0.385720039915807),(0.,2.3),.UNSPECIFIED.);
#22=B_SPLINE_SURFACE_WITH_KNOTS('',3,3,((#1033,#1034,#1035,#1036,#1037,
#1038,#1039,#1040,#1041,#1042,#1043,#1044,#1045,#1046,#1047,#1048),(#1049,
#1050,#1051,#1052,#1053,#1054,#1055,#1056,#1057,#1058,#1059,#1060,#1061,
#1062,#1063,#1064),(#1065,#1066,#1067,#1068,#1069,#1070,#1071,#1072,#1073,
#1074,#1075,#1076,#1077,#1078,#1079,#1080),(#1081,#1082,#1083,#1084,#1085,
#1086,#1087,#1088,#1089,#1090,#1091,#1092,#1093,#1094,#1095,#1096)),
 .UNSPECIFIED.,.F.,.F.,.F.,(4,4),(4,3,3,3,3,4),(0.,1.),(-1.00015810458812,
-0.998147629156903,-0.985021242882557,-0.94962922189638,-0.468508796669478,
-0.000139679509478077),.UNSPECIFIED.);
#23=B_SPLINE_SURFACE_WITH_KNOTS('',3,3,((#1164,#1165,#1166,#1167,#1168,
#1169,#1170,#1171,#1172,#1173),(#1174,#1175,#1176,#1177,#1178,#1179,#1180,
#1181,#1182,#1183),(#1184,#1185,#1186,#1187,#1188,#1189,#1190,#1191,#1192,
#1193),(#1194,#1195,#1196,#1197,#1198,#1199,#1200,#1201,#1202,#1203)),
 .UNSPECIFIED.,.F.,.F.,.F.,(4,4),(4,3,3,4),(0.,1.),(-1.,-0.947297217329452,
-0.470079017220143,0.),.UNSPECIFIED.);
#24=B_SPLINE_SURFACE_WITH_KNOTS('',3,1,((#1245,#1246),(#1247,#1248),(#1249,
#1250),(#1251,#1252)),.UNSPECIFIED.,.F.,.F.,.F.,(4,4),(2,2),(-0.582418800546154,
-0.544169311383387),(0.,2.3),.UNSPECIFIED.);
#25=B_SPLINE_SURFACE_WITH_KNOTS('',3,1,((#1263,#1264),(#1265,#1266),(#1267,
#1268),(#1269,#1270),(#1271,#1272),(#1273,#1274),(#1275,#1276),(#1277,#1278),
(#1279,#1280),(#1281,#1282),(#1283,#1284),(#1285,#1286),(#1287,#1288),(#1289,
#1290),(#1291,#1292),(#1293,#1294),(#1295,#1296),(#1297,#1298),(#1299,#1300)),
 .UNSPECIFIED.,.F.,.F.,.F.,(4,3,3,3,3,3,4),(2,2),(-1.00015810458812,-1.0001437314605,
-0.998147629156903,-0.985021242882557,-0.94962922189638,-0.468508796669478,
-0.000139679509478888),(0.,2.3),.UNSPECIFIED.);
#26=B_SPLINE_SURFACE_WITH_KNOTS('',3,1,((#1342,#1343),(#1344,#1345),(#1346,
#1347),(#1348,#1349),(#1350,#1351),(#1352,#1353),(#1354,#1355),(#1356,#1357),
(#1358,#1359),(#1360,#1361)),.UNSPECIFIED.,.F.,.F.,.F.,(4,3,3,4),(2,2),
(-1.,-0.947297217329452,-0.470079017220143,0.),(0.,2.3),.UNSPECIFIED.);
#27=B_SPLINE_CURVE_WITH_KNOTS('',3,(#951,#952,#953,#954),.UNSPECIFIED.,
 .F.,.F.,(4,4),(-0.00537679490251557,0.),.UNSPECIFIED.);
#28=B_SPLINE_CURVE_WITH_KNOTS('',3,(#980,#981,#982,#983,#984,#985),
 .UNSPECIFIED.,.F.,.F.,(4,2,4),(-0.0102957443324425,-0.00553492943862028,
-0.00549083375778547),.UNSPECIFIED.);
#29=B_SPLINE_CURVE_WITH_KNOTS('',3,(#988,#989,#990,#991),.UNSPECIFIED.,
 .F.,.F.,(4,4),(0.385720039915807,0.509847045375816),.UNSPECIFIED.);
#30=B_SPLINE_CURVE_WITH_KNOTS('',3,(#999,#1000,#1001,#1002,#1003,#1004,
#1005,#1006,#1007,#1008,#1009,#1010,#1011,#1012,#1013,#1014,#1015,#1016,
#1017,#1018,#1019,#1020),.UNSPECIFIED.,.F.,.F.,(4,3,3,3,3,3,3,4),(-0.00118931892369538,
-0.000828885926427712,-0.000503341853400831,-0.000468452929160042,-0.000295773400437382,
-0.000147886700218691,-1.87738103795984E-5,0.),.UNSPECIFIED.);
#31=B_SPLINE_CURVE_WITH_KNOTS('',3,(#1098,#1099,#1100,#1101,#1102,#1103,
#1104,#1105,#1106,#1107,#1108,#1109,#1110,#1111,#1112,#1113),
 .UNSPECIFIED.,.F.,.F.,(4,3,3,3,3,4),(-1.00015810458812,-0.998147629156903,
-0.985021242882557,-0.94962922189638,-0.468508796669478,-0.000139679509478077),
 .UNSPECIFIED.);
#32=B_SPLINE_CURVE_WITH_KNOTS('',3,(#1115,#1116,#1117,#1118,#1119,#1120,
#1121),.UNSPECIFIED.,.F.,.F.,(4,3,4),(0.000139679509478077,0.468508796669478,
0.472311473327889),.UNSPECIFIED.);
#33=B_SPLINE_CURVE_WITH_KNOTS('',3,(#1122,#1123,#1124,#1125,#1126,#1127,
#1128,#1129,#1130,#1131,#1132,#1133,#1134,#1135),.UNSPECIFIED.,.F.,.F.,
(4,2,2,2,2,2,4),(0.,0.298099193063921,0.801468192223168,0.892920073680815,
0.932282989034115,0.947801932017987,0.963917295796304),.UNSPECIFIED.);
#34=B_SPLINE_CURVE_WITH_KNOTS('',3,(#1144,#1145,#1146,#1147,#1148,#1149,
#1150,#1151,#1152,#1153,#1154,#1155,#1156,#1157,#1158,#1159),
 .UNSPECIFIED.,.F.,.F.,(4,2,2,2,2,2,2,4),(-0.953204331549235,-0.664897867644254,
-0.438213570063605,-0.27827197676486,-0.144984258277613,-0.0502779653571172,
0.,0.0105512960792589),.UNSPECIFIED.);
#35=B_SPLINE_CURVE_WITH_KNOTS('',3,(#1204,#1205,#1206,#1207,#1208,#1209,
#1210),.UNSPECIFIED.,.F.,.F.,(4,3,4),(0.52889311485321,0.947297217329452,
1.),.UNSPECIFIED.);
#36=B_SPLINE_CURVE_WITH_KNOTS('',3,(#1211,#1212,#1213,#1214,#1215,#1216,
#1217,#1218,#1219,#1220),.UNSPECIFIED.,.F.,.F.,(4,3,3,4),(-1.,-0.947297217329452,
-0.470079017220143,0.),.UNSPECIFIED.);
#37=B_SPLINE_CURVE_WITH_KNOTS('',3,(#1255,#1256,#1257,#1258),
 .UNSPECIFIED.,.F.,.F.,(4,4),(0.544169311383387,0.582418800546154),
 .UNSPECIFIED.);
#38=B_SPLINE_CURVE_WITH_KNOTS('',3,(#1303,#1304,#1305,#1306,#1307,#1308,
#1309,#1310,#1311,#1312,#1313,#1314,#1315,#1316,#1317,#1318,#1319,#1320,
#1321),.UNSPECIFIED.,.F.,.F.,(4,3,3,3,3,3,4),(0.000139679509478888,0.468508796669478,
0.94962922189638,0.985021242882557,0.998147629156903,1.0001437314605,1.00015810458812),
 .UNSPECIFIED.);
#39=B_SPLINE_CURVE_WITH_KNOTS('',3,(#1362,#1363,#1364,#1365,#1366,#1367,
#1368,#1369,#1370,#1371),.UNSPECIFIED.,.F.,.F.,(4,3,3,4),(0.,0.470079017220143,
0.947297217329452,1.),.UNSPECIFIED.);
#40=PLANE('',#680);
#41=PLANE('',#690);
#42=PLANE('',#691);
#43=PLANE('',#692);
#44=PLANE('',#693);
#45=PLANE('',#694);
#46=PLANE('',#695);
#47=PLANE('',#696);
#48=PLANE('',#697);
#49=PLANE('',#698);
#50=PLANE('',#699);
#51=PLANE('',#700);
#52=PLANE('',#704);
#53=PLANE('',#708);
#54=PLANE('',#709);
#55=PLANE('',#710);
#56=PLANE('',#711);
#57=PLANE('',#712);
#58=PLANE('',#713);
#59=PLANE('',#716);
#60=PLANE('',#719);
#61=PLANE('',#720);
#62=FACE_OUTER_BOUND('',#100,.T.);
#63=FACE_OUTER_BOUND('',#101,.T.);
#64=FACE_OUTER_BOUND('',#102,.T.);
#65=FACE_OUTER_BOUND('',#103,.T.);
#66=FACE_OUTER_BOUND('',#104,.T.);
#67=FACE_OUTER_BOUND('',#105,.T.);
#68=FACE_OUTER_BOUND('',#106,.T.);
#69=FACE_OUTER_BOUND('',#107,.T.);
#70=FACE_OUTER_BOUND('',#108,.T.);
#71=FACE_OUTER_BOUND('',#109,.T.);
#72=FACE_OUTER_BOUND('',#110,.T.);
#73=FACE_OUTER_BOUND('',#111,.T.);
#74=FACE_OUTER_BOUND('',#112,.T.);
#75=FACE_OUTER_BOUND('',#113,.T.);
#76=FACE_OUTER_BOUND('',#114,.T.);
#77=FACE_OUTER_BOUND('',#115,.T.);
#78=FACE_OUTER_BOUND('',#116,.T.);
#79=FACE_OUTER_BOUND('',#117,.T.);
#80=FACE_OUTER_BOUND('',#118,.T.);
#81=FACE_OUTER_BOUND('',#119,.T.);
#82=FACE_OUTER_BOUND('',#120,.T.);
#83=FACE_OUTER_BOUND('',#121,.T.);
#84=FACE_OUTER_BOUND('',#122,.T.);
#85=FACE_OUTER_BOUND('',#123,.T.);
#86=FACE_OUTER_BOUND('',#124,.T.);
#87=FACE_OUTER_BOUND('',#125,.T.);
#88=FACE_OUTER_BOUND('',#126,.T.);
#89=FACE_OUTER_BOUND('',#127,.T.);
#90=FACE_OUTER_BOUND('',#128,.T.);
#91=FACE_OUTER_BOUND('',#129,.T.);
#92=FACE_OUTER_BOUND('',#130,.T.);
#93=FACE_OUTER_BOUND('',#131,.T.);
#94=FACE_OUTER_BOUND('',#132,.T.);
#95=FACE_OUTER_BOUND('',#133,.T.);
#96=FACE_OUTER_BOUND('',#134,.T.);
#97=FACE_OUTER_BOUND('',#135,.T.);
#98=FACE_OUTER_BOUND('',#136,.T.);
#99=FACE_OUTER_BOUND('',#137,.T.);
#100=EDGE_LOOP('',(#428,#429,#430,#431));
#101=EDGE_LOOP('',(#432,#433,#434,#435));
#102=EDGE_LOOP('',(#436,#437,#438,#439));
#103=EDGE_LOOP('',(#440,#441,#442,#443));
#104=EDGE_LOOP('',(#444,#445,#446,#447,#448));
#105=EDGE_LOOP('',(#449,#450,#451,#452,#453));
#106=EDGE_LOOP('',(#454,#455,#456,#457));
#107=EDGE_LOOP('',(#458,#459,#460,#461));
#108=EDGE_LOOP('',(#462,#463,#464,#465,#466,#467));
#109=EDGE_LOOP('',(#468,#469,#470,#471,#472));
#110=EDGE_LOOP('',(#473,#474,#475,#476,#477,#478));
#111=EDGE_LOOP('',(#479,#480,#481,#482,#483));
#112=EDGE_LOOP('',(#484,#485,#486,#487,#488,#489));
#113=EDGE_LOOP('',(#490,#491,#492,#493,#494,#495));
#114=EDGE_LOOP('',(#496,#497,#498,#499,#500,#501));
#115=EDGE_LOOP('',(#502,#503,#504,#505));
#116=EDGE_LOOP('',(#506,#507,#508,#509));
#117=EDGE_LOOP('',(#510,#511,#512,#513));
#118=EDGE_LOOP('',(#514,#515,#516,#517));
#119=EDGE_LOOP('',(#518,#519,#520,#521));
#120=EDGE_LOOP('',(#522,#523,#524,#525));
#121=EDGE_LOOP('',(#526,#527,#528,#529));
#122=EDGE_LOOP('',(#530,#531,#532,#533));
#123=EDGE_LOOP('',(#534,#535,#536,#537));
#124=EDGE_LOOP('',(#538,#539,#540,#541));
#125=EDGE_LOOP('',(#542,#543,#544,#545,#546,#547,#548,#549,#550,#551,#552,
#553,#554));
#126=EDGE_LOOP('',(#555,#556,#557,#558));
#127=EDGE_LOOP('',(#559,#560,#561,#562,#563,#564));
#128=EDGE_LOOP('',(#565,#566,#567,#568));
#129=EDGE_LOOP('',(#569,#570,#571,#572));
#130=EDGE_LOOP('',(#573,#574,#575,#576));
#131=EDGE_LOOP('',(#577,#578,#579,#580));
#132=EDGE_LOOP('',(#581,#582,#583,#584));
#133=EDGE_LOOP('',(#585,#586,#587,#588));
#134=EDGE_LOOP('',(#589,#590,#591,#592));
#135=EDGE_LOOP('',(#593,#594,#595,#596));
#136=EDGE_LOOP('',(#597,#598,#599,#600));
#137=EDGE_LOOP('',(#601,#602,#603,#604,#605,#606,#607,#608,#609,#610,#611));
#138=ELLIPSE('',#675,1.41421356237308,1.);
#139=ELLIPSE('',#678,1.41421356237313,1.);
#140=ELLIPSE('',#682,1.4142135623731,1.);
#141=ELLIPSE('',#683,1.41421356237309,1.);
#142=ELLIPSE('',#684,1.41421356237308,1.);
#143=ELLIPSE('',#686,1.41421356237309,1.);
#144=ELLIPSE('',#687,1.4142135623731,1.);
#145=ELLIPSE('',#688,1.41421356237313,1.);
#146=CIRCLE('',#674,1.);
#147=CIRCLE('',#677,1.);
#148=CIRCLE('',#702,8.00000000000001);
#149=CIRCLE('',#703,10.);
#150=CIRCLE('',#706,8.);
#151=CIRCLE('',#707,10.);
#152=CIRCLE('',#715,10.);
#153=CIRCLE('',#718,10.);
#154=LINE('',#892,#217);
#155=LINE('',#896,#218);
#156=LINE('',#901,#219);
#157=LINE('',#905,#220);
#158=LINE('',#908,#221);
#159=LINE('',#909,#222);
#160=LINE('',#911,#223);
#161=LINE('',#915,#224);
#162=LINE('',#921,#225);
#163=LINE('',#926,#226);
#164=LINE('',#932,#227);
#165=LINE('',#935,#228);
#166=LINE('',#936,#229);
#167=LINE('',#938,#230);
#168=LINE('',#940,#231);
#169=LINE('',#942,#232);
#170=LINE('',#944,#233);
#171=LINE('',#946,#234);
#172=LINE('',#947,#235);
#173=LINE('',#956,#236);
#174=LINE('',#958,#237);
#175=LINE('',#960,#238);
#176=LINE('',#961,#239);
#177=LINE('',#964,#240);
#178=LINE('',#966,#241);
#179=LINE('',#968,#242);
#180=LINE('',#969,#243);
#181=LINE('',#970,#244);
#182=LINE('',#987,#245);
#183=LINE('',#994,#246);
#184=LINE('',#996,#247);
#185=LINE('',#998,#248);
#186=LINE('',#1023,#249);
#187=LINE('',#1024,#250);
#188=LINE('',#1025,#251);
#189=LINE('',#1026,#252);
#190=LINE('',#1028,#253);
#191=LINE('',#1030,#254);
#192=LINE('',#1032,#255);
#193=LINE('',#1139,#256);
#194=LINE('',#1141,#257);
#195=LINE('',#1143,#258);
#196=LINE('',#1162,#259);
#197=LINE('',#1163,#260);
#198=LINE('',#1224,#261);
#199=LINE('',#1230,#262);
#200=LINE('',#1231,#263);
#201=LINE('',#1232,#264);
#202=LINE('',#1236,#265);
#203=LINE('',#1240,#266);
#204=LINE('',#1241,#267);
#205=LINE('',#1254,#268);
#206=LINE('',#1261,#269);
#207=LINE('',#1262,#270);
#208=LINE('',#1302,#271);
#209=LINE('',#1324,#272);
#210=LINE('',#1325,#273);
#211=LINE('',#1328,#274);
#212=LINE('',#1332,#275);
#213=LINE('',#1333,#276);
#214=LINE('',#1336,#277);
#215=LINE('',#1340,#278);
#216=LINE('',#1341,#279);
#217=VECTOR('',#728,10.);
#218=VECTOR('',#731,10.);
#219=VECTOR('',#736,10.);
#220=VECTOR('',#739,10.);
#221=VECTOR('',#744,10.);
#222=VECTOR('',#745,10.);
#223=VECTOR('',#748,10.);
#224=VECTOR('',#751,10.);
#225=VECTOR('',#756,10.);
#226=VECTOR('',#761,10.);
#227=VECTOR('',#766,10.);
#228=VECTOR('',#771,10.);
#229=VECTOR('',#772,10.);
#230=VECTOR('',#775,10.);
#231=VECTOR('',#778,10.);
#232=VECTOR('',#779,10.);
#233=VECTOR('',#780,10.);
#234=VECTOR('',#781,10.);
#235=VECTOR('',#782,10.);
#236=VECTOR('',#785,10.);
#237=VECTOR('',#786,10.);
#238=VECTOR('',#787,10.);
#239=VECTOR('',#788,10.);
#240=VECTOR('',#791,10.);
#241=VECTOR('',#792,10.);
#242=VECTOR('',#793,10.);
#243=VECTOR('',#794,10.);
#244=VECTOR('',#795,10.);
#245=VECTOR('',#796,10.);
#246=VECTOR('',#799,10.);
#247=VECTOR('',#800,10.);
#248=VECTOR('',#801,10.);
#249=VECTOR('',#804,10.);
#250=VECTOR('',#805,10.);
#251=VECTOR('',#806,10.);
#252=VECTOR('',#807,10.);
#253=VECTOR('',#810,10.);
#254=VECTOR('',#813,10.);
#255=VECTOR('',#816,10.);
#256=VECTOR('',#819,10.);
#257=VECTOR('',#820,10.);
#258=VECTOR('',#821,10.);
#259=VECTOR('',#824,10.);
#260=VECTOR('',#825,10.);
#261=VECTOR('',#828,10.);
#262=VECTOR('',#835,10.);
#263=VECTOR('',#836,10.);
#264=VECTOR('',#837,10.);
#265=VECTOR('',#840,10.);
#266=VECTOR('',#847,10.);
#267=VECTOR('',#848,10.);
#268=VECTOR('',#855,10.);
#269=VECTOR('',#858,10.);
#270=VECTOR('',#859,10.);
#271=VECTOR('',#860,10.);
#272=VECTOR('',#863,10.);
#273=VECTOR('',#864,10.);
#274=VECTOR('',#867,10.);
#275=VECTOR('',#872,10.);
#276=VECTOR('',#873,10.);
#277=VECTOR('',#876,10.);
#278=VECTOR('',#881,10.);
#279=VECTOR('',#882,10.);
#280=VERTEX_POINT('',#890);
#281=VERTEX_POINT('',#891);
#282=VERTEX_POINT('',#893);
#283=VERTEX_POINT('',#895);
#284=VERTEX_POINT('',#899);
#285=VERTEX_POINT('',#900);
#286=VERTEX_POINT('',#902);
#287=VERTEX_POINT('',#904);
#288=VERTEX_POINT('',#913);
#289=VERTEX_POINT('',#914);
#290=VERTEX_POINT('',#916);
#291=VERTEX_POINT('',#918);
#292=VERTEX_POINT('',#920);
#293=VERTEX_POINT('',#924);
#294=VERTEX_POINT('',#925);
#295=VERTEX_POINT('',#927);
#296=VERTEX_POINT('',#929);
#297=VERTEX_POINT('',#931);
#298=VERTEX_POINT('',#941);
#299=VERTEX_POINT('',#943);
#300=VERTEX_POINT('',#945);
#301=VERTEX_POINT('',#949);
#302=VERTEX_POINT('',#950);
#303=VERTEX_POINT('',#955);
#304=VERTEX_POINT('',#957);
#305=VERTEX_POINT('',#959);
#306=VERTEX_POINT('',#963);
#307=VERTEX_POINT('',#965);
#308=VERTEX_POINT('',#967);
#309=VERTEX_POINT('',#979);
#310=VERTEX_POINT('',#986);
#311=VERTEX_POINT('',#993);
#312=VERTEX_POINT('',#995);
#313=VERTEX_POINT('',#997);
#314=VERTEX_POINT('',#1022);
#315=VERTEX_POINT('',#1097);
#316=VERTEX_POINT('',#1114);
#317=VERTEX_POINT('',#1137);
#318=VERTEX_POINT('',#1138);
#319=VERTEX_POINT('',#1140);
#320=VERTEX_POINT('',#1142);
#321=VERTEX_POINT('',#1161);
#322=VERTEX_POINT('',#1222);
#323=VERTEX_POINT('',#1223);
#324=VERTEX_POINT('',#1228);
#325=VERTEX_POINT('',#1229);
#326=VERTEX_POINT('',#1234);
#327=VERTEX_POINT('',#1235);
#328=VERTEX_POINT('',#1253);
#329=VERTEX_POINT('',#1260);
#330=VERTEX_POINT('',#1301);
#331=VERTEX_POINT('',#1323);
#332=VERTEX_POINT('',#1327);
#333=VERTEX_POINT('',#1331);
#334=VERTEX_POINT('',#1335);
#335=VERTEX_POINT('',#1339);
#336=EDGE_CURVE('',#280,#281,#154,.T.);
#337=EDGE_CURVE('',#282,#281,#146,.T.);
#338=EDGE_CURVE('',#282,#283,#155,.T.);
#339=EDGE_CURVE('',#283,#280,#138,.T.);
#340=EDGE_CURVE('',#284,#285,#156,.T.);
#341=EDGE_CURVE('',#285,#286,#147,.F.);
#342=EDGE_CURVE('',#286,#287,#157,.T.);
#343=EDGE_CURVE('',#287,#284,#139,.T.);
#344=EDGE_CURVE('',#283,#284,#158,.T.);
#345=EDGE_CURVE('',#287,#280,#159,.T.);
#346=EDGE_CURVE('',#281,#286,#160,.T.);
#347=EDGE_CURVE('',#288,#289,#161,.T.);
#348=EDGE_CURVE('',#289,#290,#140,.T.);
#349=EDGE_CURVE('',#290,#291,#141,.T.);
#350=EDGE_CURVE('',#291,#292,#162,.T.);
#351=EDGE_CURVE('',#292,#288,#142,.T.);
#352=EDGE_CURVE('',#293,#294,#163,.T.);
#353=EDGE_CURVE('',#294,#295,#143,.T.);
#354=EDGE_CURVE('',#295,#296,#144,.T.);
#355=EDGE_CURVE('',#296,#297,#164,.T.);
#356=EDGE_CURVE('',#297,#293,#145,.T.);
#357=EDGE_CURVE('',#292,#293,#165,.T.);
#358=EDGE_CURVE('',#297,#288,#166,.T.);
#359=EDGE_CURVE('',#289,#296,#167,.T.);
#360=EDGE_CURVE('',#294,#282,#168,.T.);
#361=EDGE_CURVE('',#298,#282,#169,.T.);
#362=EDGE_CURVE('',#298,#299,#170,.F.);
#363=EDGE_CURVE('',#299,#300,#171,.T.);
#364=EDGE_CURVE('',#300,#295,#172,.T.);
#365=EDGE_CURVE('',#301,#302,#27,.T.);
#366=EDGE_CURVE('',#302,#303,#173,.T.);
#367=EDGE_CURVE('',#303,#304,#174,.F.);
#368=EDGE_CURVE('',#304,#305,#175,.T.);
#369=EDGE_CURVE('',#305,#301,#176,.T.);
#370=EDGE_CURVE('',#306,#302,#177,.T.);
#371=EDGE_CURVE('',#307,#306,#178,.T.);
#372=EDGE_CURVE('',#307,#308,#179,.T.);
#373=EDGE_CURVE('',#298,#308,#180,.T.);
#374=EDGE_CURVE('',#298,#303,#181,.T.);
#375=EDGE_CURVE('',#309,#301,#28,.T.);
#376=EDGE_CURVE('',#310,#309,#182,.T.);
#377=EDGE_CURVE('',#306,#310,#29,.T.);
#378=EDGE_CURVE('',#305,#311,#183,.T.);
#379=EDGE_CURVE('',#312,#311,#184,.T.);
#380=EDGE_CURVE('',#312,#313,#185,.T.);
#381=EDGE_CURVE('',#313,#309,#30,.T.);
#382=EDGE_CURVE('',#290,#314,#186,.T.);
#383=EDGE_CURVE('',#314,#304,#187,.T.);
#384=EDGE_CURVE('',#303,#285,#188,.T.);
#385=EDGE_CURVE('',#285,#291,#189,.T.);
#386=EDGE_CURVE('',#300,#314,#190,.T.);
#387=EDGE_CURVE('',#283,#293,#191,.T.);
#388=EDGE_CURVE('',#292,#284,#192,.T.);
#389=EDGE_CURVE('',#315,#312,#31,.T.);
#390=EDGE_CURVE('',#311,#316,#32,.T.);
#391=EDGE_CURVE('',#316,#315,#33,.T.);
#392=EDGE_CURVE('',#317,#318,#193,.T.);
#393=EDGE_CURVE('',#318,#319,#194,.T.);
#394=EDGE_CURVE('',#319,#320,#195,.T.);
#395=EDGE_CURVE('',#320,#317,#34,.T.);
#396=EDGE_CURVE('',#308,#321,#196,.T.);
#397=EDGE_CURVE('',#321,#299,#197,.T.);
#398=EDGE_CURVE('',#320,#321,#35,.T.);
#399=EDGE_CURVE('',#308,#317,#36,.T.);
#400=EDGE_CURVE('',#322,#323,#198,.T.);
#401=EDGE_CURVE('',#323,#319,#148,.T.);
#402=EDGE_CURVE('',#318,#322,#149,.T.);
#403=EDGE_CURVE('',#324,#325,#199,.T.);
#404=EDGE_CURVE('',#325,#323,#200,.T.);
#405=EDGE_CURVE('',#322,#324,#201,.T.);
#406=EDGE_CURVE('',#326,#327,#202,.T.);
#407=EDGE_CURVE('',#327,#325,#150,.T.);
#408=EDGE_CURVE('',#324,#326,#151,.T.);
#409=EDGE_CURVE('',#316,#327,#203,.T.);
#410=EDGE_CURVE('',#326,#315,#204,.T.);
#411=EDGE_CURVE('',#328,#313,#205,.T.);
#412=EDGE_CURVE('',#310,#328,#37,.T.);
#413=EDGE_CURVE('',#329,#312,#206,.T.);
#414=EDGE_CURVE('',#328,#329,#207,.T.);
#415=EDGE_CURVE('',#330,#315,#208,.T.);
#416=EDGE_CURVE('',#329,#330,#38,.T.);
#417=EDGE_CURVE('',#331,#326,#209,.T.);
#418=EDGE_CURVE('',#330,#331,#210,.T.);
#419=EDGE_CURVE('',#332,#324,#211,.T.);
#420=EDGE_CURVE('',#332,#331,#152,.T.);
#421=EDGE_CURVE('',#333,#322,#212,.T.);
#422=EDGE_CURVE('',#332,#333,#213,.T.);
#423=EDGE_CURVE('',#334,#318,#214,.T.);
#424=EDGE_CURVE('',#334,#333,#153,.T.);
#425=EDGE_CURVE('',#335,#317,#215,.T.);
#426=EDGE_CURVE('',#335,#334,#216,.T.);
#427=EDGE_CURVE('',#335,#307,#39,.T.);
#428=ORIENTED_EDGE('',*,*,#336,.T.);
#429=ORIENTED_EDGE('',*,*,#337,.F.);
#430=ORIENTED_EDGE('',*,*,#338,.T.);
#431=ORIENTED_EDGE('',*,*,#339,.T.);
#432=ORIENTED_EDGE('',*,*,#340,.T.);
#433=ORIENTED_EDGE('',*,*,#341,.T.);
#434=ORIENTED_EDGE('',*,*,#342,.T.);
#435=ORIENTED_EDGE('',*,*,#343,.T.);
#436=ORIENTED_EDGE('',*,*,#344,.T.);
#437=ORIENTED_EDGE('',*,*,#343,.F.);
#438=ORIENTED_EDGE('',*,*,#345,.T.);
#439=ORIENTED_EDGE('',*,*,#339,.F.);
#440=ORIENTED_EDGE('',*,*,#336,.F.);
#441=ORIENTED_EDGE('',*,*,#345,.F.);
#442=ORIENTED_EDGE('',*,*,#342,.F.);
#443=ORIENTED_EDGE('',*,*,#346,.F.);
#444=ORIENTED_EDGE('',*,*,#347,.T.);
#445=ORIENTED_EDGE('',*,*,#348,.T.);
#446=ORIENTED_EDGE('',*,*,#349,.T.);
#447=ORIENTED_EDGE('',*,*,#350,.T.);
#448=ORIENTED_EDGE('',*,*,#351,.T.);
#449=ORIENTED_EDGE('',*,*,#352,.T.);
#450=ORIENTED_EDGE('',*,*,#353,.T.);
#451=ORIENTED_EDGE('',*,*,#354,.T.);
#452=ORIENTED_EDGE('',*,*,#355,.T.);
#453=ORIENTED_EDGE('',*,*,#356,.T.);
#454=ORIENTED_EDGE('',*,*,#357,.T.);
#455=ORIENTED_EDGE('',*,*,#356,.F.);
#456=ORIENTED_EDGE('',*,*,#358,.T.);
#457=ORIENTED_EDGE('',*,*,#351,.F.);
#458=ORIENTED_EDGE('',*,*,#347,.F.);
#459=ORIENTED_EDGE('',*,*,#358,.F.);
#460=ORIENTED_EDGE('',*,*,#355,.F.);
#461=ORIENTED_EDGE('',*,*,#359,.F.);
#462=ORIENTED_EDGE('',*,*,#353,.F.);
#463=ORIENTED_EDGE('',*,*,#360,.T.);
#464=ORIENTED_EDGE('',*,*,#361,.F.);
#465=ORIENTED_EDGE('',*,*,#362,.T.);
#466=ORIENTED_EDGE('',*,*,#363,.T.);
#467=ORIENTED_EDGE('',*,*,#364,.T.);
#468=ORIENTED_EDGE('',*,*,#365,.T.);
#469=ORIENTED_EDGE('',*,*,#366,.T.);
#470=ORIENTED_EDGE('',*,*,#367,.T.);
#471=ORIENTED_EDGE('',*,*,#368,.T.);
#472=ORIENTED_EDGE('',*,*,#369,.T.);
#473=ORIENTED_EDGE('',*,*,#366,.F.);
#474=ORIENTED_EDGE('',*,*,#370,.F.);
#475=ORIENTED_EDGE('',*,*,#371,.F.);
#476=ORIENTED_EDGE('',*,*,#372,.T.);
#477=ORIENTED_EDGE('',*,*,#373,.F.);
#478=ORIENTED_EDGE('',*,*,#374,.T.);
#479=ORIENTED_EDGE('',*,*,#365,.F.);
#480=ORIENTED_EDGE('',*,*,#375,.F.);
#481=ORIENTED_EDGE('',*,*,#376,.F.);
#482=ORIENTED_EDGE('',*,*,#377,.F.);
#483=ORIENTED_EDGE('',*,*,#370,.T.);
#484=ORIENTED_EDGE('',*,*,#369,.F.);
#485=ORIENTED_EDGE('',*,*,#378,.T.);
#486=ORIENTED_EDGE('',*,*,#379,.F.);
#487=ORIENTED_EDGE('',*,*,#380,.T.);
#488=ORIENTED_EDGE('',*,*,#381,.T.);
#489=ORIENTED_EDGE('',*,*,#375,.T.);
#490=ORIENTED_EDGE('',*,*,#349,.F.);
#491=ORIENTED_EDGE('',*,*,#382,.T.);
#492=ORIENTED_EDGE('',*,*,#383,.T.);
#493=ORIENTED_EDGE('',*,*,#367,.F.);
#494=ORIENTED_EDGE('',*,*,#384,.T.);
#495=ORIENTED_EDGE('',*,*,#385,.T.);
#496=ORIENTED_EDGE('',*,*,#348,.F.);
#497=ORIENTED_EDGE('',*,*,#359,.T.);
#498=ORIENTED_EDGE('',*,*,#354,.F.);
#499=ORIENTED_EDGE('',*,*,#364,.F.);
#500=ORIENTED_EDGE('',*,*,#386,.T.);
#501=ORIENTED_EDGE('',*,*,#382,.F.);
#502=ORIENTED_EDGE('',*,*,#338,.F.);
#503=ORIENTED_EDGE('',*,*,#360,.F.);
#504=ORIENTED_EDGE('',*,*,#352,.F.);
#505=ORIENTED_EDGE('',*,*,#387,.F.);
#506=ORIENTED_EDGE('',*,*,#340,.F.);
#507=ORIENTED_EDGE('',*,*,#388,.F.);
#508=ORIENTED_EDGE('',*,*,#350,.F.);
#509=ORIENTED_EDGE('',*,*,#385,.F.);
#510=ORIENTED_EDGE('',*,*,#389,.T.);
#511=ORIENTED_EDGE('',*,*,#379,.T.);
#512=ORIENTED_EDGE('',*,*,#390,.T.);
#513=ORIENTED_EDGE('',*,*,#391,.T.);
#514=ORIENTED_EDGE('',*,*,#392,.T.);
#515=ORIENTED_EDGE('',*,*,#393,.T.);
#516=ORIENTED_EDGE('',*,*,#394,.T.);
#517=ORIENTED_EDGE('',*,*,#395,.T.);
#518=ORIENTED_EDGE('',*,*,#373,.T.);
#519=ORIENTED_EDGE('',*,*,#396,.T.);
#520=ORIENTED_EDGE('',*,*,#397,.T.);
#521=ORIENTED_EDGE('',*,*,#362,.F.);
#522=ORIENTED_EDGE('',*,*,#398,.T.);
#523=ORIENTED_EDGE('',*,*,#396,.F.);
#524=ORIENTED_EDGE('',*,*,#399,.T.);
#525=ORIENTED_EDGE('',*,*,#395,.F.);
#526=ORIENTED_EDGE('',*,*,#400,.T.);
#527=ORIENTED_EDGE('',*,*,#401,.T.);
#528=ORIENTED_EDGE('',*,*,#393,.F.);
#529=ORIENTED_EDGE('',*,*,#402,.T.);
#530=ORIENTED_EDGE('',*,*,#403,.T.);
#531=ORIENTED_EDGE('',*,*,#404,.T.);
#532=ORIENTED_EDGE('',*,*,#400,.F.);
#533=ORIENTED_EDGE('',*,*,#405,.T.);
#534=ORIENTED_EDGE('',*,*,#406,.T.);
#535=ORIENTED_EDGE('',*,*,#407,.T.);
#536=ORIENTED_EDGE('',*,*,#403,.F.);
#537=ORIENTED_EDGE('',*,*,#408,.T.);
#538=ORIENTED_EDGE('',*,*,#409,.T.);
#539=ORIENTED_EDGE('',*,*,#406,.F.);
#540=ORIENTED_EDGE('',*,*,#410,.T.);
#541=ORIENTED_EDGE('',*,*,#391,.F.);
#542=ORIENTED_EDGE('',*,*,#383,.F.);
#543=ORIENTED_EDGE('',*,*,#386,.F.);
#544=ORIENTED_EDGE('',*,*,#363,.F.);
#545=ORIENTED_EDGE('',*,*,#397,.F.);
#546=ORIENTED_EDGE('',*,*,#398,.F.);
#547=ORIENTED_EDGE('',*,*,#394,.F.);
#548=ORIENTED_EDGE('',*,*,#401,.F.);
#549=ORIENTED_EDGE('',*,*,#404,.F.);
#550=ORIENTED_EDGE('',*,*,#407,.F.);
#551=ORIENTED_EDGE('',*,*,#409,.F.);
#552=ORIENTED_EDGE('',*,*,#390,.F.);
#553=ORIENTED_EDGE('',*,*,#378,.F.);
#554=ORIENTED_EDGE('',*,*,#368,.F.);
#555=ORIENTED_EDGE('',*,*,#344,.F.);
#556=ORIENTED_EDGE('',*,*,#387,.T.);
#557=ORIENTED_EDGE('',*,*,#357,.F.);
#558=ORIENTED_EDGE('',*,*,#388,.T.);
#559=ORIENTED_EDGE('',*,*,#346,.T.);
#560=ORIENTED_EDGE('',*,*,#341,.F.);
#561=ORIENTED_EDGE('',*,*,#384,.F.);
#562=ORIENTED_EDGE('',*,*,#374,.F.);
#563=ORIENTED_EDGE('',*,*,#361,.T.);
#564=ORIENTED_EDGE('',*,*,#337,.T.);
#565=ORIENTED_EDGE('',*,*,#381,.F.);
#566=ORIENTED_EDGE('',*,*,#411,.F.);
#567=ORIENTED_EDGE('',*,*,#412,.F.);
#568=ORIENTED_EDGE('',*,*,#376,.T.);
#569=ORIENTED_EDGE('',*,*,#380,.F.);
#570=ORIENTED_EDGE('',*,*,#413,.F.);
#571=ORIENTED_EDGE('',*,*,#414,.F.);
#572=ORIENTED_EDGE('',*,*,#411,.T.);
#573=ORIENTED_EDGE('',*,*,#389,.F.);
#574=ORIENTED_EDGE('',*,*,#415,.F.);
#575=ORIENTED_EDGE('',*,*,#416,.F.);
#576=ORIENTED_EDGE('',*,*,#413,.T.);
#577=ORIENTED_EDGE('',*,*,#410,.F.);
#578=ORIENTED_EDGE('',*,*,#417,.F.);
#579=ORIENTED_EDGE('',*,*,#418,.F.);
#580=ORIENTED_EDGE('',*,*,#415,.T.);
#581=ORIENTED_EDGE('',*,*,#408,.F.);
#582=ORIENTED_EDGE('',*,*,#419,.F.);
#583=ORIENTED_EDGE('',*,*,#420,.T.);
#584=ORIENTED_EDGE('',*,*,#417,.T.);
#585=ORIENTED_EDGE('',*,*,#405,.F.);
#586=ORIENTED_EDGE('',*,*,#421,.F.);
#587=ORIENTED_EDGE('',*,*,#422,.F.);
#588=ORIENTED_EDGE('',*,*,#419,.T.);
#589=ORIENTED_EDGE('',*,*,#402,.F.);
#590=ORIENTED_EDGE('',*,*,#423,.F.);
#591=ORIENTED_EDGE('',*,*,#424,.T.);
#592=ORIENTED_EDGE('',*,*,#421,.T.);
#593=ORIENTED_EDGE('',*,*,#392,.F.);
#594=ORIENTED_EDGE('',*,*,#425,.F.);
#595=ORIENTED_EDGE('',*,*,#426,.T.);
#596=ORIENTED_EDGE('',*,*,#423,.T.);
#597=ORIENTED_EDGE('',*,*,#399,.F.);
#598=ORIENTED_EDGE('',*,*,#372,.F.);
#599=ORIENTED_EDGE('',*,*,#427,.F.);
#600=ORIENTED_EDGE('',*,*,#425,.T.);
#601=ORIENTED_EDGE('',*,*,#371,.T.);
#602=ORIENTED_EDGE('',*,*,#377,.T.);
#603=ORIENTED_EDGE('',*,*,#412,.T.);
#604=ORIENTED_EDGE('',*,*,#414,.T.);
#605=ORIENTED_EDGE('',*,*,#416,.T.);
#606=ORIENTED_EDGE('',*,*,#418,.T.);
#607=ORIENTED_EDGE('',*,*,#420,.F.);
#608=ORIENTED_EDGE('',*,*,#422,.T.);
#609=ORIENTED_EDGE('',*,*,#424,.F.);
#610=ORIENTED_EDGE('',*,*,#426,.F.);
#611=ORIENTED_EDGE('',*,*,#427,.T.);
#612=CYLINDRICAL_SURFACE('',#673,1.);
#613=CYLINDRICAL_SURFACE('',#676,1.);
#614=CYLINDRICAL_SURFACE('',#679,1.);
#615=CYLINDRICAL_SURFACE('',#681,1.);
#616=CYLINDRICAL_SURFACE('',#685,1.);
#617=CYLINDRICAL_SURFACE('',#689,1.);
#618=CYLINDRICAL_SURFACE('',#714,10.);
#619=CYLINDRICAL_SURFACE('',#717,10.);
#620=ADVANCED_FACE('',(#62),#612,.T.);
#621=ADVANCED_FACE('',(#63),#613,.T.);
#622=ADVANCED_FACE('',(#64),#614,.T.);
#623=ADVANCED_FACE('',(#65),#40,.T.);
#624=ADVANCED_FACE('',(#66),#615,.T.);
#625=ADVANCED_FACE('',(#67),#616,.T.);
#626=ADVANCED_FACE('',(#68),#617,.T.);
#627=ADVANCED_FACE('',(#69),#41,.T.);
#628=ADVANCED_FACE('',(#70),#42,.T.);
#629=ADVANCED_FACE('',(#71),#43,.T.);
#630=ADVANCED_FACE('',(#72),#44,.T.);
#631=ADVANCED_FACE('',(#73),#21,.T.);
#632=ADVANCED_FACE('',(#74),#45,.T.);
#633=ADVANCED_FACE('',(#75),#46,.T.);
#634=ADVANCED_FACE('',(#76),#47,.T.);
#635=ADVANCED_FACE('',(#77),#48,.T.);
#636=ADVANCED_FACE('',(#78),#49,.T.);
#637=ADVANCED_FACE('',(#79),#22,.T.);
#638=ADVANCED_FACE('',(#80),#50,.T.);
#639=ADVANCED_FACE('',(#81),#51,.T.);
#640=ADVANCED_FACE('',(#82),#23,.T.);
#641=ADVANCED_FACE('',(#83),#19,.T.);
#642=ADVANCED_FACE('',(#84),#52,.T.);
#643=ADVANCED_FACE('',(#85),#20,.T.);
#644=ADVANCED_FACE('',(#86),#53,.T.);
#645=ADVANCED_FACE('',(#87),#54,.T.);
#646=ADVANCED_FACE('',(#88),#55,.T.);
#647=ADVANCED_FACE('',(#89),#56,.T.);
#648=ADVANCED_FACE('',(#90),#24,.T.);
#649=ADVANCED_FACE('',(#91),#57,.T.);
#650=ADVANCED_FACE('',(#92),#25,.T.);
#651=ADVANCED_FACE('',(#93),#58,.T.);
#652=ADVANCED_FACE('',(#94),#618,.T.);
#653=ADVANCED_FACE('',(#95),#59,.T.);
#654=ADVANCED_FACE('',(#96),#619,.T.);
#655=ADVANCED_FACE('',(#97),#60,.T.);
#656=ADVANCED_FACE('',(#98),#26,.T.);
#657=ADVANCED_FACE('',(#99),#61,.F.);
#658=CLOSED_SHELL('',(#620,#621,#622,#623,#624,#625,#626,#627,#628,#629,
#630,#631,#632,#633,#634,#635,#636,#637,#638,#639,#640,#641,#642,#643,#644,
#645,#646,#647,#648,#649,#650,#651,#652,#653,#654,#655,#656,#657));
#659=DERIVED_UNIT_ELEMENT(#661,1.);
#660=DERIVED_UNIT_ELEMENT(#1381,-3.);
#661=(
MASS_UNIT()
NAMED_UNIT(*)
SI_UNIT(.KILO.,.GRAM.)
);
#662=DERIVED_UNIT((#659,#660));
#663=MEASURE_REPRESENTATION_ITEM('density measure',
POSITIVE_RATIO_MEASURE(7850.),#662);
#664=PROPERTY_DEFINITION_REPRESENTATION(#669,#666);
#665=PROPERTY_DEFINITION_REPRESENTATION(#670,#667);
#666=REPRESENTATION('material name',(#668),#1378);
#667=REPRESENTATION('density',(#663),#1378);
#668=DESCRIPTIVE_REPRESENTATION_ITEM('Steel','Steel');
#669=PROPERTY_DEFINITION('material property','material name',#1393);
#670=PROPERTY_DEFINITION('material property','density of part',#1393);
#671=AXIS2_PLACEMENT_3D('',#887,#722,#723);
#672=AXIS2_PLACEMENT_3D('',#888,#724,#725);
#673=AXIS2_PLACEMENT_3D('',#889,#726,#727);
#674=AXIS2_PLACEMENT_3D('',#894,#729,#730);
#675=AXIS2_PLACEMENT_3D('',#897,#732,#733);
#676=AXIS2_PLACEMENT_3D('',#898,#734,#735);
#677=AXIS2_PLACEMENT_3D('',#903,#737,#738);
#678=AXIS2_PLACEMENT_3D('',#906,#740,#741);
#679=AXIS2_PLACEMENT_3D('',#907,#742,#743);
#680=AXIS2_PLACEMENT_3D('',#910,#746,#747);
#681=AXIS2_PLACEMENT_3D('',#912,#749,#750);
#682=AXIS2_PLACEMENT_3D('',#917,#752,#753);
#683=AXIS2_PLACEMENT_3D('',#919,#754,#755);
#684=AXIS2_PLACEMENT_3D('',#922,#757,#758);
#685=AXIS2_PLACEMENT_3D('',#923,#759,#760);
#686=AXIS2_PLACEMENT_3D('',#928,#762,#763);
#687=AXIS2_PLACEMENT_3D('',#930,#764,#765);
#688=AXIS2_PLACEMENT_3D('',#933,#767,#768);
#689=AXIS2_PLACEMENT_3D('',#934,#769,#770);
#690=AXIS2_PLACEMENT_3D('',#937,#773,#774);
#691=AXIS2_PLACEMENT_3D('',#939,#776,#777);
#692=AXIS2_PLACEMENT_3D('',#948,#783,#784);
#693=AXIS2_PLACEMENT_3D('',#962,#789,#790);
#694=AXIS2_PLACEMENT_3D('',#992,#797,#798);
#695=AXIS2_PLACEMENT_3D('',#1021,#802,#803);
#696=AXIS2_PLACEMENT_3D('',#1027,#808,#809);
#697=AXIS2_PLACEMENT_3D('',#1029,#811,#812);
#698=AXIS2_PLACEMENT_3D('',#1031,#814,#815);
#699=AXIS2_PLACEMENT_3D('',#1136,#817,#818);
#700=AXIS2_PLACEMENT_3D('',#1160,#822,#823);
#701=AXIS2_PLACEMENT_3D('',#1221,#826,#827);
#702=AXIS2_PLACEMENT_3D('',#1225,#829,#830);
#703=AXIS2_PLACEMENT_3D('',#1226,#831,#832);
#704=AXIS2_PLACEMENT_3D('',#1227,#833,#834);
#705=AXIS2_PLACEMENT_3D('',#1233,#838,#839);
#706=AXIS2_PLACEMENT_3D('',#1237,#841,#842);
#707=AXIS2_PLACEMENT_3D('',#1238,#843,#844);
#708=AXIS2_PLACEMENT_3D('',#1239,#845,#846);
#709=AXIS2_PLACEMENT_3D('',#1242,#849,#850);
#710=AXIS2_PLACEMENT_3D('',#1243,#851,#852);
#711=AXIS2_PLACEMENT_3D('',#1244,#853,#854);
#712=AXIS2_PLACEMENT_3D('',#1259,#856,#857);
#713=AXIS2_PLACEMENT_3D('',#1322,#861,#862);
#714=AXIS2_PLACEMENT_3D('',#1326,#865,#866);
#715=AXIS2_PLACEMENT_3D('',#1329,#868,#869);
#716=AXIS2_PLACEMENT_3D('',#1330,#870,#871);
#717=AXIS2_PLACEMENT_3D('',#1334,#874,#875);
#718=AXIS2_PLACEMENT_3D('',#1337,#877,#878);
#719=AXIS2_PLACEMENT_3D('',#1338,#879,#880);
#720=AXIS2_PLACEMENT_3D('',#1372,#883,#884);
#721=AXIS2_PLACEMENT_3D('',#1373,#885,#886);
#722=DIRECTION('axis',(0.,0.,1.));
#723=DIRECTION('refdir',(1.,0.,0.));
#724=DIRECTION('axis',(0.,0.,1.));
#725=DIRECTION('refdir',(1.,0.,0.));
#726=DIRECTION('center_axis',(0.,0.,-1.));
#727=DIRECTION('ref_axis',(-0.707106781186573,-0.707106781186523,0.));
#728=DIRECTION('',(0.,0.,1.));
#729=DIRECTION('center_axis',(0.,0.,1.));
#730=DIRECTION('ref_axis',(-0.707106781186573,-0.707106781186523,0.));
#731=DIRECTION('',(0.,0.,-1.));
#732=DIRECTION('center_axis',(-0.707106781186542,0.,0.707106781186553));
#733=DIRECTION('ref_axis',(0.707106781186553,0.,0.707106781186542));
#734=DIRECTION('center_axis',(0.,0.,-1.));
#735=DIRECTION('ref_axis',(0.707106781186522,-0.707106781186573,0.));
#736=DIRECTION('',(0.,0.,1.));
#737=DIRECTION('center_axis',(0.,0.,1.));
#738=DIRECTION('ref_axis',(0.707106781186522,-0.707106781186573,0.));
#739=DIRECTION('',(0.,0.,-1.));
#740=DIRECTION('center_axis',(0.707106781186567,0.,0.707106781186528));
#741=DIRECTION('ref_axis',(-0.707106781186528,0.,0.707106781186567));
#742=DIRECTION('center_axis',(-1.,0.,0.));
#743=DIRECTION('ref_axis',(0.,-0.707106781186552,-0.707106781186543));
#744=DIRECTION('',(1.,0.,0.));
#745=DIRECTION('',(-1.,0.,0.));
#746=DIRECTION('center_axis',(0.,-1.,0.));
#747=DIRECTION('ref_axis',(-1.,0.,0.));
#748=DIRECTION('',(1.,0.,0.));
#749=DIRECTION('center_axis',(0.,0.,-1.));
#750=DIRECTION('ref_axis',(0.707106781186573,0.707106781186523,0.));
#751=DIRECTION('',(0.,0.,1.));
#752=DIRECTION('center_axis',(0.,-0.707106781186549,-0.707106781186546));
#753=DIRECTION('ref_axis',(-1.47196168001604E-16,0.707106781186546,-0.707106781186549));
#754=DIRECTION('center_axis',(-0.707106781186543,0.,-0.707106781186552));
#755=DIRECTION('ref_axis',(0.707106781186552,-4.90653893338683E-17,-0.707106781186543));
#756=DIRECTION('',(0.,0.,-1.));
#757=DIRECTION('center_axis',(0.707106781186542,0.,0.707106781186553));
#758=DIRECTION('ref_axis',(-0.707106781186553,0.,0.707106781186542));
#759=DIRECTION('center_axis',(0.,0.,-1.));
#760=DIRECTION('ref_axis',(-0.707106781186522,0.707106781186573,0.));
#761=DIRECTION('',(0.,0.,1.));
#762=DIRECTION('center_axis',(0.707106781186543,0.,-0.707106781186552));
#763=DIRECTION('ref_axis',(-0.707106781186552,-4.90653893338683E-17,-0.707106781186543));
#764=DIRECTION('center_axis',(0.,-0.707106781186549,-0.707106781186546));
#765=DIRECTION('ref_axis',(-4.90653893338679E-17,0.707106781186546,-0.707106781186549));
#766=DIRECTION('',(0.,0.,-1.));
#767=DIRECTION('center_axis',(-0.707106781186567,0.,0.707106781186528));
#768=DIRECTION('ref_axis',(0.707106781186528,0.,0.707106781186567));
#769=DIRECTION('center_axis',(1.,0.,0.));
#770=DIRECTION('ref_axis',(0.,0.707106781186552,-0.707106781186543));
#771=DIRECTION('',(-1.,0.,0.));
#772=DIRECTION('',(1.,0.,0.));
#773=DIRECTION('center_axis',(0.,1.,0.));
#774=DIRECTION('ref_axis',(1.,0.,0.));
#775=DIRECTION('',(-1.,0.,0.));
#776=DIRECTION('center_axis',(-0.707106781186543,0.,0.707106781186552));
#777=DIRECTION('ref_axis',(0.707106781186552,0.,0.707106781186543));
#778=DIRECTION('',(0.,-1.,0.));
#779=DIRECTION('',(0.,1.,0.));
#780=DIRECTION('',(-0.577350269189632,0.577350269189622,-0.577350269189624));
#781=DIRECTION('',(0.,1.,0.));
#782=DIRECTION('',(-0.577350269189632,0.577350269189622,-0.577350269189624));
#783=DIRECTION('center_axis',(2.77778507270324E-16,0.707106781186549,0.707106781186546));
#784=DIRECTION('ref_axis',(1.,0.,-3.92838132317447E-16));
#785=DIRECTION('',(-1.,3.92838132317445E-16,0.));
#786=DIRECTION('',(0.577350269189632,0.577350269189621,-0.577350269189624));
#787=DIRECTION('',(1.,-3.92838132317445E-16,0.));
#788=DIRECTION('',(0.186092043650548,0.694755263128664,-0.694755263128667));
#789=DIRECTION('center_axis',(3.92838132317445E-16,1.,0.));
#790=DIRECTION('ref_axis',(-1.,3.92838132317445E-16,0.));
#791=DIRECTION('',(0.,0.,1.));
#792=DIRECTION('',(1.,-3.92838132317445E-16,0.));
#793=DIRECTION('',(0.,0.,1.));
#794=DIRECTION('',(-1.,3.92838132317445E-16,0.));
#795=DIRECTION('',(1.,-3.92838132317445E-16,0.));
#796=DIRECTION('',(0.,0.,1.));
#797=DIRECTION('center_axis',(0.35344307166616,0.612436115110136,0.707106781186544));
#798=DIRECTION('ref_axis',(0.894483004968087,0.,-0.447101950144774));
#799=DIRECTION('',(0.866115460075839,-0.499843985477086,0.));
#800=DIRECTION('',(-0.353605757349551,-0.612342198749406,0.707106781186543));
#801=DIRECTION('',(-0.866115460075839,0.499843985477086,0.));
#802=DIRECTION('center_axis',(0.707106781186543,0.,0.707106781186552));
#803=DIRECTION('ref_axis',(0.707106781186552,0.,-0.707106781186543));
#804=DIRECTION('',(-0.577350269189632,-0.577350269189622,0.577350269189624));
#805=DIRECTION('',(0.,-1.,0.));
#806=DIRECTION('',(0.,1.,0.));
#807=DIRECTION('',(0.,1.,0.));
#808=DIRECTION('center_axis',(0.,0.707106781186549,0.707106781186546));
#809=DIRECTION('ref_axis',(1.,0.,0.));
#810=DIRECTION('',(1.,0.,0.));
#811=DIRECTION('center_axis',(-1.,0.,0.));
#812=DIRECTION('ref_axis',(0.,1.,0.));
#813=DIRECTION('',(0.,1.,0.));
#814=DIRECTION('center_axis',(1.,0.,0.));
#815=DIRECTION('ref_axis',(0.,-1.,0.));
#816=DIRECTION('',(0.,-1.,0.));
#817=DIRECTION('center_axis',(-0.707106781186543,0.,0.707106781186552));
#818=DIRECTION('ref_axis',(0.707106781186552,0.,0.707106781186543));
#819=DIRECTION('',(0.,-1.,0.));
#820=DIRECTION('',(0.707106781186552,0.,0.707106781186543));
#821=DIRECTION('',(0.,1.,0.));
#822=DIRECTION('center_axis',(2.77778507270324E-16,0.707106781186549,0.707106781186546));
#823=DIRECTION('ref_axis',(1.,0.,-3.92838132317447E-16));
#824=DIRECTION('',(0.,-0.707106781186546,0.707106781186549));
#825=DIRECTION('',(1.,-3.92838132317445E-16,0.));
#826=DIRECTION('center_axis',(0.,0.,-1.));
#827=DIRECTION('ref_axis',(-1.,0.,0.));
#828=DIRECTION('',(0.,0.707106781186552,0.707106781186543));
#829=DIRECTION('center_axis',(0.,0.,-1.));
#830=DIRECTION('ref_axis',(-1.,0.,0.));
#831=DIRECTION('center_axis',(0.,0.,1.));
#832=DIRECTION('ref_axis',(-1.,0.,0.));
#833=DIRECTION('center_axis',(0.,-0.707106781186543,0.707106781186552));
#834=DIRECTION('ref_axis',(1.,0.,0.));
#835=DIRECTION('',(0.,0.707106781186552,0.707106781186543));
#836=DIRECTION('',(-1.,0.,0.));
#837=DIRECTION('',(1.,0.,0.));
#838=DIRECTION('center_axis',(0.,0.,-1.));
#839=DIRECTION('ref_axis',(0.,-1.,0.));
#840=DIRECTION('',(-0.614215234211585,0.350342184246203,0.707106781186553));
#841=DIRECTION('center_axis',(0.,0.,-1.));
#842=DIRECTION('ref_axis',(0.,-1.,0.));
#843=DIRECTION('center_axis',(0.,0.,1.));
#844=DIRECTION('ref_axis',(0.,-1.,0.));
#845=DIRECTION('center_axis',(0.614215234211599,-0.35034218424622,0.707106781186532));
#846=DIRECTION('ref_axis',(0.754954452515762,0.,-0.655777229420652));
#847=DIRECTION('',(-0.495458668432407,-0.868631514438191,0.));
#848=DIRECTION('',(0.495458668432407,0.868631514438191,0.));
#849=DIRECTION('center_axis',(0.,0.,1.));
#850=DIRECTION('ref_axis',(1.,0.,0.));
#851=DIRECTION('center_axis',(0.,0.,-1.));
#852=DIRECTION('ref_axis',(-1.,0.,0.));
#853=DIRECTION('center_axis',(0.,0.,-1.));
#854=DIRECTION('ref_axis',(-1.,0.,0.));
#855=DIRECTION('',(0.,0.,1.));
#856=DIRECTION('center_axis',(0.499843985477087,0.866115460075839,0.));
#857=DIRECTION('ref_axis',(-0.866115460075839,0.499843985477086,0.));
#858=DIRECTION('',(0.,0.,1.));
#859=DIRECTION('',(0.866115460075839,-0.499843985477086,0.));
#860=DIRECTION('',(0.,0.,1.));
#861=DIRECTION('center_axis',(0.868631514438191,-0.495458668432407,0.));
#862=DIRECTION('ref_axis',(0.495458668432407,0.868631514438191,0.));
#863=DIRECTION('',(0.,0.,1.));
#864=DIRECTION('',(-0.495458668432407,-0.868631514438191,0.));
#865=DIRECTION('center_axis',(0.,0.,1.));
#866=DIRECTION('ref_axis',(0.,-1.,0.));
#867=DIRECTION('',(0.,0.,1.));
#868=DIRECTION('center_axis',(0.,0.,1.));
#869=DIRECTION('ref_axis',(0.,-1.,0.));
#870=DIRECTION('center_axis',(0.,-1.,0.));
#871=DIRECTION('ref_axis',(1.,0.,0.));
#872=DIRECTION('',(0.,0.,1.));
#873=DIRECTION('',(-1.,0.,0.));
#874=DIRECTION('center_axis',(0.,0.,1.));
#875=DIRECTION('ref_axis',(-1.,0.,0.));
#876=DIRECTION('',(0.,0.,1.));
#877=DIRECTION('center_axis',(0.,0.,1.));
#878=DIRECTION('ref_axis',(-1.,0.,0.));
#879=DIRECTION('center_axis',(-1.,0.,0.));
#880=DIRECTION('ref_axis',(0.,-1.,0.));
#881=DIRECTION('',(0.,0.,1.));
#882=DIRECTION('',(0.,-1.,0.));
#883=DIRECTION('center_axis',(0.,0.,1.));
#884=DIRECTION('ref_axis',(1.,0.,0.));
#885=DIRECTION('',(0.,0.,1.));
#886=DIRECTION('',(1.,0.,0.));
#887=CARTESIAN_POINT('',(0.,0.,0.));
#888=CARTESIAN_POINT('',(0.,0.,0.));
#889=CARTESIAN_POINT('Origin',(-566.679946990013,-281.540673161466,23.));
#890=CARTESIAN_POINT('',(-566.679946990013,-282.540673161466,17.));
#891=CARTESIAN_POINT('',(-566.679946990013,-282.540673161466,21.));
#892=CARTESIAN_POINT('',(-566.679946990013,-282.540673161466,23.));
#893=CARTESIAN_POINT('',(-567.679946990013,-281.540673161466,21.));
#894=CARTESIAN_POINT('Origin',(-566.679946990013,-281.540673161466,21.));
#895=CARTESIAN_POINT('',(-567.679946990013,-281.540673161466,16.));
#896=CARTESIAN_POINT('',(-567.679946990013,-281.540673161466,23.));
#897=CARTESIAN_POINT('Origin',(-566.679946990013,-281.540673161466,17.));
#898=CARTESIAN_POINT('Origin',(-538.679946990013,-281.540673161466,23.));
#899=CARTESIAN_POINT('',(-537.679946990013,-281.540673161466,16.));
#900=CARTESIAN_POINT('',(-537.679946990013,-281.540673161466,21.));
#901=CARTESIAN_POINT('',(-537.679946990013,-281.540673161466,23.));
#902=CARTESIAN_POINT('',(-538.679946990013,-282.540673161466,21.));
#903=CARTESIAN_POINT('Origin',(-538.679946990013,-281.540673161466,21.));
#904=CARTESIAN_POINT('',(-538.679946990013,-282.540673161466,17.));
#905=CARTESIAN_POINT('',(-538.679946990013,-282.540673161466,23.));
#906=CARTESIAN_POINT('Origin',(-538.679946990013,-281.540673161466,17.));
#907=CARTESIAN_POINT('Origin',(-545.179946990013,-281.540673161466,17.));
#908=CARTESIAN_POINT('',(-545.179946990013,-281.540673161466,16.));
#909=CARTESIAN_POINT('',(-545.179946990013,-282.540673161466,17.));
#910=CARTESIAN_POINT('Origin',(-537.679946990013,-282.540673161466,23.));
#911=CARTESIAN_POINT('',(-567.679946990013,-282.540673161466,21.));
#912=CARTESIAN_POINT('Origin',(-538.679946990013,-279.540673161466,23.));
#913=CARTESIAN_POINT('',(-538.679946990013,-278.540673161466,17.));
#914=CARTESIAN_POINT('',(-538.679946990013,-278.540673161466,21.));
#915=CARTESIAN_POINT('',(-538.679946990013,-278.540673161466,23.));
#916=CARTESIAN_POINT('',(-537.972840208826,-278.83356638028,21.2928932188135));
#917=CARTESIAN_POINT('Origin',(-538.679946990013,-279.540673161466,22.));
#918=CARTESIAN_POINT('',(-537.679946990013,-279.540673161466,21.));
#919=CARTESIAN_POINT('Origin',(-538.679946990013,-279.540673161466,22.));
#920=CARTESIAN_POINT('',(-537.679946990013,-279.540673161466,16.));
#921=CARTESIAN_POINT('',(-537.679946990013,-279.540673161466,23.));
#922=CARTESIAN_POINT('Origin',(-538.679946990013,-279.540673161466,17.));
#923=CARTESIAN_POINT('Origin',(-566.679946990013,-279.540673161466,23.));
#924=CARTESIAN_POINT('',(-567.679946990013,-279.540673161466,16.));
#925=CARTESIAN_POINT('',(-567.679946990013,-279.540673161466,21.));
#926=CARTESIAN_POINT('',(-567.679946990013,-279.540673161466,23.));
#927=CARTESIAN_POINT('',(-567.387053771199,-278.83356638028,21.2928932188134));
#928=CARTESIAN_POINT('Origin',(-566.679946990013,-279.540673161466,21.9999999999999));
#929=CARTESIAN_POINT('',(-566.679946990013,-278.540673161466,21.));
#930=CARTESIAN_POINT('Origin',(-566.679946990013,-279.540673161466,22.));
#931=CARTESIAN_POINT('',(-566.679946990013,-278.540673161466,17.));
#932=CARTESIAN_POINT('',(-566.679946990013,-278.540673161466,23.));
#933=CARTESIAN_POINT('Origin',(-566.679946990013,-279.540673161466,17.));
#934=CARTESIAN_POINT('Origin',(-560.179946990013,-279.540673161466,17.));
#935=CARTESIAN_POINT('',(-560.179946990013,-279.540673161466,16.));
#936=CARTESIAN_POINT('',(-560.179946990013,-278.540673161466,17.));
#937=CARTESIAN_POINT('Origin',(-567.679946990013,-278.540673161466,23.));
#938=CARTESIAN_POINT('',(-564.679088261964,-278.540673161466,21.));
#939=CARTESIAN_POINT('Origin',(-566.679946990013,-309.616356903724,22.));
#940=CARTESIAN_POINT('',(-567.679946990013,-309.616356903724,21.));
#941=CARTESIAN_POINT('',(-567.679946990013,-291.040673161466,21.));
#942=CARTESIAN_POINT('',(-567.679946990013,-291.040673161466,21.));
#943=CARTESIAN_POINT('',(-565.679946990013,-293.040673161466,23.));
#944=CARTESIAN_POINT('',(-560.083856578295,-298.636763573184,28.5960904117178));
#945=CARTESIAN_POINT('',(-565.679946990013,-280.540673161466,23.));
#946=CARTESIAN_POINT('',(-565.679946990013,-309.616356903724,23.));
#947=CARTESIAN_POINT('',(-565.679946990013,-280.540673161466,23.));
#948=CARTESIAN_POINT('Origin',(-544.679088261964,-292.040673161466,22.));
#949=CARTESIAN_POINT('',(-527.62759733239,-291.052343779116,21.0116706176507));
#950=CARTESIAN_POINT('',(-527.679946990013,-291.040673161466,21.));
#951=CARTESIAN_POINT('Ctrl Pts',(-527.62759733239,-291.052343779116,21.01167061765));
#952=CARTESIAN_POINT('Ctrl Pts',(-527.644481609571,-291.048398538399,21.0077253769325));
#953=CARTESIAN_POINT('Ctrl Pts',(-527.662768699916,-291.044287557732,21.0036143962657));
#954=CARTESIAN_POINT('Ctrl Pts',(-527.679946990013,-291.040673161466,21.));
#955=CARTESIAN_POINT('',(-537.679946990013,-291.040673161466,21.));
#956=CARTESIAN_POINT('',(-544.679088261964,-291.040673161466,21.));
#957=CARTESIAN_POINT('',(-539.679946990013,-293.040673161466,23.));
#958=CARTESIAN_POINT('',(-541.900751159048,-295.261477330501,25.2208041690349));
#959=CARTESIAN_POINT('',(-528.160176641749,-293.040673161466,23.));
#960=CARTESIAN_POINT('',(-544.679088261964,-293.040673161466,23.));
#961=CARTESIAN_POINT('',(-528.269752752447,-293.449764158197,23.4090909967313));
#962=CARTESIAN_POINT('Origin',(-527.679946990013,-291.040673161466,0.));
#963=CARTESIAN_POINT('',(-527.679946990013,-291.040673161466,0.));
#964=CARTESIAN_POINT('',(-527.679946990013,-291.040673161466,0.));
#965=CARTESIAN_POINT('',(-618.117035106744,-291.040673161466,0.));
#966=CARTESIAN_POINT('',(-618.117035106744,-291.040673161466,0.));
#967=CARTESIAN_POINT('',(-618.117035106744,-291.040673161466,21.));
#968=CARTESIAN_POINT('',(-618.117035106744,-291.040673161466,0.));
#969=CARTESIAN_POINT('',(-544.679088261964,-291.040673161466,21.));
#970=CARTESIAN_POINT('',(-540.179946990013,-291.040673161466,21.));
#971=CARTESIAN_POINT('Ctrl Pts',(-527.598612973674,-291.059307386144,0.));
#972=CARTESIAN_POINT('Ctrl Pts',(-527.598612973674,-291.059307386144,23.));
#973=CARTESIAN_POINT('Ctrl Pts',(-527.604268694061,-291.057863950971,0.));
#974=CARTESIAN_POINT('Ctrl Pts',(-527.604268694061,-291.057863950971,23.));
#975=CARTESIAN_POINT('Ctrl Pts',(-527.642047404875,-291.048647419569,0.));
#976=CARTESIAN_POINT('Ctrl Pts',(-527.642047404875,-291.048647419569,23.));
#977=CARTESIAN_POINT('Ctrl Pts',(-527.679946990013,-291.040673161466,0.));
#978=CARTESIAN_POINT('Ctrl Pts',(-527.679946990013,-291.040673161466,23.));
#979=CARTESIAN_POINT('',(-527.598612973667,-291.059307386126,21.0032142479592));
#980=CARTESIAN_POINT('Ctrl Pts',(-527.598612973674,-291.059307386144,21.0032142479788));
#981=CARTESIAN_POINT('Ctrl Pts',(-527.601622744338,-291.05853924194,21.0040533621716));
#982=CARTESIAN_POINT('Ctrl Pts',(-527.612489272879,-291.05587629031,21.0071785075303));
#983=CARTESIAN_POINT('Ctrl Pts',(-527.627324781609,-291.052407474865,21.0115895526551));
#984=CARTESIAN_POINT('Ctrl Pts',(-527.627461015163,-291.052375631488,21.0116300681364));
#985=CARTESIAN_POINT('Ctrl Pts',(-527.62759733239,-291.052343779116,21.0116706176509));
#986=CARTESIAN_POINT('',(-527.598612973667,-291.059307386126,0.));
#987=CARTESIAN_POINT('',(-527.598612973667,-291.059307386126,0.));
#988=CARTESIAN_POINT('Ctrl Pts',(-527.679946990013,-291.040673161466,0.));
#989=CARTESIAN_POINT('Ctrl Pts',(-527.642047404875,-291.048647419569,0.));
#990=CARTESIAN_POINT('Ctrl Pts',(-527.604268694061,-291.057863950971,0.));
#991=CARTESIAN_POINT('Ctrl Pts',(-527.598612973674,-291.059307386144,0.));
#992=CARTESIAN_POINT('Origin',(-523.552330998786,-294.545326975783,22.));
#993=CARTESIAN_POINT('',(-510.018686780209,-303.510310086702,23.));
#994=CARTESIAN_POINT('',(-524.052174984263,-295.411442435859,23.));
#995=CARTESIAN_POINT('',(-509.018538664655,-301.778344802133,21.));
#996=CARTESIAN_POINT('',(-509.018538664655,-301.778344802133,21.));
#997=CARTESIAN_POINT('',(-527.585068789397,-291.063412763815,21.));
#998=CARTESIAN_POINT('',(-523.052487013309,-293.679211515707,21.));
#999=CARTESIAN_POINT('Ctrl Pts',(-527.585068789397,-291.063412763815,21.));
#1000=CARTESIAN_POINT('Ctrl Pts',(-527.586438517921,-291.062986335046,21.0003153140148));
#1001=CARTESIAN_POINT('Ctrl Pts',(-527.587824062723,-291.062558437896,21.0006402939073));
#1002=CARTESIAN_POINT('Ctrl Pts',(-527.589217540035,-291.062131367268,21.0009670839886));
#1003=CARTESIAN_POINT('Ctrl Pts',(-527.59047613257,-291.061745635904,21.0012622416875));
#1004=CARTESIAN_POINT('Ctrl Pts',(-527.591742286637,-291.061360282886,21.0015588760936));
#1005=CARTESIAN_POINT('Ctrl Pts',(-527.592973127168,-291.060988305072,21.0018511990537));
#1006=CARTESIAN_POINT('Ctrl Pts',(-527.593105037731,-291.060948439792,21.001882527634));
#1007=CARTESIAN_POINT('Ctrl Pts',(-527.593236494425,-291.06090874254,21.0019138066944));
#1008=CARTESIAN_POINT('Ctrl Pts',(-527.59336740668,-291.060869240546,21.0019450291103));
#1009=CARTESIAN_POINT('Ctrl Pts',(-527.594015344873,-291.060673729053,21.0020995615925));
#1010=CARTESIAN_POINT('Ctrl Pts',(-527.594660031431,-291.060479929711,21.0022635488484));
#1011=CARTESIAN_POINT('Ctrl Pts',(-527.595320335575,-291.060282359218,21.0024271138465));
#1012=CARTESIAN_POINT('Ctrl Pts',(-527.595885835156,-291.060113155326,21.0025671946542));
#1013=CARTESIAN_POINT('Ctrl Pts',(-527.596463504809,-291.059940989493,21.0027069657525));
#1014=CARTESIAN_POINT('Ctrl Pts',(-527.597029502974,-291.059773261598,21.0028402228639));
#1015=CARTESIAN_POINT('Ctrl Pts',(-527.597523649227,-291.059626826298,21.002956563351));
#1016=CARTESIAN_POINT('Ctrl Pts',(-527.598009596663,-291.059483581865,21.0030679387398));
#1017=CARTESIAN_POINT('Ctrl Pts',(-527.598432845677,-291.059359928255,21.0031702203364));
#1018=CARTESIAN_POINT('Ctrl Pts',(-527.598494388694,-291.059341948258,21.0031850927112));
#1019=CARTESIAN_POINT('Ctrl Pts',(-527.598554519374,-291.059324407972,21.0031997728165));
#1020=CARTESIAN_POINT('Ctrl Pts',(-527.598612973667,-291.059307386126,21.0032142479592));
#1021=CARTESIAN_POINT('Origin',(-538.679946990013,-305.366356903724,22.));
#1022=CARTESIAN_POINT('',(-539.679946990013,-280.540673161466,23.));
#1023=CARTESIAN_POINT('',(-537.679946990013,-278.540673161466,21.));
#1024=CARTESIAN_POINT('',(-539.679946990013,-305.366356903724,23.));
#1025=CARTESIAN_POINT('',(-537.679946990013,-305.366356903724,21.));
#1026=CARTESIAN_POINT('',(-537.679946990013,-305.366356903724,21.));
#1027=CARTESIAN_POINT('Origin',(-564.679088261964,-279.540673161466,22.));
#1028=CARTESIAN_POINT('',(-564.679088261964,-280.540673161466,23.));
#1029=CARTESIAN_POINT('Origin',(-567.679946990013,-291.040673161466,23.));
#1030=CARTESIAN_POINT('',(-567.679946990013,-278.540673161466,16.));
#1031=CARTESIAN_POINT('Origin',(-537.679946990013,-282.540673161466,23.));
#1032=CARTESIAN_POINT('',(-537.679946990013,-282.540673161466,16.));
#1033=CARTESIAN_POINT('Ctrl Pts',(-493.203080669509,-298.965355421709,23.));
#1034=CARTESIAN_POINT('Ctrl Pts',(-493.206892771347,-298.972020482845,23.));
#1035=CARTESIAN_POINT('Ctrl Pts',(-493.215146565498,-298.986427949901,23.));
#1036=CARTESIAN_POINT('Ctrl Pts',(-493.222518450899,-298.999227038316,23.));
#1037=CARTESIAN_POINT('Ctrl Pts',(-493.26641789397,-299.075445376313,23.));
#1038=CARTESIAN_POINT('Ctrl Pts',(-493.311096746599,-299.15113053169,23.));
#1039=CARTESIAN_POINT('Ctrl Pts',(-493.356544387696,-299.226271937695,23.));
#1040=CARTESIAN_POINT('Ctrl Pts',(-493.479082743567,-299.428872207535,23.));
#1041=CARTESIAN_POINT('Ctrl Pts',(-493.60720934777,-299.627517858568,23.));
#1042=CARTESIAN_POINT('Ctrl Pts',(-493.740714835223,-299.822006091007,23.));
#1043=CARTESIAN_POINT('Ctrl Pts',(-495.556770458474,-302.467601076779,23.));
#1044=CARTESIAN_POINT('Ctrl Pts',(-498.275691970876,-304.218592133051,23.));
#1045=CARTESIAN_POINT('Ctrl Pts',(-501.236950140443,-304.869522882028,23.));
#1046=CARTESIAN_POINT('Ctrl Pts',(-504.135404512261,-305.506648376358,23.));
#1047=CARTESIAN_POINT('Ctrl Pts',(-507.279886808709,-305.091869286981,23.));
#1048=CARTESIAN_POINT('Ctrl Pts',(-510.018686780209,-303.510310086702,23.));
#1049=CARTESIAN_POINT('Ctrl Pts',(-493.781778648687,-298.634367365519,22.3333333333333));
#1050=CARTESIAN_POINT('Ctrl Pts',(-493.785241484936,-298.640422377839,22.3333333333333));
#1051=CARTESIAN_POINT('Ctrl Pts',(-493.793399358947,-298.654661598336,22.3333333333333));
#1052=CARTESIAN_POINT('Ctrl Pts',(-493.800213792229,-298.666492103194,22.3333333333333));
#1053=CARTESIAN_POINT('Ctrl Pts',(-493.841738816668,-298.738587967896,22.3333333333333));
#1054=CARTESIAN_POINT('Ctrl Pts',(-493.8840000871,-298.810177744513,22.3333333333333));
#1055=CARTESIAN_POINT('Ctrl Pts',(-493.926987657341,-298.881251763559,22.3333333333333));
#1056=CARTESIAN_POINT('Ctrl Pts',(-494.0428930032,-299.072885225781,22.3333333333333));
#1057=CARTESIAN_POINT('Ctrl Pts',(-494.164077935498,-299.260768134078,22.3333333333333));
#1058=CARTESIAN_POINT('Ctrl Pts',(-494.290346664737,-299.444714033804,22.3333333333333));
#1059=CARTESIAN_POINT('Ctrl Pts',(-496.007492202782,-301.946496576372,22.3333333333333));
#1060=CARTESIAN_POINT('Ctrl Pts',(-498.57904821365,-303.602547064384,22.3333333333333));
#1061=CARTESIAN_POINT('Ctrl Pts',(-501.380076804438,-304.218401386071,22.3333333333333));
#1062=CARTESIAN_POINT('Ctrl Pts',(-504.121883462463,-304.820860383822,22.3333333333333));
#1063=CARTESIAN_POINT('Ctrl Pts',(-507.095328305748,-304.428711818042,22.3333333333333));
#1064=CARTESIAN_POINT('Ctrl Pts',(-509.685304075024,-302.932988325179,22.3333333333333));
#1065=CARTESIAN_POINT('Ctrl Pts',(-494.360476627864,-298.30337930933,21.6666666666667));
#1066=CARTESIAN_POINT('Ctrl Pts',(-494.364638023955,-298.310654469445,21.6666666666667));
#1067=CARTESIAN_POINT('Ctrl Pts',(-494.371718933907,-298.323008992219,21.6666666666667));
#1068=CARTESIAN_POINT('Ctrl Pts',(-494.377909133559,-298.333757168073,21.6666666666667));
#1069=CARTESIAN_POINT('Ctrl Pts',(-494.417059738932,-298.401730561455,21.6666666666667));
#1070=CARTESIAN_POINT('Ctrl Pts',(-494.456903427183,-298.4692249593,21.6666666666667));
#1071=CARTESIAN_POINT('Ctrl Pts',(-494.497430926986,-298.536231589423,21.6666666666667));
#1072=CARTESIAN_POINT('Ctrl Pts',(-494.606703248083,-298.716898340981,21.6666666666667));
#1073=CARTESIAN_POINT('Ctrl Pts',(-494.720946510323,-298.894018504171,21.6666666666667));
#1074=CARTESIAN_POINT('Ctrl Pts',(-494.839978494252,-299.0674219766,21.6666666666667));
#1075=CARTESIAN_POINT('Ctrl Pts',(-496.460773097036,-301.428286583338,21.6666666666667));
#1076=CARTESIAN_POINT('Ctrl Pts',(-498.884835985941,-302.987470086209,21.6666666666667));
#1077=CARTESIAN_POINT('Ctrl Pts',(-501.523203468433,-303.567279890113,21.6666666666667));
#1078=CARTESIAN_POINT('Ctrl Pts',(-504.105442365556,-304.135129174298,21.6666666666667));
#1079=CARTESIAN_POINT('Ctrl Pts',(-506.907016522471,-303.767406866771,21.6666666666667));
#1080=CARTESIAN_POINT('Ctrl Pts',(-509.35192136984,-302.355666563656,21.6666666666667));
#1081=CARTESIAN_POINT('Ctrl Pts',(-494.939174607042,-297.97239125314,21.));
#1082=CARTESIAN_POINT('Ctrl Pts',(-494.942986737543,-297.979056364438,21.));
#1083=CARTESIAN_POINT('Ctrl Pts',(-494.949971727357,-297.991242640655,21.));
#1084=CARTESIAN_POINT('Ctrl Pts',(-494.955604474889,-298.001022232952,21.));
#1085=CARTESIAN_POINT('Ctrl Pts',(-494.99238066163,-298.064873153038,21.));
#1086=CARTESIAN_POINT('Ctrl Pts',(-495.029806767683,-298.128272172124,21.));
#1087=CARTESIAN_POINT('Ctrl Pts',(-495.067874196632,-298.191211415287,21.));
#1088=CARTESIAN_POINT('Ctrl Pts',(-495.170513507716,-298.360911359227,21.));
#1089=CARTESIAN_POINT('Ctrl Pts',(-495.27781509805,-298.527268779682,21.));
#1090=CARTESIAN_POINT('Ctrl Pts',(-495.389610323767,-298.690129919397,21.));
#1091=CARTESIAN_POINT('Ctrl Pts',(-496.911494841344,-300.907182082931,21.));
#1092=CARTESIAN_POINT('Ctrl Pts',(-499.188192228714,-302.371425017542,21.));
#1093=CARTESIAN_POINT('Ctrl Pts',(-501.666330132429,-302.916158394155,21.));
#1094=CARTESIAN_POINT('Ctrl Pts',(-504.091921315758,-303.449341181763,21.));
#1095=CARTESIAN_POINT('Ctrl Pts',(-506.722458019509,-303.104249397832,21.));
#1096=CARTESIAN_POINT('Ctrl Pts',(-509.018538664655,-301.778344802133,21.));
#1097=CARTESIAN_POINT('',(-494.939174607042,-297.97239125314,21.));
#1098=CARTESIAN_POINT('Ctrl Pts',(-494.939174607042,-297.97239125314,21.));
#1099=CARTESIAN_POINT('Ctrl Pts',(-494.942986737543,-297.979056364438,21.));
#1100=CARTESIAN_POINT('Ctrl Pts',(-494.949971727357,-297.991242640655,21.));
#1101=CARTESIAN_POINT('Ctrl Pts',(-494.955604474889,-298.001022232952,21.));
#1102=CARTESIAN_POINT('Ctrl Pts',(-494.99238066163,-298.064873153038,21.));
#1103=CARTESIAN_POINT('Ctrl Pts',(-495.029806767683,-298.128272172124,21.));
#1104=CARTESIAN_POINT('Ctrl Pts',(-495.067874196632,-298.191211415287,21.));
#1105=CARTESIAN_POINT('Ctrl Pts',(-495.170513507716,-298.360911359227,21.));
#1106=CARTESIAN_POINT('Ctrl Pts',(-495.27781509805,-298.527268779682,21.));
#1107=CARTESIAN_POINT('Ctrl Pts',(-495.389610323767,-298.690129919397,21.));
#1108=CARTESIAN_POINT('Ctrl Pts',(-496.911494841344,-300.907182082931,21.));
#1109=CARTESIAN_POINT('Ctrl Pts',(-499.188192228714,-302.371425017542,21.));
#1110=CARTESIAN_POINT('Ctrl Pts',(-501.666330132429,-302.916158394155,21.));
#1111=CARTESIAN_POINT('Ctrl Pts',(-504.091921315758,-303.449341181763,21.));
#1112=CARTESIAN_POINT('Ctrl Pts',(-506.722458019509,-303.104249397832,21.));
#1113=CARTESIAN_POINT('Ctrl Pts',(-509.018538664655,-301.778344802133,21.));
#1114=CARTESIAN_POINT('',(-501.16678029541,-304.853882642115,23.));
#1115=CARTESIAN_POINT('Ctrl Pts',(-510.018686780209,-303.510310086702,23.));
#1116=CARTESIAN_POINT('Ctrl Pts',(-507.279886808709,-305.091869286981,23.));
#1117=CARTESIAN_POINT('Ctrl Pts',(-504.135404512261,-305.506648376358,23.));
#1118=CARTESIAN_POINT('Ctrl Pts',(-501.236950140443,-304.869522882028,23.));
#1119=CARTESIAN_POINT('Ctrl Pts',(-501.213544966332,-304.864378059577,23.));
#1120=CARTESIAN_POINT('Ctrl Pts',(-501.190154930981,-304.859164516406,23.));
#1121=CARTESIAN_POINT('Ctrl Pts',(-501.166780360527,-304.853882353958,23.));
#1122=CARTESIAN_POINT('Ctrl Pts',(-501.16678029208,-304.85388263965,22.9999999983293));
#1123=CARTESIAN_POINT('Ctrl Pts',(-500.426146883479,-304.305509635243,22.6283586375401));
#1124=CARTESIAN_POINT('Ctrl Pts',(-499.700740608336,-303.709270938876,22.2936595167499));
#1125=CARTESIAN_POINT('Ctrl Pts',(-497.826186825142,-301.966649492945,21.528759926341));
#1126=CARTESIAN_POINT('Ctrl Pts',(-496.742951334838,-300.736894715336,21.1971201064946));
#1127=CARTESIAN_POINT('Ctrl Pts',(-495.628328117864,-299.09860082604,21.0406301623981));
#1128=CARTESIAN_POINT('Ctrl Pts',(-495.462387068963,-298.842775732602,21.0232392979528));
#1129=CARTESIAN_POINT('Ctrl Pts',(-495.233124897233,-298.471589736259,21.0080022700086));
#1130=CARTESIAN_POINT('Ctrl Pts',(-495.165195686149,-298.359225944993,21.0046684309111));
#1131=CARTESIAN_POINT('Ctrl Pts',(-495.071956203387,-298.201615095315,21.001767339506));
#1132=CARTESIAN_POINT('Ctrl Pts',(-495.045757971907,-298.156947112281,21.0011418694152));
#1133=CARTESIAN_POINT('Ctrl Pts',(-494.992694764117,-298.065689069205,21.0002640833779));
#1134=CARTESIAN_POINT('Ctrl Pts',(-494.965847364745,-298.019089611171,21.0000316916295));
#1135=CARTESIAN_POINT('Ctrl Pts',(-494.939174607042,-297.97239125314,21.));
#1136=CARTESIAN_POINT('Origin',(-627.417284460789,-304.466229535221,22.));
#1137=CARTESIAN_POINT('',(-628.417284460789,-280.74041842446,21.));
#1138=CARTESIAN_POINT('',(-628.417284460789,-365.643662867505,21.));
#1139=CARTESIAN_POINT('',(-628.417284460789,-304.466229535221,21.));
#1140=CARTESIAN_POINT('',(-626.417284460789,-365.643662867505,23.));
#1141=CARTESIAN_POINT('',(-628.417284460789,-365.643662867505,21.));
#1142=CARTESIAN_POINT('',(-626.417284460789,-289.81491295016,23.));
#1143=CARTESIAN_POINT('',(-626.417284460789,-304.466229535221,23.));
#1144=CARTESIAN_POINT('Ctrl Pts',(-626.417284460788,-289.814912950162,23.0000000000007));
#1145=CARTESIAN_POINT('Ctrl Pts',(-626.776747844782,-288.999072152068,22.6405366160068));
#1146=CARTESIAN_POINT('Ctrl Pts',(-627.100910223459,-288.153553083284,22.3163742373292));
#1147=CARTESIAN_POINT('Ctrl Pts',(-627.597907803157,-286.587877283163,21.8193766576317));
#1148=CARTESIAN_POINT('Ctrl Pts',(-627.787760742225,-285.881111904543,21.6295237185638));
#1149=CARTESIAN_POINT('Ctrl Pts',(-628.05260643996,-284.648248194837,21.3646780208292));
#1150=CARTESIAN_POINT('Ctrl Pts',(-628.14465292447,-284.131657876071,21.2726315363187));
#1151=CARTESIAN_POINT('Ctrl Pts',(-628.278391399276,-283.172801792761,21.1388930615124));
#1152=CARTESIAN_POINT('Ctrl Pts',(-628.325693657867,-282.734121261533,21.0915908029214));
#1153=CARTESIAN_POINT('Ctrl Pts',(-628.382599253471,-281.978435036974,21.0346852073178));
#1154=CARTESIAN_POINT('Ctrl Pts',(-628.399083433579,-281.663879759392,21.01820102721));
#1155=CARTESIAN_POINT('Ctrl Pts',(-628.413278861912,-281.181017375302,21.0040055988766));
#1156=CARTESIAN_POINT('Ctrl Pts',(-628.416163563175,-281.013518900576,21.0011208976179));
#1157=CARTESIAN_POINT('Ctrl Pts',(-628.417195055937,-280.810759943218,21.0000894048565));
#1158=CARTESIAN_POINT('Ctrl Pts',(-628.417284460791,-280.775589539025,21.0000000000022));
#1159=CARTESIAN_POINT('Ctrl Pts',(-628.417284460789,-280.74041842446,21.));
#1160=CARTESIAN_POINT('Origin',(-544.679088261964,-292.040673161466,22.));
#1161=CARTESIAN_POINT('',(-618.117035106744,-293.040673161466,23.));
#1162=CARTESIAN_POINT('',(-618.117035106744,-291.040673161466,21.));
#1163=CARTESIAN_POINT('',(-544.679088261964,-293.040673161466,23.));
#1164=CARTESIAN_POINT('Ctrl Pts',(-618.117035106744,-293.040673161466,23.));
#1165=CARTESIAN_POINT('Ctrl Pts',(-618.470960069434,-293.040673161466,23.));
#1166=CARTESIAN_POINT('Ctrl Pts',(-618.823541080789,-293.025421641596,23.));
#1167=CARTESIAN_POINT('Ctrl Pts',(-619.173846623824,-292.995225814781,23.));
#1168=CARTESIAN_POINT('Ctrl Pts',(-622.344827972725,-292.721891848058,23.));
#1169=CARTESIAN_POINT('Ctrl Pts',(-625.181287357096,-291.242646218578,23.));
#1170=CARTESIAN_POINT('Ctrl Pts',(-627.199985603312,-289.031628473913,23.));
#1171=CARTESIAN_POINT('Ctrl Pts',(-629.199014182358,-286.842154307258,23.));
#1172=CARTESIAN_POINT('Ctrl Pts',(-630.417284460789,-283.910478640504,23.));
#1173=CARTESIAN_POINT('Ctrl Pts',(-630.417284460789,-280.74041842446,23.));
#1174=CARTESIAN_POINT('Ctrl Pts',(-618.117035106744,-292.3740064948,22.3333333333333));
#1175=CARTESIAN_POINT('Ctrl Pts',(-618.451809589118,-292.374006387392,22.3333333333333));
#1176=CARTESIAN_POINT('Ctrl Pts',(-618.785282672982,-292.359580535952,22.3333333333333));
#1177=CARTESIAN_POINT('Ctrl Pts',(-619.116593237717,-292.331022160603,22.3333333333333));
#1178=CARTESIAN_POINT('Ctrl Pts',(-622.114970186259,-292.07275416905,22.3333333333333));
#1179=CARTESIAN_POINT('Ctrl Pts',(-624.797884556613,-290.673623151871,22.3333333333333));
#1180=CARTESIAN_POINT('Ctrl Pts',(-626.707655611261,-288.582122496899,22.3333333333333));
#1181=CARTESIAN_POINT('Ctrl Pts',(-628.598610892114,-286.510700314851,22.3333333333333));
#1182=CARTESIAN_POINT('Ctrl Pts',(-629.75072763506,-283.738269456424,22.3333333333333));
#1183=CARTESIAN_POINT('Ctrl Pts',(-629.750617794122,-280.74041842446,22.3333333333333));
#1184=CARTESIAN_POINT('Ctrl Pts',(-618.117035106744,-291.707339828133,21.6666666666667));
#1185=CARTESIAN_POINT('Ctrl Pts',(-618.432659573076,-291.707339935541,21.6666666666667));
#1186=CARTESIAN_POINT('Ctrl Pts',(-618.747024721939,-291.693739727069,21.6666666666667));
#1187=CARTESIAN_POINT('Ctrl Pts',(-619.059339851609,-291.666818506425,21.6666666666667));
#1188=CARTESIAN_POINT('Ctrl Pts',(-621.889239091778,-291.422697592293,21.6666666666667));
#1189=CARTESIAN_POINT('Ctrl Pts',(-624.4167463887,-290.102757221804,21.6666666666667));
#1190=CARTESIAN_POINT('Ctrl Pts',(-626.215325619211,-288.132616519884,21.6666666666667));
#1191=CARTESIAN_POINT('Ctrl Pts',(-627.996590993459,-286.181969011243,21.6666666666667));
#1192=CARTESIAN_POINT('Ctrl Pts',(-629.083841286518,-283.570438262575,21.6666666666667));
#1193=CARTESIAN_POINT('Ctrl Pts',(-629.083951127455,-280.74041842446,21.6666666666667));
#1194=CARTESIAN_POINT('Ctrl Pts',(-618.117035106744,-291.040673161466,21.));
#1195=CARTESIAN_POINT('Ctrl Pts',(-618.41350909276,-291.040673161466,21.));
#1196=CARTESIAN_POINT('Ctrl Pts',(-618.708766314132,-291.027898621425,21.));
#1197=CARTESIAN_POINT('Ctrl Pts',(-619.002086465502,-291.002614852247,21.));
#1198=CARTESIAN_POINT('Ctrl Pts',(-621.659381305311,-290.773559913286,21.));
#1199=CARTESIAN_POINT('Ctrl Pts',(-624.033343588217,-289.533734155098,21.));
#1200=CARTESIAN_POINT('Ctrl Pts',(-625.72299562716,-287.683110542869,21.));
#1201=CARTESIAN_POINT('Ctrl Pts',(-627.396187703215,-285.850515018836,21.));
#1202=CARTESIAN_POINT('Ctrl Pts',(-628.417284460789,-283.398229078495,21.));
#1203=CARTESIAN_POINT('Ctrl Pts',(-628.417284460789,-280.74041842446,21.));
#1204=CARTESIAN_POINT('Ctrl Pts',(-626.417252277628,-289.814877753541,23.));
#1205=CARTESIAN_POINT('Ctrl Pts',(-624.477055271932,-291.588944806142,23.));
#1206=CARTESIAN_POINT('Ctrl Pts',(-621.95402475817,-292.755578515083,23.));
#1207=CARTESIAN_POINT('Ctrl Pts',(-619.173846623824,-292.995225814781,23.));
#1208=CARTESIAN_POINT('Ctrl Pts',(-618.823541080789,-293.025421641596,23.));
#1209=CARTESIAN_POINT('Ctrl Pts',(-618.470960069434,-293.040673161466,23.));
#1210=CARTESIAN_POINT('Ctrl Pts',(-618.117035106744,-293.040673161466,23.));
#1211=CARTESIAN_POINT('Ctrl Pts',(-618.117035106744,-291.040673161466,21.));
#1212=CARTESIAN_POINT('Ctrl Pts',(-618.41350909276,-291.040673161466,21.));
#1213=CARTESIAN_POINT('Ctrl Pts',(-618.708766314132,-291.027898621425,21.));
#1214=CARTESIAN_POINT('Ctrl Pts',(-619.002086465502,-291.002614852247,21.));
#1215=CARTESIAN_POINT('Ctrl Pts',(-621.659381305311,-290.773559913286,21.));
#1216=CARTESIAN_POINT('Ctrl Pts',(-624.033343588217,-289.533734155098,21.));
#1217=CARTESIAN_POINT('Ctrl Pts',(-625.72299562716,-287.683110542869,21.));
#1218=CARTESIAN_POINT('Ctrl Pts',(-627.396187703215,-285.850515018836,21.));
#1219=CARTESIAN_POINT('Ctrl Pts',(-628.417284460789,-283.398229078495,21.));
#1220=CARTESIAN_POINT('Ctrl Pts',(-628.417284460789,-280.74041842446,21.));
#1221=CARTESIAN_POINT('Origin',(-618.417284460789,-365.643662867505,22.));
#1222=CARTESIAN_POINT('',(-618.417284460789,-375.643662867505,21.));
#1223=CARTESIAN_POINT('',(-618.417284460789,-373.643662867505,23.));
#1224=CARTESIAN_POINT('',(-618.417284460789,-375.643662867505,21.));
#1225=CARTESIAN_POINT('Origin',(-618.417284460789,-365.643662867505,23.));
#1226=CARTESIAN_POINT('Origin',(-618.417284460789,-365.643662867505,21.));
#1227=CARTESIAN_POINT('Origin',(-590.047756997352,-374.643662867505,22.));
#1228=CARTESIAN_POINT('',(-545.050547958876,-375.643662867505,21.));
#1229=CARTESIAN_POINT('',(-545.050547958876,-373.643662867505,23.));
#1230=CARTESIAN_POINT('',(-545.050547958876,-375.643662867505,21.));
#1231=CARTESIAN_POINT('',(-590.047756997352,-373.643662867505,23.));
#1232=CARTESIAN_POINT('',(-590.047756997352,-375.643662867505,21.));
#1233=CARTESIAN_POINT('Origin',(-545.050547958876,-365.643662867505,22.));
#1234=CARTESIAN_POINT('',(-536.364232814494,-370.598249551829,21.));
#1235=CARTESIAN_POINT('',(-538.10149584337,-369.607332214965,23.));
#1236=CARTESIAN_POINT('',(-536.364232814494,-370.598249551829,21.));
#1237=CARTESIAN_POINT('Origin',(-545.050547958876,-365.643662867505,23.));
#1238=CARTESIAN_POINT('Origin',(-545.050547958876,-365.643662867505,21.));
#1239=CARTESIAN_POINT('Origin',(-531.214693773906,-359.551814714387,22.));
#1240=CARTESIAN_POINT('',(-532.083325288344,-359.056356045955,23.));
#1241=CARTESIAN_POINT('',(-530.346062259468,-360.04727338282,21.));
#1242=CARTESIAN_POINT('Origin',(-561.678229533915,-328.192040645983,23.));
#1243=CARTESIAN_POINT('Origin',(-552.679946990013,-280.540673161466,16.));
#1244=CARTESIAN_POINT('Origin',(-552.679946990013,-286.790673161466,21.));
#1245=CARTESIAN_POINT('Ctrl Pts',(-527.585068789397,-291.063412763815,0.));
#1246=CARTESIAN_POINT('Ctrl Pts',(-527.585068789397,-291.063412763815,23.));
#1247=CARTESIAN_POINT('Ctrl Pts',(-527.591205503424,-291.061502260118,0.));
#1248=CARTESIAN_POINT('Ctrl Pts',(-527.591205503424,-291.061502260118,23.));
#1249=CARTESIAN_POINT('Ctrl Pts',(-527.596546993215,-291.059908998071,0.));
#1250=CARTESIAN_POINT('Ctrl Pts',(-527.596546993215,-291.059908998071,23.));
#1251=CARTESIAN_POINT('Ctrl Pts',(-527.598612973667,-291.059307386126,0.));
#1252=CARTESIAN_POINT('Ctrl Pts',(-527.598612973667,-291.059307386126,23.));
#1253=CARTESIAN_POINT('',(-527.585068789397,-291.063412763815,0.));
#1254=CARTESIAN_POINT('',(-527.585068789397,-291.063412763815,0.));
#1255=CARTESIAN_POINT('Ctrl Pts',(-527.598612973667,-291.059307386126,0.));
#1256=CARTESIAN_POINT('Ctrl Pts',(-527.596546993215,-291.059908998071,0.));
#1257=CARTESIAN_POINT('Ctrl Pts',(-527.591205503424,-291.061502260118,0.));
#1258=CARTESIAN_POINT('Ctrl Pts',(-527.585068789397,-291.063412763815,0.));
#1259=CARTESIAN_POINT('Origin',(-509.018538725655,-301.778344907768,0.));
#1260=CARTESIAN_POINT('',(-509.018538664655,-301.778344802133,0.));
#1261=CARTESIAN_POINT('',(-509.018538664655,-301.778344802133,0.));
#1262=CARTESIAN_POINT('',(-527.585068789397,-291.063412763815,0.));
#1263=CARTESIAN_POINT('Ctrl Pts',(-494.939174607042,-297.97239125314,0.));
#1264=CARTESIAN_POINT('Ctrl Pts',(-494.939174607042,-297.97239125314,23.));
#1265=CARTESIAN_POINT('Ctrl Pts',(-494.939201860416,-297.972438902812,0.));
#1266=CARTESIAN_POINT('Ctrl Pts',(-494.939201860416,-297.972438902812,23.));
#1267=CARTESIAN_POINT('Ctrl Pts',(-494.939229113778,-297.972486552463,0.));
#1268=CARTESIAN_POINT('Ctrl Pts',(-494.939229113778,-297.972486552463,23.));
#1269=CARTESIAN_POINT('Ctrl Pts',(-494.939256367139,-297.972534202114,0.));
#1270=CARTESIAN_POINT('Ctrl Pts',(-494.939256367139,-297.972534202114,23.));
#1271=CARTESIAN_POINT('Ctrl Pts',(-494.943041242917,-297.979151661338,0.));
#1272=CARTESIAN_POINT('Ctrl Pts',(-494.943041242917,-297.979151661338,23.));
#1273=CARTESIAN_POINT('Ctrl Pts',(-494.950011996537,-297.991312556121,0.));
#1274=CARTESIAN_POINT('Ctrl Pts',(-494.950011996537,-297.991312556121,23.));
#1275=CARTESIAN_POINT('Ctrl Pts',(-494.955604474889,-298.001022232951,0.));
#1276=CARTESIAN_POINT('Ctrl Pts',(-494.955604474889,-298.001022232951,23.));
#1277=CARTESIAN_POINT('Ctrl Pts',(-494.99238066163,-298.064873153038,0.));
#1278=CARTESIAN_POINT('Ctrl Pts',(-494.99238066163,-298.064873153038,23.));
#1279=CARTESIAN_POINT('Ctrl Pts',(-495.029806767684,-298.128272172124,0.));
#1280=CARTESIAN_POINT('Ctrl Pts',(-495.029806767684,-298.128272172124,23.));
#1281=CARTESIAN_POINT('Ctrl Pts',(-495.067874196632,-298.191211415287,0.));
#1282=CARTESIAN_POINT('Ctrl Pts',(-495.067874196632,-298.191211415287,23.));
#1283=CARTESIAN_POINT('Ctrl Pts',(-495.170513507716,-298.360911359227,0.));
#1284=CARTESIAN_POINT('Ctrl Pts',(-495.170513507716,-298.360911359227,23.));
#1285=CARTESIAN_POINT('Ctrl Pts',(-495.27781509805,-298.527268779682,0.));
#1286=CARTESIAN_POINT('Ctrl Pts',(-495.27781509805,-298.527268779682,23.));
#1287=CARTESIAN_POINT('Ctrl Pts',(-495.389610323767,-298.690129919397,0.));
#1288=CARTESIAN_POINT('Ctrl Pts',(-495.389610323767,-298.690129919397,23.));
#1289=CARTESIAN_POINT('Ctrl Pts',(-496.911494841344,-300.907182082931,0.));
#1290=CARTESIAN_POINT('Ctrl Pts',(-496.911494841344,-300.907182082931,23.));
#1291=CARTESIAN_POINT('Ctrl Pts',(-499.188192228715,-302.371425017542,0.));
#1292=CARTESIAN_POINT('Ctrl Pts',(-499.188192228715,-302.371425017542,23.));
#1293=CARTESIAN_POINT('Ctrl Pts',(-501.666330132429,-302.916158394155,0.));
#1294=CARTESIAN_POINT('Ctrl Pts',(-501.666330132429,-302.916158394155,23.));
#1295=CARTESIAN_POINT('Ctrl Pts',(-504.091921315758,-303.449341181763,0.));
#1296=CARTESIAN_POINT('Ctrl Pts',(-504.091921315758,-303.449341181763,23.));
#1297=CARTESIAN_POINT('Ctrl Pts',(-506.722458019509,-303.104249397832,0.));
#1298=CARTESIAN_POINT('Ctrl Pts',(-506.722458019509,-303.104249397832,23.));
#1299=CARTESIAN_POINT('Ctrl Pts',(-509.018538664655,-301.778344802133,0.));
#1300=CARTESIAN_POINT('Ctrl Pts',(-509.018538664655,-301.778344802133,23.));
#1301=CARTESIAN_POINT('',(-494.939174607042,-297.97239125314,0.));
#1302=CARTESIAN_POINT('',(-494.939174607042,-297.97239125314,0.));
#1303=CARTESIAN_POINT('Ctrl Pts',(-509.018538664655,-301.778344802133,0.));
#1304=CARTESIAN_POINT('Ctrl Pts',(-506.722458019509,-303.104249397832,0.));
#1305=CARTESIAN_POINT('Ctrl Pts',(-504.091921315758,-303.449341181763,0.));
#1306=CARTESIAN_POINT('Ctrl Pts',(-501.666330132429,-302.916158394155,0.));
#1307=CARTESIAN_POINT('Ctrl Pts',(-499.188192228715,-302.371425017542,0.));
#1308=CARTESIAN_POINT('Ctrl Pts',(-496.911494841344,-300.907182082931,0.));
#1309=CARTESIAN_POINT('Ctrl Pts',(-495.389610323767,-298.690129919397,0.));
#1310=CARTESIAN_POINT('Ctrl Pts',(-495.27781509805,-298.527268779682,0.));
#1311=CARTESIAN_POINT('Ctrl Pts',(-495.170513507716,-298.360911359227,0.));
#1312=CARTESIAN_POINT('Ctrl Pts',(-495.067874196632,-298.191211415287,0.));
#1313=CARTESIAN_POINT('Ctrl Pts',(-495.029806767684,-298.128272172124,0.));
#1314=CARTESIAN_POINT('Ctrl Pts',(-494.99238066163,-298.064873153038,0.));
#1315=CARTESIAN_POINT('Ctrl Pts',(-494.955604474889,-298.001022232951,0.));
#1316=CARTESIAN_POINT('Ctrl Pts',(-494.950011996537,-297.991312556121,0.));
#1317=CARTESIAN_POINT('Ctrl Pts',(-494.943041242917,-297.979151661338,0.));
#1318=CARTESIAN_POINT('Ctrl Pts',(-494.939256367139,-297.972534202114,0.));
#1319=CARTESIAN_POINT('Ctrl Pts',(-494.939229113778,-297.972486552463,0.));
#1320=CARTESIAN_POINT('Ctrl Pts',(-494.939201860416,-297.972438902812,0.));
#1321=CARTESIAN_POINT('Ctrl Pts',(-494.939174607042,-297.97239125314,0.));
#1322=CARTESIAN_POINT('Origin',(-536.364232814494,-370.598249551829,0.));
#1323=CARTESIAN_POINT('',(-536.364232814494,-370.598249551829,0.));
#1324=CARTESIAN_POINT('',(-536.364232814494,-370.598249551829,0.));
#1325=CARTESIAN_POINT('',(-494.939174607042,-297.97239125314,0.));
#1326=CARTESIAN_POINT('Origin',(-545.050547958876,-365.643662867505,0.));
#1327=CARTESIAN_POINT('',(-545.050547958876,-375.643662867505,0.));
#1328=CARTESIAN_POINT('',(-545.050547958876,-375.643662867505,0.));
#1329=CARTESIAN_POINT('Origin',(-545.050547958876,-365.643662867505,0.));
#1330=CARTESIAN_POINT('Origin',(-618.417284460789,-375.643662867505,0.));
#1331=CARTESIAN_POINT('',(-618.417284460789,-375.643662867505,0.));
#1332=CARTESIAN_POINT('',(-618.417284460789,-375.643662867505,0.));
#1333=CARTESIAN_POINT('',(-545.050547958876,-375.643662867505,0.));
#1334=CARTESIAN_POINT('Origin',(-618.417284460789,-365.643662867505,0.));
#1335=CARTESIAN_POINT('',(-628.417284460789,-365.643662867505,0.));
#1336=CARTESIAN_POINT('',(-628.417284460789,-365.643662867505,0.));
#1337=CARTESIAN_POINT('Origin',(-618.417284460789,-365.643662867505,0.));
#1338=CARTESIAN_POINT('Origin',(-628.417284460789,-280.74041842446,0.));
#1339=CARTESIAN_POINT('',(-628.417284460789,-280.74041842446,0.));
#1340=CARTESIAN_POINT('',(-628.417284460789,-280.74041842446,0.));
#1341=CARTESIAN_POINT('',(-628.417284460789,-280.74041842446,0.));
#1342=CARTESIAN_POINT('Ctrl Pts',(-618.117035106744,-291.040673161466,0.));
#1343=CARTESIAN_POINT('Ctrl Pts',(-618.117035106744,-291.040673161466,23.));
#1344=CARTESIAN_POINT('Ctrl Pts',(-618.41350909276,-291.040673161466,0.));
#1345=CARTESIAN_POINT('Ctrl Pts',(-618.41350909276,-291.040673161466,23.));
#1346=CARTESIAN_POINT('Ctrl Pts',(-618.708766314132,-291.027898621425,0.));
#1347=CARTESIAN_POINT('Ctrl Pts',(-618.708766314132,-291.027898621425,23.));
#1348=CARTESIAN_POINT('Ctrl Pts',(-619.002086465502,-291.002614852247,0.));
#1349=CARTESIAN_POINT('Ctrl Pts',(-619.002086465502,-291.002614852247,23.));
#1350=CARTESIAN_POINT('Ctrl Pts',(-621.659381305311,-290.773559913286,0.));
#1351=CARTESIAN_POINT('Ctrl Pts',(-621.659381305311,-290.773559913286,23.));
#1352=CARTESIAN_POINT('Ctrl Pts',(-624.033343588217,-289.533734155098,0.));
#1353=CARTESIAN_POINT('Ctrl Pts',(-624.033343588217,-289.533734155098,23.));
#1354=CARTESIAN_POINT('Ctrl Pts',(-625.72299562716,-287.683110542869,0.));
#1355=CARTESIAN_POINT('Ctrl Pts',(-625.72299562716,-287.683110542869,23.));
#1356=CARTESIAN_POINT('Ctrl Pts',(-627.396187703215,-285.850515018836,0.));
#1357=CARTESIAN_POINT('Ctrl Pts',(-627.396187703215,-285.850515018836,23.));
#1358=CARTESIAN_POINT('Ctrl Pts',(-628.417284460789,-283.398229078495,0.));
#1359=CARTESIAN_POINT('Ctrl Pts',(-628.417284460789,-283.398229078495,23.));
#1360=CARTESIAN_POINT('Ctrl Pts',(-628.417284460789,-280.74041842446,0.));
#1361=CARTESIAN_POINT('Ctrl Pts',(-628.417284460789,-280.74041842446,23.));
#1362=CARTESIAN_POINT('Ctrl Pts',(-628.417284460789,-280.74041842446,0.));
#1363=CARTESIAN_POINT('Ctrl Pts',(-628.417284460789,-283.398229078495,0.));
#1364=CARTESIAN_POINT('Ctrl Pts',(-627.396187703215,-285.850515018836,0.));
#1365=CARTESIAN_POINT('Ctrl Pts',(-625.72299562716,-287.683110542869,0.));
#1366=CARTESIAN_POINT('Ctrl Pts',(-624.033343588217,-289.533734155098,0.));
#1367=CARTESIAN_POINT('Ctrl Pts',(-621.659381305311,-290.773559913286,0.));
#1368=CARTESIAN_POINT('Ctrl Pts',(-619.002086465502,-291.002614852247,0.));
#1369=CARTESIAN_POINT('Ctrl Pts',(-618.708766314132,-291.027898621425,0.));
#1370=CARTESIAN_POINT('Ctrl Pts',(-618.41350909276,-291.040673161466,0.));
#1371=CARTESIAN_POINT('Ctrl Pts',(-618.117035106744,-291.040673161466,0.));
#1372=CARTESIAN_POINT('Origin',(-561.678229533915,-328.192040645983,0.));
#1373=CARTESIAN_POINT('',(0.,0.,0.));
#1374=UNCERTAINTY_MEASURE_WITH_UNIT(LENGTH_MEASURE(0.01),#1380,
'DISTANCE_ACCURACY_VALUE',
'Maximum model space distance between geometric entities at asserted c
onnectivities');
#1375=UNCERTAINTY_MEASURE_WITH_UNIT(LENGTH_MEASURE(0.01),#1380,
'DISTANCE_ACCURACY_VALUE',
'Maximum model space distance between geometric entities at asserted c
onnectivities');
#1376=UNCERTAINTY_MEASURE_WITH_UNIT(LENGTH_MEASURE(0.01),#1380,
'DISTANCE_ACCURACY_VALUE',
'Maximum model space distance between geometric entities at asserted c
onnectivities');
#1377=(
GEOMETRIC_REPRESENTATION_CONTEXT(3)
GLOBAL_UNCERTAINTY_ASSIGNED_CONTEXT((#1374))
GLOBAL_UNIT_ASSIGNED_CONTEXT((#1380,#1382,#1383))
REPRESENTATION_CONTEXT('','3D')
);
#1378=(
GEOMETRIC_REPRESENTATION_CONTEXT(3)
GLOBAL_UNCERTAINTY_ASSIGNED_CONTEXT((#1375))
GLOBAL_UNIT_ASSIGNED_CONTEXT((#1380,#1382,#1383))
REPRESENTATION_CONTEXT('','3D')
);
#1379=(
GEOMETRIC_REPRESENTATION_CONTEXT(3)
GLOBAL_UNCERTAINTY_ASSIGNED_CONTEXT((#1376))
GLOBAL_UNIT_ASSIGNED_CONTEXT((#1380,#1382,#1383))
REPRESENTATION_CONTEXT('','3D')
);
#1380=(
LENGTH_UNIT()
NAMED_UNIT(*)
SI_UNIT(.MILLI.,.METRE.)
);
#1381=(
LENGTH_UNIT()
NAMED_UNIT(*)
SI_UNIT($,.METRE.)
);
#1382=(
NAMED_UNIT(*)
PLANE_ANGLE_UNIT()
SI_UNIT($,.RADIAN.)
);
#1383=(
NAMED_UNIT(*)
SI_UNIT($,.STERADIAN.)
SOLID_ANGLE_UNIT()
);
#1384=SHAPE_DEFINITION_REPRESENTATION(#1386,#1389);
#1385=SHAPE_DEFINITION_REPRESENTATION(#1387,#1390);
#1386=PRODUCT_DEFINITION_SHAPE('',$,#1392);
#1387=PRODUCT_DEFINITION_SHAPE('',$,#1393);
#1388=PRODUCT_DEFINITION_SHAPE($,$,#14);
#1389=SHAPE_REPRESENTATION('',(#671,#721),#1377);
#1390=SHAPE_REPRESENTATION('',(#672),#1378);
#1391=PRODUCT_DEFINITION_CONTEXT('part definition',#1399,'design');
#1392=PRODUCT_DEFINITION('CustomKeyboard','CustomKeyboard v35',#1394,#1391);
#1393=PRODUCT_DEFINITION('palmrest','palmrest',#1395,#1391);
#1394=PRODUCT_DEFINITION_FORMATION('',$,#1401);
#1395=PRODUCT_DEFINITION_FORMATION('',$,#1402);
#1396=PRODUCT_RELATED_PRODUCT_CATEGORY('CustomKeyboard v35',
'CustomKeyboard v35',(#1401));
#1397=PRODUCT_RELATED_PRODUCT_CATEGORY('palmrest','palmrest',(#1402));
#1398=APPLICATION_PROTOCOL_DEFINITION('international standard',
'automotive_design',2009,#1399);
#1399=APPLICATION_CONTEXT(
'Core Data for Automotive Mechanical Design Process');
#1400=PRODUCT_CONTEXT('part definition',#1399,'mechanical');
#1401=PRODUCT('CustomKeyboard','CustomKeyboard v35',$,(#1400));
#1402=PRODUCT('palmrest','palmrest',$,(#1400));
#1403=PRESENTATION_STYLE_ASSIGNMENT((#1404));
#1404=SURFACE_STYLE_USAGE(.BOTH.,#1405);
#1405=SURFACE_SIDE_STYLE('',(#1406));
#1406=SURFACE_STYLE_FILL_AREA(#1407);
#1407=FILL_AREA_STYLE('Steel - Satin',(#1408));
#1408=FILL_AREA_STYLE_COLOUR('Steel - Satin',#1409);
#1409=COLOUR_RGB('Steel - Satin',0.627450980392157,0.627450980392157,0.627450980392157);
ENDSEC;
END-ISO-10303-21;
