ISO-10303-21;
HEADER;
/* Generated by software containing ST-Developer
 * from STEP Tools, Inc. (www.steptools.com) 
 */

FILE_DESCRIPTION(
/* description */ (''),
/* implementation_level */ '2;1');

FILE_NAME(
/* name */ 'palmrestleft.step',
/* time_stamp */ '2025-08-17T22:23:36-07:00',
/* author */ (''),
/* organization */ (''),
/* preprocessor_version */ 'ST-DEVELOPER v20.1',
/* originating_system */ 'Autodesk Translation Framework v14.10.0.0',
/* authorisation */ '');

FILE_SCHEMA (('AUTOMOTIVE_DESIGN { 1 0 10303 214 3 1 1 }'));
ENDSEC;

DATA;
#10=MECHANICAL_DESIGN_GEOMETRIC_PRESENTATION_REPRESENTATION('',(#17),#1311);
#11=ITEM_DEFINED_TRANSFORMATION($,$,#723,#780);
#12=(
REPRESENTATION_RELATIONSHIP($,$,#1322,#1321)
REPRESENTATION_RELATIONSHIP_WITH_TRANSFORMATION(#11)
SHAPE_REPRESENTATION_RELATIONSHIP()
);
#13=CONTEXT_DEPENDENT_SHAPE_REPRESENTATION(#12,#1320);
#14=NEXT_ASSEMBLY_USAGE_OCCURRENCE('palmrest:1','palmrest:1',
'palmrest:1',#1324,#1325,'palmrest:1');
#15=SHAPE_REPRESENTATION_RELATIONSHIP('SRR','None',#1322,#16);
#16=ADVANCED_BREP_SHAPE_REPRESENTATION('',(#18),#1310);
#17=STYLED_ITEM('',(#1335),#18);
#18=MANIFOLD_SOLID_BREP('left',#709);
#19=CONICAL_SURFACE('',#753,8.99999999999998,0.785398163397459);
#20=CONICAL_SURFACE('',#756,9.00000000000016,0.785398163397439);
#21=CONICAL_SURFACE('',#759,2.00000000000002,0.785398163397454);
#22=CONICAL_SURFACE('',#761,2.00000000000006,0.785398163397463);
#23=B_SPLINE_SURFACE_WITH_KNOTS('',3,3,((#1103,#1104,#1105,#1106,#1107,
#1108,#1109),(#1110,#1111,#1112,#1113,#1114,#1115,#1116),(#1117,#1118,#1119,
#1120,#1121,#1122,#1123),(#1124,#1125,#1126,#1127,#1128,#1129,#1130)),
 .UNSPECIFIED.,.F.,.F.,.F.,(4,4),(4,3,4),(0.,1.),(-1.26270065899429E-14,
0.399506190358706,0.470485291039486),.UNSPECIFIED.);
#24=B_SPLINE_SURFACE_WITH_KNOTS('',3,3,((#1164,#1165,#1166,#1167,#1168,
#1169,#1170),(#1171,#1172,#1173,#1174,#1175,#1176,#1177),(#1178,#1179,#1180,
#1181,#1182,#1183,#1184),(#1185,#1186,#1187,#1188,#1189,#1190,#1191)),
 .UNSPECIFIED.,.F.,.F.,.F.,(4,4),(4,3,4),(0.,1.),(0.529703611759428,0.843853280322833,
1.),.UNSPECIFIED.);
#25=B_SPLINE_SURFACE_WITH_KNOTS('',3,1,((#1234,#1235),(#1236,#1237),(#1238,
#1239),(#1240,#1241),(#1242,#1243),(#1244,#1245),(#1246,#1247)),
 .UNSPECIFIED.,.F.,.F.,.F.,(4,3,4),(2,2),(0.,0.399506190358706,0.470485291039481),
(0.,2.3),.UNSPECIFIED.);
#26=B_SPLINE_SURFACE_WITH_KNOTS('',3,1,((#1261,#1262),(#1263,#1264),(#1265,
#1266),(#1267,#1268)),.UNSPECIFIED.,.F.,.F.,.F.,(4,4),(2,2),(0.44998473889046,
0.556151229068223),(0.,2.3),.UNSPECIFIED.);
#27=B_SPLINE_SURFACE_WITH_KNOTS('',3,1,((#1279,#1280),(#1281,#1282),(#1283,
#1284),(#1285,#1286),(#1287,#1288),(#1289,#1290),(#1291,#1292)),
 .UNSPECIFIED.,.F.,.F.,.F.,(4,3,4),(2,2),(0.52970361176044,0.843853280322833,
1.),(0.,2.3),.UNSPECIFIED.);
#28=B_SPLINE_CURVE_WITH_KNOTS('',3,(#1039,#1040,#1041,#1042,#1043,#1044),
 .UNSPECIFIED.,.F.,.F.,(4,2,4),(-0.00446017092615288,-0.00442294040406751,
0.),.UNSPECIFIED.);
#29=B_SPLINE_CURVE_WITH_KNOTS('',3,(#1059,#1060,#1061,#1062),
 .UNSPECIFIED.,.F.,.F.,(4,4),(-0.00889337031547968,-0.00448612040994822),
 .UNSPECIFIED.);
#30=B_SPLINE_CURVE_WITH_KNOTS('',3,(#1070,#1071,#1072,#1073,#1074,#1075,
#1076),.UNSPECIFIED.,.F.,.F.,(4,3,4),(-0.470485291039486,-0.399506190358706,
1.26270065899429E-14),.UNSPECIFIED.);
#31=B_SPLINE_CURVE_WITH_KNOTS('',3,(#1087,#1088,#1089,#1090,#1091,#1092,
#1093),.UNSPECIFIED.,.F.,.F.,(4,3,4),(-1.,-0.843853280322833,-0.529703611759428),
 .UNSPECIFIED.);
#32=B_SPLINE_CURVE_WITH_KNOTS('',3,(#1133,#1134,#1135,#1136,#1137,#1138,
#1139),.UNSPECIFIED.,.F.,.F.,(4,3,4),(-1.26270065899429E-14,0.399506190358706,
0.470485291039486),.UNSPECIFIED.);
#33=B_SPLINE_CURVE_WITH_KNOTS('',3,(#1194,#1195,#1196,#1197,#1198,#1199,
#1200),.UNSPECIFIED.,.F.,.F.,(4,3,4),(0.529703611759428,0.843853280322833,
1.),.UNSPECIFIED.);
#34=B_SPLINE_CURVE_WITH_KNOTS('',3,(#1250,#1251,#1252,#1253,#1254,#1255,
#1256),.UNSPECIFIED.,.F.,.F.,(4,3,4),(0.,0.399506190358706,0.470485291039481),
 .UNSPECIFIED.);
#35=B_SPLINE_CURVE_WITH_KNOTS('',3,(#1271,#1272,#1273,#1274),
 .UNSPECIFIED.,.F.,.F.,(4,4),(0.44998473889046,0.556151229068223),
 .UNSPECIFIED.);
#36=B_SPLINE_CURVE_WITH_KNOTS('',3,(#1295,#1296,#1297,#1298,#1299,#1300,
#1301),.UNSPECIFIED.,.F.,.F.,(4,3,4),(0.52970361176044,0.843853280322833,
1.),.UNSPECIFIED.);
#37=PLANE('',#731);
#38=PLANE('',#741);
#39=PLANE('',#742);
#40=PLANE('',#743);
#41=PLANE('',#744);
#42=PLANE('',#745);
#43=PLANE('',#746);
#44=PLANE('',#749);
#45=PLANE('',#750);
#46=PLANE('',#751);
#47=PLANE('',#752);
#48=PLANE('',#755);
#49=PLANE('',#758);
#50=PLANE('',#763);
#51=PLANE('',#764);
#52=PLANE('',#765);
#53=PLANE('',#766);
#54=PLANE('',#769);
#55=PLANE('',#772);
#56=PLANE('',#775);
#57=PLANE('',#776);
#58=PLANE('',#779);
#59=FACE_OUTER_BOUND('',#100,.T.);
#60=FACE_OUTER_BOUND('',#101,.T.);
#61=FACE_OUTER_BOUND('',#102,.T.);
#62=FACE_OUTER_BOUND('',#103,.T.);
#63=FACE_OUTER_BOUND('',#104,.T.);
#64=FACE_OUTER_BOUND('',#105,.T.);
#65=FACE_OUTER_BOUND('',#106,.T.);
#66=FACE_OUTER_BOUND('',#107,.T.);
#67=FACE_OUTER_BOUND('',#108,.T.);
#68=FACE_OUTER_BOUND('',#109,.T.);
#69=FACE_OUTER_BOUND('',#110,.T.);
#70=FACE_OUTER_BOUND('',#111,.T.);
#71=FACE_OUTER_BOUND('',#112,.T.);
#72=FACE_OUTER_BOUND('',#113,.T.);
#73=FACE_OUTER_BOUND('',#114,.T.);
#74=FACE_OUTER_BOUND('',#115,.T.);
#75=FACE_OUTER_BOUND('',#116,.T.);
#76=FACE_OUTER_BOUND('',#117,.T.);
#77=FACE_OUTER_BOUND('',#118,.T.);
#78=FACE_OUTER_BOUND('',#119,.T.);
#79=FACE_OUTER_BOUND('',#120,.T.);
#80=FACE_OUTER_BOUND('',#121,.T.);
#81=FACE_OUTER_BOUND('',#122,.T.);
#82=FACE_OUTER_BOUND('',#123,.T.);
#83=FACE_OUTER_BOUND('',#124,.T.);
#84=FACE_OUTER_BOUND('',#125,.T.);
#85=FACE_OUTER_BOUND('',#126,.T.);
#86=FACE_OUTER_BOUND('',#127,.T.);
#87=FACE_OUTER_BOUND('',#128,.T.);
#88=FACE_OUTER_BOUND('',#129,.T.);
#89=FACE_OUTER_BOUND('',#130,.T.);
#90=FACE_OUTER_BOUND('',#131,.T.);
#91=FACE_OUTER_BOUND('',#132,.T.);
#92=FACE_OUTER_BOUND('',#133,.T.);
#93=FACE_OUTER_BOUND('',#134,.T.);
#94=FACE_OUTER_BOUND('',#135,.T.);
#95=FACE_OUTER_BOUND('',#136,.T.);
#96=FACE_OUTER_BOUND('',#137,.T.);
#97=FACE_OUTER_BOUND('',#138,.T.);
#98=FACE_OUTER_BOUND('',#139,.T.);
#99=FACE_OUTER_BOUND('',#140,.T.);
#100=EDGE_LOOP('',(#460,#461,#462,#463));
#101=EDGE_LOOP('',(#464,#465,#466,#467));
#102=EDGE_LOOP('',(#468,#469,#470,#471));
#103=EDGE_LOOP('',(#472,#473,#474,#475));
#104=EDGE_LOOP('',(#476,#477,#478,#479,#480));
#105=EDGE_LOOP('',(#481,#482,#483,#484,#485,#486));
#106=EDGE_LOOP('',(#487,#488,#489,#490,#491));
#107=EDGE_LOOP('',(#492,#493,#494,#495));
#108=EDGE_LOOP('',(#496,#497,#498,#499,#500,#501));
#109=EDGE_LOOP('',(#502,#503,#504,#505));
#110=EDGE_LOOP('',(#506,#507,#508,#509,#510));
#111=EDGE_LOOP('',(#511,#512,#513,#514,#515));
#112=EDGE_LOOP('',(#516,#517,#518,#519,#520,#521,#522,#523,#524,#525,#526,
#527,#528));
#113=EDGE_LOOP('',(#529,#530,#531,#532,#533,#534));
#114=EDGE_LOOP('',(#535,#536,#537,#538,#539,#540));
#115=EDGE_LOOP('',(#541,#542,#543,#544));
#116=EDGE_LOOP('',(#545,#546,#547,#548));
#117=EDGE_LOOP('',(#549,#550,#551,#552));
#118=EDGE_LOOP('',(#553,#554,#555,#556));
#119=EDGE_LOOP('',(#557,#558,#559,#560));
#120=EDGE_LOOP('',(#561,#562,#563,#564));
#121=EDGE_LOOP('',(#565,#566,#567,#568));
#122=EDGE_LOOP('',(#569,#570,#571));
#123=EDGE_LOOP('',(#572,#573,#574,#575));
#124=EDGE_LOOP('',(#576,#577,#578));
#125=EDGE_LOOP('',(#579,#580,#581,#582,#583));
#126=EDGE_LOOP('',(#584,#585,#586,#587,#588));
#127=EDGE_LOOP('',(#589,#590,#591,#592,#593,#594));
#128=EDGE_LOOP('',(#595,#596,#597,#598));
#129=EDGE_LOOP('',(#599,#600,#601,#602));
#130=EDGE_LOOP('',(#603,#604,#605,#606));
#131=EDGE_LOOP('',(#607,#608,#609,#610));
#132=EDGE_LOOP('',(#611,#612,#613,#614));
#133=EDGE_LOOP('',(#615,#616,#617,#618));
#134=EDGE_LOOP('',(#619,#620,#621,#622));
#135=EDGE_LOOP('',(#623,#624,#625,#626,#627,#628));
#136=EDGE_LOOP('',(#629,#630,#631,#632,#633));
#137=EDGE_LOOP('',(#634,#635,#636,#637));
#138=EDGE_LOOP('',(#638,#639,#640,#641));
#139=EDGE_LOOP('',(#642,#643,#644,#645));
#140=EDGE_LOOP('',(#646,#647,#648,#649,#650,#651,#652,#653,#654,#655,#656,
#657));
#141=ELLIPSE('',#726,1.41421356237268,1.);
#142=ELLIPSE('',#729,1.41421356237309,1.);
#143=ELLIPSE('',#733,1.41421356237309,1.);
#144=ELLIPSE('',#734,1.41421356237309,1.);
#145=ELLIPSE('',#735,1.41421356237309,1.);
#146=ELLIPSE('',#737,1.41421356237309,1.);
#147=ELLIPSE('',#738,1.41421356237309,1.);
#148=ELLIPSE('',#739,1.41421356237308,1.);
#149=CIRCLE('',#725,1.);
#150=CIRCLE('',#728,1.);
#151=CIRCLE('',#747,7.99999999999995);
#152=CIRCLE('',#748,8.00000000000018);
#153=CIRCLE('',#754,10.);
#154=CIRCLE('',#757,10.0000000000001);
#155=CIRCLE('',#760,2.00000000000002);
#156=CIRCLE('',#762,2.00000000000006);
#157=CIRCLE('',#768,10.0000000000001);
#158=CIRCLE('',#771,10.);
#159=CIRCLE('',#774,2.00000000000002);
#160=CIRCLE('',#778,2.00000000000006);
#161=LINE('',#974,#231);
#162=LINE('',#978,#232);
#163=LINE('',#983,#233);
#164=LINE('',#987,#234);
#165=LINE('',#990,#235);
#166=LINE('',#991,#236);
#167=LINE('',#993,#237);
#168=LINE('',#997,#238);
#169=LINE('',#1003,#239);
#170=LINE('',#1008,#240);
#171=LINE('',#1014,#241);
#172=LINE('',#1017,#242);
#173=LINE('',#1020,#243);
#174=LINE('',#1021,#244);
#175=LINE('',#1022,#245);
#176=LINE('',#1024,#246);
#177=LINE('',#1026,#247);
#178=LINE('',#1028,#248);
#179=LINE('',#1030,#249);
#180=LINE('',#1032,#250);
#181=LINE('',#1033,#251);
#182=LINE('',#1035,#252);
#183=LINE('',#1046,#253);
#184=LINE('',#1048,#254);
#185=LINE('',#1050,#255);
#186=LINE('',#1051,#256);
#187=LINE('',#1054,#257);
#188=LINE('',#1056,#258);
#189=LINE('',#1058,#259);
#190=LINE('',#1065,#260);
#191=LINE('',#1066,#261);
#192=LINE('',#1068,#262);
#193=LINE('',#1078,#263);
#194=LINE('',#1082,#264);
#195=LINE('',#1086,#265);
#196=LINE('',#1095,#266);
#197=LINE('',#1097,#267);
#198=LINE('',#1098,#268);
#199=LINE('',#1101,#269);
#200=LINE('',#1102,#270);
#201=LINE('',#1132,#271);
#202=LINE('',#1142,#272);
#203=LINE('',#1144,#273);
#204=LINE('',#1145,#274);
#205=LINE('',#1148,#275);
#206=LINE('',#1152,#276);
#207=LINE('',#1153,#277);
#208=LINE('',#1156,#278);
#209=LINE('',#1160,#279);
#210=LINE('',#1161,#280);
#211=LINE('',#1193,#281);
#212=LINE('',#1204,#282);
#213=LINE('',#1207,#283);
#214=LINE('',#1210,#284);
#215=LINE('',#1212,#285);
#216=LINE('',#1213,#286);
#217=LINE('',#1216,#287);
#218=LINE('',#1220,#288);
#219=LINE('',#1221,#289);
#220=LINE('',#1224,#290);
#221=LINE('',#1228,#291);
#222=LINE('',#1229,#292);
#223=LINE('',#1232,#293);
#224=LINE('',#1249,#294);
#225=LINE('',#1259,#295);
#226=LINE('',#1260,#296);
#227=LINE('',#1270,#297);
#228=LINE('',#1277,#298);
#229=LINE('',#1278,#299);
#230=LINE('',#1294,#300);
#231=VECTOR('',#787,10.);
#232=VECTOR('',#790,10.);
#233=VECTOR('',#795,10.);
#234=VECTOR('',#798,10.);
#235=VECTOR('',#803,10.);
#236=VECTOR('',#804,10.);
#237=VECTOR('',#807,10.);
#238=VECTOR('',#810,10.);
#239=VECTOR('',#815,10.);
#240=VECTOR('',#820,10.);
#241=VECTOR('',#825,10.);
#242=VECTOR('',#828,10.);
#243=VECTOR('',#831,10.);
#244=VECTOR('',#832,10.);
#245=VECTOR('',#833,10.);
#246=VECTOR('',#836,10.);
#247=VECTOR('',#839,10.);
#248=VECTOR('',#840,10.);
#249=VECTOR('',#841,10.);
#250=VECTOR('',#842,10.);
#251=VECTOR('',#843,10.);
#252=VECTOR('',#846,10.);
#253=VECTOR('',#849,10.);
#254=VECTOR('',#850,10.);
#255=VECTOR('',#851,10.);
#256=VECTOR('',#852,10.);
#257=VECTOR('',#855,10.);
#258=VECTOR('',#856,10.);
#259=VECTOR('',#857,10.);
#260=VECTOR('',#860,10.);
#261=VECTOR('',#861,10.);
#262=VECTOR('',#862,10.);
#263=VECTOR('',#863,10.);
#264=VECTOR('',#866,10.);
#265=VECTOR('',#869,10.);
#266=VECTOR('',#872,10.);
#267=VECTOR('',#875,10.);
#268=VECTOR('',#876,10.);
#269=VECTOR('',#879,10.);
#270=VECTOR('',#880,10.);
#271=VECTOR('',#881,10.);
#272=VECTOR('',#884,10.);
#273=VECTOR('',#885,10.);
#274=VECTOR('',#886,10.);
#275=VECTOR('',#889,10.);
#276=VECTOR('',#894,10.);
#277=VECTOR('',#895,10.);
#278=VECTOR('',#898,10.);
#279=VECTOR('',#903,10.);
#280=VECTOR('',#904,10.);
#281=VECTOR('',#909,10.);
#282=VECTOR('',#916,10.);
#283=VECTOR('',#921,10.);
#284=VECTOR('',#924,10.);
#285=VECTOR('',#925,10.);
#286=VECTOR('',#926,10.);
#287=VECTOR('',#929,10.);
#288=VECTOR('',#934,10.);
#289=VECTOR('',#935,10.);
#290=VECTOR('',#938,10.);
#291=VECTOR('',#943,10.);
#292=VECTOR('',#944,10.);
#293=VECTOR('',#947,10.);
#294=VECTOR('',#950,10.);
#295=VECTOR('',#953,10.);
#296=VECTOR('',#954,10.);
#297=VECTOR('',#955,10.);
#298=VECTOR('',#958,10.);
#299=VECTOR('',#959,10.);
#300=VECTOR('',#960,10.);
#301=VERTEX_POINT('',#972);
#302=VERTEX_POINT('',#973);
#303=VERTEX_POINT('',#975);
#304=VERTEX_POINT('',#977);
#305=VERTEX_POINT('',#981);
#306=VERTEX_POINT('',#982);
#307=VERTEX_POINT('',#984);
#308=VERTEX_POINT('',#986);
#309=VERTEX_POINT('',#995);
#310=VERTEX_POINT('',#996);
#311=VERTEX_POINT('',#998);
#312=VERTEX_POINT('',#1000);
#313=VERTEX_POINT('',#1002);
#314=VERTEX_POINT('',#1006);
#315=VERTEX_POINT('',#1007);
#316=VERTEX_POINT('',#1009);
#317=VERTEX_POINT('',#1011);
#318=VERTEX_POINT('',#1013);
#319=VERTEX_POINT('',#1015);
#320=VERTEX_POINT('',#1019);
#321=VERTEX_POINT('',#1027);
#322=VERTEX_POINT('',#1029);
#323=VERTEX_POINT('',#1031);
#324=VERTEX_POINT('',#1037);
#325=VERTEX_POINT('',#1038);
#326=VERTEX_POINT('',#1045);
#327=VERTEX_POINT('',#1047);
#328=VERTEX_POINT('',#1049);
#329=VERTEX_POINT('',#1053);
#330=VERTEX_POINT('',#1055);
#331=VERTEX_POINT('',#1057);
#332=VERTEX_POINT('',#1064);
#333=VERTEX_POINT('',#1067);
#334=VERTEX_POINT('',#1069);
#335=VERTEX_POINT('',#1077);
#336=VERTEX_POINT('',#1079);
#337=VERTEX_POINT('',#1081);
#338=VERTEX_POINT('',#1083);
#339=VERTEX_POINT('',#1085);
#340=VERTEX_POINT('',#1100);
#341=VERTEX_POINT('',#1131);
#342=VERTEX_POINT('',#1141);
#343=VERTEX_POINT('',#1143);
#344=VERTEX_POINT('',#1147);
#345=VERTEX_POINT('',#1151);
#346=VERTEX_POINT('',#1155);
#347=VERTEX_POINT('',#1159);
#348=VERTEX_POINT('',#1192);
#349=VERTEX_POINT('',#1209);
#350=VERTEX_POINT('',#1211);
#351=VERTEX_POINT('',#1215);
#352=VERTEX_POINT('',#1219);
#353=VERTEX_POINT('',#1223);
#354=VERTEX_POINT('',#1227);
#355=VERTEX_POINT('',#1231);
#356=VERTEX_POINT('',#1248);
#357=VERTEX_POINT('',#1258);
#358=VERTEX_POINT('',#1269);
#359=VERTEX_POINT('',#1276);
#360=VERTEX_POINT('',#1293);
#361=EDGE_CURVE('',#301,#302,#161,.T.);
#362=EDGE_CURVE('',#303,#302,#149,.T.);
#363=EDGE_CURVE('',#303,#304,#162,.T.);
#364=EDGE_CURVE('',#304,#301,#141,.T.);
#365=EDGE_CURVE('',#305,#306,#163,.T.);
#366=EDGE_CURVE('',#306,#307,#150,.F.);
#367=EDGE_CURVE('',#307,#308,#164,.T.);
#368=EDGE_CURVE('',#308,#305,#142,.T.);
#369=EDGE_CURVE('',#304,#305,#165,.T.);
#370=EDGE_CURVE('',#308,#301,#166,.T.);
#371=EDGE_CURVE('',#302,#307,#167,.T.);
#372=EDGE_CURVE('',#309,#310,#168,.T.);
#373=EDGE_CURVE('',#310,#311,#143,.T.);
#374=EDGE_CURVE('',#311,#312,#144,.T.);
#375=EDGE_CURVE('',#312,#313,#169,.T.);
#376=EDGE_CURVE('',#313,#309,#145,.T.);
#377=EDGE_CURVE('',#314,#315,#170,.T.);
#378=EDGE_CURVE('',#315,#316,#146,.T.);
#379=EDGE_CURVE('',#316,#317,#147,.T.);
#380=EDGE_CURVE('',#317,#318,#171,.T.);
#381=EDGE_CURVE('',#318,#319,#148,.T.);
#382=EDGE_CURVE('',#314,#319,#172,.T.);
#383=EDGE_CURVE('',#320,#319,#173,.T.);
#384=EDGE_CURVE('',#318,#309,#174,.T.);
#385=EDGE_CURVE('',#313,#320,#175,.T.);
#386=EDGE_CURVE('',#310,#317,#176,.T.);
#387=EDGE_CURVE('',#315,#303,#177,.T.);
#388=EDGE_CURVE('',#321,#303,#178,.T.);
#389=EDGE_CURVE('',#321,#322,#179,.F.);
#390=EDGE_CURVE('',#322,#323,#180,.T.);
#391=EDGE_CURVE('',#316,#323,#181,.T.);
#392=EDGE_CURVE('',#304,#314,#182,.T.);
#393=EDGE_CURVE('',#324,#325,#28,.T.);
#394=EDGE_CURVE('',#325,#326,#183,.T.);
#395=EDGE_CURVE('',#326,#327,#184,.F.);
#396=EDGE_CURVE('',#327,#328,#185,.T.);
#397=EDGE_CURVE('',#328,#324,#186,.T.);
#398=EDGE_CURVE('',#328,#329,#187,.T.);
#399=EDGE_CURVE('',#330,#329,#188,.T.);
#400=EDGE_CURVE('',#330,#331,#189,.T.);
#401=EDGE_CURVE('',#331,#324,#29,.T.);
#402=EDGE_CURVE('',#332,#327,#190,.T.);
#403=EDGE_CURVE('',#323,#332,#191,.T.);
#404=EDGE_CURVE('',#333,#322,#192,.T.);
#405=EDGE_CURVE('',#334,#333,#30,.T.);
#406=EDGE_CURVE('',#335,#334,#193,.T.);
#407=EDGE_CURVE('',#336,#335,#151,.T.);
#408=EDGE_CURVE('',#337,#336,#194,.T.);
#409=EDGE_CURVE('',#338,#337,#152,.T.);
#410=EDGE_CURVE('',#339,#338,#195,.T.);
#411=EDGE_CURVE('',#329,#339,#31,.T.);
#412=EDGE_CURVE('',#332,#311,#196,.T.);
#413=EDGE_CURVE('',#306,#326,#197,.T.);
#414=EDGE_CURVE('',#306,#312,#198,.T.);
#415=EDGE_CURVE('',#321,#340,#199,.T.);
#416=EDGE_CURVE('',#340,#333,#200,.T.);
#417=EDGE_CURVE('',#341,#334,#201,.T.);
#418=EDGE_CURVE('',#340,#341,#32,.T.);
#419=EDGE_CURVE('',#342,#335,#202,.T.);
#420=EDGE_CURVE('',#334,#343,#203,.T.);
#421=EDGE_CURVE('',#343,#342,#204,.T.);
#422=EDGE_CURVE('',#344,#336,#205,.T.);
#423=EDGE_CURVE('',#342,#344,#153,.T.);
#424=EDGE_CURVE('',#345,#337,#206,.T.);
#425=EDGE_CURVE('',#344,#345,#207,.T.);
#426=EDGE_CURVE('',#346,#338,#208,.T.);
#427=EDGE_CURVE('',#345,#346,#154,.T.);
#428=EDGE_CURVE('',#347,#339,#209,.T.);
#429=EDGE_CURVE('',#346,#347,#210,.T.);
#430=EDGE_CURVE('',#341,#343,#155,.T.);
#431=EDGE_CURVE('',#339,#348,#211,.T.);
#432=EDGE_CURVE('',#348,#330,#33,.T.);
#433=EDGE_CURVE('',#347,#348,#156,.T.);
#434=EDGE_CURVE('',#320,#305,#212,.T.);
#435=EDGE_CURVE('',#321,#326,#213,.T.);
#436=EDGE_CURVE('',#349,#346,#214,.T.);
#437=EDGE_CURVE('',#350,#349,#215,.T.);
#438=EDGE_CURVE('',#350,#347,#216,.T.);
#439=EDGE_CURVE('',#351,#345,#217,.T.);
#440=EDGE_CURVE('',#351,#349,#157,.T.);
#441=EDGE_CURVE('',#352,#344,#218,.T.);
#442=EDGE_CURVE('',#352,#351,#219,.T.);
#443=EDGE_CURVE('',#353,#342,#220,.T.);
#444=EDGE_CURVE('',#353,#352,#158,.T.);
#445=EDGE_CURVE('',#354,#343,#221,.T.);
#446=EDGE_CURVE('',#354,#353,#222,.T.);
#447=EDGE_CURVE('',#355,#341,#223,.T.);
#448=EDGE_CURVE('',#355,#354,#159,.T.);
#449=EDGE_CURVE('',#356,#340,#224,.T.);
#450=EDGE_CURVE('',#356,#355,#34,.T.);
#451=EDGE_CURVE('',#357,#325,#225,.T.);
#452=EDGE_CURVE('',#357,#356,#226,.T.);
#453=EDGE_CURVE('',#358,#331,#227,.T.);
#454=EDGE_CURVE('',#358,#357,#35,.T.);
#455=EDGE_CURVE('',#359,#330,#228,.T.);
#456=EDGE_CURVE('',#359,#358,#229,.T.);
#457=EDGE_CURVE('',#360,#348,#230,.T.);
#458=EDGE_CURVE('',#360,#359,#36,.T.);
#459=EDGE_CURVE('',#350,#360,#160,.T.);
#460=ORIENTED_EDGE('',*,*,#361,.T.);
#461=ORIENTED_EDGE('',*,*,#362,.F.);
#462=ORIENTED_EDGE('',*,*,#363,.T.);
#463=ORIENTED_EDGE('',*,*,#364,.T.);
#464=ORIENTED_EDGE('',*,*,#365,.T.);
#465=ORIENTED_EDGE('',*,*,#366,.T.);
#466=ORIENTED_EDGE('',*,*,#367,.T.);
#467=ORIENTED_EDGE('',*,*,#368,.T.);
#468=ORIENTED_EDGE('',*,*,#369,.T.);
#469=ORIENTED_EDGE('',*,*,#368,.F.);
#470=ORIENTED_EDGE('',*,*,#370,.T.);
#471=ORIENTED_EDGE('',*,*,#364,.F.);
#472=ORIENTED_EDGE('',*,*,#361,.F.);
#473=ORIENTED_EDGE('',*,*,#370,.F.);
#474=ORIENTED_EDGE('',*,*,#367,.F.);
#475=ORIENTED_EDGE('',*,*,#371,.F.);
#476=ORIENTED_EDGE('',*,*,#372,.T.);
#477=ORIENTED_EDGE('',*,*,#373,.T.);
#478=ORIENTED_EDGE('',*,*,#374,.T.);
#479=ORIENTED_EDGE('',*,*,#375,.T.);
#480=ORIENTED_EDGE('',*,*,#376,.T.);
#481=ORIENTED_EDGE('',*,*,#377,.T.);
#482=ORIENTED_EDGE('',*,*,#378,.T.);
#483=ORIENTED_EDGE('',*,*,#379,.T.);
#484=ORIENTED_EDGE('',*,*,#380,.T.);
#485=ORIENTED_EDGE('',*,*,#381,.T.);
#486=ORIENTED_EDGE('',*,*,#382,.F.);
#487=ORIENTED_EDGE('',*,*,#383,.T.);
#488=ORIENTED_EDGE('',*,*,#381,.F.);
#489=ORIENTED_EDGE('',*,*,#384,.T.);
#490=ORIENTED_EDGE('',*,*,#376,.F.);
#491=ORIENTED_EDGE('',*,*,#385,.T.);
#492=ORIENTED_EDGE('',*,*,#372,.F.);
#493=ORIENTED_EDGE('',*,*,#384,.F.);
#494=ORIENTED_EDGE('',*,*,#380,.F.);
#495=ORIENTED_EDGE('',*,*,#386,.F.);
#496=ORIENTED_EDGE('',*,*,#378,.F.);
#497=ORIENTED_EDGE('',*,*,#387,.T.);
#498=ORIENTED_EDGE('',*,*,#388,.F.);
#499=ORIENTED_EDGE('',*,*,#389,.T.);
#500=ORIENTED_EDGE('',*,*,#390,.T.);
#501=ORIENTED_EDGE('',*,*,#391,.F.);
#502=ORIENTED_EDGE('',*,*,#363,.F.);
#503=ORIENTED_EDGE('',*,*,#387,.F.);
#504=ORIENTED_EDGE('',*,*,#377,.F.);
#505=ORIENTED_EDGE('',*,*,#392,.F.);
#506=ORIENTED_EDGE('',*,*,#393,.T.);
#507=ORIENTED_EDGE('',*,*,#394,.T.);
#508=ORIENTED_EDGE('',*,*,#395,.T.);
#509=ORIENTED_EDGE('',*,*,#396,.T.);
#510=ORIENTED_EDGE('',*,*,#397,.T.);
#511=ORIENTED_EDGE('',*,*,#397,.F.);
#512=ORIENTED_EDGE('',*,*,#398,.T.);
#513=ORIENTED_EDGE('',*,*,#399,.F.);
#514=ORIENTED_EDGE('',*,*,#400,.T.);
#515=ORIENTED_EDGE('',*,*,#401,.T.);
#516=ORIENTED_EDGE('',*,*,#396,.F.);
#517=ORIENTED_EDGE('',*,*,#402,.F.);
#518=ORIENTED_EDGE('',*,*,#403,.F.);
#519=ORIENTED_EDGE('',*,*,#390,.F.);
#520=ORIENTED_EDGE('',*,*,#404,.F.);
#521=ORIENTED_EDGE('',*,*,#405,.F.);
#522=ORIENTED_EDGE('',*,*,#406,.F.);
#523=ORIENTED_EDGE('',*,*,#407,.F.);
#524=ORIENTED_EDGE('',*,*,#408,.F.);
#525=ORIENTED_EDGE('',*,*,#409,.F.);
#526=ORIENTED_EDGE('',*,*,#410,.F.);
#527=ORIENTED_EDGE('',*,*,#411,.F.);
#528=ORIENTED_EDGE('',*,*,#398,.F.);
#529=ORIENTED_EDGE('',*,*,#373,.F.);
#530=ORIENTED_EDGE('',*,*,#386,.T.);
#531=ORIENTED_EDGE('',*,*,#379,.F.);
#532=ORIENTED_EDGE('',*,*,#391,.T.);
#533=ORIENTED_EDGE('',*,*,#403,.T.);
#534=ORIENTED_EDGE('',*,*,#412,.T.);
#535=ORIENTED_EDGE('',*,*,#374,.F.);
#536=ORIENTED_EDGE('',*,*,#412,.F.);
#537=ORIENTED_EDGE('',*,*,#402,.T.);
#538=ORIENTED_EDGE('',*,*,#395,.F.);
#539=ORIENTED_EDGE('',*,*,#413,.F.);
#540=ORIENTED_EDGE('',*,*,#414,.T.);
#541=ORIENTED_EDGE('',*,*,#415,.T.);
#542=ORIENTED_EDGE('',*,*,#416,.T.);
#543=ORIENTED_EDGE('',*,*,#404,.T.);
#544=ORIENTED_EDGE('',*,*,#389,.F.);
#545=ORIENTED_EDGE('',*,*,#417,.T.);
#546=ORIENTED_EDGE('',*,*,#405,.T.);
#547=ORIENTED_EDGE('',*,*,#416,.F.);
#548=ORIENTED_EDGE('',*,*,#418,.T.);
#549=ORIENTED_EDGE('',*,*,#419,.T.);
#550=ORIENTED_EDGE('',*,*,#406,.T.);
#551=ORIENTED_EDGE('',*,*,#420,.T.);
#552=ORIENTED_EDGE('',*,*,#421,.T.);
#553=ORIENTED_EDGE('',*,*,#422,.T.);
#554=ORIENTED_EDGE('',*,*,#407,.T.);
#555=ORIENTED_EDGE('',*,*,#419,.F.);
#556=ORIENTED_EDGE('',*,*,#423,.T.);
#557=ORIENTED_EDGE('',*,*,#424,.T.);
#558=ORIENTED_EDGE('',*,*,#408,.T.);
#559=ORIENTED_EDGE('',*,*,#422,.F.);
#560=ORIENTED_EDGE('',*,*,#425,.T.);
#561=ORIENTED_EDGE('',*,*,#426,.T.);
#562=ORIENTED_EDGE('',*,*,#409,.T.);
#563=ORIENTED_EDGE('',*,*,#424,.F.);
#564=ORIENTED_EDGE('',*,*,#427,.T.);
#565=ORIENTED_EDGE('',*,*,#428,.T.);
#566=ORIENTED_EDGE('',*,*,#410,.T.);
#567=ORIENTED_EDGE('',*,*,#426,.F.);
#568=ORIENTED_EDGE('',*,*,#429,.T.);
#569=ORIENTED_EDGE('',*,*,#420,.F.);
#570=ORIENTED_EDGE('',*,*,#417,.F.);
#571=ORIENTED_EDGE('',*,*,#430,.T.);
#572=ORIENTED_EDGE('',*,*,#399,.T.);
#573=ORIENTED_EDGE('',*,*,#411,.T.);
#574=ORIENTED_EDGE('',*,*,#431,.T.);
#575=ORIENTED_EDGE('',*,*,#432,.T.);
#576=ORIENTED_EDGE('',*,*,#431,.F.);
#577=ORIENTED_EDGE('',*,*,#428,.F.);
#578=ORIENTED_EDGE('',*,*,#433,.T.);
#579=ORIENTED_EDGE('',*,*,#369,.F.);
#580=ORIENTED_EDGE('',*,*,#392,.T.);
#581=ORIENTED_EDGE('',*,*,#382,.T.);
#582=ORIENTED_EDGE('',*,*,#383,.F.);
#583=ORIENTED_EDGE('',*,*,#434,.T.);
#584=ORIENTED_EDGE('',*,*,#365,.F.);
#585=ORIENTED_EDGE('',*,*,#434,.F.);
#586=ORIENTED_EDGE('',*,*,#385,.F.);
#587=ORIENTED_EDGE('',*,*,#375,.F.);
#588=ORIENTED_EDGE('',*,*,#414,.F.);
#589=ORIENTED_EDGE('',*,*,#435,.F.);
#590=ORIENTED_EDGE('',*,*,#388,.T.);
#591=ORIENTED_EDGE('',*,*,#362,.T.);
#592=ORIENTED_EDGE('',*,*,#371,.T.);
#593=ORIENTED_EDGE('',*,*,#366,.F.);
#594=ORIENTED_EDGE('',*,*,#413,.T.);
#595=ORIENTED_EDGE('',*,*,#429,.F.);
#596=ORIENTED_EDGE('',*,*,#436,.F.);
#597=ORIENTED_EDGE('',*,*,#437,.F.);
#598=ORIENTED_EDGE('',*,*,#438,.T.);
#599=ORIENTED_EDGE('',*,*,#427,.F.);
#600=ORIENTED_EDGE('',*,*,#439,.F.);
#601=ORIENTED_EDGE('',*,*,#440,.T.);
#602=ORIENTED_EDGE('',*,*,#436,.T.);
#603=ORIENTED_EDGE('',*,*,#425,.F.);
#604=ORIENTED_EDGE('',*,*,#441,.F.);
#605=ORIENTED_EDGE('',*,*,#442,.T.);
#606=ORIENTED_EDGE('',*,*,#439,.T.);
#607=ORIENTED_EDGE('',*,*,#423,.F.);
#608=ORIENTED_EDGE('',*,*,#443,.F.);
#609=ORIENTED_EDGE('',*,*,#444,.T.);
#610=ORIENTED_EDGE('',*,*,#441,.T.);
#611=ORIENTED_EDGE('',*,*,#421,.F.);
#612=ORIENTED_EDGE('',*,*,#445,.F.);
#613=ORIENTED_EDGE('',*,*,#446,.T.);
#614=ORIENTED_EDGE('',*,*,#443,.T.);
#615=ORIENTED_EDGE('',*,*,#430,.F.);
#616=ORIENTED_EDGE('',*,*,#447,.F.);
#617=ORIENTED_EDGE('',*,*,#448,.T.);
#618=ORIENTED_EDGE('',*,*,#445,.T.);
#619=ORIENTED_EDGE('',*,*,#418,.F.);
#620=ORIENTED_EDGE('',*,*,#449,.F.);
#621=ORIENTED_EDGE('',*,*,#450,.T.);
#622=ORIENTED_EDGE('',*,*,#447,.T.);
#623=ORIENTED_EDGE('',*,*,#394,.F.);
#624=ORIENTED_EDGE('',*,*,#451,.F.);
#625=ORIENTED_EDGE('',*,*,#452,.T.);
#626=ORIENTED_EDGE('',*,*,#449,.T.);
#627=ORIENTED_EDGE('',*,*,#415,.F.);
#628=ORIENTED_EDGE('',*,*,#435,.T.);
#629=ORIENTED_EDGE('',*,*,#393,.F.);
#630=ORIENTED_EDGE('',*,*,#401,.F.);
#631=ORIENTED_EDGE('',*,*,#453,.F.);
#632=ORIENTED_EDGE('',*,*,#454,.T.);
#633=ORIENTED_EDGE('',*,*,#451,.T.);
#634=ORIENTED_EDGE('',*,*,#400,.F.);
#635=ORIENTED_EDGE('',*,*,#455,.F.);
#636=ORIENTED_EDGE('',*,*,#456,.T.);
#637=ORIENTED_EDGE('',*,*,#453,.T.);
#638=ORIENTED_EDGE('',*,*,#432,.F.);
#639=ORIENTED_EDGE('',*,*,#457,.F.);
#640=ORIENTED_EDGE('',*,*,#458,.T.);
#641=ORIENTED_EDGE('',*,*,#455,.T.);
#642=ORIENTED_EDGE('',*,*,#433,.F.);
#643=ORIENTED_EDGE('',*,*,#438,.F.);
#644=ORIENTED_EDGE('',*,*,#459,.T.);
#645=ORIENTED_EDGE('',*,*,#457,.T.);
#646=ORIENTED_EDGE('',*,*,#459,.F.);
#647=ORIENTED_EDGE('',*,*,#437,.T.);
#648=ORIENTED_EDGE('',*,*,#440,.F.);
#649=ORIENTED_EDGE('',*,*,#442,.F.);
#650=ORIENTED_EDGE('',*,*,#444,.F.);
#651=ORIENTED_EDGE('',*,*,#446,.F.);
#652=ORIENTED_EDGE('',*,*,#448,.F.);
#653=ORIENTED_EDGE('',*,*,#450,.F.);
#654=ORIENTED_EDGE('',*,*,#452,.F.);
#655=ORIENTED_EDGE('',*,*,#454,.F.);
#656=ORIENTED_EDGE('',*,*,#456,.F.);
#657=ORIENTED_EDGE('',*,*,#458,.F.);
#658=CYLINDRICAL_SURFACE('',#724,1.);
#659=CYLINDRICAL_SURFACE('',#727,1.);
#660=CYLINDRICAL_SURFACE('',#730,1.);
#661=CYLINDRICAL_SURFACE('',#732,1.);
#662=CYLINDRICAL_SURFACE('',#736,1.);
#663=CYLINDRICAL_SURFACE('',#740,1.);
#664=CYLINDRICAL_SURFACE('',#767,10.0000000000001);
#665=CYLINDRICAL_SURFACE('',#770,10.);
#666=CYLINDRICAL_SURFACE('',#773,2.00000000000002);
#667=CYLINDRICAL_SURFACE('',#777,2.00000000000006);
#668=ADVANCED_FACE('',(#59),#658,.T.);
#669=ADVANCED_FACE('',(#60),#659,.T.);
#670=ADVANCED_FACE('',(#61),#660,.T.);
#671=ADVANCED_FACE('',(#62),#37,.T.);
#672=ADVANCED_FACE('',(#63),#661,.T.);
#673=ADVANCED_FACE('',(#64),#662,.T.);
#674=ADVANCED_FACE('',(#65),#663,.T.);
#675=ADVANCED_FACE('',(#66),#38,.T.);
#676=ADVANCED_FACE('',(#67),#39,.T.);
#677=ADVANCED_FACE('',(#68),#40,.T.);
#678=ADVANCED_FACE('',(#69),#41,.T.);
#679=ADVANCED_FACE('',(#70),#42,.T.);
#680=ADVANCED_FACE('',(#71),#43,.T.);
#681=ADVANCED_FACE('',(#72),#44,.T.);
#682=ADVANCED_FACE('',(#73),#45,.T.);
#683=ADVANCED_FACE('',(#74),#46,.T.);
#684=ADVANCED_FACE('',(#75),#23,.T.);
#685=ADVANCED_FACE('',(#76),#47,.T.);
#686=ADVANCED_FACE('',(#77),#19,.T.);
#687=ADVANCED_FACE('',(#78),#48,.T.);
#688=ADVANCED_FACE('',(#79),#20,.T.);
#689=ADVANCED_FACE('',(#80),#49,.T.);
#690=ADVANCED_FACE('',(#81),#21,.T.);
#691=ADVANCED_FACE('',(#82),#24,.T.);
#692=ADVANCED_FACE('',(#83),#22,.T.);
#693=ADVANCED_FACE('',(#84),#50,.T.);
#694=ADVANCED_FACE('',(#85),#51,.T.);
#695=ADVANCED_FACE('',(#86),#52,.T.);
#696=ADVANCED_FACE('',(#87),#53,.T.);
#697=ADVANCED_FACE('',(#88),#664,.T.);
#698=ADVANCED_FACE('',(#89),#54,.T.);
#699=ADVANCED_FACE('',(#90),#665,.T.);
#700=ADVANCED_FACE('',(#91),#55,.T.);
#701=ADVANCED_FACE('',(#92),#666,.T.);
#702=ADVANCED_FACE('',(#93),#25,.T.);
#703=ADVANCED_FACE('',(#94),#56,.T.);
#704=ADVANCED_FACE('',(#95),#26,.T.);
#705=ADVANCED_FACE('',(#96),#57,.T.);
#706=ADVANCED_FACE('',(#97),#27,.T.);
#707=ADVANCED_FACE('',(#98),#667,.T.);
#708=ADVANCED_FACE('',(#99),#58,.F.);
#709=CLOSED_SHELL('',(#668,#669,#670,#671,#672,#673,#674,#675,#676,#677,
#678,#679,#680,#681,#682,#683,#684,#685,#686,#687,#688,#689,#690,#691,#692,
#693,#694,#695,#696,#697,#698,#699,#700,#701,#702,#703,#704,#705,#706,#707,
#708));
#710=DERIVED_UNIT_ELEMENT(#712,1.);
#711=DERIVED_UNIT_ELEMENT(#1313,-3.);
#712=(
MASS_UNIT()
NAMED_UNIT(*)
SI_UNIT(.KILO.,.GRAM.)
);
#713=DERIVED_UNIT((#710,#711));
#714=MEASURE_REPRESENTATION_ITEM('density measure',
POSITIVE_RATIO_MEASURE(7850.),#713);
#715=PROPERTY_DEFINITION_REPRESENTATION(#720,#717);
#716=PROPERTY_DEFINITION_REPRESENTATION(#721,#718);
#717=REPRESENTATION('material name',(#719),#1310);
#718=REPRESENTATION('density',(#714),#1310);
#719=DESCRIPTIVE_REPRESENTATION_ITEM('Steel','Steel');
#720=PROPERTY_DEFINITION('material property','material name',#1325);
#721=PROPERTY_DEFINITION('material property','density of part',#1325);
#722=AXIS2_PLACEMENT_3D('',#969,#781,#782);
#723=AXIS2_PLACEMENT_3D('',#970,#783,#784);
#724=AXIS2_PLACEMENT_3D('',#971,#785,#786);
#725=AXIS2_PLACEMENT_3D('',#976,#788,#789);
#726=AXIS2_PLACEMENT_3D('',#979,#791,#792);
#727=AXIS2_PLACEMENT_3D('',#980,#793,#794);
#728=AXIS2_PLACEMENT_3D('',#985,#796,#797);
#729=AXIS2_PLACEMENT_3D('',#988,#799,#800);
#730=AXIS2_PLACEMENT_3D('',#989,#801,#802);
#731=AXIS2_PLACEMENT_3D('',#992,#805,#806);
#732=AXIS2_PLACEMENT_3D('',#994,#808,#809);
#733=AXIS2_PLACEMENT_3D('',#999,#811,#812);
#734=AXIS2_PLACEMENT_3D('',#1001,#813,#814);
#735=AXIS2_PLACEMENT_3D('',#1004,#816,#817);
#736=AXIS2_PLACEMENT_3D('',#1005,#818,#819);
#737=AXIS2_PLACEMENT_3D('',#1010,#821,#822);
#738=AXIS2_PLACEMENT_3D('',#1012,#823,#824);
#739=AXIS2_PLACEMENT_3D('',#1016,#826,#827);
#740=AXIS2_PLACEMENT_3D('',#1018,#829,#830);
#741=AXIS2_PLACEMENT_3D('',#1023,#834,#835);
#742=AXIS2_PLACEMENT_3D('',#1025,#837,#838);
#743=AXIS2_PLACEMENT_3D('',#1034,#844,#845);
#744=AXIS2_PLACEMENT_3D('',#1036,#847,#848);
#745=AXIS2_PLACEMENT_3D('',#1052,#853,#854);
#746=AXIS2_PLACEMENT_3D('',#1063,#858,#859);
#747=AXIS2_PLACEMENT_3D('',#1080,#864,#865);
#748=AXIS2_PLACEMENT_3D('',#1084,#867,#868);
#749=AXIS2_PLACEMENT_3D('',#1094,#870,#871);
#750=AXIS2_PLACEMENT_3D('',#1096,#873,#874);
#751=AXIS2_PLACEMENT_3D('',#1099,#877,#878);
#752=AXIS2_PLACEMENT_3D('',#1140,#882,#883);
#753=AXIS2_PLACEMENT_3D('',#1146,#887,#888);
#754=AXIS2_PLACEMENT_3D('',#1149,#890,#891);
#755=AXIS2_PLACEMENT_3D('',#1150,#892,#893);
#756=AXIS2_PLACEMENT_3D('',#1154,#896,#897);
#757=AXIS2_PLACEMENT_3D('',#1157,#899,#900);
#758=AXIS2_PLACEMENT_3D('',#1158,#901,#902);
#759=AXIS2_PLACEMENT_3D('',#1162,#905,#906);
#760=AXIS2_PLACEMENT_3D('',#1163,#907,#908);
#761=AXIS2_PLACEMENT_3D('',#1201,#910,#911);
#762=AXIS2_PLACEMENT_3D('',#1202,#912,#913);
#763=AXIS2_PLACEMENT_3D('',#1203,#914,#915);
#764=AXIS2_PLACEMENT_3D('',#1205,#917,#918);
#765=AXIS2_PLACEMENT_3D('',#1206,#919,#920);
#766=AXIS2_PLACEMENT_3D('',#1208,#922,#923);
#767=AXIS2_PLACEMENT_3D('',#1214,#927,#928);
#768=AXIS2_PLACEMENT_3D('',#1217,#930,#931);
#769=AXIS2_PLACEMENT_3D('',#1218,#932,#933);
#770=AXIS2_PLACEMENT_3D('',#1222,#936,#937);
#771=AXIS2_PLACEMENT_3D('',#1225,#939,#940);
#772=AXIS2_PLACEMENT_3D('',#1226,#941,#942);
#773=AXIS2_PLACEMENT_3D('',#1230,#945,#946);
#774=AXIS2_PLACEMENT_3D('',#1233,#948,#949);
#775=AXIS2_PLACEMENT_3D('',#1257,#951,#952);
#776=AXIS2_PLACEMENT_3D('',#1275,#956,#957);
#777=AXIS2_PLACEMENT_3D('',#1302,#961,#962);
#778=AXIS2_PLACEMENT_3D('',#1303,#963,#964);
#779=AXIS2_PLACEMENT_3D('',#1304,#965,#966);
#780=AXIS2_PLACEMENT_3D('',#1305,#967,#968);
#781=DIRECTION('axis',(0.,0.,1.));
#782=DIRECTION('refdir',(1.,0.,0.));
#783=DIRECTION('axis',(0.,0.,1.));
#784=DIRECTION('refdir',(1.,0.,0.));
#785=DIRECTION('center_axis',(0.,0.,-1.));
#786=DIRECTION('ref_axis',(-0.707094769196158,-0.707118792972886,0.));
#787=DIRECTION('',(0.,0.,1.));
#788=DIRECTION('center_axis',(0.,0.,1.));
#789=DIRECTION('ref_axis',(-0.707094769196158,-0.707118792972886,0.));
#790=DIRECTION('',(0.,0.,-1.));
#791=DIRECTION('center_axis',(-0.707106781077669,-1.23970779041684E-5,0.707106781186753));
#792=DIRECTION('ref_axis',(0.707106781078079,1.23970779041756E-5,0.707106781186342));
#793=DIRECTION('center_axis',(0.,0.,-1.));
#794=DIRECTION('ref_axis',(0.707119178155678,-0.70709438400007,0.));
#795=DIRECTION('',(0.,0.,1.));
#796=DIRECTION('center_axis',(0.,0.,1.));
#797=DIRECTION('ref_axis',(0.707119178155678,-0.70709438400007,0.));
#798=DIRECTION('',(0.,0.,-1.));
#799=DIRECTION('center_axis',(0.70710678107787,1.23970779041719E-5,0.707106781186552));
#800=DIRECTION('ref_axis',(-0.707106781077878,-1.23970779041721E-5,0.707106781186543));
#801=DIRECTION('center_axis',(-0.999999999846312,-1.7532115696114E-5,0.));
#802=DIRECTION('ref_axis',(1.23970779544159E-5,-0.707106781077828,-0.707106781186594));
#803=DIRECTION('',(0.999999999846312,1.7532115696114E-5,0.));
#804=DIRECTION('',(-0.999999999846312,-1.7532115696114E-5,0.));
#805=DIRECTION('center_axis',(1.7532115696114E-5,-0.999999999846312,0.));
#806=DIRECTION('ref_axis',(-0.999999999846312,-1.7532115696114E-5,0.));
#807=DIRECTION('',(0.999999999846312,1.7532115696114E-5,0.));
#808=DIRECTION('center_axis',(0.,0.,-1.));
#809=DIRECTION('ref_axis',(0.707100582620577,0.707112979698182,0.));
#810=DIRECTION('',(0.,0.,1.));
#811=DIRECTION('center_axis',(0.,-0.707106781186543,-0.707106781186552));
#812=DIRECTION('ref_axis',(4.90653893338683E-17,0.707106781186552,-0.707106781186543));
#813=DIRECTION('center_axis',(-0.70710678107787,-1.23970778983413E-5,-0.707106781186551));
#814=DIRECTION('ref_axis',(0.707106781077878,1.23970778983334E-5,-0.707106781186544));
#815=DIRECTION('',(0.,0.,-1.));
#816=DIRECTION('center_axis',(0.707106781186544,0.,0.707106781186551));
#817=DIRECTION('ref_axis',(-0.707106781186551,0.,0.707106781186544));
#818=DIRECTION('center_axis',(0.,0.,-1.));
#819=DIRECTION('ref_axis',(-0.707112594512139,0.707100967813163,0.));
#820=DIRECTION('',(0.,0.,1.));
#821=DIRECTION('center_axis',(0.707106781090956,1.16266989032011E-5,-0.707106781186552));
#822=DIRECTION('ref_axis',(-0.707106781090965,-1.16266989031895E-5,-0.707106781186543));
#823=DIRECTION('center_axis',(0.,-0.707106781186543,-0.707106781186552));
#824=DIRECTION('ref_axis',(-4.90653893338683E-17,0.707106781186552,-0.707106781186543));
#825=DIRECTION('',(0.,0.,-1.));
#826=DIRECTION('center_axis',(-0.707106781186542,0.,0.707106781186553));
#827=DIRECTION('ref_axis',(0.707106781186553,0.,0.707106781186542));
#828=DIRECTION('',(-1.64426352745355E-5,0.99999999986482,0.));
#829=DIRECTION('center_axis',(1.,0.,0.));
#830=DIRECTION('ref_axis',(0.,0.707106781186527,-0.707106781186568));
#831=DIRECTION('',(-1.,0.,0.));
#832=DIRECTION('',(1.,0.,0.));
#833=DIRECTION('',(1.75321156976302E-5,-0.999999999846312,0.));
#834=DIRECTION('center_axis',(0.,1.,0.));
#835=DIRECTION('ref_axis',(1.,0.,0.));
#836=DIRECTION('',(-1.,0.,0.));
#837=DIRECTION('center_axis',(-0.707106781090956,-1.16266989032011E-5,0.707106781186552));
#838=DIRECTION('ref_axis',(0.707106781234345,0.,0.70710678113875));
#839=DIRECTION('',(1.64426352745355E-5,-0.99999999986482,0.));
#840=DIRECTION('',(-1.64426352745355E-5,0.99999999986482,0.));
#841=DIRECTION('',(-0.57735997193508,0.577340356607021,-0.577350478860112));
#842=DIRECTION('',(-1.64426352745355E-5,0.99999999986482,0.));
#843=DIRECTION('',(0.577356597962895,-0.57734710477698,0.577347104776972));
#844=DIRECTION('center_axis',(-0.99999999986482,-1.64426352745355E-5,0.));
#845=DIRECTION('ref_axis',(-1.64426352745355E-5,0.99999999986482,0.));
#846=DIRECTION('',(-1.64426352745355E-5,0.99999999986482,0.));
#847=DIRECTION('center_axis',(-1.23970778988323E-5,0.70710678107787,0.707106781186551));
#848=DIRECTION('ref_axis',(0.999999999846312,0.,1.75321156956298E-5));
#849=DIRECTION('',(-0.999999999846312,-1.75321156983244E-5,0.));
#850=DIRECTION('',(0.577340146929179,0.577360391272614,-0.577350269189622));
#851=DIRECTION('',(0.999999999846312,1.75321156983244E-5,0.));
#852=DIRECTION('',(0.186022214823084,0.694766243962633,-0.694762982492856));
#853=DIRECTION('center_axis',(0.353334094932327,0.612498993761079,0.707106781186561));
#854=DIRECTION('ref_axis',(0.894538133030185,0.,-0.446991642600699));
#855=DIRECTION('',(0.866204383916808,-0.499689869102129,0.));
#856=DIRECTION('',(-0.353747710021745,-0.612260204206028,0.707106781186522));
#857=DIRECTION('',(-0.866204383916808,0.499689869102129,0.));
#858=DIRECTION('center_axis',(0.,0.,1.));
#859=DIRECTION('ref_axis',(1.,0.,0.));
#860=DIRECTION('',(1.75321156976302E-5,-0.999999999846312,0.));
#861=DIRECTION('',(1.,0.,0.));
#862=DIRECTION('',(0.999999999846312,1.75321156983244E-5,0.));
#863=DIRECTION('',(5.63993614939073E-10,1.,0.));
#864=DIRECTION('center_axis',(0.,0.,-1.));
#865=DIRECTION('ref_axis',(-1.,0.,0.));
#866=DIRECTION('',(-1.,0.,0.));
#867=DIRECTION('center_axis',(0.,0.,-1.));
#868=DIRECTION('ref_axis',(0.,-1.,0.));
#869=DIRECTION('',(-0.50151073715946,-0.865151420569703,0.));
#870=DIRECTION('center_axis',(0.,0.707106781186543,0.707106781186552));
#871=DIRECTION('ref_axis',(1.,0.,0.));
#872=DIRECTION('',(0.577343521075149,0.577353643217291,-0.577353643217283));
#873=DIRECTION('center_axis',(0.70710678107787,1.23970778983413E-5,0.707106781186551));
#874=DIRECTION('ref_axis',(0.707106781240888,0.,-0.707106781132207));
#875=DIRECTION('',(1.75321156976302E-5,-0.999999999846312,0.));
#876=DIRECTION('',(-1.75321156976302E-5,0.999999999846312,0.));
#877=DIRECTION('center_axis',(-1.23970778988323E-5,0.70710678107787,0.707106781186551));
#878=DIRECTION('ref_axis',(0.999999999846312,0.,1.75321156956298E-5));
#879=DIRECTION('',(-0.999999999846312,-1.75321156983244E-5,0.));
#880=DIRECTION('',(1.23970779041721E-5,-0.707106781077878,0.707106781186544));
#881=DIRECTION('',(-0.476870065639468,-0.52210625402979,0.70710678118654));
#882=DIRECTION('center_axis',(-0.707106781186543,3.9880370966933E-10,0.707106781186552));
#883=DIRECTION('ref_axis',(0.707106781186552,0.,0.707106781186543));
#884=DIRECTION('',(0.707106781186552,-3.98828605985015E-10,0.707106781186543));
#885=DIRECTION('',(-0.707106781186552,3.98828605985015E-10,-0.707106781186543));
#886=DIRECTION('',(-5.63993614939073E-10,-1.,0.));
#887=DIRECTION('center_axis',(0.,0.,-1.));
#888=DIRECTION('ref_axis',(-1.,0.,0.));
#889=DIRECTION('',(0.,0.707106781186552,0.707106781186543));
#890=DIRECTION('center_axis',(0.,0.,1.));
#891=DIRECTION('ref_axis',(-1.,0.,0.));
#892=DIRECTION('center_axis',(0.,-0.707106781186543,0.707106781186552));
#893=DIRECTION('ref_axis',(1.,0.,0.));
#894=DIRECTION('',(0.,0.707106781186552,0.707106781186543));
#895=DIRECTION('',(1.,0.,0.));
#896=DIRECTION('center_axis',(0.,0.,-1.));
#897=DIRECTION('ref_axis',(0.,-1.,0.));
#898=DIRECTION('',(-0.611754436238,0.354621643083316,0.707106781186558));
#899=DIRECTION('center_axis',(0.,0.,1.));
#900=DIRECTION('ref_axis',(0.,-1.,0.));
#901=DIRECTION('center_axis',(0.611754436238021,-0.354621643083324,0.707106781186537));
#902=DIRECTION('ref_axis',(0.756255939561422,0.,-0.65427590042586));
#903=DIRECTION('',(-0.611754436238,0.354621643083316,0.707106781186558));
#904=DIRECTION('',(0.50151073715946,0.865151420569703,0.));
#905=DIRECTION('center_axis',(0.,0.,-1.));
#906=DIRECTION('ref_axis',(0.674396114317225,0.738369745448599,0.));
#907=DIRECTION('center_axis',(0.,0.,1.));
#908=DIRECTION('ref_axis',(0.674396114317225,0.738369745448599,0.));
#909=DIRECTION('',(-0.151675590197646,0.69064789534041,-0.707106781186588));
#910=DIRECTION('center_axis',(0.,0.,-1.));
#911=DIRECTION('ref_axis',(0.865151420569718,-0.501510737159434,0.));
#912=DIRECTION('center_axis',(0.,0.,1.));
#913=DIRECTION('ref_axis',(0.865151420569718,-0.501510737159434,0.));
#914=DIRECTION('center_axis',(0.,0.,-1.));
#915=DIRECTION('ref_axis',(-1.,0.,0.));
#916=DIRECTION('',(1.75321156976302E-5,-0.999999999846312,0.));
#917=DIRECTION('center_axis',(0.999999999846312,1.75321156976302E-5,0.));
#918=DIRECTION('ref_axis',(1.75321156976302E-5,-0.999999999846312,0.));
#919=DIRECTION('center_axis',(0.,0.,-1.));
#920=DIRECTION('ref_axis',(-1.,0.,0.));
#921=DIRECTION('',(0.999999999846312,1.75321156983244E-5,0.));
#922=DIRECTION('center_axis',(0.865151420569703,-0.50151073715946,0.));
#923=DIRECTION('ref_axis',(0.50151073715946,0.865151420569703,0.));
#924=DIRECTION('',(0.,0.,1.));
#925=DIRECTION('',(-0.50151073715946,-0.865151420569703,0.));
#926=DIRECTION('',(0.,0.,1.));
#927=DIRECTION('center_axis',(0.,0.,1.));
#928=DIRECTION('ref_axis',(0.,-1.,0.));
#929=DIRECTION('',(0.,0.,1.));
#930=DIRECTION('center_axis',(0.,0.,1.));
#931=DIRECTION('ref_axis',(0.,-1.,0.));
#932=DIRECTION('center_axis',(0.,-1.,0.));
#933=DIRECTION('ref_axis',(1.,0.,0.));
#934=DIRECTION('',(0.,0.,1.));
#935=DIRECTION('',(1.,0.,0.));
#936=DIRECTION('center_axis',(0.,0.,1.));
#937=DIRECTION('ref_axis',(-1.,0.,0.));
#938=DIRECTION('',(0.,0.,1.));
#939=DIRECTION('center_axis',(0.,0.,1.));
#940=DIRECTION('ref_axis',(-1.,0.,0.));
#941=DIRECTION('center_axis',(-1.,5.63993614939073E-10,0.));
#942=DIRECTION('ref_axis',(-5.63993614939073E-10,-1.,0.));
#943=DIRECTION('',(0.,0.,1.));
#944=DIRECTION('',(-5.63993614939073E-10,-1.,0.));
#945=DIRECTION('center_axis',(0.,0.,1.));
#946=DIRECTION('ref_axis',(0.674396114317225,0.738369745448599,0.));
#947=DIRECTION('',(0.,0.,1.));
#948=DIRECTION('center_axis',(0.,0.,1.));
#949=DIRECTION('ref_axis',(0.674396114317225,0.738369745448599,0.));
#950=DIRECTION('',(0.,0.,1.));
#951=DIRECTION('center_axis',(-1.75321156983244E-5,0.999999999846312,0.));
#952=DIRECTION('ref_axis',(-0.999999999846312,-1.75321156983244E-5,0.));
#953=DIRECTION('',(0.,0.,1.));
#954=DIRECTION('',(-0.999999999846312,-1.75321156983244E-5,0.));
#955=DIRECTION('',(0.,0.,1.));
#956=DIRECTION('center_axis',(0.499689869102129,0.866204383916808,0.));
#957=DIRECTION('ref_axis',(-0.866204383916808,0.499689869102129,0.));
#958=DIRECTION('',(0.,0.,1.));
#959=DIRECTION('',(-0.866204383916808,0.499689869102129,0.));
#960=DIRECTION('',(0.,0.,1.));
#961=DIRECTION('center_axis',(0.,0.,1.));
#962=DIRECTION('ref_axis',(0.865151420569718,-0.501510737159434,0.));
#963=DIRECTION('center_axis',(0.,0.,1.));
#964=DIRECTION('ref_axis',(0.865151420569718,-0.501510737159434,0.));
#965=DIRECTION('center_axis',(0.,0.,1.));
#966=DIRECTION('ref_axis',(1.,0.,0.));
#967=DIRECTION('',(0.,0.,1.));
#968=DIRECTION('',(1.,0.,0.));
#969=CARTESIAN_POINT('',(0.,0.,0.));
#970=CARTESIAN_POINT('',(0.,0.,0.));
#971=CARTESIAN_POINT('Origin',(-766.67989766226,-831.540655629323,23.));
#972=CARTESIAN_POINT('',(-766.679880130144,-832.540655629169,17.));
#973=CARTESIAN_POINT('',(-766.679880130144,-832.540655629169,21.));
#974=CARTESIAN_POINT('',(-766.679880130144,-832.540655629169,23.));
#975=CARTESIAN_POINT('',(-767.679897662125,-831.540672071958,21.));
#976=CARTESIAN_POINT('Origin',(-766.67989766226,-831.540655629323,21.));
#977=CARTESIAN_POINT('',(-767.679897662107,-831.540673161438,16.));
#978=CARTESIAN_POINT('',(-767.679897662125,-831.540672071958,23.));
#979=CARTESIAN_POINT('Origin',(-766.67989766226,-831.540655629323,17.));
#980=CARTESIAN_POINT('Origin',(-738.679894402733,-831.540164730026,23.));
#981=CARTESIAN_POINT('',(-737.679894402887,-831.54014719791,16.));
#982=CARTESIAN_POINT('',(-737.679894402887,-831.54014719791,21.));
#983=CARTESIAN_POINT('',(-737.679894402887,-831.54014719791,23.));
#984=CARTESIAN_POINT('',(-738.679876870617,-832.540164729872,21.));
#985=CARTESIAN_POINT('Origin',(-738.679894402733,-831.540164730026,21.));
#986=CARTESIAN_POINT('',(-738.679876870617,-832.540164729872,17.));
#987=CARTESIAN_POINT('',(-738.679876870617,-832.540164729872,23.));
#988=CARTESIAN_POINT('Origin',(-738.679894402733,-831.540164730026,17.));
#989=CARTESIAN_POINT('Origin',(-745.179894402971,-831.540278688778,17.));
#990=CARTESIAN_POINT('',(-745.179894402971,-831.540278688778,16.));
#991=CARTESIAN_POINT('',(-745.179876870856,-832.540278688624,17.));
#992=CARTESIAN_POINT('Origin',(-737.679876870771,-832.540147197757,23.));
#993=CARTESIAN_POINT('',(-767.679890484084,-832.540673161466,21.));
#994=CARTESIAN_POINT('Origin',(-738.679929458051,-829.540673161466,23.));
#995=CARTESIAN_POINT('',(-738.679929458051,-828.540673161466,17.));
#996=CARTESIAN_POINT('',(-738.679929458051,-828.540673161466,21.));
#997=CARTESIAN_POINT('',(-738.679929458051,-828.540673161466,23.));
#998=CARTESIAN_POINT('',(-737.97282887543,-828.833560181768,21.2928870203015));
#999=CARTESIAN_POINT('Origin',(-738.679929458051,-829.540673161466,21.9999999999997));
#1000=CARTESIAN_POINT('',(-737.679929458204,-829.54065562935,21.));
#1001=CARTESIAN_POINT('Origin',(-738.679929458051,-829.540673161466,22.));
#1002=CARTESIAN_POINT('',(-737.679929458204,-829.54065562935,16.0000000001537));
#1003=CARTESIAN_POINT('',(-737.679929458204,-829.54065562935,23.));
#1004=CARTESIAN_POINT('Origin',(-738.679929458051,-829.540673161466,17.));
#1005=CARTESIAN_POINT('Origin',(-766.679930547242,-829.540673161466,23.));
#1006=CARTESIAN_POINT('',(-767.679930547107,-829.540689604101,16.));
#1007=CARTESIAN_POINT('',(-767.679930547107,-829.540689604101,21.));
#1008=CARTESIAN_POINT('',(-767.679930547107,-829.540689604101,23.));
#1009=CARTESIAN_POINT('',(-767.387043141754,-828.833572193653,21.2928990321867));
#1010=CARTESIAN_POINT('Origin',(-766.679930547242,-829.540673161466,22.0000000000001));
#1011=CARTESIAN_POINT('',(-766.679930547242,-828.540673161466,21.));
#1012=CARTESIAN_POINT('Origin',(-766.679930547242,-829.540673161466,21.9999999999999));
#1013=CARTESIAN_POINT('',(-766.679930547242,-828.540673161466,17.));
#1014=CARTESIAN_POINT('',(-766.679930547242,-828.540673161466,23.));
#1015=CARTESIAN_POINT('',(-767.679930547242,-829.540673161466,16.));
#1016=CARTESIAN_POINT('Origin',(-766.679930547242,-829.540673161466,17.));
#1017=CARTESIAN_POINT('',(-767.679946990013,-828.540673161466,16.));
#1018=CARTESIAN_POINT('Origin',(-760.179929460202,-829.540673161466,17.));
#1019=CARTESIAN_POINT('',(-737.679929457897,-829.540673161466,16.));
#1020=CARTESIAN_POINT('',(-760.179929460202,-829.540673161466,16.));
#1021=CARTESIAN_POINT('',(-760.179929460202,-828.540673161466,17.));
#1022=CARTESIAN_POINT('',(-737.679946990013,-828.540673161466,16.));
#1023=CARTESIAN_POINT('Origin',(-767.679946990013,-828.540673161466,23.));
#1024=CARTESIAN_POINT('',(-761.607136950264,-828.540673161466,21.));
#1025=CARTESIAN_POINT('Origin',(-766.679406878492,-861.388898323034,22.));
#1026=CARTESIAN_POINT('',(-767.679406878357,-861.38891476567,21.));
#1027=CARTESIAN_POINT('',(-767.679741396273,-841.044370764362,21.));
#1028=CARTESIAN_POINT('',(-767.679946990013,-828.540673161466,21.));
#1029=CARTESIAN_POINT('',(-765.679708511309,-843.044335699862,23.));
#1030=CARTESIAN_POINT('',(-759.276481632181,-849.447345034646,29.4031215959148));
#1031=CARTESIAN_POINT('',(-765.679914104472,-830.540673161466,23.));
#1032=CARTESIAN_POINT('',(-765.679406878627,-861.388881880399,23.));
#1033=CARTESIAN_POINT('',(-767.679946990013,-828.540673161466,21.));
#1034=CARTESIAN_POINT('Origin',(-767.679741396273,-841.044370764362,23.));
#1035=CARTESIAN_POINT('',(-767.679946990013,-828.540673161466,16.));
#1036=CARTESIAN_POINT('Origin',(-741.605524344555,-842.043913628326,22.));
#1037=CARTESIAN_POINT('',(-727.633562699032,-841.054535832082,21.0108671619563));
#1038=CARTESIAN_POINT('',(-727.676043476795,-841.043669414902,21.));
#1039=CARTESIAN_POINT('Ctrl Pts',(-727.633562699032,-841.054535832082,21.0108671619559));
#1040=CARTESIAN_POINT('Ctrl Pts',(-727.633679238846,-841.054504828451,21.0108361562823));
#1041=CARTESIAN_POINT('Ctrl Pts',(-727.633795752631,-841.054473841228,21.010805167017));
#1042=CARTESIAN_POINT('Ctrl Pts',(-727.647750777952,-841.05076359117,21.0070946722982));
#1043=CARTESIAN_POINT('Ctrl Pts',(-727.662111327661,-841.04707922244,21.0034100517979));
#1044=CARTESIAN_POINT('Ctrl Pts',(-727.676043476795,-841.043669414902,21.0000000000001));
#1045=CARTESIAN_POINT('',(-737.679727782961,-841.043844800652,21.));
#1046=CARTESIAN_POINT('',(-741.605541876671,-841.043913628479,21.));
#1047=CARTESIAN_POINT('',(-739.679692718422,-843.043879864576,23.));
#1048=CARTESIAN_POINT('',(-741.68274358511,-845.047000967935,25.0030859853315));
#1049=CARTESIAN_POINT('',(-728.16615137378,-843.043678007838,23.));
#1050=CARTESIAN_POINT('',(-741.605506812439,-843.043913628172,23.));
#1051=CARTESIAN_POINT('',(-728.449269485117,-844.101083474161,24.0574005025018));
#1052=CARTESIAN_POINT('Origin',(-712.195061874691,-851.102505405655,22.));
#1053=CARTESIAN_POINT('',(-693.436054180079,-863.078530736193,23.));
#1054=CARTESIAN_POINT('',(-712.694751743793,-851.968709789572,23.));
#1055=CARTESIAN_POINT('',(-692.435504561737,-861.346797367214,21.));
#1056=CARTESIAN_POINT('',(-692.435504561737,-861.346797367214,21.));
#1057=CARTESIAN_POINT('',(-727.591838267665,-841.066059802495,21.));
#1058=CARTESIAN_POINT('',(-711.695372005589,-850.236301021738,21.));
#1059=CARTESIAN_POINT('Ctrl Pts',(-727.591838267665,-841.066059802495,21.0000000000003));
#1060=CARTESIAN_POINT('Ctrl Pts',(-727.605564592349,-841.062116886228,21.0034435340287));
#1061=CARTESIAN_POINT('Ctrl Pts',(-727.619782047468,-841.058201963115,21.0071567287532));
#1062=CARTESIAN_POINT('Ctrl Pts',(-727.633562699032,-841.054535832081,21.0108671619562));
#1063=CARTESIAN_POINT('Origin',(-755.534326910516,-881.733259075357,23.));
#1064=CARTESIAN_POINT('',(-739.679911926089,-830.540673161466,23.));
#1065=CARTESIAN_POINT('',(-739.679445643543,-857.136581680086,23.));
#1066=CARTESIAN_POINT('',(-761.607136950264,-830.540673161466,23.));
#1067=CARTESIAN_POINT('',(-818.11975824453,-843.045255084881,23.));
#1068=CARTESIAN_POINT('',(-741.605506812439,-843.043913628172,23.));
#1069=CARTESIAN_POINT('',(-826.417284418026,-839.82285528321,23.));
#1070=CARTESIAN_POINT('Ctrl Pts',(-826.417284418026,-839.82285528321,23.));
#1071=CARTESIAN_POINT('Ctrl Pts',(-826.089608716172,-840.122140595818,23.));
#1072=CARTESIAN_POINT('Ctrl Pts',(-825.745817959061,-840.40375689237,23.));
#1073=CARTESIAN_POINT('Ctrl Pts',(-825.387400250632,-840.666467831732,23.));
#1074=CARTESIAN_POINT('Ctrl Pts',(-823.354465577083,-842.15655653324,23.));
#1075=CARTESIAN_POINT('Ctrl Pts',(-820.812816856716,-843.045302299896,23.));
#1076=CARTESIAN_POINT('Ctrl Pts',(-818.11975824453,-843.045255084881,23.));
#1077=CARTESIAN_POINT('',(-826.417284460789,-915.643662868633,23.));
#1078=CARTESIAN_POINT('',(-826.417284429845,-860.778057159295,23.));
#1079=CARTESIAN_POINT('',(-818.417284460789,-923.643662867505,23.));
#1080=CARTESIAN_POINT('Origin',(-818.417284460789,-915.643662867505,23.));
#1081=CARTESIAN_POINT('',(-723.578286868886,-923.643662867505,23.));
#1082=CARTESIAN_POINT('',(-786.975805685652,-923.643662867505,23.));
#1083=CARTESIAN_POINT('',(-716.657075504329,-919.655748764781,23.));
#1084=CARTESIAN_POINT('Origin',(-723.578286868886,-915.643662867505,23.));
#1085=CARTESIAN_POINT('',(-684.651369360244,-864.443008368183,23.));
#1086=CARTESIAN_POINT('',(-713.319186335021,-913.897587787237,23.));
#1087=CARTESIAN_POINT('Ctrl Pts',(-693.43605418008,-863.078530736192,23.));
#1088=CARTESIAN_POINT('Ctrl Pts',(-692.5261464222,-863.604251309683,23.));
#1089=CARTESIAN_POINT('Ctrl Pts',(-691.562475482539,-864.005181183771,23.));
#1090=CARTESIAN_POINT('Ctrl Pts',(-690.57641398239,-864.279021309843,23.));
#1091=CARTESIAN_POINT('Ctrl Pts',(-688.602276594496,-864.827260979582,23.));
#1092=CARTESIAN_POINT('Ctrl Pts',(-686.57004791314,-864.864376048985,23.));
#1093=CARTESIAN_POINT('Ctrl Pts',(-684.651369360244,-864.443008368183,23.));
#1094=CARTESIAN_POINT('Origin',(-761.607136950264,-829.540673161466,22.));
#1095=CARTESIAN_POINT('',(-739.679911926089,-830.540673161466,23.));
#1096=CARTESIAN_POINT('Origin',(-738.679445643697,-857.13656414797,22.));
#1097=CARTESIAN_POINT('',(-737.679946990013,-828.540673161466,21.));
#1098=CARTESIAN_POINT('',(-737.679445643851,-857.136546615855,21.));
#1099=CARTESIAN_POINT('Origin',(-741.605524344555,-842.043913628326,22.));
#1100=CARTESIAN_POINT('',(-818.119793308761,-841.045255085188,21.));
#1101=CARTESIAN_POINT('',(-741.605541876671,-841.043913628479,21.));
#1102=CARTESIAN_POINT('',(-818.119793308761,-841.045255085188,21.));
#1103=CARTESIAN_POINT('Ctrl Pts',(-818.11975824453,-843.045255084881,23.));
#1104=CARTESIAN_POINT('Ctrl Pts',(-820.812816856716,-843.045302299896,23.));
#1105=CARTESIAN_POINT('Ctrl Pts',(-823.354465577083,-842.15655653324,23.));
#1106=CARTESIAN_POINT('Ctrl Pts',(-825.387400250632,-840.666467831732,23.));
#1107=CARTESIAN_POINT('Ctrl Pts',(-825.745817959061,-840.40375689237,23.));
#1108=CARTESIAN_POINT('Ctrl Pts',(-826.089608716172,-840.122140595818,23.));
#1109=CARTESIAN_POINT('Ctrl Pts',(-826.417284418026,-839.82285528321,23.));
#1110=CARTESIAN_POINT('Ctrl Pts',(-818.119769932607,-842.378588418317,22.3333333333333));
#1111=CARTESIAN_POINT('Ctrl Pts',(-820.663752473428,-842.379415203616,22.3333333333333));
#1112=CARTESIAN_POINT('Ctrl Pts',(-823.073018567972,-841.537008169441,22.3333333333333));
#1113=CARTESIAN_POINT('Ctrl Pts',(-824.993283386492,-840.128772432975,22.3333333333333));
#1114=CARTESIAN_POINT('Ctrl Pts',(-825.332426000074,-839.880189668281,22.3333333333333));
#1115=CARTESIAN_POINT('Ctrl Pts',(-825.657695450773,-839.613742172737,22.3333333333333));
#1116=CARTESIAN_POINT('Ctrl Pts',(-825.967687008481,-839.330608786244,22.3333333333333));
#1117=CARTESIAN_POINT('Ctrl Pts',(-818.119781620684,-841.711921751753,21.6666666666667));
#1118=CARTESIAN_POINT('Ctrl Pts',(-820.516945703576,-841.711181595207,21.6666666666667));
#1119=CARTESIAN_POINT('Ctrl Pts',(-822.792438947181,-840.914630631027,21.6666666666667));
#1120=CARTESIAN_POINT('Ctrl Pts',(-824.599166522352,-839.591077034218,21.6666666666667));
#1121=CARTESIAN_POINT('Ctrl Pts',(-824.919033968571,-839.356622416025,21.6666666666667));
#1122=CARTESIAN_POINT('Ctrl Pts',(-825.22578205074,-839.105343772988,21.6666666666667));
#1123=CARTESIAN_POINT('Ctrl Pts',(-825.518089598937,-838.838362289278,21.6666666666667));
#1124=CARTESIAN_POINT('Ctrl Pts',(-818.119793308761,-841.045255085189,21.));
#1125=CARTESIAN_POINT('Ctrl Pts',(-820.367881320289,-841.045294498928,21.));
#1126=CARTESIAN_POINT('Ctrl Pts',(-822.51099193807,-840.295082267227,21.));
#1127=CARTESIAN_POINT('Ctrl Pts',(-824.205049658212,-839.05338163546,21.));
#1128=CARTESIAN_POINT('Ctrl Pts',(-824.505642009584,-838.833055191936,21.));
#1129=CARTESIAN_POINT('Ctrl Pts',(-824.793868785341,-838.596945349908,21.));
#1130=CARTESIAN_POINT('Ctrl Pts',(-825.068492189392,-838.346115792313,21.));
#1131=CARTESIAN_POINT('',(-825.068492189392,-838.346115792313,21.));
#1132=CARTESIAN_POINT('',(-825.068492189392,-838.346115792313,21.));
#1133=CARTESIAN_POINT('Ctrl Pts',(-818.119793308761,-841.045255085189,21.));
#1134=CARTESIAN_POINT('Ctrl Pts',(-820.367881320289,-841.045294498928,21.));
#1135=CARTESIAN_POINT('Ctrl Pts',(-822.51099193807,-840.295082267227,21.));
#1136=CARTESIAN_POINT('Ctrl Pts',(-824.205049658212,-839.05338163546,21.));
#1137=CARTESIAN_POINT('Ctrl Pts',(-824.505642009584,-838.833055191936,21.));
#1138=CARTESIAN_POINT('Ctrl Pts',(-824.793868785341,-838.596945349908,21.));
#1139=CARTESIAN_POINT('Ctrl Pts',(-825.068492189392,-838.346115792313,21.));
#1140=CARTESIAN_POINT('Origin',(-827.417284429845,-860.778057158731,22.));
#1141=CARTESIAN_POINT('',(-828.417284460789,-915.643662867505,21.));
#1142=CARTESIAN_POINT('',(-828.417284460789,-915.643662867505,21.));
#1143=CARTESIAN_POINT('',(-828.417284418026,-839.822855282082,21.));
#1144=CARTESIAN_POINT('',(-826.417284418026,-839.82285528321,23.));
#1145=CARTESIAN_POINT('',(-828.417284429845,-860.778057158167,21.));
#1146=CARTESIAN_POINT('Origin',(-818.417284460789,-915.643662867505,22.));
#1147=CARTESIAN_POINT('',(-818.417284460789,-925.643662867505,21.));
#1148=CARTESIAN_POINT('',(-818.417284460789,-925.643662867505,21.));
#1149=CARTESIAN_POINT('Origin',(-818.417284460789,-915.643662867505,21.));
#1150=CARTESIAN_POINT('Origin',(-786.975805685652,-924.643662867505,22.));
#1151=CARTESIAN_POINT('',(-723.578286868886,-925.643662867505,21.));
#1152=CARTESIAN_POINT('',(-723.578286868886,-925.643662867505,21.));
#1153=CARTESIAN_POINT('',(-786.975805685652,-925.643662867505,21.));
#1154=CARTESIAN_POINT('Origin',(-723.578286868886,-915.643662867505,22.));
#1155=CARTESIAN_POINT('',(-714.926772663189,-920.6587702391,21.));
#1156=CARTESIAN_POINT('',(-714.926772663189,-920.6587702391,21.));
#1157=CARTESIAN_POINT('Origin',(-723.578286868886,-915.643662867505,21.));
#1158=CARTESIAN_POINT('Origin',(-712.454034914451,-914.399098524397,22.));
#1159=CARTESIAN_POINT('',(-682.921066519104,-865.446029842502,21.));
#1160=CARTESIAN_POINT('',(-682.921066519104,-865.446029842502,21.));
#1161=CARTESIAN_POINT('',(-711.588883493882,-914.900609261556,21.));
#1162=CARTESIAN_POINT('Origin',(-826.417284418026,-839.82285528321,21.));
#1163=CARTESIAN_POINT('Origin',(-826.417284418026,-839.82285528321,21.));
#1164=CARTESIAN_POINT('Ctrl Pts',(-684.651369360244,-864.443008368183,23.));
#1165=CARTESIAN_POINT('Ctrl Pts',(-686.57004791314,-864.864376048985,23.));
#1166=CARTESIAN_POINT('Ctrl Pts',(-688.602276594496,-864.827260979582,23.));
#1167=CARTESIAN_POINT('Ctrl Pts',(-690.57641398239,-864.279021309843,23.));
#1168=CARTESIAN_POINT('Ctrl Pts',(-691.562475482539,-864.005181183771,23.));
#1169=CARTESIAN_POINT('Ctrl Pts',(-692.5261464222,-863.604251309683,23.));
#1170=CARTESIAN_POINT('Ctrl Pts',(-693.43605418008,-863.078530736192,23.));
#1171=CARTESIAN_POINT('Ctrl Pts',(-684.794370478069,-863.791859287907,22.3333333333333));
#1172=CARTESIAN_POINT('Ctrl Pts',(-686.609337075092,-864.190294653571,22.3333333333333));
#1173=CARTESIAN_POINT('Ctrl Pts',(-688.529866916112,-864.155346768025,22.3333333333333));
#1174=CARTESIAN_POINT('Ctrl Pts',(-690.398024562134,-863.636664976344,22.3333333333333));
#1175=CARTESIAN_POINT('Ctrl Pts',(-691.330144456513,-863.377844413922,22.3333333333333));
#1176=CARTESIAN_POINT('Ctrl Pts',(-692.242287179226,-862.998362458247,22.3333333333333));
#1177=CARTESIAN_POINT('Ctrl Pts',(-693.102537640632,-862.501286279866,22.3333333333333));
#1178=CARTESIAN_POINT('Ctrl Pts',(-684.937371595895,-863.14071020763,21.6666666666667));
#1179=CARTESIAN_POINT('Ctrl Pts',(-686.648089340337,-863.516562662069,21.6666666666667));
#1180=CARTESIAN_POINT('Ctrl Pts',(-688.456915534526,-863.483961407039,21.6666666666667));
#1181=CARTESIAN_POINT('Ctrl Pts',(-690.219635141878,-862.994308642846,21.6666666666667));
#1182=CARTESIAN_POINT('Ctrl Pts',(-691.097718511734,-862.750415845079,21.6666666666667));
#1183=CARTESIAN_POINT('Ctrl Pts',(-691.95832003973,-862.392397124633,21.6666666666667));
#1184=CARTESIAN_POINT('Ctrl Pts',(-692.769021101185,-861.92404182354,21.6666666666667));
#1185=CARTESIAN_POINT('Ctrl Pts',(-685.08037271372,-862.489561127353,21.));
#1186=CARTESIAN_POINT('Ctrl Pts',(-686.687378502289,-862.842481266655,21.));
#1187=CARTESIAN_POINT('Ctrl Pts',(-688.384505856141,-862.812047195482,21.));
#1188=CARTESIAN_POINT('Ctrl Pts',(-690.041245721622,-862.351952309348,21.));
#1189=CARTESIAN_POINT('Ctrl Pts',(-690.865387485708,-862.12307907523,21.));
#1190=CARTESIAN_POINT('Ctrl Pts',(-691.674460796756,-861.786508273196,21.));
#1191=CARTESIAN_POINT('Ctrl Pts',(-692.435504561737,-861.346797367213,21.));
#1192=CARTESIAN_POINT('',(-685.080372713721,-862.489561127354,21.));
#1193=CARTESIAN_POINT('',(-684.651369360244,-864.443008368183,23.));
#1194=CARTESIAN_POINT('Ctrl Pts',(-685.08037271372,-862.489561127353,21.));
#1195=CARTESIAN_POINT('Ctrl Pts',(-686.687378502289,-862.842481266655,21.));
#1196=CARTESIAN_POINT('Ctrl Pts',(-688.384505856141,-862.812047195482,21.));
#1197=CARTESIAN_POINT('Ctrl Pts',(-690.041245721622,-862.351952309348,21.));
#1198=CARTESIAN_POINT('Ctrl Pts',(-690.865387485708,-862.12307907523,21.));
#1199=CARTESIAN_POINT('Ctrl Pts',(-691.674460796756,-861.786508273196,21.));
#1200=CARTESIAN_POINT('Ctrl Pts',(-692.435504561737,-861.346797367213,21.));
#1201=CARTESIAN_POINT('Origin',(-684.651369360244,-864.443008368183,21.));
#1202=CARTESIAN_POINT('Origin',(-684.651369360244,-864.443008368183,21.));
#1203=CARTESIAN_POINT('Origin',(-752.679911930392,-830.540682793696,16.));
#1204=CARTESIAN_POINT('',(-737.679946990013,-828.540673161466,16.));
#1205=CARTESIAN_POINT('Origin',(-737.679876870771,-832.540147197757,23.));
#1206=CARTESIAN_POINT('Origin',(-755.534326910516,-877.092168014486,21.));
#1207=CARTESIAN_POINT('',(-741.605501192598,-841.043913627766,21.));
#1208=CARTESIAN_POINT('Origin',(-714.926772663189,-920.6587702391,0.));
#1209=CARTESIAN_POINT('',(-714.926772663189,-920.6587702391,0.));
#1210=CARTESIAN_POINT('',(-714.926772663189,-920.6587702391,0.));
#1211=CARTESIAN_POINT('',(-682.921066519104,-865.446029842502,0.));
#1212=CARTESIAN_POINT('',(-682.921066519104,-865.446029842502,0.));
#1213=CARTESIAN_POINT('',(-682.921066519104,-865.446029842502,0.));
#1214=CARTESIAN_POINT('Origin',(-723.578286868886,-915.643662867505,0.));
#1215=CARTESIAN_POINT('',(-723.578286868886,-925.643662867505,0.));
#1216=CARTESIAN_POINT('',(-723.578286868886,-925.643662867505,0.));
#1217=CARTESIAN_POINT('Origin',(-723.578286868886,-915.643662867505,0.));
#1218=CARTESIAN_POINT('Origin',(-818.417284460789,-925.643662867505,0.));
#1219=CARTESIAN_POINT('',(-818.417284460789,-925.643662867505,0.));
#1220=CARTESIAN_POINT('',(-818.417284460789,-925.643662867505,0.));
#1221=CARTESIAN_POINT('',(-818.417284460789,-925.643662867505,0.));
#1222=CARTESIAN_POINT('Origin',(-818.417284460789,-915.643662867505,0.));
#1223=CARTESIAN_POINT('',(-828.417284460789,-915.643662867505,0.));
#1224=CARTESIAN_POINT('',(-828.417284460789,-915.643662867505,0.));
#1225=CARTESIAN_POINT('Origin',(-818.417284460789,-915.643662867505,0.));
#1226=CARTESIAN_POINT('Origin',(-828.417284418026,-839.822855282082,0.));
#1227=CARTESIAN_POINT('',(-828.417284418026,-839.822855282082,0.));
#1228=CARTESIAN_POINT('',(-828.417284418026,-839.822855282082,0.));
#1229=CARTESIAN_POINT('',(-828.417284418026,-839.822855282082,0.));
#1230=CARTESIAN_POINT('Origin',(-826.417284418026,-839.82285528321,0.));
#1231=CARTESIAN_POINT('',(-825.068492189392,-838.346115792313,0.));
#1232=CARTESIAN_POINT('',(-825.068492189392,-838.346115792313,0.));
#1233=CARTESIAN_POINT('Origin',(-826.417284418026,-839.82285528321,0.));
#1234=CARTESIAN_POINT('Ctrl Pts',(-818.119793308761,-841.045255085188,0.));
#1235=CARTESIAN_POINT('Ctrl Pts',(-818.119793308761,-841.045255085188,23.));
#1236=CARTESIAN_POINT('Ctrl Pts',(-820.367881320289,-841.045294498927,0.));
#1237=CARTESIAN_POINT('Ctrl Pts',(-820.367881320289,-841.045294498927,23.));
#1238=CARTESIAN_POINT('Ctrl Pts',(-822.51099193807,-840.295082267227,0.));
#1239=CARTESIAN_POINT('Ctrl Pts',(-822.51099193807,-840.295082267227,23.));
#1240=CARTESIAN_POINT('Ctrl Pts',(-824.205049658212,-839.05338163546,0.));
#1241=CARTESIAN_POINT('Ctrl Pts',(-824.205049658212,-839.05338163546,23.));
#1242=CARTESIAN_POINT('Ctrl Pts',(-824.505642009584,-838.833055191936,0.));
#1243=CARTESIAN_POINT('Ctrl Pts',(-824.505642009584,-838.833055191936,23.));
#1244=CARTESIAN_POINT('Ctrl Pts',(-824.79386878534,-838.596945349908,0.));
#1245=CARTESIAN_POINT('Ctrl Pts',(-824.79386878534,-838.596945349908,23.));
#1246=CARTESIAN_POINT('Ctrl Pts',(-825.068492189392,-838.346115792313,0.));
#1247=CARTESIAN_POINT('Ctrl Pts',(-825.068492189392,-838.346115792313,23.));
#1248=CARTESIAN_POINT('',(-818.119793308761,-841.045255085188,0.));
#1249=CARTESIAN_POINT('',(-818.119793308761,-841.045255085188,0.));
#1250=CARTESIAN_POINT('Ctrl Pts',(-818.119793308761,-841.045255085188,0.));
#1251=CARTESIAN_POINT('Ctrl Pts',(-820.367881320289,-841.045294498927,0.));
#1252=CARTESIAN_POINT('Ctrl Pts',(-822.51099193807,-840.295082267227,0.));
#1253=CARTESIAN_POINT('Ctrl Pts',(-824.205049658212,-839.05338163546,0.));
#1254=CARTESIAN_POINT('Ctrl Pts',(-824.505642009584,-838.833055191936,0.));
#1255=CARTESIAN_POINT('Ctrl Pts',(-824.79386878534,-838.596945349908,0.));
#1256=CARTESIAN_POINT('Ctrl Pts',(-825.068492189392,-838.346115792313,0.));
#1257=CARTESIAN_POINT('Origin',(-727.676043476795,-841.043669414902,0.));
#1258=CARTESIAN_POINT('',(-727.676043476795,-841.043669414902,0.));
#1259=CARTESIAN_POINT('',(-727.676043476795,-841.043669414902,0.));
#1260=CARTESIAN_POINT('',(-727.676043476795,-841.043669414902,0.));
#1261=CARTESIAN_POINT('Ctrl Pts',(-727.591838267665,-841.066059802495,0.));
#1262=CARTESIAN_POINT('Ctrl Pts',(-727.591838267665,-841.066059802495,23.));
#1263=CARTESIAN_POINT('Ctrl Pts',(-727.618734651066,-841.058333758555,0.));
#1264=CARTESIAN_POINT('Ctrl Pts',(-727.618734651066,-841.058333758555,23.));
#1265=CARTESIAN_POINT('Ctrl Pts',(-727.649070647729,-841.050270848392,0.));
#1266=CARTESIAN_POINT('Ctrl Pts',(-727.649070647729,-841.050270848392,23.));
#1267=CARTESIAN_POINT('Ctrl Pts',(-727.676043476795,-841.043669414902,0.));
#1268=CARTESIAN_POINT('Ctrl Pts',(-727.676043476795,-841.043669414902,23.));
#1269=CARTESIAN_POINT('',(-727.591838267665,-841.066059802495,0.));
#1270=CARTESIAN_POINT('',(-727.591838267665,-841.066059802495,0.));
#1271=CARTESIAN_POINT('Ctrl Pts',(-727.591838267665,-841.066059802495,0.));
#1272=CARTESIAN_POINT('Ctrl Pts',(-727.618734651066,-841.058333758555,0.));
#1273=CARTESIAN_POINT('Ctrl Pts',(-727.649070647729,-841.050270848392,0.));
#1274=CARTESIAN_POINT('Ctrl Pts',(-727.676043476795,-841.043669414902,0.));
#1275=CARTESIAN_POINT('Origin',(-692.435504561737,-861.346797367214,0.));
#1276=CARTESIAN_POINT('',(-692.435504561737,-861.346797367214,0.));
#1277=CARTESIAN_POINT('',(-692.435504561737,-861.346797367214,0.));
#1278=CARTESIAN_POINT('',(-692.435504561737,-861.346797367214,0.));
#1279=CARTESIAN_POINT('Ctrl Pts',(-685.080372713736,-862.489561127357,0.));
#1280=CARTESIAN_POINT('Ctrl Pts',(-685.080372713736,-862.489561127357,23.));
#1281=CARTESIAN_POINT('Ctrl Pts',(-686.6873785023,-862.842481266655,0.));
#1282=CARTESIAN_POINT('Ctrl Pts',(-686.6873785023,-862.842481266655,23.));
#1283=CARTESIAN_POINT('Ctrl Pts',(-688.384505856147,-862.81204719548,0.));
#1284=CARTESIAN_POINT('Ctrl Pts',(-688.384505856147,-862.81204719548,23.));
#1285=CARTESIAN_POINT('Ctrl Pts',(-690.041245721622,-862.351952309348,0.));
#1286=CARTESIAN_POINT('Ctrl Pts',(-690.041245721622,-862.351952309348,23.));
#1287=CARTESIAN_POINT('Ctrl Pts',(-690.865387485708,-862.12307907523,0.));
#1288=CARTESIAN_POINT('Ctrl Pts',(-690.865387485708,-862.12307907523,23.));
#1289=CARTESIAN_POINT('Ctrl Pts',(-691.674460796756,-861.786508273196,0.));
#1290=CARTESIAN_POINT('Ctrl Pts',(-691.674460796756,-861.786508273196,23.));
#1291=CARTESIAN_POINT('Ctrl Pts',(-692.435504561737,-861.346797367214,0.));
#1292=CARTESIAN_POINT('Ctrl Pts',(-692.435504561737,-861.346797367214,23.));
#1293=CARTESIAN_POINT('',(-685.080372713721,-862.489561127353,0.));
#1294=CARTESIAN_POINT('',(-685.080372713721,-862.489561127353,0.));
#1295=CARTESIAN_POINT('Ctrl Pts',(-685.080372713736,-862.489561127357,0.));
#1296=CARTESIAN_POINT('Ctrl Pts',(-686.6873785023,-862.842481266655,0.));
#1297=CARTESIAN_POINT('Ctrl Pts',(-688.384505856147,-862.81204719548,0.));
#1298=CARTESIAN_POINT('Ctrl Pts',(-690.041245721622,-862.351952309348,0.));
#1299=CARTESIAN_POINT('Ctrl Pts',(-690.865387485708,-862.12307907523,0.));
#1300=CARTESIAN_POINT('Ctrl Pts',(-691.674460796756,-861.786508273196,0.));
#1301=CARTESIAN_POINT('Ctrl Pts',(-692.435504561737,-861.346797367214,0.));
#1302=CARTESIAN_POINT('Origin',(-684.651369360244,-864.443008368183,0.));
#1303=CARTESIAN_POINT('Origin',(-684.651369360244,-864.443008368183,0.));
#1304=CARTESIAN_POINT('Origin',(-755.534326910516,-881.733259075357,0.));
#1305=CARTESIAN_POINT('',(0.,0.,0.));
#1306=UNCERTAINTY_MEASURE_WITH_UNIT(LENGTH_MEASURE(0.01),#1312,
'DISTANCE_ACCURACY_VALUE',
'Maximum model space distance between geometric entities at asserted c
onnectivities');
#1307=UNCERTAINTY_MEASURE_WITH_UNIT(LENGTH_MEASURE(0.01),#1312,
'DISTANCE_ACCURACY_VALUE',
'Maximum model space distance between geometric entities at asserted c
onnectivities');
#1308=UNCERTAINTY_MEASURE_WITH_UNIT(LENGTH_MEASURE(0.01),#1312,
'DISTANCE_ACCURACY_VALUE',
'Maximum model space distance between geometric entities at asserted c
onnectivities');
#1309=(
GEOMETRIC_REPRESENTATION_CONTEXT(3)
GLOBAL_UNCERTAINTY_ASSIGNED_CONTEXT((#1306))
GLOBAL_UNIT_ASSIGNED_CONTEXT((#1312,#1314,#1315))
REPRESENTATION_CONTEXT('','3D')
);
#1310=(
GEOMETRIC_REPRESENTATION_CONTEXT(3)
GLOBAL_UNCERTAINTY_ASSIGNED_CONTEXT((#1307))
GLOBAL_UNIT_ASSIGNED_CONTEXT((#1312,#1314,#1315))
REPRESENTATION_CONTEXT('','3D')
);
#1311=(
GEOMETRIC_REPRESENTATION_CONTEXT(3)
GLOBAL_UNCERTAINTY_ASSIGNED_CONTEXT((#1308))
GLOBAL_UNIT_ASSIGNED_CONTEXT((#1312,#1314,#1315))
REPRESENTATION_CONTEXT('','3D')
);
#1312=(
LENGTH_UNIT()
NAMED_UNIT(*)
SI_UNIT(.MILLI.,.METRE.)
);
#1313=(
LENGTH_UNIT()
NAMED_UNIT(*)
SI_UNIT($,.METRE.)
);
#1314=(
NAMED_UNIT(*)
PLANE_ANGLE_UNIT()
SI_UNIT($,.RADIAN.)
);
#1315=(
NAMED_UNIT(*)
SI_UNIT($,.STERADIAN.)
SOLID_ANGLE_UNIT()
);
#1316=SHAPE_DEFINITION_REPRESENTATION(#1318,#1321);
#1317=SHAPE_DEFINITION_REPRESENTATION(#1319,#1322);
#1318=PRODUCT_DEFINITION_SHAPE('',$,#1324);
#1319=PRODUCT_DEFINITION_SHAPE('',$,#1325);
#1320=PRODUCT_DEFINITION_SHAPE($,$,#14);
#1321=SHAPE_REPRESENTATION('',(#722,#780),#1309);
#1322=SHAPE_REPRESENTATION('',(#723),#1310);
#1323=PRODUCT_DEFINITION_CONTEXT('part definition',#1331,'design');
#1324=PRODUCT_DEFINITION('CustomKeyboard','CustomKeyboard v36',#1326,#1323);
#1325=PRODUCT_DEFINITION('palmrest','palmrest',#1327,#1323);
#1326=PRODUCT_DEFINITION_FORMATION('',$,#1333);
#1327=PRODUCT_DEFINITION_FORMATION('',$,#1334);
#1328=PRODUCT_RELATED_PRODUCT_CATEGORY('CustomKeyboard v36',
'CustomKeyboard v36',(#1333));
#1329=PRODUCT_RELATED_PRODUCT_CATEGORY('palmrest','palmrest',(#1334));
#1330=APPLICATION_PROTOCOL_DEFINITION('international standard',
'automotive_design',2009,#1331);
#1331=APPLICATION_CONTEXT(
'Core Data for Automotive Mechanical Design Process');
#1332=PRODUCT_CONTEXT('part definition',#1331,'mechanical');
#1333=PRODUCT('CustomKeyboard','CustomKeyboard v36',$,(#1332));
#1334=PRODUCT('palmrest','palmrest',$,(#1332));
#1335=PRESENTATION_STYLE_ASSIGNMENT((#1336));
#1336=SURFACE_STYLE_USAGE(.BOTH.,#1337);
#1337=SURFACE_SIDE_STYLE('',(#1338));
#1338=SURFACE_STYLE_FILL_AREA(#1339);
#1339=FILL_AREA_STYLE('Steel - Satin',(#1340));
#1340=FILL_AREA_STYLE_COLOUR('Steel - Satin',#1341);
#1341=COLOUR_RGB('Steel - Satin',0.627450980392157,0.627450980392157,0.627450980392157);
ENDSEC;
END-ISO-10303-21;
