ISO-10303-21;
HEADER;
/* Generated by software containing ST-Developer
 * from STEP Tools, Inc. (www.steptools.com) 
 */

FILE_DESCRIPTION(
/* description */ (''),
/* implementation_level */ '2;1');

FILE_NAME(
/* name */ 'pcbwasher.step',
/* time_stamp */ '2025-07-24T22:39:23-07:00',
/* author */ (''),
/* organization */ (''),
/* preprocessor_version */ 'ST-DEVELOPER v20.1',
/* originating_system */ 'Autodesk Translation Framework v14.10.0.0',
/* authorisation */ '');

FILE_SCHEMA (('AUTOMOTIVE_DESIGN { 1 0 10303 214 3 1 1 }'));
ENDSEC;

DATA;
#10=MECHANICAL_DESIGN_GEOMETRIC_PRESENTATION_REPRESENTATION('',(#13),#113);
#11=SHAPE_REPRESENTATION_RELATIONSHIP('SRR','None',#119,#12);
#12=ADVANCED_BREP_SHAPE_REPRESENTATION('',(#14),#112);
#13=STYLED_ITEM('',(#128),#14);
#14=MANIFOLD_SOLID_BREP('washer',#65);
#15=FACE_BOUND('',#26,.T.);
#16=FACE_BOUND('',#28,.T.);
#17=PLANE('',#73);
#18=PLANE('',#74);
#19=FACE_OUTER_BOUND('',#23,.T.);
#20=FACE_OUTER_BOUND('',#24,.T.);
#21=FACE_OUTER_BOUND('',#25,.T.);
#22=FACE_OUTER_BOUND('',#27,.T.);
#23=EDGE_LOOP('',(#47,#48,#49,#50));
#24=EDGE_LOOP('',(#51,#52,#53,#54));
#25=EDGE_LOOP('',(#55));
#26=EDGE_LOOP('',(#56));
#27=EDGE_LOOP('',(#57));
#28=EDGE_LOOP('',(#58));
#29=LINE('',#100,#31);
#30=LINE('',#106,#32);
#31=VECTOR('',#81,1.19999999999997);
#32=VECTOR('',#88,3.25000000000003);
#33=CIRCLE('',#68,1.19999999999997);
#34=CIRCLE('',#69,1.19999999999997);
#35=CIRCLE('',#71,3.25000000000003);
#36=CIRCLE('',#72,3.25000000000003);
#37=VERTEX_POINT('',#97);
#38=VERTEX_POINT('',#99);
#39=VERTEX_POINT('',#103);
#40=VERTEX_POINT('',#105);
#41=EDGE_CURVE('',#37,#37,#33,.T.);
#42=EDGE_CURVE('',#37,#38,#29,.T.);
#43=EDGE_CURVE('',#38,#38,#34,.T.);
#44=EDGE_CURVE('',#39,#39,#35,.T.);
#45=EDGE_CURVE('',#39,#40,#30,.T.);
#46=EDGE_CURVE('',#40,#40,#36,.T.);
#47=ORIENTED_EDGE('',*,*,#41,.F.);
#48=ORIENTED_EDGE('',*,*,#42,.T.);
#49=ORIENTED_EDGE('',*,*,#43,.T.);
#50=ORIENTED_EDGE('',*,*,#42,.F.);
#51=ORIENTED_EDGE('',*,*,#44,.F.);
#52=ORIENTED_EDGE('',*,*,#45,.T.);
#53=ORIENTED_EDGE('',*,*,#46,.T.);
#54=ORIENTED_EDGE('',*,*,#45,.F.);
#55=ORIENTED_EDGE('',*,*,#44,.T.);
#56=ORIENTED_EDGE('',*,*,#41,.T.);
#57=ORIENTED_EDGE('',*,*,#46,.F.);
#58=ORIENTED_EDGE('',*,*,#43,.F.);
#59=CYLINDRICAL_SURFACE('',#67,1.19999999999997);
#60=CYLINDRICAL_SURFACE('',#70,3.25000000000003);
#61=ADVANCED_FACE('',(#19),#59,.F.);
#62=ADVANCED_FACE('',(#20),#60,.T.);
#63=ADVANCED_FACE('',(#21,#15),#17,.T.);
#64=ADVANCED_FACE('',(#22,#16),#18,.F.);
#65=CLOSED_SHELL('',(#61,#62,#63,#64));
#66=AXIS2_PLACEMENT_3D('',#95,#75,#76);
#67=AXIS2_PLACEMENT_3D('',#96,#77,#78);
#68=AXIS2_PLACEMENT_3D('',#98,#79,#80);
#69=AXIS2_PLACEMENT_3D('',#101,#82,#83);
#70=AXIS2_PLACEMENT_3D('',#102,#84,#85);
#71=AXIS2_PLACEMENT_3D('',#104,#86,#87);
#72=AXIS2_PLACEMENT_3D('',#107,#89,#90);
#73=AXIS2_PLACEMENT_3D('',#108,#91,#92);
#74=AXIS2_PLACEMENT_3D('',#109,#93,#94);
#75=DIRECTION('axis',(0.,0.,1.));
#76=DIRECTION('refdir',(1.,0.,0.));
#77=DIRECTION('center_axis',(0.,0.,1.));
#78=DIRECTION('ref_axis',(1.,0.,0.));
#79=DIRECTION('center_axis',(0.,0.,-1.));
#80=DIRECTION('ref_axis',(1.,0.,0.));
#81=DIRECTION('',(0.,0.,-1.));
#82=DIRECTION('center_axis',(0.,0.,-1.));
#83=DIRECTION('ref_axis',(1.,0.,0.));
#84=DIRECTION('center_axis',(0.,0.,1.));
#85=DIRECTION('ref_axis',(1.,0.,0.));
#86=DIRECTION('center_axis',(0.,0.,1.));
#87=DIRECTION('ref_axis',(1.,0.,0.));
#88=DIRECTION('',(0.,0.,-1.));
#89=DIRECTION('center_axis',(0.,0.,1.));
#90=DIRECTION('ref_axis',(1.,0.,0.));
#91=DIRECTION('center_axis',(0.,0.,1.));
#92=DIRECTION('ref_axis',(1.,0.,0.));
#93=DIRECTION('center_axis',(0.,0.,1.));
#94=DIRECTION('ref_axis',(1.,0.,0.));
#95=CARTESIAN_POINT('',(0.,0.,0.));
#96=CARTESIAN_POINT('Origin',(-565.048396002826,-137.428072193666,0.));
#97=CARTESIAN_POINT('',(-566.248396002826,-137.428072193666,0.6));
#98=CARTESIAN_POINT('Origin',(-565.048396002826,-137.428072193666,0.6));
#99=CARTESIAN_POINT('',(-566.248396002826,-137.428072193666,0.));
#100=CARTESIAN_POINT('',(-566.248396002826,-137.428072193666,0.));
#101=CARTESIAN_POINT('Origin',(-565.048396002826,-137.428072193666,0.));
#102=CARTESIAN_POINT('Origin',(-565.048396002826,-137.428072193666,0.));
#103=CARTESIAN_POINT('',(-568.298396002826,-137.428072193666,0.6));
#104=CARTESIAN_POINT('Origin',(-565.048396002826,-137.428072193666,0.6));
#105=CARTESIAN_POINT('',(-568.298396002826,-137.428072193666,0.));
#106=CARTESIAN_POINT('',(-568.298396002826,-137.428072193666,0.));
#107=CARTESIAN_POINT('Origin',(-565.048396002826,-137.428072193666,0.));
#108=CARTESIAN_POINT('Origin',(-565.048396002826,-137.428072193666,0.6));
#109=CARTESIAN_POINT('Origin',(-565.048396002826,-137.428072193666,0.));
#110=UNCERTAINTY_MEASURE_WITH_UNIT(LENGTH_MEASURE(0.01),#114,
'DISTANCE_ACCURACY_VALUE',
'Maximum model space distance between geometric entities at asserted c
onnectivities');
#111=UNCERTAINTY_MEASURE_WITH_UNIT(LENGTH_MEASURE(0.01),#114,
'DISTANCE_ACCURACY_VALUE',
'Maximum model space distance between geometric entities at asserted c
onnectivities');
#112=(
GEOMETRIC_REPRESENTATION_CONTEXT(3)
GLOBAL_UNCERTAINTY_ASSIGNED_CONTEXT((#110))
GLOBAL_UNIT_ASSIGNED_CONTEXT((#114,#115,#116))
REPRESENTATION_CONTEXT('','3D')
);
#113=(
GEOMETRIC_REPRESENTATION_CONTEXT(3)
GLOBAL_UNCERTAINTY_ASSIGNED_CONTEXT((#111))
GLOBAL_UNIT_ASSIGNED_CONTEXT((#114,#115,#116))
REPRESENTATION_CONTEXT('','3D')
);
#114=(
LENGTH_UNIT()
NAMED_UNIT(*)
SI_UNIT(.MILLI.,.METRE.)
);
#115=(
NAMED_UNIT(*)
PLANE_ANGLE_UNIT()
SI_UNIT($,.RADIAN.)
);
#116=(
NAMED_UNIT(*)
SI_UNIT($,.STERADIAN.)
SOLID_ANGLE_UNIT()
);
#117=SHAPE_DEFINITION_REPRESENTATION(#118,#119);
#118=PRODUCT_DEFINITION_SHAPE('',$,#121);
#119=SHAPE_REPRESENTATION('',(#66),#112);
#120=PRODUCT_DEFINITION_CONTEXT('part definition',#125,'design');
#121=PRODUCT_DEFINITION('CustomKeyboard','CustomKeyboard v25',#122,#120);
#122=PRODUCT_DEFINITION_FORMATION('',$,#127);
#123=PRODUCT_RELATED_PRODUCT_CATEGORY('CustomKeyboard v25',
'CustomKeyboard v25',(#127));
#124=APPLICATION_PROTOCOL_DEFINITION('international standard',
'automotive_design',2009,#125);
#125=APPLICATION_CONTEXT(
'Core Data for Automotive Mechanical Design Process');
#126=PRODUCT_CONTEXT('part definition',#125,'mechanical');
#127=PRODUCT('CustomKeyboard','CustomKeyboard v25',$,(#126));
#128=PRESENTATION_STYLE_ASSIGNMENT((#129));
#129=SURFACE_STYLE_USAGE(.BOTH.,#130);
#130=SURFACE_SIDE_STYLE('',(#131));
#131=SURFACE_STYLE_FILL_AREA(#132);
#132=FILL_AREA_STYLE('Steel - Satin',(#133));
#133=FILL_AREA_STYLE_COLOUR('Steel - Satin',#134);
#134=COLOUR_RGB('Steel - Satin',0.627450980392157,0.627450980392157,0.627450980392157);
ENDSEC;
END-ISO-10303-21;
