0
SECTION
2
HEADER
9
$INSUNITS
70
4
9
$ACADVER
1
AC1014
9
$HANDSEED
5
FFFF
0
ENDSEC
0
SECTION
2
TABLES
0
TABLE
2
VPORT
5
8
100
AcDbSymbolTable
0
ENDTAB
0
TABLE
2
LTYPE
5
5
100
AcDbSymbolTable
0
LTYPE
5
14
100
AcDbSymbolTableRecord
100
AcDbLinetypeTableRecord
2
BYBLOCK
70
0
0
LTYPE
5
15
100
AcDbSymbolTableRecord
100
AcDbLinetypeTableRecord
2
BYLAYER
70
0
0
LTYPE
5
16
100
AcDbSymbolTableRecord
100
AcDbLinetypeTableRecord
2
DASHED
70
0
3
Dashed __ __ __ __ __ __ __ __ __ __ __ __ __ _
72
65
73
2
40
0.75
49
0.5
74
0
49
-0.25
74
0
0
ENDTAB
0
TABLE
2
LAYER
5
2
100
AcDbSymbolTable
70
2
0
LAYER
5
50
100
AcDbSymbolTableRecord
100
AcDbLayerTableRecord
2
0
70
0
62
7
6
CONTINUOUS
0
ENDTAB
0
TABLE
2
STYLE
5
3
100
AcDbSymbolTable
70
1
0
STYLE
5
11
100
AcDbSymbolTableRecord
100
AcDbTextStyleTableRecord
2
STANDARD
70
0
0
ENDTAB
0
TABLE
2
VIEW
5
6
100
AcDbSymbolTable
70
0
0
ENDTAB
0
TABLE
2
UCS
5
7
100
AcDbSymbolTable
70
0
0
ENDTAB
0
TABLE
2
APPID
5
9
100
AcDbSymbolTable
70
2
0
APPID
5
12
100
AcDbSymbolTableRecord
100
AcDbRegAppTableRecord
2
ACAD
70
0
0
ENDTAB
0
TABLE
2
DIMSTYLE
5
A
100
AcDbSymbolTable
70
1
0
ENDTAB
0
TABLE
2
BLOCK_RECORD
5
1
100
AcDbSymbolTable
70
1
0
BLOCK_RECORD
5
1F
100
AcDbSymbolTableRecord
100
AcDbBlockTableRecord
2
*MODEL_SPACE
0
BLOCK_RECORD
5
1B
100
AcDbSymbolTableRecord
100
AcDbBlockTableRecord
2
*PAPER_SPACE
0
ENDTAB
0
ENDSEC
0
SECTION
2
BLOCKS
0
BLOCK
5
20
100
AcDbEntity
100
AcDbBlockBegin
2
*MODEL_SPACE
0
ENDBLK
5
21
100
AcDbEntity
100
AcDbBlockEnd
0
BLOCK
5
1C
100
AcDbEntity
100
AcDbBlockBegin
2
*PAPER_SPACE
0
ENDBLK
5
1D
100
AcDbEntity
100
AcDbBlockEnd
0
ENDSEC
0
SECTION
2
ENTITIES
0
LINE
5
100
100
AcDbEntity
8
0
100
AcDbLine
10
1074.6548518319692
20
-167.09246649890289
30
0
11
1039.8250979562367
21
-167.09246649890289
31
0
0
LINE
5
101
100
AcDbEntity
8
0
100
AcDbLine
10
1074.6548518319692
20
-174.59246649890287
30
0
11
1039.8250979562367
21
-174.59246649890287
31
0
0
LINE
5
102
100
AcDbEntity
8
0
100
AcDbLine
10
982.80561593702441
20
-292.00908627658202
30
0
11
1073.2728106587792
21
-292.00908627658202
31
0
0
LINE
5
103
100
AcDbEntity
8
0
100
AcDbLine
10
982.8056159370243
20
-284.50908627658202
30
0
11
1073.5188961909644
21
-284.50908627658208
31
0
0
SPLINE
5
104
100
AcDbEntity
8
0
100
AcDbSpline
70
0
71
3
72
11
73
7
74
0
42
0.000000001
43
0.0000000001
44
0.0000000001
40
0.35495894660622906
40
0.35495894660622906
40
0.35495894660622906
40
0.35495894660622906
40
0.53184469039110338
40
0.53184469039110338
40
0.53184469039110338
40
0.6307286939839517
40
0.6307286939839517
40
0.6307286939839517
40
0.6307286939839517
10
1073.2728106587792
20
-292.00908627658191
30
0
10
1073.3340901151778
20
-292.02103549635439
30
0
10
1073.3949678738768
20
-292.03602104689134
30
0
10
1073.4038531148572
20
-292.03851979128103
30
0
10
1073.413210986118
20
-292.04115145072217
30
0
10
1073.4350004423748
20
-292.04774395817617
30
0
10
1073.4601831741477
20
-292.05620596606741
30
0
0
CIRCLE
5
105
100
AcDbEntity
8
0
100
AcDbCircle
10
1074.3670600743055
20
-288.31394377547156
30
0
40
1.2
210
0
220
0
230
1
0
SPLINE
5
106
100
AcDbEntity
8
0
100
AcDbSpline
70
0
71
3
72
17
73
13
74
0
42
0.000000001
43
0.0000000001
44
0.0000000001
40
-0.00022330394316748676
40
-0.00022330394316748676
40
-0.00022330394316748676
40
-0.00022330394316748676
40
0
40
0
40
0
40
0.41562434359876882
40
0.41562434359876882
40
0.41562434359876882
40
0.84958604214270517
40
0.84958604214270517
40
0.84958604214270517
40
1
40
1
40
1
40
1
10
1082.903398952541
20
-169.71134808156918
30
0
10
1082.90291185261
20
-169.71100424482344
30
0
10
1082.9024247526831
20
-169.71066040808074
30
0
10
1082.9019376527581
20
-169.71031657133926
30
0
10
1081.7358588416846
20
-168.88719852502072
30
0
10
1080.5944421061533
20
-168.38214714679609
30
0
10
1079.6082640131126
20
-168.02400283668254
30
0
10
1078.5463909389566
20
-167.63836883988688
30
0
10
1077.3944628103593
20
-167.33324525244262
30
0
10
1076.1303880597566
20
-167.18254697097132
30
0
10
1075.6858816884951
20
-167.12955457774433
30
0
10
1075.1913943750949
20
-167.09246649890289
30
0
10
1074.6548518319692
20
-167.09246649890289
30
0
0
SPLINE
5
107
100
AcDbEntity
8
0
100
AcDbSpline
70
0
71
3
72
11
73
7
74
0
42
0.000000001
43
0.0000000001
44
0.0000000001
40
0
40
0
40
0
40
0
40
1
40
1
40
1
40
1.0000814091900181
40
1.0000814091900181
40
1.0000814091900181
40
1.0000814091900181
10
1039.8250979562367
20
-174.59246649890287
30
0
10
1038.6646039157133
20
-174.59246649890287
30
0
10
1036.8951037056881
20
-174.78914672666951
30
0
10
1035.764842726453
20
-175.04196893332178
30
0
10
1035.7647554198102
20
-175.04198846249119
30
0
10
1035.764668113168
20
-175.04200799166034
30
0
10
1035.7645808065722
20
-175.0420275208192
30
0
0
SPLINE
5
108
100
AcDbEntity
8
0
100
AcDbSpline
70
0
71
3
72
17
73
13
74
0
42
0.000000001
43
0.0000000001
44
0.0000000001
40
0.00013729868904704292
40
0.00013729868904704292
40
0.00013729868904704292
40
0.00013729868904704292
40
0.46850879666947803
40
0.46850879666947803
40
0.46850879666947803
40
0.94962922189638044
40
0.94962922189638044
40
0.94962922189638044
40
1
40
1
40
1
40
1.0001437314604993
40
1.0001437314604993
40
1.0001437314604993
40
1.0001437314604993
10
1092.0541005947607
20
-302.78694348971493
30
0
10
1094.2837896811798
20
-304.07452092042377
30
0
10
1096.8372071362139
20
-304.40916812505873
30
0
10
1099.1919139125421
20
-303.89156683609031
30
0
10
1101.5976033454331
20
-303.36275876374776
30
0
10
1103.8079491459298
20
-301.9415300167567
30
0
10
1105.2857063967197
20
-299.78876160877172
30
0
10
1105.4401813149302
20
-299.56372551196188
30
0
10
1105.5858228733327
20
-299.33180859945639
30
0
10
1105.7221629840581
20
-299.09343218338
30
0
10
1105.7224355180206
20
-299.09295568626635
30
0
10
1105.7227080519829
20
-299.09247918915293
30
0
10
1105.7229805859561
20
-299.09200269202051
30
0
0
CIRCLE
5
109
100
AcDbEntity
8
0
100
AcDbCircle
10
1118.6087012295884
20
-267.87655702664313
30
0
40
1.2
210
0
220
0
230
1
0
LINE
5
110
100
AcDbEntity
8
0
100
AcDbLine
10
1035.764580806424
20
-175.04202752085223
30
0
11
982.64682027851279
21
-186.98355674963963
31
0
0
CIRCLE
5
111
100
AcDbEntity
8
0
100
AcDbCircle
10
978.13493707131613
20
-185.77158769200551
30
0
40
1.2
210
0
220
0
230
1
0
SPLINE
5
112
100
AcDbEntity
8
0
100
AcDbSpline
70
0
71
3
72
8
73
4
74
0
42
0.000000001
43
0.0000000001
44
0.0000000001
40
3.0238697656692254e-05
40
3.0238697656692254e-05
40
3.0238697656692254e-05
40
3.0238697656692254e-05
40
1
40
1
40
1
40
1
10
1095.8043125189329
20
-296.29187526160547
30
0
10
1096.9928135247901
20
-296.97848163308328
30
0
10
1098.5300969103546
20
-296.56172180543524
30
0
10
1099.2118107174765
20
-295.36981655270381
30
0
0
LINE
5
113
100
AcDbEntity
8
0
100
AcDbLine
10
980.3053665829799
20
-189.90913451130984
30
0
11
980.30536658297956
21
-282.00883153957579
31
0
0
SPLINE
5
114
100
AcDbEntity
8
0
100
AcDbSpline
70
0
71
3
72
14
73
10
74
0
42
0.000000001
43
0.0000000001
44
0.0000000001
40
0
40
0
40
0
40
0
40
0.47007901722014311
40
0.47007901722014311
40
0.47007901722014311
40
0.94729721732945216
40
0.94729721732945216
40
0.94729721732945216
40
1
40
1
40
1
40
1
10
972.8053665829799
20
-282.00883153957568
30
0
10
972.8053665829799
20
-284.58981096630174
30
0
10
973.79686566805674
20
-286.97015853428172
30
0
10
975.42120391303115
20
-288.74924596832875
30
0
10
977.06151169709756
20
-290.54582434455745
30
0
10
979.36609238748417
20
-291.74972372511382
30
0
10
981.94632860201534
20
-291.97213632298229
30
0
10
982.23110112201425
20
-291.9966832988049
30
0
10
982.51775942338804
20
-292.00908627658202
30
0
10
982.80561593702441
20
-292.00908627658202
30
0
0
SPLINE
5
115
100
AcDbEntity
8
0
100
AcDbSpline
70
0
71
3
72
20
73
16
74
0
42
0.000000001
43
0.0000000001
44
0.0000000001
40
0
40
0
40
0
40
0
40
0.53021057109319303
40
0.53021057109319303
40
0.53021057109319303
40
0.85611647121063061
40
0.85611647121063061
40
0.85611647121063061
40
0.98795341962431782
40
0.98795341962431782
40
0.98795341962431782
40
1.0008140918953758
40
1.0008140918953758
40
1.0008140918953758
40
1.0013025470586079
40
1.0013025470586079
40
1.0013025470586079
40
1.0013025470586079
10
1039.8250979562367
20
-167.09246649890289
30
0
10
1038.7650490854455
20
-167.09246649890289
30
0
10
1037.7603645031936
20
-167.17639564297869
30
0
10
1036.7876461592791
20
-167.28920137354606
30
0
10
1036.1883355180473
20
-167.35870317244172
30
0
10
1035.5813065324116
20
-167.44196031450258
30
0
10
1034.9595680524185
20
-167.55478079664044
30
0
10
1034.708059552928
20
-167.60041945515582
30
0
10
1034.4542333363479
20
-167.65090458339671
30
0
10
1034.1979727487781
20
-167.70724765924953
30
0
10
1034.1729745713144
20
-167.71274391687689
30
0
10
1034.1388379236487
20
-167.72034073555744
30
0
10
1034.1250455982961
20
-167.72342586916338
30
0
10
1034.1245217584378
20
-167.72354304417988
30
0
10
1034.1239979185793
20
-167.72366021919638
30
0
10
1034.1234740787104
20
-167.72377739421529
30
0
0
SPLINE
5
116
100
AcDbEntity
8
0
100
AcDbSpline
70
0
71
3
72
11
73
7
74
0
42
0.000000001
43
0.0000000001
44
0.0000000001
40
0
40
0
40
0
40
0
40
0.84632527465264906
40
0.84632527465264906
40
0.84632527465264906
40
1
40
1
40
1
40
1
10
1115.3856218582819
20
-197.64907981702828
30
0
10
1115.3856218582819
20
-196.58825805936436
30
0
10
1115.0100543477708
20
-195.24540289883547
30
0
10
1114.4854636822056
20
-194.22869323289547
30
0
10
1114.3902091401696
20
-194.0440803147294
30
0
10
1114.2892996496776
20
-193.87052607959532
30
0
10
1114.1818461764458
20
-193.71120030294574
30
0
0
SPLINE
5
117
100
AcDbEntity
8
0
100
AcDbSpline
70
0
71
3
72
14
73
10
74
0
42
0.000000001
43
0.0000000001
44
0.0000000001
40
0.0004676471245364543
40
0.0004676471245364543
40
0.0004676471245364543
40
0.0004676471245364543
40
0.40699028356557293
40
0.40699028356557293
40
0.40699028356557293
40
0.82690897814119801
40
0.82690897814119801
40
0.82690897814119801
40
1
40
1
40
1
40
1
10
1114.5941099552022
20
-180.90238673433561
30
0
10
1113.5665698521743
20
-179.37470512987247
30
0
10
1112.2928250126697
20
-178.32853462287275
30
0
10
1111.1654686022814
20
-177.61537925383323
30
0
10
1109.9755718335903
20
-176.86266142531395
30
0
10
1108.5936035002164
20
-176.25658811629876
30
0
10
1107.0382775802636
20
-175.9377384541996
30
0
10
1106.3844917207061
20
-175.8037090538464
30
0
10
1105.6439566896515
20
-175.71082771767323
30
0
10
1104.8385068714383
20
-175.71082771767323
30
0
0
SPLINE
5
118
100
AcDbEntity
8
0
100
AcDbSpline
70
0
71
3
72
8
73
4
74
0
42
0.000000001
43
0.0000000001
44
0.0000000001
40
0
40
0
40
0
40
0
40
1
40
1
40
1
40
1
10
980.30536658297956
20
-282.00883153957579
30
0
10
980.30536658297956
20
-283.38193272598375
30
0
10
981.43251170020631
20
-284.50908627658202
30
0
10
982.8056159370243
20
-284.50908627658202
30
0
0
LINE
5
119
100
AcDbEntity
8
0
100
AcDbLine
10
1087.4950228667972
20
-182.14876088395067
30
0
11
1078.576801075212
21
-175.83756665482463
31
0
0
CIRCLE
5
120
100
AcDbEntity
8
0
100
AcDbCircle
10
1032.0636171416495
20
-172.13295018467642
30
0
40
1.2
210
0
220
0
230
1
0
LINE
5
121
100
AcDbEntity
8
0
100
AcDbLine
10
1077.0012494421026
20
-285.44043752881407
30
0
11
1095.8043125172969
21
-296.29187526421617
31
0
0
SPLINE
5
122
100
AcDbEntity
8
0
100
AcDbSpline
70
0
71
3
72
14
73
10
74
0
42
0.000000001
43
0.0000000001
44
0.0000000001
40
0
40
0
40
0
40
0
40
0.88837939672386546
40
0.88837939672386546
40
0.88837939672386546
40
1
40
1
40
1
40
1.0000381022571909
40
1.0000381022571909
40
1.0000381022571909
40
1.0000381022571909
10
1073.5188961909644
20
-284.50908627658208
30
0
10
1074.3761664466501
20
-284.50908627658208
30
0
10
1075.798972316137
20
-284.85354936506428
30
0
10
1076.6919761828278
20
-285.27887549115212
30
0
10
1076.8041778285385
20
-285.33231567555777
30
0
10
1076.9080644693026
20
-285.38659704143845
30
0
10
1077.0011405655966
20
-285.44037462206029
30
0
10
1077.0011768577485
20
-285.44039559096865
30
0
10
1077.0012131499011
20
-285.44041655987718
30
0
10
1077.001249442055
20
-285.44043752878673
30
0
0
LINE
5
123
100
AcDbEntity
8
0
100
AcDbLine
10
1104.8385068714383
20
-175.71082771767323
30
0
11
1091.3811489954173
21
-175.71082771767323
31
0
0
CIRCLE
5
124
100
AcDbEntity
8
0
100
AcDbCircle
10
978.45868110585775
20
-286.35576941382374
30
0
40
1.2
210
0
220
0
230
1
0
LINE
5
125
100
AcDbEntity
8
0
100
AcDbLine
10
1105.7229805859561
20
-299.09200269202051
30
0
11
1120.841055932573
21
-272.59216615827944
31
0
0
SPLINE
5
126
100
AcDbEntity
8
0
100
AcDbSpline
70
0
71
3
72
11
73
7
74
0
42
0.000000001
43
0.0000000001
44
0.0000000001
40
6.5548420699503259e-05
40
6.5548420699503259e-05
40
6.5548420699503259e-05
40
6.5548420699503259e-05
40
0.83908153091422077
40
0.83908153091422077
40
0.83908153091422077
40
1
40
1
40
1
40
1
10
982.64682028132154
20
-186.98355676343647
30
0
10
981.52877436571634
20
-187.23376132305896
30
0
10
980.6544866333935
20
-188.16737659713067
30
0
10
980.38522265281415
20
-189.26220045166724
30
0
10
980.33357936062566
20
-189.4721814082481
30
0
10
980.30536658297979
20
-189.68920856015109
30
0
10
980.30536658297979
20
-189.90913451130984
30
0
0
LINE
5
127
100
AcDbEntity
8
0
100
AcDbLine
10
1122.8856218582819
20
-264.88852641465724
30
0
11
1122.8856218582819
21
-197.64907981702831
31
0
0
LINE
5
128
100
AcDbEntity
8
0
100
AcDbLine
10
1034.1234740787104
20
-167.72377739421529
30
0
11
981.00519380826972
21
-179.66542346754707
31
0
0
LINE
5
129
100
AcDbEntity
8
0
100
AcDbLine
10
972.80536658297956
20
-189.9091345113099
30
0
11
972.8053665829799
21
-282.00883153957568
31
0
0
SPLINE
5
130
100
AcDbEntity
8
0
100
AcDbSpline
70
0
71
3
72
14
73
10
74
0
42
0.000000001
43
0.0000000001
44
0.0000000001
40
0.00030592744441629652
40
0.00030592744441629652
40
0.00030592744441629652
40
0.00030592744441629652
40
0.42524123820044957
40
0.42524123820044957
40
0.42524123820044957
40
0.86139226277865255
40
0.86139226277865255
40
0.86139226277865255
40
1
40
1
40
1
40
1
10
981.00519392901333
20
-179.66542402011186
30
0
10
978.82269297677965
20
-180.15467456495216
30
0
10
977.05417384264342
20
-181.30683859884124
30
0
10
975.78076474069144
20
-182.6304866237225
30
0
10
974.48375578803507
20
-183.97866556779135
30
0
10
973.46462591064301
20
-185.74204821231123
30
0
10
973.02914222231948
20
-187.78992827200068
30
0
10
972.88734763873003
20
-188.45672316717153
30
0
10
972.80536658297956
20
-189.16712601196022
30
0
10
972.80536658297956
20
-189.90913451130993
30
0
0
LINE
5
131
100
AcDbEntity
8
0
100
AcDbLine
10
1115.3856218582819
20
-264.88852641465724
30
0
11
1115.3856218582819
21
-197.64907981702828
31
0
0
LINE
5
132
100
AcDbEntity
8
0
100
AcDbLine
10
1073.4601831741477
20
-292.05620596606741
30
0
11
1092.0541005335181
21
-302.78694359511917
31
0
0
LINE
5
133
100
AcDbEntity
8
0
100
AcDbLine
10
1099.2118107174767
20
-295.36981655270381
30
0
11
1114.3284769277675
21
-268.87244456131282
31
0
0
LINE
5
134
100
AcDbEntity
8
0
100
AcDbLine
10
1091.3811489954173
20
-175.71082771767323
30
0
11
1082.9033989525383
21
-169.71134808156805
31
0
0
SPLINE
5
135
100
AcDbEntity
8
0
100
AcDbSpline
70
0
71
3
72
11
73
7
74
0
42
0.000000001
43
0.0000000001
44
0.0000000001
40
9.0036162567467575e-05
40
9.0036162567467575e-05
40
9.0036162567467575e-05
40
9.0036162567467575e-05
40
0.76093182100186874
40
0.76093182100186874
40
0.76093182100186874
40
1
40
1
40
1
40
1
10
1108.3718982093496
20
-185.08975936129599
30
0
10
1107.8083557396872
20
-184.25112142830781
30
0
10
1106.8115021712654
20
-183.62531899931179
30
0
10
1105.7966752965019
20
-183.34825321321421
30
0
10
1105.477801099813
20
-183.26119488615475
30
0
10
1105.1555334414104
20
-183.2108277176732
30
0
10
1104.8385068714383
20
-183.2108277176732
30
0
0
SPLINE
5
136
100
AcDbEntity
8
0
100
AcDbSpline
70
0
71
3
72
14
73
10
74
0
42
0.000000001
43
0.0000000001
44
0.0000000001
40
0
40
0
40
0
40
0
40
0.41555322172629761
40
0.41555322172629761
40
0.41555322172629761
40
0.84943484198512353
40
0.84943484198512353
40
0.84943484198512353
40
1
40
1
40
1
40
1
10
1122.8856218582819
20
-197.64907981702831
30
0
10
1122.8856218582819
20
-196.24816257025768
30
0
10
1122.6517797362501
20
-195.04711151381767
30
0
10
1122.3890101177958
20
-194.04902096803525
30
0
10
1122.1059807201548
20
-192.97397672347711
30
0
10
1121.7122595594694
20
-191.87298089083637
30
0
10
1121.1378806420585
20
-190.76521283985102
30
0
10
1120.9358370770615
20
-190.37554427886101
30
0
10
1120.6940833441629
20
-189.95385485175422
30
0
10
1120.3998653373319
20
-189.51760545903778
30
0
0
LINE
5
137
100
AcDbEntity
8
0
100
AcDbLine
10
1114.1818461764458
20
-193.71120030294571
30
0
11
1108.3718982272831
21
-185.08975934851307
31
0
0
SPLINE
5
138
100
AcDbEntity
8
0
100
AcDbSpline
70
0
71
3
72
11
73
7
74
0
42
0.000000001
43
0.0000000001
44
0.0000000001
40
0
40
0
40
0
40
0
40
0.83878329569136101
40
0.83878329569136101
40
0.83878329569136101
40
1
40
1
40
1
40
1
10
1078.5768010752238
20
-175.8375666548329
30
0
10
1077.7147379559599
20
-175.2290488567275
30
0
10
1076.4166222421425
20
-174.77813432617879
30
0
10
1075.2861510892294
20
-174.6351677190865
30
0
10
1075.0688710903014
20
-174.60768910173684
30
0
10
1074.8576167575579
20
-174.59246649890287
30
0
10
1074.6548518319692
20
-174.59246649890287
30
0
0
SPLINE
5
139
100
AcDbEntity
8
0
100
AcDbSpline
70
0
71
3
72
11
73
7
74
0
42
0.000000001
43
0.0000000001
44
0.0000000001
40
0
40
0
40
0
40
0
40
0.83878329569131993
40
0.83878329569131993
40
0.83878329569131993
40
1
40
1
40
1
40
1
10
1090.840287233038
20
-183.2108277176732
30
0
10
1090.0488001712624
20
-183.2108277176732
30
0
10
1088.7731865214794
20
-182.86160805421645
30
0
10
1087.9285299295473
20
-182.4121917043999
30
0
10
1087.7661843598114
20
-182.32581251307354
30
0
10
1087.6193860414762
20
-182.23654703734229
30
0
10
1087.4950228667972
20
-182.14876088395067
30
0
0
LINE
5
140
100
AcDbEntity
8
0
100
AcDbLine
10
1104.8385068714383
20
-183.2108277176732
30
0
11
1090.840287233038
21
-183.2108277176732
31
0
0
SPLINE
5
141
100
AcDbEntity
8
0
100
AcDbSpline
70
0
71
3
72
11
73
7
74
0
42
0.000000001
43
0.0000000001
44
0.0000000001
40
7.3938954816923832e-05
40
7.3938954816923832e-05
40
7.3938954816923832e-05
40
7.3938954816923832e-05
40
0.88979283506975204
40
0.88979283506975204
40
0.88979283506975204
40
1
40
1
40
1
40
1
10
1114.3284769201059
20
-268.87244455802175
30
0
10
1114.8750620580045
20
-267.91667540345242
30
0
10
1115.2779013192942
20
-266.47677960653238
30
0
10
1115.3683880609483
20
-265.30948735775701
30
0
10
1115.3795964182227
20
-265.16489790377966
30
0
10
1115.3856218582819
20
-265.0243218798044
30
0
10
1115.3856218582819
20
-264.88852641465724
30
0
0
SPLINE
5
142
100
AcDbEntity
8
0
100
AcDbSpline
70
0
71
3
72
14
73
10
74
0
42
0.000000001
43
0.0000000001
44
0.0000000001
40
0.0005081523737224525
40
0.0005081523737224525
40
0.0005081523737224525
40
0.0005081523737224525
40
0.42285163248066354
40
0.42285163248066354
40
0.42285163248066354
40
0.86427712434814774
40
0.86427712434814774
40
0.86427712434814774
40
1
40
1
40
1
40
1
10
1120.841055522023
20
-272.59216592137375
30
0
10
1121.4953658686436
20
-271.44726376701516
30
0
10
1121.8880284109118
20
-270.3631829580188
30
0
10
1122.1724933694284
20
-269.41094848102546
30
0
10
1122.4782807998708
20
-268.38733792661094
30
0
10
1122.7172229733433
20
-267.293556287694
30
0
10
1122.8276675189063
20
-266.10375771766519
30
0
10
1122.8621528809479
20
-265.73225331937613
30
0
10
1122.8856218582819
20
-265.32589552054026
30
0
10
1122.8856218582819
20
-264.88852641465724
30
0
0
LINE
5
143
100
AcDbEntity
8
0
100
AcDbLine
10
1120.3998653373319
20
-189.51760545903781
30
0
11
1114.5941107598878
21
-180.90238619754217
31
0
0
CIRCLE
5
144
100
AcDbEntity
8
0
100
AcDbCircle
10
1098.6509538432397
20
-300.06055669672435
30
0
40
1.2
210
0
220
0
230
1
0
CIRCLE
5
145
100
AcDbEntity
8
0
100
AcDbCircle
10
1118.5293729246057
20
-194.53508657920889
30
0
40
1.2
210
0
220
0
230
1
0
ENDSEC
0
SECTION
2
OBJECTS
0
DICTIONARY
5
C
100
AcDbDictionary
3
ACAD_GROUP
350
D
3
ACAD_MLINESTYLE
350
17
0
DICTIONARY
5
D
100
AcDbDictionary
0
DICTIONARY
5
1A
330
C
100
AcDbDictionary
0
DICTIONARY
5
17
100
AcDbDictionary
0
ENDSEC
0
EOF
