0
SECTION
2
HEADER
9
$INSUNITS
70
4
9
$ACADVER
1
AC1014
9
$HANDSEED
5
FFFF
0
ENDSEC
0
SECTION
2
TABLES
0
TABLE
2
VPORT
5
8
100
AcDbSymbolTable
0
ENDTAB
0
TABLE
2
LTYPE
5
5
100
AcDbSymbolTable
0
LTYPE
5
14
100
AcDbSymbolTableRecord
100
AcDbLinetypeTableRecord
2
BYBLOCK
70
0
0
LTYPE
5
15
100
AcDbSymbolTableRecord
100
AcDbLinetypeTableRecord
2
BYLAYER
70
0
0
LTYPE
5
16
100
AcDbSymbolTableRecord
100
AcDbLinetypeTableRecord
2
DASHED
70
0
3
Dashed __ __ __ __ __ __ __ __ __ __ __ __ __ _
72
65
73
2
40
0.75
49
0.5
74
0
49
-0.25
74
0
0
ENDTAB
0
TABLE
2
LAYER
5
2
100
AcDbSymbolTable
70
2
0
LAYER
5
50
100
AcDbSymbolTableRecord
100
AcDbLayerTableRecord
2
0
70
0
62
7
6
CONTINUOUS
0
ENDTAB
0
TABLE
2
STYLE
5
3
100
AcDbSymbolTable
70
1
0
STYLE
5
11
100
AcDbSymbolTableRecord
100
AcDbTextStyleTableRecord
2
STANDARD
70
0
0
ENDTAB
0
TABLE
2
VIEW
5
6
100
AcDbSymbolTable
70
0
0
ENDTAB
0
TABLE
2
UCS
5
7
100
AcDbSymbolTable
70
0
0
ENDTAB
0
TABLE
2
APPID
5
9
100
AcDbSymbolTable
70
2
0
APPID
5
12
100
AcDbSymbolTableRecord
100
AcDbRegAppTableRecord
2
ACAD
70
0
0
ENDTAB
0
TABLE
2
DIMSTYLE
5
A
100
AcDbSymbolTable
70
1
0
ENDTAB
0
TABLE
2
BLOCK_RECORD
5
1
100
AcDbSymbolTable
70
1
0
BLOCK_RECORD
5
1F
100
AcDbSymbolTableRecord
100
AcDbBlockTableRecord
2
*MODEL_SPACE
0
BLOCK_RECORD
5
1B
100
AcDbSymbolTableRecord
100
AcDbBlockTableRecord
2
*PAPER_SPACE
0
ENDTAB
0
ENDSEC
0
SECTION
2
BLOCKS
0
BLOCK
5
20
100
AcDbEntity
100
AcDbBlockBegin
2
*MODEL_SPACE
0
ENDBLK
5
21
100
AcDbEntity
100
AcDbBlockEnd
0
BLOCK
5
1C
100
AcDbEntity
100
AcDbBlockBegin
2
*PAPER_SPACE
0
ENDBLK
5
1D
100
AcDbEntity
100
AcDbBlockEnd
0
ENDSEC
0
SECTION
2
ENTITIES
0
CIRCLE
5
100
100
AcDbEntity
8
0
100
AcDbCircle
10
1391.5329241170559
20
63.644230586176391
30
0
40
1.7000000000000002
210
0
220
0
230
1
0
SPLINE
5
101
100
AcDbEntity
8
0
100
AcDbSpline
70
0
71
3
72
20
73
16
74
0
42
0.000000001
43
0.0000000001
44
0.0000000001
40
0
40
0
40
0
40
0
40
0.53021057109319303
40
0.53021057109319303
40
0.53021057109319303
40
0.85611647121063061
40
0.85611647121063061
40
0.85611647121063061
40
0.98795341962431782
40
0.98795341962431782
40
0.98795341962431782
40
1.0008140918953758
40
1.0008140918953758
40
1.0008140918953758
40
1.0013025470586079
40
1.0013025470586079
40
1.0013025470586079
40
1.0013025470586079
10
1330.1665072666769
20
182.90753350109711
30
0
10
1331.2265561374684
20
182.90753350109711
30
0
10
1332.2312407197203
20
182.82360435702131
30
0
10
1333.2039590636348
20
182.71079862645394
30
0
10
1333.8032697048664
20
182.64129682755828
30
0
10
1334.4102986905023
20
182.55803968549742
30
0
10
1335.0320371704952
20
182.44521920335956
30
0
10
1335.2835456699859
20
182.39958054484418
30
0
10
1335.5373718865662
20
182.34909541660329
30
0
10
1335.7936324741358
20
182.29275234075047
30
0
10
1335.8186306515995
20
182.28725608312311
30
0
10
1335.8527672992655
20
182.27965926444256
30
0
10
1335.866559624618
20
182.27657413083662
30
0
10
1335.8670834644761
20
182.27645695582012
30
0
10
1335.8676073043348
20
182.27633978080362
30
0
10
1335.8681311442035
20
182.27622260578471
30
0
0
LINE
5
102
100
AcDbEntity
8
0
100
AcDbLine
10
1292.9903557808116
20
64.559562471186069
30
0
11
1274.1872927056172
21
53.708124735784004
31
0
0
LINE
5
103
100
AcDbEntity
8
0
100
AcDbLine
10
1387.1859892858893
20
57.990913723418167
30
0
11
1296.7187945641349
21
57.990913723418167
31
0
0
SPLINE
5
104
100
AcDbEntity
8
0
100
AcDbSpline
70
0
71
3
72
14
73
10
74
0
42
0.000000001
43
0.0000000001
44
0.0000000001
40
0
40
0
40
0
40
0
40
0.88837939672386546
40
0.88837939672386546
40
0.88837939672386546
40
1
40
1
40
1
40
1.0000381022571909
40
1.0000381022571909
40
1.0000381022571909
40
1.0000381022571909
10
1296.4727090319498
20
65.49091372341806
30
0
10
1295.6154387762638
20
65.49091372341806
30
0
10
1294.1926329067769
20
65.146450634935889
30
0
10
1293.2996290400863
20
64.721124508848007
30
0
10
1293.1874273943754
20
64.667684324442405
30
0
10
1293.0835407536115
20
64.613402958561721
30
0
10
1292.9904646573175
20
64.559625377939867
30
0
10
1292.9904283651654
20
64.559604409031522
30
0
10
1292.990392073013
20
64.55958344012295
30
0
10
1292.9903557808586
20
64.559562471213425
30
0
0
LINE
5
105
100
AcDbEntity
8
0
100
AcDbLine
10
1264.2686246369578
20
50.907997307979649
30
0
11
1249.1505492903409
21
77.407833841720688
31
0
0
LINE
5
106
100
AcDbEntity
8
0
100
AcDbLine
10
1397.1862386399339
20
160.09086548869016
30
0
11
1397.1862386399339
21
67.99116846042449
31
0
0
LINE
5
107
100
AcDbEntity
8
0
100
AcDbLine
10
1389.6862386399339
20
160.09086548869021
30
0
11
1389.6862386399339
21
67.991168460424404
31
0
0
LINE
5
108
100
AcDbEntity
8
0
100
AcDbLine
10
1270.7797945054374
20
54.630183447296332
30
0
11
1255.6631282951462
21
81.127555438687295
31
0
0
LINE
5
109
100
AcDbEntity
8
0
100
AcDbLine
10
1387.1859892858897
20
65.490913723418132
30
0
11
1296.4727090319498
21
65.49091372341806
31
0
0
LINE
5
110
100
AcDbEntity
8
0
100
AcDbLine
10
1296.5314220487662
20
57.943794033932754
30
0
11
1277.9375046893958
21
47.213056404880973
31
0
0
SPLINE
5
111
100
AcDbEntity
8
0
100
AcDbSpline
70
0
71
3
72
8
73
4
74
0
42
0.000000001
43
0.0000000001
44
0.0000000001
40
3.0238697656692254e-05
40
3.0238697656692254e-05
40
3.0238697656692254e-05
40
3.0238697656692254e-05
40
1
40
1
40
1
40
1
10
1274.1872927039813
20
53.708124738394645
30
0
10
1272.9987916981238
20
53.021518366916851
30
0
10
1271.4615083125593
20
53.438278194564894
30
0
10
1270.7797945054374
20
54.630183447296332
30
0
0
LINE
5
112
100
AcDbEntity
8
0
100
AcDbLine
10
1255.8097590464681
20
156.28879969705437
30
0
11
1261.6197069956308
21
164.91024065148693
31
0
0
SPLINE
5
113
100
AcDbEntity
8
0
100
AcDbSpline
70
0
71
3
72
8
73
4
74
0
42
0.000000001
43
0.0000000001
44
0.0000000001
40
0
40
0
40
0
40
0
40
1
40
1
40
1
40
1
10
1389.6862386399343
20
67.991168460424404
30
0
10
1389.6862386399343
20
66.618067274016425
30
0
10
1388.5590935227074
20
65.490913723418132
30
0
10
1387.1859892858897
20
65.490913723418132
30
0
0
LINE
5
114
100
AcDbEntity
8
0
100
AcDbLine
10
1254.605983364632
20
85.11147358534285
30
0
11
1254.605983364632
21
152.35092018297181
31
0
0
SPLINE
5
115
100
AcDbEntity
8
0
100
AcDbSpline
70
0
71
3
72
17
73
13
74
0
42
0.000000001
43
0.0000000001
44
0.0000000001
40
0.00013729868904704292
40
0.00013729868904704292
40
0.00013729868904704292
40
0.00013729868904704292
40
0.46850879666947803
40
0.46850879666947803
40
0.46850879666947803
40
0.94962922189638044
40
0.94962922189638044
40
0.94962922189638044
40
1
40
1
40
1
40
1.0001437314604993
40
1.0001437314604993
40
1.0001437314604993
40
1.0001437314604993
10
1277.9375046281532
20
47.213056510285227
30
0
10
1275.7078155417341
20
45.925479079576412
30
0
10
1273.1543980867
20
45.590831874941422
30
0
10
1270.7996913103718
20
46.108433163909872
30
0
10
1268.3940018774811
20
46.6372412362524
30
0
10
1266.1836560769843
20
48.058469983243448
30
0
10
1264.7058988261942
20
50.21123839122847
30
0
10
1264.5514239079835
20
50.436274488038286
30
0
10
1264.4057823495812
20
50.668191400543812
30
0
10
1264.2694422388558
20
50.906567816620161
30
0
10
1264.2691697048936
20
50.907044313733856
30
0
10
1264.268897170931
20
50.907520810847267
30
0
10
1264.2686246369578
20
50.907997307979613
30
0
0
SPLINE
5
116
100
AcDbEntity
8
0
100
AcDbSpline
70
0
71
3
72
11
73
7
74
0
42
0.000000001
43
0.0000000001
44
0.0000000001
40
0.35495894660622906
40
0.35495894660622906
40
0.35495894660622906
40
0.35495894660622906
40
0.53184469039110338
40
0.53184469039110338
40
0.53184469039110338
40
0.6307286939839517
40
0.6307286939839517
40
0.6307286939839517
40
0.6307286939839517
10
1296.7187945641349
20
57.990913723418238
30
0
10
1296.6575151077359
20
57.978964503645791
30
0
10
1296.5966373490371
20
57.963978953108821
30
0
10
1296.587752108057
20
57.961480208719145
30
0
10
1296.5783942367962
20
57.958848549277988
30
0
10
1296.5566047805391
20
57.952256041824022
30
0
10
1296.5314220487662
20
57.943794033932754
30
0
0
CIRCLE
5
117
100
AcDbEntity
8
0
100
AcDbCircle
10
1337.9279880812644
20
177.86704981532358
30
0
40
1.7000000000000002
210
0
220
0
230
1
0
CIRCLE
5
118
100
AcDbEntity
8
0
100
AcDbCircle
10
1271.3406513796742
20
49.93944330327583
30
0
40
1.7000000000000002
210
0
220
0
230
1
0
SPLINE
5
119
100
AcDbEntity
8
0
100
AcDbSpline
70
0
71
3
72
11
73
7
74
0
42
0.000000001
43
0.0000000001
44
0.0000000001
40
0
40
0
40
0
40
0
40
0.83878329569136101
40
0.83878329569136101
40
0.83878329569136101
40
1
40
1
40
1
40
1
10
1291.4148041476903
20
174.16243334516713
30
0
10
1292.2768672669542
20
174.77095114327255
30
0
10
1293.5749829807714
20
175.22186567382121
30
0
10
1294.7054541336845
20
175.36483228091356
30
0
10
1294.9227341326127
20
175.39231089826316
30
0
10
1295.1339884653562
20
175.40753350109719
30
0
10
1295.336753390945
20
175.40753350109719
30
0
0
LINE
5
120
100
AcDbEntity
8
0
100
AcDbLine
10
1295.336753390945
20
175.40753350109719
30
0
11
1330.1665072666769
21
175.40753350109719
31
0
0
LINE
5
121
100
AcDbEntity
8
0
100
AcDbLine
10
1295.336753390945
20
182.90753350109711
30
0
11
1330.1665072666769
21
182.90753350109711
31
0
0
SPLINE
5
122
100
AcDbEntity
8
0
100
AcDbSpline
70
0
71
3
72
11
73
7
74
0
42
0.000000001
43
0.0000000001
44
0.0000000001
40
9.0036162567467575e-05
40
9.0036162567467575e-05
40
9.0036162567467575e-05
40
9.0036162567467575e-05
40
0.76093182100186874
40
0.76093182100186874
40
0.76093182100186874
40
1
40
1
40
1
40
1
10
1261.6197070135645
20
164.91024063870407
30
0
10
1262.183249483227
20
165.74887857169222
30
0
10
1263.1801030516485
20
166.3746810006883
30
0
10
1264.194929926412
20
166.65174678678582
30
0
10
1264.513804123101
20
166.73880511384525
30
0
10
1264.8360717815035
20
166.78917228232683
30
0
10
1265.1530983514754
20
166.78917228232683
30
0
0
SPLINE
5
123
100
AcDbEntity
8
0
100
AcDbSpline
70
0
71
3
72
14
73
10
74
0
42
0.000000001
43
0.0000000001
44
0.0000000001
40
0
40
0
40
0
40
0
40
0.47007901722014311
40
0.47007901722014311
40
0.47007901722014311
40
0.94729721732945216
40
0.94729721732945216
40
0.94729721732945216
40
1
40
1
40
1
40
1
10
1397.1862386399339
20
67.99116846042449
30
0
10
1397.1862386399339
20
65.41018903369843
30
0
10
1396.1947395548573
20
63.029841465718484
30
0
10
1394.5704013098828
20
61.250754031671413
30
0
10
1392.9300935258163
20
59.454175655442718
30
0
10
1390.6255128354296
20
58.250276274886303
30
0
10
1388.0452766208984
20
58.027863677017848
30
0
10
1387.7605041008997
20
58.003316701195295
30
0
10
1387.4738457995259
20
57.990913723418167
30
0
10
1387.1859892858893
20
57.990913723418167
30
0
0
SPLINE
5
124
100
AcDbEntity
8
0
100
AcDbSpline
70
0
71
3
72
11
73
7
74
0
42
0.000000001
43
0.0000000001
44
0.0000000001
40
0
40
0
40
0
40
0
40
1
40
1
40
1
40
1.0000814091900181
40
1.0000814091900181
40
1.0000814091900181
40
1.0000814091900181
10
1330.1665072666769
20
175.40753350109719
30
0
10
1331.3270013072006
20
175.40753350109719
30
0
10
1333.0965015172255
20
175.21085327333054
30
0
10
1334.2267624964609
20
174.95803106667822
30
0
10
1334.2268498031037
20
174.9580115375089
30
0
10
1334.2269371097459
20
174.95799200833972
30
0
10
1334.2270244163415
20
174.95797247918085
30
0
0
CIRCLE
5
125
100
AcDbEntity
8
0
100
AcDbCircle
10
1251.3829039933257
20
82.123442973356973
30
0
40
1.7000000000000002
210
0
220
0
230
1
0
LINE
5
126
100
AcDbEntity
8
0
100
AcDbLine
10
1265.1530983514756
20
166.78917228232683
30
0
11
1279.1513179898761
21
166.78917228232683
31
0
0
SPLINE
5
127
100
AcDbEntity
8
0
100
AcDbSpline
70
0
71
3
72
11
73
7
74
0
42
0.000000001
43
0.0000000001
44
0.0000000001
40
7.3938954816923832e-05
40
7.3938954816923832e-05
40
7.3938954816923832e-05
40
7.3938954816923832e-05
40
0.88979283506975204
40
0.88979283506975204
40
0.88979283506975204
40
1
40
1
40
1
40
1
10
1255.663128302808
20
81.127555441978387
30
0
10
1255.1165431649092
20
82.083324596547698
30
0
10
1254.7137039036197
20
83.523220393467739
30
0
10
1254.6232171619656
20
84.690512642243121
30
0
10
1254.6120088046912
20
84.835102096220467
30
0
10
1254.605983364632
20
84.97567812019571
30
0
10
1254.605983364632
20
85.11147358534285
30
0
0
SPLINE
5
128
100
AcDbEntity
8
0
100
AcDbSpline
70
0
71
3
72
11
73
7
74
0
42
0.000000001
43
0.0000000001
44
0.0000000001
40
6.5548420699503259e-05
40
6.5548420699503259e-05
40
6.5548420699503259e-05
40
6.5548420699503259e-05
40
0.83908153091422077
40
0.83908153091422077
40
0.83908153091422077
40
1
40
1
40
1
40
1
10
1387.3447849415923
20
163.01644323656362
30
0
10
1388.4628308571976
20
162.76623867694113
30
0
10
1389.3371185895203
20
161.83262340286939
30
0
10
1389.6063825700999
20
160.73779954833284
30
0
10
1389.6580258622882
20
160.52781859175198
30
0
10
1389.6862386399339
20
160.31079143984897
30
0
10
1389.6862386399339
20
160.09086548869021
30
0
0
LINE
5
129
100
AcDbEntity
8
0
100
AcDbLine
10
1247.1059833646323
20
85.111473585342878
30
0
11
1247.105983364632
21
152.35092018297172
31
0
0
SPLINE
5
130
100
AcDbEntity
8
0
100
AcDbSpline
70
0
71
3
72
11
73
7
74
0
42
0.000000001
43
0.0000000001
44
0.0000000001
40
0
40
0
40
0
40
0
40
0.84632527465264906
40
0.84632527465264906
40
0.84632527465264906
40
1
40
1
40
1
40
1
10
1254.605983364632
20
152.35092018297181
30
0
10
1254.605983364632
20
153.41174194063569
30
0
10
1254.9815508751433
20
154.75459710116453
30
0
10
1255.5061415407083
20
155.77130676710453
30
0
10
1255.6013960827443
20
155.9559196852706
30
0
10
1255.7023055732363
20
156.12947392040468
30
0
10
1255.8097590464681
20
156.28879969705429
30
0
0
CIRCLE
5
131
100
AcDbEntity
8
0
100
AcDbCircle
10
1295.6245451486086
20
61.686056224528585
30
0
40
1.7000000000000002
210
0
220
0
230
1
0
SPLINE
5
132
100
AcDbEntity
8
0
100
AcDbSpline
70
0
71
3
72
14
73
10
74
0
42
0.000000001
43
0.0000000001
44
0.0000000001
40
0
40
0
40
0
40
0
40
0.41555322172629761
40
0.41555322172629761
40
0.41555322172629761
40
0.84943484198512353
40
0.84943484198512353
40
0.84943484198512353
40
1
40
1
40
1
40
1
10
1247.105983364632
20
152.35092018297172
30
0
10
1247.105983364632
20
153.75183742974235
30
0
10
1247.3398254866638
20
154.95288848618236
30
0
10
1247.6025951051181
20
155.95097903196475
30
0
10
1247.8856245027591
20
157.02602327652295
30
0
10
1248.2793456634447
20
158.12701910916365
30
0
10
1248.8537245808557
20
159.23478716014898
30
0
10
1249.0557681458524
20
159.62445572113907
30
0
10
1249.297521878751
20
160.04614514824581
30
0
10
1249.591739885582
20
160.48239454096228
30
0
0
CIRCLE
5
133
100
AcDbEntity
8
0
100
AcDbCircle
10
1251.4622322983084
20
155.46491342079116
30
0
40
1.7000000000000002
210
0
220
0
230
1
0
LINE
5
134
100
AcDbEntity
8
0
100
AcDbLine
10
1265.1530983514756
20
174.28917228232677
30
0
11
1278.6104562274966
21
174.28917228232677
31
0
0
SPLINE
5
135
100
AcDbEntity
8
0
100
AcDbSpline
70
0
71
3
72
14
73
10
74
0
42
0.000000001
43
0.0000000001
44
0.0000000001
40
0.0005081523737224525
40
0.0005081523737224525
40
0.0005081523737224525
40
0.0005081523737224525
40
0.42285163248066354
40
0.42285163248066354
40
0.42285163248066354
40
0.86427712434814774
40
0.86427712434814774
40
0.86427712434814774
40
1
40
1
40
1
40
1
10
1249.1505497008911
20
77.407834078626365
30
0
10
1248.4962393542705
20
78.552736232984941
30
0
10
1248.1035768120021
20
79.636817041981374
30
0
10
1247.8191118534855
20
80.589051518974628
30
0
10
1247.5133244230433
20
81.612662073389188
30
0
10
1247.2743822495709
20
82.706443712306097
30
0
10
1247.1639377040078
20
83.896242282334939
30
0
10
1247.1294523419663
20
84.267746680624001
30
0
10
1247.1059833646323
20
84.674104479459871
30
0
10
1247.1059833646323
20
85.111473585342878
30
0
0
LINE
5
136
100
AcDbEntity
8
0
100
AcDbLine
10
1282.4965823561165
20
167.85123911604941
30
0
11
1291.4148041477019
21
174.16243334517546
31
0
0
LINE
5
137
100
AcDbEntity
8
0
100
AcDbLine
10
1249.591739885582
20
160.48239454096219
30
0
11
1255.3974944630261
21
169.09761380245783
31
0
0
LINE
5
138
100
AcDbEntity
8
0
100
AcDbLine
10
1335.8681311442035
20
182.27622260578471
30
0
11
1388.9864114146442
21
170.33457653245293
31
0
0
SPLINE
5
139
100
AcDbEntity
8
0
100
AcDbSpline
70
0
71
3
72
14
73
10
74
0
42
0.000000001
43
0.0000000001
44
0.0000000001
40
0.00030592744441629652
40
0.00030592744441629652
40
0.00030592744441629652
40
0.00030592744441629652
40
0.42524123820044957
40
0.42524123820044957
40
0.42524123820044957
40
0.86139226277865255
40
0.86139226277865255
40
0.86139226277865255
40
1
40
1
40
1
40
1
10
1388.9864112939006
20
170.33457597988814
30
0
10
1391.1689122461344
20
169.84532543504784
30
0
10
1392.9374313802703
20
168.69316140115885
30
0
10
1394.210840482222
20
167.36951337627758
30
0
10
1395.5078494348788
20
166.02133443220865
30
0
10
1396.5269793122707
20
164.2579517876888
30
0
10
1396.9624630005944
20
162.21007172799938
30
0
10
1397.1042575841834
20
161.5432768328285
30
0
10
1397.1862386399339
20
160.83287398803981
30
0
10
1397.1862386399339
20
160.09086548869007
30
0
0
LINE
5
140
100
AcDbEntity
8
0
100
AcDbLine
10
1334.2270244164899
20
174.9579724791478
30
0
11
1387.344784944401
21
163.01644325036037
31
0
0
SPLINE
5
141
100
AcDbEntity
8
0
100
AcDbSpline
70
0
71
3
72
11
73
7
74
0
42
0.000000001
43
0.0000000001
44
0.0000000001
40
0
40
0
40
0
40
0
40
0.83878329569131993
40
0.83878329569131993
40
0.83878329569131993
40
1
40
1
40
1
40
1
10
1279.1513179898761
20
166.78917228232683
30
0
10
1279.9428050516512
20
166.78917228232683
30
0
10
1281.2184187014345
20
167.13839194578355
30
0
10
1282.0630752933666
20
167.5878082956001
30
0
10
1282.2254208631025
20
167.67418748692648
30
0
10
1282.3722191814377
20
167.76345296265774
30
0
10
1282.4965823561165
20
167.85123911604941
30
0
0
SPLINE
5
142
100
AcDbEntity
8
0
100
AcDbSpline
70
0
71
3
72
14
73
10
74
0
42
0.000000001
43
0.0000000001
44
0.0000000001
40
0.0004676471245364543
40
0.0004676471245364543
40
0.0004676471245364543
40
0.0004676471245364543
40
0.40699028356557293
40
0.40699028356557293
40
0.40699028356557293
40
0.82690897814119801
40
0.82690897814119801
40
0.82690897814119801
40
1
40
1
40
1
40
1
10
1255.3974952677117
20
169.09761326566439
30
0
10
1256.4250353707396
20
170.62529487012753
30
0
10
1257.6987802102444
20
171.67146537712725
30
0
10
1258.8261366206327
20
172.38462074616677
30
0
10
1260.0160333893236
20
173.13733857468605
30
0
10
1261.3980017226975
20
173.74341188370124
30
0
10
1262.9533276426503
20
174.0622615458004
30
0
10
1263.607113502208
20
174.1962909461536
30
0
10
1264.3476485332624
20
174.28917228232677
30
0
10
1265.1530983514756
20
174.28917228232677
30
0
0
LINE
5
143
100
AcDbEntity
8
0
100
AcDbLine
10
1278.6104562274966
20
174.28917228232677
30
0
11
1287.0882062703758
21
180.28865191843195
31
0
0
SPLINE
5
144
100
AcDbEntity
8
0
100
AcDbSpline
70
0
71
3
72
17
73
13
74
0
42
0.000000001
43
0.0000000001
44
0.0000000001
40
-0.00022330394316748676
40
-0.00022330394316748676
40
-0.00022330394316748676
40
-0.00022330394316748676
40
0
40
0
40
0
40
0.41562434359876882
40
0.41562434359876882
40
0.41562434359876882
40
0.84958604214270517
40
0.84958604214270517
40
0.84958604214270517
40
1
40
1
40
1
40
1
10
1287.0882062703731
20
180.28865191843082
30
0
10
1287.0886933703039
20
180.28899575517656
30
0
10
1287.0891804702308
20
180.28933959191926
30
0
10
1287.0896675701558
20
180.28968342866074
30
0
10
1288.2557463812293
20
181.11280147497928
30
0
10
1289.3971631167606
20
181.61785285320391
30
0
10
1290.3833412098015
20
181.97599716331746
30
0
10
1291.4452142839573
20
182.36163116011312
30
0
10
1292.5971424125546
20
182.66675474755738
30
0
10
1293.8612171631573
20
182.81745302902868
30
0
10
1294.305723534419
20
182.87044542225567
30
0
10
1294.800210847819
20
182.90753350109711
30
0
10
1295.336753390945
20
182.90753350109711
30
0
0
CIRCLE
5
145
100
AcDbEntity
8
0
100
AcDbCircle
10
1391.8566681515977
20
164.22841230799449
30
0
40
1.7000000000000002
210
0
220
0
230
1
0
ENDSEC
0
SECTION
2
OBJECTS
0
DICTIONARY
5
C
100
AcDbDictionary
3
ACAD_GROUP
350
D
3
ACAD_MLINESTYLE
350
17
0
DICTIONARY
5
D
100
AcDbDictionary
0
DICTIONARY
5
1A
330
C
100
AcDbDictionary
0
DICTIONARY
5
17
100
AcDbDictionary
0
ENDSEC
0
EOF
