0
SECTION
2
HEADER
9
$INSUNITS
70
4
9
$ACADVER
1
AC1014
9
$HANDSEED
5
FFFF
0
ENDSEC
0
SECTION
2
TABLES
0
TABLE
2
VPORT
5
8
100
AcDbSymbolTable
0
ENDTAB
0
TABLE
2
LTYPE
5
5
100
AcDbSymbolTable
0
LTYPE
5
14
100
AcDbSymbolTableRecord
100
AcDbLinetypeTableRecord
2
BYBLOCK
70
0
0
LTYPE
5
15
100
AcDbSymbolTableRecord
100
AcDbLinetypeTableRecord
2
BYLAYER
70
0
0
LTYPE
5
16
100
AcDbSymbolTableRecord
100
AcDbLinetypeTableRecord
2
DASHED
70
0
3
Dashed __ __ __ __ __ __ __ __ __ __ __ __ __ _
72
65
73
2
40
0.75
49
0.5
74
0
49
-0.25
74
0
0
ENDTAB
0
TABLE
2
LAYER
5
2
100
AcDbSymbolTable
70
2
0
LAYER
5
50
100
AcDbSymbolTableRecord
100
AcDbLayerTableRecord
2
0
70
0
62
7
6
CONTINUOUS
0
ENDTAB
0
TABLE
2
STYLE
5
3
100
AcDbSymbolTable
70
1
0
STYLE
5
11
100
AcDbSymbolTableRecord
100
AcDbTextStyleTableRecord
2
STANDARD
70
0
0
ENDTAB
0
TABLE
2
VIEW
5
6
100
AcDbSymbolTable
70
0
0
ENDTAB
0
TABLE
2
UCS
5
7
100
AcDbSymbolTable
70
0
0
ENDTAB
0
TABLE
2
APPID
5
9
100
AcDbSymbolTable
70
2
0
APPID
5
12
100
AcDbSymbolTableRecord
100
AcDbRegAppTableRecord
2
ACAD
70
0
0
ENDTAB
0
TABLE
2
DIMSTYLE
5
A
100
AcDbSymbolTable
70
1
0
ENDTAB
0
TABLE
2
BLOCK_RECORD
5
1
100
AcDbSymbolTable
70
1
0
BLOCK_RECORD
5
1F
100
AcDbSymbolTableRecord
100
AcDbBlockTableRecord
2
*MODEL_SPACE
0
BLOCK_RECORD
5
1B
100
AcDbSymbolTableRecord
100
AcDbBlockTableRecord
2
*PAPER_SPACE
0
ENDTAB
0
ENDSEC
0
SECTION
2
BLOCKS
0
BLOCK
5
20
100
AcDbEntity
100
AcDbBlockBegin
2
*MODEL_SPACE
0
ENDBLK
5
21
100
AcDbEntity
100
AcDbBlockEnd
0
BLOCK
5
1C
100
AcDbEntity
100
AcDbBlockBegin
2
*PAPER_SPACE
0
ENDBLK
5
1D
100
AcDbEntity
100
AcDbBlockEnd
0
ENDSEC
0
SECTION
2
ENTITIES
0
LWPOLYLINE
5
100
100
AcDbEntity
8
0
100
AcDbPolyline
90
4
70
1
43
0.0
10
835.6728936071429
20
-238.32788451130983
10
821.66056027380955
20
-238.32788451130983
10
821.66056027380944
20
-224.31555117797657
10
835.67289360714267
20
-224.31555117797657
0
LWPOLYLINE
5
101
100
AcDbEntity
8
0
100
AcDbPolyline
90
4
70
1
43
0.0
10
835.67289360714267
20
-262.4155511779764
10
821.66056027380944
20
-262.4155511779764
10
821.66056027380932
20
-276.42788451130974
10
835.67289360714256
20
-276.42788451130974
0
LWPOLYLINE
5
102
100
AcDbEntity
8
0
100
AcDbPolyline
90
4
70
1
43
0.0
10
821.66056027380944
20
-219.27788451130988
10
835.67289360714267
20
-219.27788451130988
10
835.6728936071429
20
-205.26555117797656
10
821.66056027380955
20
-205.26555117797656
0
LWPOLYLINE
5
103
100
AcDbEntity
8
0
100
AcDbPolyline
90
4
70
1
43
0.0
10
835.6728936071429
20
-186.21555117797655
10
821.66056027380955
20
-186.21555117797655
10
821.66056027380944
20
-200.22788451130987
10
835.67289360714267
20
-200.22788451130987
0
LINE
5
104
100
AcDbEntity
8
0
100
AcDbLine
10
782.80561593702441
20
-292.00908627658202
30
0
11
873.27281065877912
21
-292.00908627658202
31
0
0
SPLINE
5
105
100
AcDbEntity
8
0
100
AcDbSpline
70
0
71
3
72
20
73
16
74
0
42
0.000000001
43
0.0000000001
44
0.0000000001
40
0
40
0
40
0
40
0
40
0.53021057109319303
40
0.53021057109319303
40
0.53021057109319303
40
0.85611647121063061
40
0.85611647121063061
40
0.85611647121063061
40
0.98795341962431782
40
0.98795341962431782
40
0.98795341962431782
40
1.0008140918953758
40
1.0008140918953758
40
1.0008140918953758
40
1.0013025470586079
40
1.0013025470586079
40
1.0013025470586079
40
1.0013025470586079
10
839.82509795623673
20
-167.09246649890289
30
0
10
838.76504908544553
20
-167.09246649890289
30
0
10
837.76036450319361
20
-167.17639564297869
30
0
10
836.78764615927912
20
-167.28920137354606
30
0
10
836.18833551804744
20
-167.35870317244172
30
0
10
835.58130653241165
20
-167.44196031450258
30
0
10
834.95956805241849
20
-167.55478079664044
30
0
10
834.70805955292803
20
-167.60041945515582
30
0
10
834.45423333634778
20
-167.65090458339671
30
0
10
834.19797274877806
20
-167.70724765924953
30
0
10
834.1729745713144
20
-167.71274391687689
30
0
10
834.13883792364857
20
-167.72034073555744
30
0
10
834.12504559829597
20
-167.72342586916338
30
0
10
834.12452175843782
20
-167.72354304417988
30
0
10
834.12399791857922
20
-167.72366021919638
30
0
10
834.12347407871039
20
-167.72377739421529
30
0
0
LWPOLYLINE
5
106
100
AcDbEntity
8
0
100
AcDbPolyline
90
4
70
1
43
0.0
10
878.81056027380941
20
-202.59855117797662
10
878.81056027380941
20
-188.60738451130999
10
892.82289360714276
20
-188.60738451130999
10
892.82289360714276
20
-202.59855117797662
0
LWPOLYLINE
5
107
100
AcDbEntity
8
0
100
AcDbPolyline
90
4
70
1
43
0.0
10
821.66056027380932
20
-243.36555117797644
10
835.67289360714256
20
-243.36555117797644
10
835.67289360714267
20
-257.37788451130984
10
821.66056027380944
20
-257.37788451130984
0
LWPOLYLINE
5
108
100
AcDbEntity
8
0
100
AcDbPolyline
90
4
70
1
43
0.0
10
854.72289360714262
20
-183.84488451130991
10
854.72289360714274
20
-197.83605117797657
10
840.71056027380951
20
-197.83605117797657
10
840.71056027380928
20
-183.84488451130991
0
CIRCLE
5
109
100
AcDbEntity
8
0
100
AcDbCircle
10
832.0636171416495
20
-172.13295018467642
30
0
40
1.7000000000000002
210
0
220
0
230
1
0
LWPOLYLINE
5
110
100
AcDbEntity
8
0
100
AcDbPolyline
90
4
70
1
43
0.0
10
797.57289360714276
20
-243.09038451130982
10
797.57289360714276
20
-229.07805117797659
10
783.56056027380964
20
-229.07805117797659
10
783.56056027380941
20
-243.09038451130982
0
LWPOLYLINE
5
111
100
AcDbEntity
8
0
100
AcDbPolyline
90
4
70
1
43
0.0
10
802.61056027380948
20
-243.09038451130982
10
802.61056027380948
20
-229.07805117797659
10
816.62289360714283
20
-229.07805117797659
10
816.62289360714283
20
-243.09038451130982
0
LINE
5
112
100
AcDbEntity
8
0
100
AcDbLine
10
920.39986533733202
20
-189.51760545903781
30
0
11
914.59411075988783
21
-180.90238619754217
31
0
0
LWPOLYLINE
5
113
100
AcDbEntity
8
0
100
AcDbPolyline
90
4
70
1
43
0.0
10
873.77289360714269
20
-186.21555117797664
10
873.77289360714269
20
-200.22788451130992
10
859.76056027380935
20
-200.22788451130987
10
859.76056027380935
20
-186.21555117797655
0
CIRCLE
5
114
100
AcDbEntity
8
0
100
AcDbCircle
10
778.13493707131613
20
-185.77158769200551
30
0
40
1.7000000000000002
210
0
220
0
230
1
0
LINE
5
115
100
AcDbEntity
8
0
100
AcDbLine
10
772.80536658297979
20
-189.9091345113099
30
0
11
772.8053665829799
21
-282.00883153957568
31
0
0
LINE
5
116
100
AcDbEntity
8
0
100
AcDbLine
10
904.83850687143843
20
-175.71082771767323
30
0
11
891.38114899541733
21
-175.71082771767323
31
0
0
LINE
5
117
100
AcDbEntity
8
0
100
AcDbLine
10
874.65485183196904
20
-167.09246649890289
30
0
11
839.82509795623673
21
-167.09246649890289
31
0
0
SPLINE
5
118
100
AcDbEntity
8
0
100
AcDbSpline
70
0
71
3
72
14
73
10
74
0
42
0.000000001
43
0.0000000001
44
0.0000000001
40
0.00030592744441629652
40
0.00030592744441629652
40
0.00030592744441629652
40
0.00030592744441629652
40
0.42524123820044957
40
0.42524123820044957
40
0.42524123820044957
40
0.86139226277865255
40
0.86139226277865255
40
0.86139226277865255
40
1
40
1
40
1
40
1
10
781.00519392901333
20
-179.66542402011186
30
0
10
778.82269297677965
20
-180.15467456495216
30
0
10
777.05417384264354
20
-181.30683859884124
30
0
10
775.78076474069144
20
-182.6304866237225
30
0
10
774.48375578803507
20
-183.97866556779135
30
0
10
773.46462591064301
20
-185.74204821231123
30
0
10
773.02914222231948
20
-187.78992827200068
30
0
10
772.88734763873026
20
-188.45672316717153
30
0
10
772.80536658297979
20
-189.16712601196022
30
0
10
772.80536658297979
20
-189.90913451130993
30
0
0
SPLINE
5
119
100
AcDbEntity
8
0
100
AcDbSpline
70
0
71
3
72
17
73
13
74
0
42
0.000000001
43
0.0000000001
44
0.0000000001
40
-0.00022330394316748676
40
-0.00022330394316748676
40
-0.00022330394316748676
40
-0.00022330394316748676
40
0
40
0
40
0
40
0.41562434359876882
40
0.41562434359876882
40
0.41562434359876882
40
0.84958604214270517
40
0.84958604214270517
40
0.84958604214270517
40
1
40
1
40
1
40
1
10
882.90339895254101
20
-169.71134808156918
30
0
10
882.90291185261003
20
-169.71100424482344
30
0
10
882.90242475268315
20
-169.71066040808074
30
0
10
882.90193765275808
20
-169.71031657133926
30
0
10
881.73585884168472
20
-168.88719852502072
30
0
10
880.59444210615334
20
-168.38214714679609
30
0
10
879.60826401311249
20
-168.02400283668254
30
0
10
878.54639093895662
20
-167.63836883988688
30
0
10
877.3944628103593
20
-167.33324525244262
30
0
10
876.13038805975657
20
-167.18254697097132
30
0
10
875.68588168849499
20
-167.12955457774433
30
0
10
875.19139437509489
20
-167.09246649890289
30
0
10
874.65485183196904
20
-167.09246649890289
30
0
0
LWPOLYLINE
5
120
100
AcDbEntity
8
0
100
AcDbPolyline
90
4
70
1
43
0.0
10
892.82289360714253
20
-259.74855117797642
10
892.82289360714253
20
-245.75738451130988
10
878.81056027380941
20
-245.75738451130988
10
878.81056027380941
20
-259.74855117797642
0
LINE
5
121
100
AcDbEntity
8
0
100
AcDbLine
10
834.12347407871039
20
-167.72377739421529
30
0
11
781.00519380826972
21
-179.66542346754707
31
0
0
LWPOLYLINE
5
122
100
AcDbEntity
8
0
100
AcDbPolyline
90
4
70
1
43
0.0
10
797.57289360714276
20
-190.97805117797657
10
783.56056027380964
20
-190.97805117797657
10
783.56056027380964
20
-204.99038451130991
10
797.57289360714276
20
-204.99038451130991
0
LWPOLYLINE
5
123
100
AcDbEntity
8
0
100
AcDbPolyline
90
4
70
1
43
0.0
10
854.72289360714262
20
-240.99488451130981
10
854.72289360714262
20
-254.98605117797644
10
840.71056027380928
20
-254.98605117797644
10
840.71056027380928
20
-240.99488451130981
0
LWPOLYLINE
5
124
100
AcDbEntity
8
0
100
AcDbPolyline
90
4
70
1
43
0.0
10
802.61056027380948
20
-190.97805117797657
10
816.62289360714283
20
-190.97805117797657
10
816.62289360714283
20
-204.99038451130991
10
802.6105602738096
20
-204.99038451130991
0
CIRCLE
5
125
100
AcDbEntity
8
0
100
AcDbCircle
10
831.96167289214964
20
-182.67013434982113
30
0
40
1.2
210
0
220
0
230
1
0
SPLINE
5
126
100
AcDbEntity
8
0
100
AcDbSpline
70
0
71
3
72
14
73
10
74
0
42
0.000000001
43
0.0000000001
44
0.0000000001
40
0.0004676471245364543
40
0.0004676471245364543
40
0.0004676471245364543
40
0.0004676471245364543
40
0.40699028356557293
40
0.40699028356557293
40
0.40699028356557293
40
0.82690897814119801
40
0.82690897814119801
40
0.82690897814119801
40
1
40
1
40
1
40
1
10
914.59410995520216
20
-180.90238673433561
30
0
10
913.56656985217444
20
-179.37470512987247
30
0
10
912.29282501266971
20
-178.32853462287275
30
0
10
911.16546860228141
20
-177.61537925383323
30
0
10
909.97557183359038
20
-176.86266142531395
30
0
10
908.59360350021643
20
-176.25658811629876
30
0
10
907.03827758026364
20
-175.9377384541996
30
0
10
906.38449172070614
20
-175.8037090538464
30
0
10
905.64395668965153
20
-175.71082771767323
30
0
10
904.83850687143843
20
-175.71082771767323
30
0
0
LWPOLYLINE
5
127
100
AcDbEntity
8
0
100
AcDbPolyline
90
4
70
1
43
0.0
10
897.86056027380937
20
-231.17355117797658
10
897.86056027380937
20
-217.18238451131
10
911.8728936071426
20
-217.18238451131
10
911.8728936071426
20
-231.17355117797658
0
LWPOLYLINE
5
128
100
AcDbEntity
8
0
100
AcDbPolyline
90
4
70
1
43
0.0
10
797.57289360714276
20
-281.19038451130967
10
797.57289360714276
20
-267.17805117797639
10
783.56056027380941
20
-267.17805117797639
10
783.56056027380941
20
-281.19038451130967
0
LINE
5
129
100
AcDbEntity
8
0
100
AcDbLine
10
891.38114899541733
20
-175.71082771767323
30
0
11
882.90339895253828
21
-169.71134808156805
31
0
0
LWPOLYLINE
5
130
100
AcDbEntity
8
0
100
AcDbPolyline
90
4
70
1
43
0.0
10
816.62289360714283
20
-262.14038451130966
10
802.61056027380948
20
-262.14038451130978
10
802.61056027380937
20
-248.12805117797643
10
816.62289360714271
20
-248.12805117797643
0
LWPOLYLINE
5
131
100
AcDbEntity
8
0
100
AcDbPolyline
90
4
70
1
43
0.0
10
897.86056027380937
20
-236.2323845113099
10
911.8728936071426
20
-236.2323845113099
10
911.8728936071426
20
-250.2235511779765
10
897.86056027380926
20
-250.2235511779765
0
CIRCLE
5
132
100
AcDbEntity
8
0
100
AcDbCircle
10
800.08114360714274
20
-264.96613451130975
30
0
40
1.2
210
0
220
0
230
1
0
LWPOLYLINE
5
133
100
AcDbEntity
8
0
100
AcDbPolyline
90
4
70
1
43
0.0
10
816.62289360714283
20
-281.19038451130967
10
802.61056027380948
20
-281.19038451130967
10
802.61056027380937
20
-267.17805117797639
10
816.62289360714271
20
-267.17805117797639
0
LWPOLYLINE
5
134
100
AcDbEntity
8
0
100
AcDbPolyline
90
4
70
1
43
0.0
10
911.8728936071426
20
-212.12355117797665
10
897.86056027380937
20
-212.12355117797665
10
897.86056027380937
20
-198.13238451130999
10
911.8728936071426
20
-198.13238451130999
0
LWPOLYLINE
5
135
100
AcDbEntity
8
0
100
AcDbPolyline
90
4
70
1
43
0.0
10
783.56056027380941
20
-248.12805117797643
10
783.56056027380941
20
-262.14038451130966
10
797.57289360714276
20
-262.14038451130978
10
797.57289360714276
20
-248.12805117797643
0
LWPOLYLINE
5
136
100
AcDbEntity
8
0
100
AcDbPolyline
90
4
70
1
43
0.0
10
783.56056027380964
20
-210.02805117797658
10
783.56056027380964
20
-224.04038451130987
10
797.57289360714276
20
-224.04038451130987
10
797.57289360714276
20
-210.02805117797658
0
LWPOLYLINE
5
137
100
AcDbEntity
8
0
100
AcDbPolyline
90
4
70
1
43
0.0
10
859.76056027380935
20
-257.37788451130984
10
859.76056027380935
20
-243.36555117797644
10
873.77289360714258
20
-243.3655511779765
10
873.77289360714258
20
-257.3778845113099
0
LWPOLYLINE
5
138
100
AcDbEntity
8
0
100
AcDbPolyline
90
4
70
1
43
0.0
10
816.62289360714283
20
-210.02805117797658
10
816.62289360714283
20
-224.04038451130987
10
802.6105602738096
20
-224.04038451130987
10
802.61056027380948
20
-210.02805117797658
0
LWPOLYLINE
5
139
100
AcDbEntity
8
0
100
AcDbPolyline
90
4
70
1
43
0.0
10
892.82289360714276
20
-221.64855117797663
10
892.82289360714276
20
-207.65738451131
10
878.81056027380941
20
-207.65738451131
10
878.81056027380941
20
-221.64855117797663
0
SPLINE
5
140
100
AcDbEntity
8
0
100
AcDbSpline
70
0
71
3
72
14
73
10
74
0
42
0.000000001
43
0.0000000001
44
0.0000000001
40
0
40
0
40
0
40
0
40
0.47007901722014311
40
0.47007901722014311
40
0.47007901722014311
40
0.94729721732945216
40
0.94729721732945216
40
0.94729721732945216
40
1
40
1
40
1
40
1
10
772.8053665829799
20
-282.00883153957568
30
0
10
772.8053665829799
20
-284.58981096630174
30
0
10
773.79686566805685
20
-286.97015853428172
30
0
10
775.42120391303115
20
-288.74924596832875
30
0
10
777.06151169709756
20
-290.54582434455745
30
0
10
779.36609238748417
20
-291.74972372511382
30
0
10
781.94632860201534
20
-291.97213632298229
30
0
10
782.23110112201425
20
-291.9966832988049
30
0
10
782.51775942338804
20
-292.00908627658202
30
0
10
782.80561593702441
20
-292.00908627658202
30
0
0
LWPOLYLINE
5
141
100
AcDbEntity
8
0
100
AcDbPolyline
90
4
70
1
43
0.0
10
880.41922694047594
20
-283.75155117797647
10
868.31189360714257
20
-276.74538451130979
10
875.29689360714258
20
-264.61688451130982
10
887.42539360714261
20
-271.62305117797644
0
LINE
5
142
100
AcDbEntity
8
0
100
AcDbLine
10
873.46018317414769
20
-292.05620596606741
30
0
11
892.05410053351829
21
-302.78694359511917
31
0
0
CIRCLE
5
143
100
AcDbEntity
8
0
100
AcDbCircle
10
918.5293729246057
20
-194.53508657920889
30
0
40
1.7000000000000002
210
0
220
0
230
1
0
LWPOLYLINE
5
144
100
AcDbEntity
8
0
100
AcDbPolyline
90
8
70
1
43
0.0
10
862.34289360714251
20
-262.4155511779764
10
854.72289360714262
20
-262.4155511779764
10
854.72289360714262
20
-260.04488451130976
10
840.71056027380928
20
-260.04488451130976
10
840.71056027380928
20
-274.03605117797639
10
848.3305602738094
20
-274.03605117797639
10
848.3305602738094
20
-276.42788451130974
10
862.34289360714251
20
-276.42788451130974
0
LINE
5
145
100
AcDbEntity
8
0
100
AcDbLine
10
910.43829338684168
20
-269.82484409341828
30
0
11
899.80204338684166
21
-288.22220520452936
31
0
0
CIRCLE
5
146
100
AcDbEntity
8
0
100
AcDbCircle
10
898.65095384323979
20
-300.06055669672435
30
0
40
1.7000000000000002
210
0
220
0
230
1
0
LWPOLYLINE
5
147
100
AcDbEntity
8
0
100
AcDbPolyline
90
4
70
1
43
0.0
10
878.81056027380941
20
-240.69855117797653
10
892.82289360714276
20
-240.69855117797653
10
892.82289360714276
20
-226.70738451130995
10
878.81056027380941
20
-226.70738451130995
0
CIRCLE
5
148
100
AcDbEntity
8
0
100
AcDbCircle
10
895.33114145395803
20
-205.02213321939919
30
0
40
1.2
210
0
220
0
230
1
0
CIRCLE
5
149
100
AcDbEntity
8
0
100
AcDbCircle
10
838.69267353810517
20
-257.34613580322059
30
0
40
1.2
210
0
220
0
230
1
0
LINE
5
150
100
AcDbEntity
8
0
100
AcDbLine
10
899.43515449795268
20
-290.83981631564035
30
0
11
898.34859894239708
21
-290.73398298230705
31
0
0
LINE
5
151
100
AcDbEntity
8
0
100
AcDbLine
10
899.80557092745744
20
-260.24540348823871
30
0
11
899.1523816049272
21
-259.86676288168331
31
0
0
LINE
5
152
100
AcDbEntity
8
0
100
AcDbLine
10
896.84576560906385
20
-293.3127885378625
30
0
11
884.73137672017504
21
-286.29956631564033
31
0
0
LWPOLYLINE
5
153
100
AcDbEntity
8
0
100
AcDbPolyline
90
4
70
1
43
0.0
10
840.71056027380951
20
-216.88605117797658
10
840.71056027380928
20
-202.89488451130984
10
854.72289360714262
20
-202.89488451130984
10
854.72289360714274
20
-216.88605117797658
0
LINE
5
154
100
AcDbEntity
8
0
100
AcDbLine
10
901.30487672017489
20
-257.65401076008493
30
0
11
913.4227933868417
21
-264.66370520452932
31
0
0
LINE
5
155
100
AcDbEntity
8
0
100
AcDbLine
10
885.58116685138259
20
-283.32318344336579
30
0
11
886.234669974349
21
-283.70128167879648
31
0
0
LINE
5
156
100
AcDbEntity
8
0
100
AcDbLine
10
913.4227933868417
20
-264.66370520452932
30
0
11
911.89173783128604
21
-267.3130663156403
31
0
0
SPLINE
5
157
100
AcDbEntity
8
0
100
AcDbSpline
70
0
71
3
72
17
73
13
74
0
42
0.000000001
43
0.0000000001
44
0.0000000001
40
0.00013729868904704292
40
0.00013729868904704292
40
0.00013729868904704292
40
0.00013729868904704292
40
0.46850879666947803
40
0.46850879666947803
40
0.46850879666947803
40
0.94962922189638044
40
0.94962922189638044
40
0.94962922189638044
40
1
40
1
40
1
40
1.0001437314604993
40
1.0001437314604993
40
1.0001437314604993
40
1.0001437314604993
10
892.05410059476083
20
-302.78694348971493
30
0
10
894.28378968117977
20
-304.07452092042377
30
0
10
896.83720713621392
20
-304.40916812505873
30
0
10
899.19191391254219
20
-303.89156683609031
30
0
10
901.59760334543307
20
-303.36275876374776
30
0
10
903.80794914592957
20
-301.9415300167567
30
0
10
905.28570639671966
20
-299.78876160877172
30
0
10
905.44018131493044
20
-299.56372551196188
30
0
10
905.58582287333275
20
-299.33180859945639
30
0
10
905.72216298405806
20
-299.09343218338
30
0
10
905.72243551802057
20
-299.09295568626635
30
0
10
905.72270805198286
20
-299.09247918915293
30
0
10
905.72298058595607
20
-299.09200269202051
30
0
0
LINE
5
158
100
AcDbEntity
8
0
100
AcDbLine
10
899.80204338684166
20
-288.22220520452936
30
0
11
900.43351560906387
21
-289.10767742675154
31
0
0
CIRCLE
5
159
100
AcDbEntity
8
0
100
AcDbCircle
10
889.36566793982479
20
-264.71213752576836
30
0
40
1.2
210
0
220
0
230
1
0
LINE
5
160
100
AcDbEntity
8
0
100
AcDbLine
10
911.52837672017495
20
-269.93420520452935
30
0
11
910.43829338684168
21
-269.82484409341828
31
0
0
LINE
5
161
100
AcDbEntity
8
0
100
AcDbLine
10
911.89173783128604
20
-267.3130663156403
30
0
11
912.53026560906392
21
-268.2055940934182
31
0
0
LINE
5
162
100
AcDbEntity
8
0
100
AcDbLine
10
905.72298058595607
20
-299.09200269202051
30
0
11
920.84105593257289
21
-272.59216615827944
31
0
0
LINE
5
163
100
AcDbEntity
8
0
100
AcDbLine
10
897.49976623189173
20
-262.72313513137453
30
0
11
899.1523816049272
21
-259.86676288168331
31
0
0
LWPOLYLINE
5
164
100
AcDbEntity
8
0
100
AcDbPolyline
90
4
70
1
43
0.0
10
859.76056027380935
20
-238.32788451130983
10
859.76056027380935
20
-224.31555117797657
10
873.77289360714269
20
-224.31555117797666
10
873.77289360714269
20
-238.32788451130992
0
LINE
5
165
100
AcDbEntity
8
0
100
AcDbLine
10
885.58116685138259
20
-283.32318344336579
30
0
11
887.23378222441806
21
-280.46681119367457
31
0
0
LWPOLYLINE
5
166
100
AcDbEntity
8
0
100
AcDbPolyline
90
4
70
1
43
0.0
10
854.72289360714274
20
-235.93605117797654
10
840.71056027380951
20
-235.93605117797654
10
840.71056027380928
20
-221.94488451130985
10
854.72289360714262
20
-221.94488451130985
0
LWPOLYLINE
5
167
100
AcDbEntity
8
0
100
AcDbPolyline
90
4
70
1
43
0.0
10
859.76056027380935
20
-219.27788451130988
10
859.76056027380935
20
-205.26555117797656
10
873.77289360714269
20
-205.26555117797665
10
873.77289360714269
20
-219.27788451130994
0
SPLINE
5
168
100
AcDbEntity
8
0
100
AcDbSpline
70
0
71
3
72
11
73
7
74
0
42
0.000000001
43
0.0000000001
44
0.0000000001
40
0.35495894660622906
40
0.35495894660622906
40
0.35495894660622906
40
0.35495894660622906
40
0.53184469039110338
40
0.53184469039110338
40
0.53184469039110338
40
0.6307286939839517
40
0.6307286939839517
40
0.6307286939839517
40
0.6307286939839517
10
873.27281065877912
20
-292.00908627658191
30
0
10
873.3340901151779
20
-292.02103549635439
30
0
10
873.39496787387679
20
-292.03602104689134
30
0
10
873.40385311485704
20
-292.03851979128103
30
0
10
873.41321098611797
20
-292.04115145072217
30
0
10
873.43500044237476
20
-292.04774395817617
30
0
10
873.46018317414769
20
-292.05620596606741
30
0
0
CIRCLE
5
169
100
AcDbEntity
8
0
100
AcDbCircle
10
874.36706007430553
20
-288.31394377547156
30
0
40
1.7000000000000002
210
0
220
0
230
1
0
LINE
5
170
100
AcDbEntity
8
0
100
AcDbLine
10
887.8869715469483
20
-280.84545180022991
30
0
11
887.23378222441806
21
-280.46681119367457
31
0
0
LINE
5
171
100
AcDbEntity
8
0
100
AcDbLine
10
901.30487672017489
20
-257.65401076008493
30
0
11
899.80557092745744
21
-260.24540348823871
31
0
0
LINE
5
172
100
AcDbEntity
8
0
100
AcDbLine
10
900.43351560906387
20
-289.10767742675154
30
0
11
899.43515449795268
21
-290.83981631564035
31
0
0
LINE
5
173
100
AcDbEntity
8
0
100
AcDbLine
10
912.53026560906392
20
-268.2055940934182
30
0
11
911.52837672017495
21
-269.93420520452935
31
0
0
LINE
5
174
100
AcDbEntity
8
0
100
AcDbLine
10
886.234669974349
20
-283.70128167879648
30
0
11
884.73137672017504
21
-286.29956631564033
31
0
0
CIRCLE
5
175
100
AcDbEntity
8
0
100
AcDbCircle
10
918.60870122958829
20
-267.87655702664313
30
0
40
1.7000000000000002
210
0
220
0
230
1
0
LINE
5
176
100
AcDbEntity
8
0
100
AcDbLine
10
897.49976623189173
20
-262.72313513137453
30
0
11
898.15326935485814
21
-263.10123336680527
31
0
0
LINE
5
177
100
AcDbEntity
8
0
100
AcDbLine
10
898.15326935485814
20
-263.10123336680527
30
0
11
887.8869715469483
21
-280.84545180022991
31
0
0
SPLINE
5
178
100
AcDbEntity
8
0
100
AcDbSpline
70
0
71
3
72
14
73
10
74
0
42
0.000000001
43
0.0000000001
44
0.0000000001
40
0.0005081523737224525
40
0.0005081523737224525
40
0.0005081523737224525
40
0.0005081523737224525
40
0.42285163248066354
40
0.42285163248066354
40
0.42285163248066354
40
0.86427712434814774
40
0.86427712434814774
40
0.86427712434814774
40
1
40
1
40
1
40
1
10
920.841055522023
20
-272.59216592137375
30
0
10
921.4953658686436
20
-271.4472637670151
30
0
10
921.88802841091183
20
-270.3631829580188
30
0
10
922.17249336942825
20
-269.41094848102546
30
0
10
922.47828079987073
20
-268.38733792661094
30
0
10
922.71722297334327
20
-267.29355628769395
30
0
10
922.82766751890631
20
-266.10375771766519
30
0
10
922.86215288094763
20
-265.73225331937613
30
0
10
922.88562185828187
20
-265.3258955205402
30
0
10
922.88562185828187
20
-264.88852641465724
30
0
0
CIRCLE
5
179
100
AcDbEntity
8
0
100
AcDbCircle
10
838.18467267683127
20
-221.7861347266284
30
0
40
1.2
210
0
220
0
230
1
0
LINE
5
180
100
AcDbEntity
8
0
100
AcDbLine
10
898.34859894239708
20
-290.73398298230705
30
0
11
896.84576560906385
21
-293.3127885378625
31
0
0
CIRCLE
5
181
100
AcDbEntity
8
0
100
AcDbCircle
10
778.45868110585786
20
-286.35576941382374
30
0
40
1.7000000000000002
210
0
220
0
230
1
0
LINE
5
182
100
AcDbEntity
8
0
100
AcDbLine
10
922.88562185828187
20
-264.88852641465724
30
0
11
922.88562185828187
21
-197.64907981702831
31
0
0
SPLINE
5
183
100
AcDbEntity
8
0
100
AcDbSpline
70
0
71
3
72
14
73
10
74
0
42
0.000000001
43
0.0000000001
44
0.0000000001
40
0
40
0
40
0
40
0
40
0.41555322172629761
40
0.41555322172629761
40
0.41555322172629761
40
0.84943484198512353
40
0.84943484198512353
40
0.84943484198512353
40
1
40
1
40
1
40
1
10
922.88562185828187
20
-197.64907981702831
30
0
10
922.88562185828187
20
-196.24816257025768
30
0
10
922.65177973624998
20
-195.04711151381767
30
0
10
922.38901011779581
20
-194.04902096803525
30
0
10
922.10598072015478
20
-192.97397672347711
30
0
10
921.71225955946943
20
-191.87298089083637
30
0
10
921.13788064205835
20
-190.76521283985102
30
0
10
920.93583707706159
20
-190.37554427886101
30
0
10
920.69408334416312
20
-189.95385485175422
30
0
10
920.39986533733202
20
-189.51760545903778
30
0
0
CIRCLE
5
184
100
AcDbEntity
8
0
100
AcDbCircle
10
800.0846699853505
20
-207.56213483428758
30
0
40
1.2
210
0
220
0
230
1
0
ENDSEC
0
SECTION
2
OBJECTS
0
DICTIONARY
5
C
100
AcDbDictionary
3
ACAD_GROUP
350
D
3
ACAD_MLINESTYLE
350
17
0
DICTIONARY
5
D
100
AcDbDictionary
0
DICTIONARY
5
1A
330
C
100
AcDbDictionary
0
DICTIONARY
5
17
100
AcDbDictionary
0
ENDSEC
0
EOF
