0
SECTION
2
HEADER
9
$INSUNITS
70
4
9
$ACADVER
1
AC1014
9
$HANDSEED
5
FFFF
0
ENDSEC
0
SECTION
2
TABLES
0
TABLE
2
VPORT
5
8
100
AcDbSymbolTable
0
ENDTAB
0
TABLE
2
LTYPE
5
5
100
AcDbSymbolTable
0
LTYPE
5
14
100
AcDbSymbolTableRecord
100
AcDbLinetypeTableRecord
2
BYBLOCK
70
0
0
LTYPE
5
15
100
AcDbSymbolTableRecord
100
AcDbLinetypeTableRecord
2
BYLAYER
70
0
0
LTYPE
5
16
100
AcDbSymbolTableRecord
100
AcDbLinetypeTableRecord
2
DASHED
70
0
3
Dashed __ __ __ __ __ __ __ __ __ __ __ __ __ _
72
65
73
2
40
0.75
49
0.5
74
0
49
-0.25
74
0
0
ENDTAB
0
TABLE
2
LAYER
5
2
100
AcDbSymbolTable
70
2
0
LAYER
5
50
100
AcDbSymbolTableRecord
100
AcDbLayerTableRecord
2
0
70
0
62
7
6
CONTINUOUS
0
ENDTAB
0
TABLE
2
STYLE
5
3
100
AcDbSymbolTable
70
1
0
STYLE
5
11
100
AcDbSymbolTableRecord
100
AcDbTextStyleTableRecord
2
STANDARD
70
0
0
ENDTAB
0
TABLE
2
VIEW
5
6
100
AcDbSymbolTable
70
0
0
ENDTAB
0
TABLE
2
UCS
5
7
100
AcDbSymbolTable
70
0
0
ENDTAB
0
TABLE
2
APPID
5
9
100
AcDbSymbolTable
70
2
0
APPID
5
12
100
AcDbSymbolTableRecord
100
AcDbRegAppTableRecord
2
ACAD
70
0
0
ENDTAB
0
TABLE
2
DIMSTYLE
5
A
100
AcDbSymbolTable
70
1
0
ENDTAB
0
TABLE
2
BLOCK_RECORD
5
1
100
AcDbSymbolTable
70
1
0
BLOCK_RECORD
5
1F
100
AcDbSymbolTableRecord
100
AcDbBlockTableRecord
2
*MODEL_SPACE
0
BLOCK_RECORD
5
1B
100
AcDbSymbolTableRecord
100
AcDbBlockTableRecord
2
*PAPER_SPACE
0
ENDTAB
0
ENDSEC
0
SECTION
2
BLOCKS
0
BLOCK
5
20
100
AcDbEntity
100
AcDbBlockBegin
2
*MODEL_SPACE
0
ENDBLK
5
21
100
AcDbEntity
100
AcDbBlockEnd
0
BLOCK
5
1C
100
AcDbEntity
100
AcDbBlockBegin
2
*PAPER_SPACE
0
ENDBLK
5
1D
100
AcDbEntity
100
AcDbBlockEnd
0
ENDSEC
0
SECTION
2
ENTITIES
0
LINE
5
100
100
AcDbEntity
8
0
100
AcDbLine
10
1335.8681311442035
20
7.2762226057846924
30
0
11
1388.9864114146442
21
-4.6654234675470896
31
0
0
LINE
5
101
100
AcDbEntity
8
0
100
AcDbLine
10
1334.2270244164899
20
-0.042027520852254696
30
0
11
1387.344784944401
21
-11.98355674963965
31
0
0
LINE
5
102
100
AcDbEntity
8
0
100
AcDbLine
10
1332.1667727696115
20
2.0114130553580445
30
0
11
1332.1667727696122
21
5.5632918370991646
31
0
0
LINE
5
103
100
AcDbEntity
8
0
100
AcDbLine
10
1255.8097590464681
20
-18.711200302945716
30
0
11
1259.8795448151052
21
-12.672003737243269
31
0
0
SPLINE
5
104
100
AcDbEntity
8
0
100
AcDbSpline
70
0
71
3
72
11
73
7
74
0
42
0.000000001
43
0.0000000001
44
0.0000000001
40
0
40
0
40
0
40
0
40
0.84632527465264906
40
0.84632527465264906
40
0.84632527465264906
40
1
40
1
40
1
40
1
10
1254.605983364632
20
-22.649079817028248
30
0
10
1254.605983364632
20
-21.58825805936436
30
0
10
1254.9815508751433
20
-20.245402898835447
30
0
10
1255.5061415407083
20
-19.228693232895484
30
0
10
1255.6013960827443
20
-19.044080314729417
30
0
10
1255.7023055732363
20
-18.87052607959534
30
0
10
1255.8097590464681
20
-18.711200302945752
30
0
0
CIRCLE
5
105
100
AcDbEntity
8
0
100
AcDbCircle
10
1251.4622322983084
20
-19.535086579208869
30
0
40
1.7000000000000002
210
0
220
0
230
1
0
SPLINE
5
106
100
AcDbEntity
8
0
100
AcDbSpline
70
0
71
3
72
14
73
10
74
0
42
0.000000001
43
0.0000000001
44
0.0000000001
40
0
40
0
40
0
40
0
40
0.41555322172629761
40
0.41555322172629761
40
0.41555322172629761
40
0.84943484198512353
40
0.84943484198512353
40
0.84943484198512353
40
1
40
1
40
1
40
1
10
1247.105983364632
20
-22.649079817028284
30
0
10
1247.105983364632
20
-21.248162570257652
30
0
10
1247.3398254866638
20
-20.047111513817644
30
0
10
1247.6025951051181
20
-19.049020968035268
30
0
10
1247.8856245027591
20
-17.973976723477119
30
0
10
1248.2793456634445
20
-16.872980890836384
30
0
10
1248.8537245808557
20
-15.765212839851035
30
0
10
1249.0557681458524
20
-15.375544278861017
30
0
10
1249.297521878751
20
-14.95385485175424
30
0
10
1249.591739885582
20
-14.517605459037792
30
0
0
ARC
5
107
100
AcDbEntity
8
0
100
AcDbCircle
10
1258.2209982692686
20
-11.554317128531082
30
0
40
2.0000000000001021
210
0
220
0
230
1
100
AcDbArc
50
-33.975842220953204
51
44.999999999995822
0
CIRCLE
5
108
100
AcDbEntity
8
0
100
AcDbCircle
10
1337.9279880812644
20
2.8670498153235791
30
0
40
1.7000000000000002
210
0
220
0
230
1
0
LINE
5
109
100
AcDbEntity
8
0
100
AcDbLine
10
1249.591739885582
20
-14.517605459037828
30
0
11
1254.0410496919696
21
-7.9152286218780255
31
0
0
LINE
5
110
100
AcDbEntity
8
0
100
AcDbLine
10
1247.1059833646323
20
-89.888526414657193
30
0
11
1247.105983364632
21
-22.649079817028284
31
0
0
LINE
5
111
100
AcDbEntity
8
0
100
AcDbLine
10
1254.605983364632
20
-89.888526414657235
30
0
11
1254.605983364632
21
-22.649079817028248
31
0
0
SPLINE
5
112
100
AcDbEntity
8
0
100
AcDbSpline
70
0
71
3
72
17
73
13
74
0
42
0.000000001
43
0.0000000001
44
0.0000000001
40
0.7585906053972421
40
0.7585906053972421
40
0.7585906053972421
40
0.7585906053972421
40
0.85611647121063061
40
0.85611647121063061
40
0.85611647121063061
40
0.98795341962431782
40
0.98795341962431782
40
0.98795341962431782
40
1.0008140918953758
40
1.0008140918953758
40
1.0008140918953758
40
1.0013025470586079
40
1.0013025470586079
40
1.0013025470586079
40
1.0013025470586079
10
1334.4776441611857
20
7.5389838621627625
30
0
10
1334.6612495208853
20
7.5100939071773176
30
0
10
1334.8459847438626
20
7.4789802221014945
30
0
10
1335.0320371704952
20
7.4452192033595388
30
0
10
1335.2835456699859
20
7.3995805448441665
30
0
10
1335.5373718865662
20
7.3490954166032729
30
0
10
1335.7936324741358
20
7.2927523407504502
30
0
10
1335.8186306515995
20
7.2872560831230793
30
0
10
1335.8527672992655
20
7.2796592644425395
30
0
10
1335.866559624618
20
7.2765741308366039
30
0
10
1335.8670834644761
20
7.2764569558201053
30
0
10
1335.8676073043348
20
7.2763397808036068
30
0
10
1335.8681311442035
20
7.2762226057846924
30
0
0
SPLINE
5
113
100
AcDbEntity
8
0
100
AcDbSpline
70
0
71
3
72
11
73
7
74
0
42
0.000000001
43
0.0000000001
44
0.0000000001
40
0.880880486908312
40
0.880880486908312
40
0.880880486908312
40
0.880880486908312
40
1
40
1
40
1
40
1.0000814091900181
40
1.0000814091900181
40
1.0000814091900181
40
1.0000814091900181
10
1333.7977525445267
20
0.045751824759108217
30
0
10
1333.9484197629622
20
0.017466558714716029
30
0
10
1334.092126358948
20
-0.011852875166624699
30
0
10
1334.2267624964609
20
-0.041968933321800961
30
0
10
1334.2268498031037
20
-0.041988462491193701
30
0
10
1334.2269371097459
20
-0.042007991660373278
30
0
10
1334.2270244163415
20
-0.042027520819214459
30
0
0
LINE
5
114
100
AcDbEntity
8
0
100
AcDbLine
10
1259.635211831642
20
-10.140103566157954
30
0
11
1257.1138098539338
21
-7.6187015884498344
31
0
0
ARC
5
115
100
AcDbEntity
8
0
100
AcDbCircle
10
1255.6995962915607
20
-9.0329151508228733
30
0
40
1.9999999999999083
210
0
220
-0
230
1
100
AcDbArc
50
44.999999999998636
51
146.024160534667
0
ARC
5
116
100
AcDbEntity
8
0
100
AcDbCircle
10
1334.1667727696122
20
5.5632918370988271
30
0
40
1.9999999999999738
210
0
220
-0
230
1
100
AcDbArc
50
81.057933954055628
51
180
0
LINE
5
117
100
AcDbEntity
8
0
100
AcDbLine
10
1387.1859892858897
20
-109.50908627658194
30
0
11
1296.4727090319498
21
-109.50908627658201
31
0
0
ARC
5
118
100
AcDbEntity
8
0
100
AcDbCircle
10
1334.1667727696113
20
2.0114130553577247
30
0
40
1.9999999999998863
210
0
220
0
230
1
100
AcDbArc
50
180
51
259.36742776084452
0
LINE
5
119
100
AcDbEntity
8
0
100
AcDbLine
10
1387.1859892858897
20
-117.00908627658194
30
0
11
1296.7187945641349
21
-117.00908627658194
31
0
0
CIRCLE
5
120
100
AcDbEntity
8
0
100
AcDbCircle
10
1271.3406513796742
20
-125.06055669672423
30
0
40
1.7000000000000002
210
0
220
0
230
1
0
LINE
5
121
100
AcDbEntity
8
0
100
AcDbLine
10
1397.1862386399339
20
-14.909134511309912
30
0
11
1397.1862386399339
21
-107.00883153957562
31
0
0
LINE
5
122
100
AcDbEntity
8
0
100
AcDbLine
10
1296.5314220487662
20
-117.05620596606735
30
0
11
1277.9375046893958
21
-127.7869435951191
31
0
0
SPLINE
5
123
100
AcDbEntity
8
0
100
AcDbSpline
70
0
71
3
72
8
73
4
74
0
42
0.000000001
43
0.0000000001
44
0.0000000001
40
3.0238697656692254e-05
40
3.0238697656692254e-05
40
3.0238697656692254e-05
40
3.0238697656692254e-05
40
1
40
1
40
1
40
1
10
1274.187292703981
20
-121.29187526160543
30
0
10
1272.9987916981238
20
-121.97848163308322
30
0
10
1271.4615083125593
20
-121.56172180543518
30
0
10
1270.7797945054376
20
-120.36981655270374
30
0
0
LINE
5
124
100
AcDbEntity
8
0
100
AcDbLine
10
1389.6862386399339
20
-14.909134511309876
30
0
11
1389.6862386399339
21
-107.0088315395757
31
0
0
SPLINE
5
125
100
AcDbEntity
8
0
100
AcDbSpline
70
0
71
3
72
8
73
4
74
0
42
0.000000001
43
0.0000000001
44
0.0000000001
40
0
40
0
40
0
40
0
40
1
40
1
40
1
40
1
10
1389.6862386399343
20
-107.0088315395757
30
0
10
1389.6862386399343
20
-108.38193272598367
30
0
10
1388.5590935227078
20
-109.50908627658194
30
0
10
1387.1859892858897
20
-109.50908627658194
30
0
0
LINE
5
126
100
AcDbEntity
8
0
100
AcDbLine
10
1292.9903557808116
20
-110.440437528814
30
0
11
1274.1872927056172
21
-121.2918752642161
31
0
0
SPLINE
5
127
100
AcDbEntity
8
0
100
AcDbSpline
70
0
71
3
72
11
73
7
74
0
42
0.000000001
43
0.0000000001
44
0.0000000001
40
0.35495894660622906
40
0.35495894660622906
40
0.35495894660622906
40
0.35495894660622906
40
0.53184469039110338
40
0.53184469039110338
40
0.53184469039110338
40
0.6307286939839517
40
0.6307286939839517
40
0.6307286939839517
40
0.6307286939839517
10
1296.7187945641349
20
-117.00908627658187
30
0
10
1296.6575151077359
20
-117.02103549635432
30
0
10
1296.5966373490371
20
-117.03602104689125
30
0
10
1296.587752108057
20
-117.03851979128096
30
0
10
1296.5783942367962
20
-117.04115145072208
30
0
10
1296.5566047805391
20
-117.04774395817608
30
0
10
1296.5314220487662
20
-117.05620596606735
30
0
0
SPLINE
5
128
100
AcDbEntity
8
0
100
AcDbSpline
70
0
71
3
72
14
73
10
74
0
42
0.000000001
43
0.0000000001
44
0.0000000001
40
0
40
0
40
0
40
0
40
0.88837939672386546
40
0.88837939672386546
40
0.88837939672386546
40
1
40
1
40
1
40
1.0000381022571909
40
1.0000381022571909
40
1.0000381022571909
40
1.0000381022571909
10
1296.4727090319498
20
-109.50908627658201
30
0
10
1295.6154387762638
20
-109.50908627658201
30
0
10
1294.1926329067769
20
-109.85354936506418
30
0
10
1293.2996290400863
20
-110.27887549115206
30
0
10
1293.1874273943754
20
-110.33231567555767
30
0
10
1293.0835407536115
20
-110.38659704143836
30
0
10
1292.9904646573175
20
-110.4403746220602
30
0
10
1292.9904283651654
20
-110.44039559096856
30
0
10
1292.990392073013
20
-110.44041655987712
30
0
10
1292.9903557808589
20
-110.44043752878665
30
0
0
SPLINE
5
129
100
AcDbEntity
8
0
100
AcDbSpline
70
0
71
3
72
11
73
7
74
0
42
0.000000001
43
0.0000000001
44
0.0000000001
40
6.5548420699503259e-05
40
6.5548420699503259e-05
40
6.5548420699503259e-05
40
6.5548420699503259e-05
40
0.83908153091422077
40
0.83908153091422077
40
0.83908153091422077
40
1
40
1
40
1
40
1
10
1387.3447849415925
20
-11.983556763436471
30
0
10
1388.4628308571976
20
-12.23376132305896
30
0
10
1389.3371185895205
20
-13.16737659713068
30
0
10
1389.6063825700999
20
-14.262200451667244
30
0
10
1389.6580258622882
20
-14.472181408248108
30
0
10
1389.6862386399339
20
-14.689208560151119
30
0
10
1389.6862386399339
20
-14.909134511309876
30
0
0
SPLINE
5
130
100
AcDbEntity
8
0
100
AcDbSpline
70
0
71
3
72
14
73
10
74
0
42
0.000000001
43
0.0000000001
44
0.0000000001
40
0.00030592744441629652
40
0.00030592744441629652
40
0.00030592744441629652
40
0.00030592744441629652
40
0.42524123820044957
40
0.42524123820044957
40
0.42524123820044957
40
0.86139226277865255
40
0.86139226277865255
40
0.86139226277865255
40
1
40
1
40
1
40
1
10
1388.9864112939006
20
-4.6654240201118746
30
0
10
1391.1689122461344
20
-5.1546745649521775
30
0
10
1392.9374313802703
20
-6.3068385988412423
30
0
10
1394.210840482222
20
-7.6304866237225077
30
0
10
1395.5078494348788
20
-8.9786655677913707
30
0
10
1396.5269793122707
20
-10.742048212311257
30
0
10
1396.9624630005944
20
-12.78992827200069
30
0
10
1397.1042575841834
20
-13.456723167171543
30
0
10
1397.1862386399339
20
-14.167126011960232
30
0
10
1397.1862386399339
20
-14.909134511309947
30
0
0
SPLINE
5
131
100
AcDbEntity
8
0
100
AcDbSpline
70
0
71
3
72
14
73
10
74
0
42
0.000000001
43
0.0000000001
44
0.0000000001
40
0
40
0
40
0
40
0
40
0.47007901722014311
40
0.47007901722014311
40
0.47007901722014311
40
0.94729721732945216
40
0.94729721732945216
40
0.94729721732945216
40
1
40
1
40
1
40
1
10
1397.1862386399339
20
-107.00883153957562
30
0
10
1397.1862386399339
20
-109.58981096630168
30
0
10
1396.1947395548573
20
-111.97015853428162
30
0
10
1394.5704013098828
20
-113.74924596832869
30
0
10
1392.9300935258163
20
-115.54582434455739
30
0
10
1390.6255128354296
20
-116.74972372511377
30
0
10
1388.0452766208987
20
-116.97213632298222
30
0
10
1387.7605041008997
20
-116.99668329880481
30
0
10
1387.4738457995259
20
-117.00908627658194
30
0
10
1387.1859892858897
20
-117.00908627658194
30
0
0
CIRCLE
5
132
100
AcDbEntity
8
0
100
AcDbCircle
10
1391.8566681515977
20
-10.771587692005529
30
0
40
1.7000000000000002
210
0
220
0
230
1
0
SPLINE
5
133
100
AcDbEntity
8
0
100
AcDbSpline
70
0
71
3
72
11
73
7
74
0
42
0.000000001
43
0.0000000001
44
0.0000000001
40
7.3938954816923832e-05
40
7.3938954816923832e-05
40
7.3938954816923832e-05
40
7.3938954816923832e-05
40
0.88979283506975204
40
0.88979283506975204
40
0.88979283506975204
40
1
40
1
40
1
40
1
10
1255.663128302808
20
-93.872444558021684
30
0
10
1255.1165431649092
20
-92.916675403452373
30
0
10
1254.7137039036197
20
-91.476779606532332
30
0
10
1254.6232171619656
20
-90.30948735775695
30
0
10
1254.6120088046914
20
-90.164897903779604
30
0
10
1254.605983364632
20
-90.024321879804347
30
0
10
1254.605983364632
20
-89.888526414657235
30
0
0
SPLINE
5
134
100
AcDbEntity
8
0
100
AcDbSpline
70
0
71
3
72
17
73
13
74
0
42
0.000000001
43
0.0000000001
44
0.0000000001
40
0.00013729868904704292
40
0.00013729868904704292
40
0.00013729868904704292
40
0.00013729868904704292
40
0.46850879666947803
40
0.46850879666947803
40
0.46850879666947803
40
0.94962922189638044
40
0.94962922189638044
40
0.94962922189638044
40
1
40
1
40
1
40
1.0001437314604993
40
1.0001437314604993
40
1.0001437314604993
40
1.0001437314604993
10
1277.9375046281532
20
-127.78694348971484
30
0
10
1275.7078155417341
20
-129.07452092042365
30
0
10
1273.1543980867
20
-129.40916812505864
30
0
10
1270.7996913103718
20
-128.89156683609019
30
0
10
1268.3940018774811
20
-128.36275876374768
30
0
10
1266.1836560769843
20
-126.94153001675662
30
0
10
1264.7058988261942
20
-124.78876160877161
30
0
10
1264.5514239079835
20
-124.56372551196179
30
0
10
1264.4057823495812
20
-124.33180859945625
30
0
10
1264.2694422388558
20
-124.09343218337992
30
0
10
1264.2691697048936
20
-124.09295568626621
30
0
10
1264.268897170931
20
-124.09247918915281
30
0
10
1264.2686246369578
20
-124.09200269202046
30
0
0
CIRCLE
5
135
100
AcDbEntity
8
0
100
AcDbCircle
10
1391.5329241170559
20
-111.35576941382368
30
0
40
1.7000000000000002
210
0
220
0
230
1
0
LINE
5
136
100
AcDbEntity
8
0
100
AcDbLine
10
1270.7797945054374
20
-120.36981655270374
30
0
11
1255.6631282951462
21
-93.872444561312776
31
0
0
LINE
5
137
100
AcDbEntity
8
0
100
AcDbLine
10
1264.2686246369578
20
-124.09200269202043
30
0
11
1249.1505492903409
21
-97.592166158279383
31
0
0
SPLINE
5
138
100
AcDbEntity
8
0
100
AcDbSpline
70
0
71
3
72
14
73
10
74
0
42
0.000000001
43
0.0000000001
44
0.0000000001
40
0.0005081523737224525
40
0.0005081523737224525
40
0.0005081523737224525
40
0.0005081523737224525
40
0.42285163248066354
40
0.42285163248066354
40
0.42285163248066354
40
0.86427712434814774
40
0.86427712434814774
40
0.86427712434814774
40
1
40
1
40
1
40
1
10
1249.1505497008911
20
-97.592165921373706
30
0
10
1248.4962393542705
20
-96.44726376701513
30
0
10
1248.1035768120021
20
-95.363182958018697
30
0
10
1247.8191118534855
20
-94.410948481025443
30
0
10
1247.5133244230433
20
-93.387337926610883
30
0
10
1247.2743822495709
20
-92.293556287693974
30
0
10
1247.1639377040078
20
-91.103757717665133
30
0
10
1247.1294523419663
20
-90.732253319376071
30
0
10
1247.1059833646323
20
-90.3258955205402
30
0
10
1247.1059833646323
20
-89.888526414657193
30
0
0
CIRCLE
5
139
100
AcDbEntity
8
0
100
AcDbCircle
10
1251.3829039933257
20
-92.876557026643098
30
0
40
1.7000000000000002
210
0
220
0
230
1
0
CIRCLE
5
140
100
AcDbEntity
8
0
100
AcDbCircle
10
1295.6245451486086
20
-113.31394377547149
30
0
40
1.7000000000000002
210
0
220
0
230
1
0
ENDSEC
0
SECTION
2
OBJECTS
0
DICTIONARY
5
C
100
AcDbDictionary
3
ACAD_GROUP
350
D
3
ACAD_MLINESTYLE
350
17
0
DICTIONARY
5
D
100
AcDbDictionary
0
DICTIONARY
5
1A
330
C
100
AcDbDictionary
0
DICTIONARY
5
17
100
AcDbDictionary
0
ENDSEC
0
EOF
