0
SECTION
2
HEADER
9
$INSUNITS
70
4
9
$ACADVER
1
AC1014
9
$HANDSEED
5
FFFF
0
ENDSEC
0
SECTION
2
TABLES
0
TABLE
2
VPORT
5
8
100
AcDbSymbolTable
0
ENDTAB
0
TABLE
2
LTYPE
5
5
100
AcDbSymbolTable
0
LTYPE
5
14
100
AcDbSymbolTableRecord
100
AcDbLinetypeTableRecord
2
BYBLOCK
70
0
0
LTYPE
5
15
100
AcDbSymbolTableRecord
100
AcDbLinetypeTableRecord
2
BYLAYER
70
0
0
LTYPE
5
16
100
AcDbSymbolTableRecord
100
AcDbLinetypeTableRecord
2
DASHED
70
0
3
Dashed __ __ __ __ __ __ __ __ __ __ __ __ __ _
72
65
73
2
40
0.75
49
0.5
74
0
49
-0.25
74
0
0
ENDTAB
0
TABLE
2
LAYER
5
2
100
AcDbSymbolTable
70
2
0
LAYER
5
50
100
AcDbSymbolTableRecord
100
AcDbLayerTableRecord
2
0
70
0
62
7
6
CONTINUOUS
0
ENDTAB
0
TABLE
2
STYLE
5
3
100
AcDbSymbolTable
70
1
0
STYLE
5
11
100
AcDbSymbolTableRecord
100
AcDbTextStyleTableRecord
2
STANDARD
70
0
0
ENDTAB
0
TABLE
2
VIEW
5
6
100
AcDbSymbolTable
70
0
0
ENDTAB
0
TABLE
2
UCS
5
7
100
AcDbSymbolTable
70
0
0
ENDTAB
0
TABLE
2
APPID
5
9
100
AcDbSymbolTable
70
2
0
APPID
5
12
100
AcDbSymbolTableRecord
100
AcDbRegAppTableRecord
2
ACAD
70
0
0
ENDTAB
0
TABLE
2
DIMSTYLE
5
A
100
AcDbSymbolTable
70
1
0
ENDTAB
0
TABLE
2
BLOCK_RECORD
5
1
100
AcDbSymbolTable
70
1
0
BLOCK_RECORD
5
1F
100
AcDbSymbolTableRecord
100
AcDbBlockTableRecord
2
*MODEL_SPACE
0
BLOCK_RECORD
5
1B
100
AcDbSymbolTableRecord
100
AcDbBlockTableRecord
2
*PAPER_SPACE
0
ENDTAB
0
ENDSEC
0
SECTION
2
BLOCKS
0
BLOCK
5
20
100
AcDbEntity
100
AcDbBlockBegin
2
*MODEL_SPACE
0
ENDBLK
5
21
100
AcDbEntity
100
AcDbBlockEnd
0
BLOCK
5
1C
100
AcDbEntity
100
AcDbBlockBegin
2
*PAPER_SPACE
0
ENDBLK
5
1D
100
AcDbEntity
100
AcDbBlockEnd
0
ENDSEC
0
SECTION
2
ENTITIES
0
POINT
5
100
100
AcDbEntity
8
0
100
AcDbPoint
10
782.10597915998596
20
-8.9325861696753606
30
0
0
LINE
5
101
100
AcDbEntity
8
0
100
AcDbLine
10
922.88562185828198
20
-89.888526414657264
30
0
11
922.88562185828198
21
-22.649079817028337
31
0
0
LINE
5
102
100
AcDbEntity
8
0
100
AcDbLine
10
772.8053665829799
20
-14.909134511309929
30
0
11
772.8053665829799
21
-107.0088315395757
31
0
0
LINE
5
103
100
AcDbEntity
8
0
100
AcDbLine
10
837.82483245330718
20
-34.587078525117505
30
0
11
837.82483245330172
21
5.5632918370991646
31
0
0
LINE
5
104
100
AcDbEntity
8
0
100
AcDbLine
10
876.65508503712863
20
-34.587078525117434
30
0
11
876.65508503711078
21
5.1915756276535774
31
0
0
ARC
5
105
100
AcDbEntity
8
0
100
AcDbCircle
10
878.65508503711089
20
5.1915756276545011
30
0
40
1.9999999999999676
210
0
220
-0
230
1
100
AcDbArc
50
71.091167295396488
51
180
0
SPLINE
5
106
100
AcDbEntity
8
0
100
AcDbSpline
70
0
71
3
72
14
73
10
74
0
42
0.000000001
43
0.0000000001
44
0.0000000001
40
0
40
0
40
0
40
0
40
0.41555322172629761
40
0.41555322172629761
40
0.41555322172629761
40
0.84943484198512353
40
0.84943484198512353
40
0.84943484198512353
40
1
40
1
40
1
40
1
10
922.88562185828198
20
-22.649079817028337
30
0
10
922.88562185828198
20
-21.248162570257705
30
0
10
922.65177973625009
20
-20.047111513817697
30
0
10
922.38901011779581
20
-19.049020968035251
30
0
10
922.10598072015478
20
-17.973976723477136
30
0
10
921.71225955946943
20
-16.872980890836402
30
0
10
921.13788064205835
20
-15.765212839851017
30
0
10
920.93583707706159
20
-15.375544278861
30
0
10
920.69408334416323
20
-14.953854851754258
30
0
10
920.39986533733213
20
-14.51760545903781
30
0
0
SPLINE
5
107
100
AcDbEntity
8
0
100
AcDbSpline
70
0
71
3
72
17
73
13
74
0
42
0.000000001
43
0.0000000001
44
0.0000000001
40
0.75859059811346174
40
0.75859059811346174
40
0.75859059811346174
40
0.75859059811346174
40
0.85611647121063061
40
0.85611647121063061
40
0.85611647121063061
40
0.98795341962431782
40
0.98795341962431782
40
0.98795341962431782
40
1.0008140918953758
40
1.0008140918953758
40
1.0008140918953758
40
1.0013025470586079
40
1.0013025470586079
40
1.0013025470586079
40
1.0013025470586079
10
835.51396110286646
20
7.5389838686357535
30
0
10
835.33035572962285
20
7.5100939118248178
30
0
10
835.14562049294682
20
7.4789802246229442
30
0
10
834.9595680524186
20
7.4452192033595566
30
0
10
834.70805955292803
20
7.3995805448441843
30
0
10
834.45423333634778
20
7.3490954166032907
30
0
10
834.19797274877828
20
7.292752340750468
30
0
10
834.1729745713144
20
7.287256083123097
30
0
10
834.13883792364868
20
7.2796592644425573
30
0
10
834.12504559829608
20
7.2765741308366216
30
0
10
834.12452175843782
20
7.2764569558201231
30
0
10
834.12399791857922
20
7.2763397808036245
30
0
10
834.12347407871039
20
7.2762226057847101
30
0
0
ARC
5
108
100
AcDbEntity
8
0
100
AcDbCircle
10
835.82483245330172
20
5.5632918370988449
30
0
40
2.0000000000000284
210
0
220
-0
230
1
100
AcDbArc
50
0
51
98.942064853091338
0
SPLINE
5
109
100
AcDbEntity
8
0
100
AcDbSpline
70
0
71
3
72
11
73
7
74
0
42
0.000000001
43
0.0000000001
44
0.0000000001
40
0.35495894660622906
40
0.35495894660622906
40
0.35495894660622906
40
0.35495894660622906
40
0.53184469039110338
40
0.53184469039110338
40
0.53184469039110338
40
0.6307286939839517
40
0.6307286939839517
40
0.6307286939839517
40
0.6307286939839517
10
873.27281065877912
20
-117.00908627658194
30
0
10
873.33409011517801
20
-117.02103549635439
30
0
10
873.39496787387691
20
-117.03602104689136
30
0
10
873.40385311485716
20
-117.03851979128103
30
0
10
873.4132109861182
20
-117.0411514507222
30
0
10
873.43500044237487
20
-117.04774395817616
30
0
10
873.46018317414769
20
-117.05620596606742
30
0
0
SPLINE
5
110
100
AcDbEntity
8
0
100
AcDbSpline
70
0
71
3
72
14
73
10
74
0
42
0.000000001
43
0.0000000001
44
0.0000000001
40
-0.00022330394316748676
40
-0.00022330394316748676
40
-0.00022330394316748676
40
-0.00022330394316748676
40
0
40
0
40
0
40
0.41562434359876882
40
0.41562434359876882
40
0.41562434359876882
40
0.45684553679338957
40
0.45684553679338957
40
0.45684553679338957
40
0.45684553679338957
10
882.90339895254101
20
5.2886519184308156
30
0
10
882.90291185261003
20
5.2889957551765576
30
0
10
882.90242475268315
20
5.2893395919192443
30
0
10
882.90193765275819
20
5.2896834286607231
30
0
10
881.73585884168483
20
6.1128014749792925
30
0
10
880.59444210615356
20
6.6178528532039138
30
0
10
879.6082640131126
20
6.9759971633174445
30
0
10
879.50739871720089
20
7.0126278003936093
30
0
10
879.40572087818327
20
7.0485320131898277
30
0
10
879.30321156242428
20
7.0836464527519638
30
0
0
CIRCLE
5
111
100
AcDbEntity
8
0
100
AcDbCircle
10
778.45868110585798
20
-111.35576941382379
30
0
40
1.7000000000000002
210
0
220
0
230
1
0
LINE
5
112
100
AcDbEntity
8
0
100
AcDbLine
10
905.72298058595607
20
-124.09200269202053
30
0
11
920.841055932573
21
-97.592166158279454
31
0
0
CIRCLE
5
113
100
AcDbEntity
8
0
100
AcDbCircle
10
874.36706007430553
20
-113.31394377547156
30
0
40
1.7000000000000002
210
0
220
0
230
1
0
LINE
5
114
100
AcDbEntity
8
0
100
AcDbLine
10
904.72208417585477
20
-23.411075725977426
30
0
11
904.72208417585477
21
-16.602839906322089
31
0
0
LINE
5
115
100
AcDbEntity
8
0
100
AcDbLine
10
782.80561593702464
20
-117.00908627658201
30
0
11
873.27281065877912
21
-117.00908627658201
31
0
0
LINE
5
116
100
AcDbEntity
8
0
100
AcDbLine
10
873.46018317414769
20
-117.05620596606742
30
0
11
892.05410053351841
21
-127.78694359511917
31
0
0
LINE
5
117
100
AcDbEntity
8
0
100
AcDbLine
10
882.90339895253828
20
5.2886519184319525
30
0
11
890.45113263305871
21
-0.055441414748003126
31
0
0
SPLINE
5
118
100
AcDbEntity
8
0
100
AcDbSpline
70
0
71
3
72
14
73
10
74
0
42
0.000000001
43
0.0000000001
44
0.0000000001
40
0.00030592744441629652
40
0.00030592744441629652
40
0.00030592744441629652
40
0.00030592744441629652
40
0.42524123820044957
40
0.42524123820044957
40
0.42524123820044957
40
0.86139226277865255
40
0.86139226277865255
40
0.86139226277865255
40
1
40
1
40
1
40
1
10
781.00519392901333
20
-4.6654240201118569
30
0
10
778.82269297677965
20
-5.1546745649521597
30
0
10
777.05417384264365
20
-6.3068385988412246
30
0
10
775.78076474069167
20
-7.63048662372249
30
0
10
774.48375578803507
20
-8.9786655677913529
30
0
10
773.46462591064301
20
-10.742048212311275
30
0
10
773.02914222231948
20
-12.789928272000708
30
0
10
772.88734763873038
20
-13.45672316717156
30
0
10
772.8053665829799
20
-14.167126011960249
30
0
10
772.8053665829799
20
-14.909134511309929
30
0
0
SPLINE
5
119
100
AcDbEntity
8
0
100
AcDbSpline
70
0
71
3
72
14
73
10
74
0
42
0.000000001
43
0.0000000001
44
0.0000000001
40
0.0005081523737224525
40
0.0005081523737224525
40
0.0005081523737224525
40
0.0005081523737224525
40
0.42285163248066354
40
0.42285163248066354
40
0.42285163248066354
40
0.86427712434814774
40
0.86427712434814774
40
0.86427712434814774
40
1
40
1
40
1
40
1
10
920.84105552202323
20
-97.592165921373777
30
0
10
921.49536586864372
20
-96.447263767015201
30
0
10
921.88802841091183
20
-95.363182958018768
30
0
10
922.17249336942837
20
-94.410948481025514
30
0
10
922.47828079987084
20
-93.387337926610954
30
0
10
922.71722297334327
20
-92.293556287694045
30
0
10
922.82766751890654
20
-91.103757717665204
30
0
10
922.86215288094786
20
-90.732253319376142
30
0
10
922.88562185828198
20
-90.325895520540271
30
0
10
922.88562185828198
20
-89.888526414657264
30
0
0
ARC
5
120
100
AcDbEntity
8
0
100
AcDbCircle
10
914.29200893135339
20
-9.0329151508228733
30
0
40
1.9999999999999782
210
0
220
-0
230
1
100
AcDbArc
50
33.975839465332577
51
135.00000000000173
0
SPLINE
5
121
100
AcDbEntity
8
0
100
AcDbSpline
70
0
71
3
72
14
73
10
74
0
42
0.000000001
43
0.0000000001
44
0.0000000001
40
0
40
0
40
0
40
0
40
0.47007901722014311
40
0.47007901722014311
40
0.47007901722014311
40
0.94729721732945216
40
0.94729721732945216
40
0.94729721732945216
40
1
40
1
40
1
40
1
10
772.8053665829799
20
-107.0088315395757
30
0
10
772.8053665829799
20
-109.58981096630176
30
0
10
773.79686566805708
20
-111.97015853428169
30
0
10
775.42120391303115
20
-113.74924596832876
30
0
10
777.06151169709756
20
-115.54582434455746
30
0
10
779.36609238748417
20
-116.74972372511388
30
0
10
781.94632860201546
20
-116.97213632298232
30
0
10
782.23110112201437
20
-116.99668329880488
30
0
10
782.51775942338804
20
-117.00908627658201
30
0
10
782.80561593702464
20
-117.00908627658201
30
0
0
LINE
5
122
100
AcDbEntity
8
0
100
AcDbLine
10
904.72208417585477
20
-23.411075725977426
30
0
11
892.56184451114109
21
-23.411075725977426
31
0
0
CIRCLE
5
123
100
AcDbEntity
8
0
100
AcDbCircle
10
832.0636171416495
20
2.8670498153235968
30
0
40
1.7000000000000002
210
0
220
0
230
1
0
CIRCLE
5
124
100
AcDbEntity
8
0
100
AcDbCircle
10
778.13493707131624
20
-10.771587692005511
30
0
40
1.7000000000000002
210
0
220
0
230
1
0
SPLINE
5
125
100
AcDbEntity
8
0
100
AcDbSpline
70
0
71
3
72
17
73
13
74
0
42
0.000000001
43
0.0000000001
44
0.0000000001
40
0.00013729868904704292
40
0.00013729868904704292
40
0.00013729868904704292
40
0.00013729868904704292
40
0.46850879666947803
40
0.46850879666947803
40
0.46850879666947803
40
0.94962922189638044
40
0.94962922189638044
40
0.94962922189638044
40
1
40
1
40
1
40
1.0001437314604993
40
1.0001437314604993
40
1.0001437314604993
40
1.0001437314604993
10
892.05410059476094
20
-127.78694348971499
30
0
10
894.28378968118
20
-129.07452092042377
30
0
10
896.83720713621392
20
-129.40916812505876
30
0
10
899.1919139125423
20
-128.89156683609031
30
0
10
901.59760334543307
20
-128.36275876374776
30
0
10
903.80794914592968
20
-126.94153001675673
30
0
10
905.28570639671989
20
-124.78876160877171
30
0
10
905.44018131493067
20
-124.56372551196189
30
0
10
905.58582287333275
20
-124.33180859945637
30
0
10
905.72216298405806
20
-124.09343218338002
30
0
10
905.7224355180208
20
-124.09295568626632
30
0
10
905.72270805198286
20
-124.09247918915291
30
0
10
905.72298058595607
20
-124.0920026920206
30
0
0
LINE
5
126
100
AcDbEntity
8
0
100
AcDbLine
10
920.39986533733213
20
-14.51760545903781
30
0
11
915.95055553094448
21
-7.9152286218780432
31
0
0
CIRCLE
5
127
100
AcDbEntity
8
0
100
AcDbCircle
10
918.60870122958829
20
-92.876557026643169
30
0
40
1.7000000000000002
210
0
220
0
230
1
0
ARC
5
128
100
AcDbEntity
8
0
100
AcDbCircle
10
887.56184451114109
20
-4.136129365148804
30
0
40
5
210
-0
220
0
230
1
100
AcDbArc
50
0
51
54.699999999999164
0
CIRCLE
5
129
100
AcDbEntity
8
0
100
AcDbCircle
10
918.52937292460581
20
-19.535086579208922
30
0
40
1.7000000000000002
210
0
220
0
230
1
0
LINE
5
130
100
AcDbEntity
8
0
100
AcDbLine
10
892.56184451114109
20
-23.411075725977426
30
0
11
892.56184451114109
21
-4.136129365148804
31
0
0
LINE
5
131
100
AcDbEntity
8
0
100
AcDbLine
10
876.65508503712863
20
-34.587078525117434
30
0
11
837.82483245330718
21
-34.587078525117505
31
0
0
ARC
5
132
100
AcDbEntity
8
0
100
AcDbCircle
10
906.72208417585443
20
-16.602839906321982
30
0
40
1.9999999999997446
210
0
220
0
230
1
100
AcDbArc
50
134.99999999999858
51
180
0
LINE
5
133
100
AcDbEntity
8
0
100
AcDbLine
10
905.30787061348155
20
-15.188626343949032
30
0
11
912.87779536898029
21
-7.6187015884498521
31
0
0
LINE
5
134
100
AcDbEntity
8
0
100
AcDbLine
10
834.12347407871039
20
7.2762226057847101
30
0
11
781.00519380826972
21
-4.6654234675470718
31
0
0
CIRCLE
5
135
100
AcDbEntity
8
0
100
AcDbCircle
10
898.65095384323979
20
-125.06055669672435
30
0
40
1.7000000000000002
210
0
220
0
230
1
0
ENDSEC
0
SECTION
2
OBJECTS
0
DICTIONARY
5
C
100
AcDbDictionary
3
ACAD_GROUP
350
D
3
ACAD_MLINESTYLE
350
17
0
DICTIONARY
5
D
100
AcDbDictionary
0
DICTIONARY
5
1A
330
C
100
AcDbDictionary
0
DICTIONARY
5
17
100
AcDbDictionary
0
ENDSEC
0
EOF
