0
SECTION
2
HEADER
9
$INSUNITS
70
4
9
$ACADVER
1
AC1014
9
$HANDSEED
5
FFFF
0
ENDSEC
0
SECTION
2
TABLES
0
TABLE
2
VPORT
5
8
100
AcDbSymbolTable
0
ENDTAB
0
TABLE
2
LTYPE
5
5
100
AcDbSymbolTable
0
LTYPE
5
14
100
AcDbSymbolTableRecord
100
AcDbLinetypeTableRecord
2
BYBLOCK
70
0
0
LTYPE
5
15
100
AcDbSymbolTableRecord
100
AcDbLinetypeTableRecord
2
BYLAYER
70
0
0
LTYPE
5
16
100
AcDbSymbolTableRecord
100
AcDbLinetypeTableRecord
2
DASHED
70
0
3
Dashed __ __ __ __ __ __ __ __ __ __ __ __ __ _
72
65
73
2
40
0.75
49
0.5
74
0
49
-0.25
74
0
0
ENDTAB
0
TABLE
2
LAYER
5
2
100
AcDbSymbolTable
70
2
0
LAYER
5
50
100
AcDbSymbolTableRecord
100
AcDbLayerTableRecord
2
0
70
0
62
7
6
CONTINUOUS
0
ENDTAB
0
TABLE
2
STYLE
5
3
100
AcDbSymbolTable
70
1
0
STYLE
5
11
100
AcDbSymbolTableRecord
100
AcDbTextStyleTableRecord
2
STANDARD
70
0
0
ENDTAB
0
TABLE
2
VIEW
5
6
100
AcDbSymbolTable
70
0
0
ENDTAB
0
TABLE
2
UCS
5
7
100
AcDbSymbolTable
70
0
0
ENDTAB
0
TABLE
2
APPID
5
9
100
AcDbSymbolTable
70
2
0
APPID
5
12
100
AcDbSymbolTableRecord
100
AcDbRegAppTableRecord
2
ACAD
70
0
0
ENDTAB
0
TABLE
2
DIMSTYLE
5
A
100
AcDbSymbolTable
70
1
0
ENDTAB
0
TABLE
2
BLOCK_RECORD
5
1
100
AcDbSymbolTable
70
1
0
BLOCK_RECORD
5
1F
100
AcDbSymbolTableRecord
100
AcDbBlockTableRecord
2
*MODEL_SPACE
0
BLOCK_RECORD
5
1B
100
AcDbSymbolTableRecord
100
AcDbBlockTableRecord
2
*PAPER_SPACE
0
ENDTAB
0
ENDSEC
0
SECTION
2
BLOCKS
0
BLOCK
5
20
100
AcDbEntity
100
AcDbBlockBegin
2
*MODEL_SPACE
0
ENDBLK
5
21
100
AcDbEntity
100
AcDbBlockEnd
0
BLOCK
5
1C
100
AcDbEntity
100
AcDbBlockBegin
2
*PAPER_SPACE
0
ENDBLK
5
1D
100
AcDbEntity
100
AcDbBlockEnd
0
ENDSEC
0
SECTION
2
ENTITIES
0
POINT
5
100
100
AcDbEntity
8
0
100
AcDbPoint
10
1587.8856260629282
20
-8.9325861696753961
30
0
0
ARC
5
101
100
AcDbEntity
8
0
100
AcDbCircle
10
1534.1667727696126
20
5.5632918370987738
30
0
40
1.9999999999999616
210
0
220
-0
230
1
100
AcDbArc
50
81.057935146915099
51
180
0
SPLINE
5
102
100
AcDbEntity
8
0
100
AcDbSpline
70
0
71
3
72
14
73
10
74
0
42
0.000000001
43
0.0000000001
44
0.0000000001
40
0.0005081523737224525
40
0.0005081523737224525
40
0.0005081523737224525
40
0.0005081523737224525
40
0.42285163248066354
40
0.42285163248066354
40
0.42285163248066354
40
0.86427712434814774
40
0.86427712434814774
40
0.86427712434814774
40
1
40
1
40
1
40
1
10
1449.1505497008911
20
-97.592165921373748
30
0
10
1448.4962393542705
20
-96.44726376701513
30
0
10
1448.1035768120023
20
-95.36318295801874
30
0
10
1447.8191118534858
20
-94.410948481025443
30
0
10
1447.5133244230433
20
-93.387337926610911
30
0
10
1447.2743822495709
20
-92.293556287693974
30
0
10
1447.1639377040078
20
-91.103757717665161
30
0
10
1447.1294523419665
20
-90.732253319376099
30
0
10
1447.1059833646323
20
-90.3258955205402
30
0
10
1447.1059833646323
20
-89.888526414657235
30
0
0
CIRCLE
5
103
100
AcDbEntity
8
0
100
AcDbCircle
10
1495.6245451486086
20
-113.31394377547149
30
0
40
1.7000000000000002
210
0
220
0
230
1
0
LINE
5
104
100
AcDbEntity
8
0
100
AcDbLine
10
1464.2686246369581
20
-124.09200269202046
30
0
11
1449.1505492903411
21
-97.592166158279383
31
0
0
LINE
5
105
100
AcDbEntity
8
0
100
AcDbLine
10
1496.5314220487664
20
-117.05620596606735
30
0
11
1477.9375046893958
21
-127.7869435951191
31
0
0
ARC
5
106
100
AcDbEntity
8
0
100
AcDbCircle
10
1491.3365201858032
20
5.19157562765443
30
0
40
1.9999999999998863
210
-0
220
0
230
1
100
AcDbArc
50
0
51
108.90883270460043
0
SPLINE
5
107
100
AcDbEntity
8
0
100
AcDbSpline
70
0
71
3
72
11
73
7
74
0
42
0.000000001
43
0.0000000001
44
0.0000000001
40
0.35495894660622906
40
0.35495894660622906
40
0.35495894660622906
40
0.35495894660622906
40
0.53184469039110338
40
0.53184469039110338
40
0.53184469039110338
40
0.6307286939839517
40
0.6307286939839517
40
0.6307286939839517
40
0.6307286939839517
10
1496.7187945641351
20
-117.00908627658187
30
0
10
1496.6575151077361
20
-117.02103549635432
30
0
10
1496.5966373490371
20
-117.03602104689125
30
0
10
1496.587752108057
20
-117.03851979128096
30
0
10
1496.5783942367962
20
-117.04115145072208
30
0
10
1496.5566047805394
20
-117.04774395817608
30
0
10
1496.5314220487664
20
-117.05620596606735
30
0
0
ARC
5
108
100
AcDbEntity
8
0
100
AcDbCircle
10
1455.6995962915607
20
-9.0329151508229089
30
0
40
1.999999999999996
210
0
220
-0
230
1
100
AcDbArc
50
44.999999999998273
51
146.02416053466743
0
LINE
5
109
100
AcDbEntity
8
0
100
AcDbLine
10
1477.4297607117728
20
-23.411075725977426
30
0
11
1477.4297607117728
21
-4.1361293651488396
31
0
0
CIRCLE
5
110
100
AcDbEntity
8
0
100
AcDbCircle
10
1591.5329241170559
20
-111.35576941382371
30
0
40
1.7000000000000002
210
0
220
0
230
1
0
CIRCLE
5
111
100
AcDbEntity
8
0
100
AcDbCircle
10
1451.382903993326
20
-92.876557026643098
30
0
40
1.7000000000000002
210
0
220
0
230
1
0
ARC
5
112
100
AcDbEntity
8
0
100
AcDbCircle
10
1463.2695210470597
20
-16.602839906322018
30
0
40
1.9999999999996021
210
0
220
0
230
1
100
AcDbArc
50
0
51
45.000000000001442
0
SPLINE
5
113
100
AcDbEntity
8
0
100
AcDbSpline
70
0
71
3
72
14
73
10
74
0
42
0.000000001
43
0.0000000001
44
0.0000000001
40
0
40
0
40
0
40
0
40
0.47007901722014311
40
0.47007901722014311
40
0.47007901722014311
40
0.94729721732945216
40
0.94729721732945216
40
0.94729721732945216
40
1
40
1
40
1
40
1
10
1597.1862386399339
20
-107.00883153957562
30
0
10
1597.1862386399339
20
-109.58981096630168
30
0
10
1596.1947395548573
20
-111.97015853428162
30
0
10
1594.5704013098828
20
-113.74924596832869
30
0
10
1592.9300935258163
20
-115.54582434455739
30
0
10
1590.6255128354296
20
-116.74972372511377
30
0
10
1588.0452766208987
20
-116.97213632298222
30
0
10
1587.7605041008997
20
-116.99668329880481
30
0
10
1587.4738457995259
20
-117.00908627658194
30
0
10
1587.1859892858897
20
-117.00908627658194
30
0
0
LINE
5
114
100
AcDbEntity
8
0
100
AcDbLine
10
1493.3365201857855
20
-34.587078525117434
30
0
11
1493.3365201858032
21
5.1915756276535419
31
0
0
SPLINE
5
115
100
AcDbEntity
8
0
100
AcDbSpline
70
0
71
3
72
14
73
10
74
0
42
0.000000001
43
0.0000000001
44
0.0000000001
40
0.00030592744441629652
40
0.00030592744441629652
40
0.00030592744441629652
40
0.00030592744441629652
40
0.42524123820044957
40
0.42524123820044957
40
0.42524123820044957
40
0.86139226277865255
40
0.86139226277865255
40
0.86139226277865255
40
1
40
1
40
1
40
1
10
1588.9864112939006
20
-4.6654240201119279
30
0
10
1591.1689122461344
20
-5.1546745649522308
30
0
10
1592.9374313802703
20
-6.3068385988412601
30
0
10
1594.2108404822225
20
-7.6304866237225255
30
0
10
1595.5078494348788
20
-8.9786655677913885
30
0
10
1596.5269793122709
20
-10.742048212311275
30
0
10
1596.9624630005944
20
-12.789928272000708
30
0
10
1597.1042575841834
20
-13.45672316717156
30
0
10
1597.1862386399339
20
-14.167126011960249
30
0
10
1597.1862386399339
20
-14.909134511309965
30
0
0
LINE
5
116
100
AcDbEntity
8
0
100
AcDbLine
10
1597.1862386399339
20
-14.909134511309965
30
0
11
1597.1862386399339
21
-107.00883153957562
31
0
0
LINE
5
117
100
AcDbEntity
8
0
100
AcDbLine
10
1587.1859892858897
20
-117.00908627658194
30
0
11
1496.7187945641351
21
-117.00908627658194
31
0
0
LINE
5
118
100
AcDbEntity
8
0
100
AcDbLine
10
1447.1059833646323
20
-89.888526414657193
30
0
11
1447.1059833646323
21
-22.649079817028337
31
0
0
CIRCLE
5
119
100
AcDbEntity
8
0
100
AcDbCircle
10
1471.3406513796745
20
-125.06055669672428
30
0
40
1.7000000000000002
210
0
220
0
230
1
0
LINE
5
120
100
AcDbEntity
8
0
100
AcDbLine
10
1535.8681311442035
20
7.2762226057846391
30
0
11
1588.9864114146444
21
-4.6654234675471074
31
0
0
LINE
5
121
100
AcDbEntity
8
0
100
AcDbLine
10
1449.591739885582
20
-14.517605459037846
30
0
11
1454.0410496919696
21
-7.9152286218780787
31
0
0
ARC
5
122
100
AcDbEntity
8
0
100
AcDbCircle
10
1482.4297607117728
20
-4.1361293651488396
30
0
40
4.9999999999998543
210
0
220
0
230
1
100
AcDbArc
50
125.29999999999657
51
180
0
SPLINE
5
123
100
AcDbEntity
8
0
100
AcDbSpline
70
0
71
3
72
17
73
13
74
0
42
0.000000001
43
0.0000000001
44
0.0000000001
40
0.00013729868904704292
40
0.00013729868904704292
40
0.00013729868904704292
40
0.00013729868904704292
40
0.46850879666947803
40
0.46850879666947803
40
0.46850879666947803
40
0.94962922189638044
40
0.94962922189638044
40
0.94962922189638044
40
1
40
1
40
1
40
1.0001437314604993
40
1.0001437314604993
40
1.0001437314604993
40
1.0001437314604993
10
1477.9375046281532
20
-127.78694348971484
30
0
10
1475.7078155417341
20
-129.07452092042371
30
0
10
1473.1543980867002
20
-129.40916812505867
30
0
10
1470.7996913103718
20
-128.89156683609025
30
0
10
1468.3940018774811
20
-128.36275876374771
30
0
10
1466.1836560769846
20
-126.94153001675666
30
0
10
1464.7058988261942
20
-124.78876160877164
30
0
10
1464.5514239079835
20
-124.56372551196182
30
0
10
1464.4057823495814
20
-124.33180859945629
30
0
10
1464.2694422388561
20
-124.09343218337995
30
0
10
1464.2691697048936
20
-124.09295568626625
30
0
10
1464.268897170931
20
-124.09247918915284
30
0
10
1464.2686246369581
20
-124.09200269202046
30
0
0
LINE
5
124
100
AcDbEntity
8
0
100
AcDbLine
10
1532.166772769607
20
-34.587078525117505
30
0
11
1532.1667727696124
21
5.5632918370991291
31
0
0
CIRCLE
5
125
100
AcDbEntity
8
0
100
AcDbCircle
10
1451.4622322983084
20
-19.535086579208958
30
0
40
1.7000000000000002
210
0
220
0
230
1
0
LINE
5
126
100
AcDbEntity
8
0
100
AcDbLine
10
1465.2695210470595
20
-23.411075725977426
30
0
11
1477.4297607117728
21
-23.411075725977426
31
0
0
LINE
5
127
100
AcDbEntity
8
0
100
AcDbLine
10
1487.0882062703758
20
5.2886519184318814
30
0
11
1479.5404725898557
21
-0.055441414748038653
31
0
0
SPLINE
5
128
100
AcDbEntity
8
0
100
AcDbSpline
70
0
71
3
72
14
73
10
74
0
42
0.000000001
43
0.0000000001
44
0.0000000001
40
0
40
0
40
0
40
0
40
0.41555322172629761
40
0.41555322172629761
40
0.41555322172629761
40
0.84943484198512353
40
0.84943484198512353
40
0.84943484198512353
40
1
40
1
40
1
40
1
10
1447.1059833646323
20
-22.649079817028337
30
0
10
1447.1059833646323
20
-21.248162570257705
30
0
10
1447.339825486664
20
-20.047111513817697
30
0
10
1447.6025951051183
20
-19.049020968035286
30
0
10
1447.8856245027596
20
-17.973976723477136
30
0
10
1448.2793456634449
20
-16.872980890836402
30
0
10
1448.8537245808559
20
-15.765212839851053
30
0
10
1449.0557681458527
20
-15.375544278861035
30
0
10
1449.297521878751
20
-14.953854851754258
30
0
10
1449.591739885582
20
-14.51760545903781
30
0
0
LINE
5
129
100
AcDbEntity
8
0
100
AcDbLine
10
1493.3365201857855
20
-34.587078525117434
30
0
11
1532.166772769607
21
-34.587078525117505
31
0
0
SPLINE
5
130
100
AcDbEntity
8
0
100
AcDbSpline
70
0
71
3
72
17
73
13
74
0
42
0.000000001
43
0.0000000001
44
0.0000000001
40
0.75859059811346174
40
0.75859059811346174
40
0.75859059811346174
40
0.75859059811346174
40
0.85611647121063061
40
0.85611647121063061
40
0.85611647121063061
40
0.98795341962431782
40
0.98795341962431782
40
0.98795341962431782
40
1.0008140918953758
40
1.0008140918953758
40
1.0008140918953758
40
1.0013025470586079
40
1.0013025470586079
40
1.0013025470586079
40
1.0013025470586079
10
1534.4776441200477
20
7.5389838686356825
30
0
10
1534.6612494932913
20
7.5100939118247823
30
0
10
1534.8459847299671
20
7.4789802246229087
30
0
10
1535.0320371704956
20
7.4452192033594855
30
0
10
1535.2835456699859
20
7.3995805448441132
30
0
10
1535.5373718865662
20
7.3490954166032196
30
0
10
1535.7936324741358
20
7.2927523407503969
30
0
10
1535.8186306515995
20
7.287256083123026
30
0
10
1535.8527672992655
20
7.2796592644424862
30
0
10
1535.866559624618
20
7.2765741308365506
30
0
10
1535.8670834644761
20
7.276456955820052
30
0
10
1535.8676073043348
20
7.2763397808035535
30
0
10
1535.8681311442035
20
7.2762226057846391
30
0
0
LINE
5
131
100
AcDbEntity
8
0
100
AcDbLine
10
1465.2695210470595
20
-23.411075725977426
30
0
11
1465.2695210470595
21
-16.602839906322124
31
0
0
CIRCLE
5
132
100
AcDbEntity
8
0
100
AcDbCircle
10
1537.9279880812646
20
2.8670498153235258
30
0
40
1.7000000000000002
210
0
220
0
230
1
0
LINE
5
133
100
AcDbEntity
8
0
100
AcDbLine
10
1464.6837346094326
20
-15.188626343949068
30
0
11
1457.1138098539338
21
-7.6187015884498877
31
0
0
CIRCLE
5
134
100
AcDbEntity
8
0
100
AcDbCircle
10
1591.8566681515977
20
-10.771587692005546
30
0
40
1.7000000000000002
210
0
220
0
230
1
0
SPLINE
5
135
100
AcDbEntity
8
0
100
AcDbSpline
70
0
71
3
72
14
73
10
74
0
42
0.000000001
43
0.0000000001
44
0.0000000001
40
-0.00022330394316748676
40
-0.00022330394316748676
40
-0.00022330394316748676
40
-0.00022330394316748676
40
0
40
0
40
0
40
0.41562434359876882
40
0.41562434359876882
40
0.41562434359876882
40
0.45684553679338957
40
0.45684553679338957
40
0.45684553679338957
40
0.45684553679338957
10
1487.0882062703731
20
5.2886519184307446
30
0
10
1487.0886933703041
20
5.2889957551764866
30
0
10
1487.0891804702308
20
5.2893395919191732
30
0
10
1487.0896675701558
20
5.289683428660652
30
0
10
1488.2557463812293
20
6.1128014749792214
30
0
10
1489.3971631167606
20
6.6178528532038428
30
0
10
1490.3833412098015
20
6.9759971633173734
30
0
10
1490.484206505713
20
7.0126278003935738
30
0
10
1490.5858843447309
20
7.0485320131897566
30
0
10
1490.68839366049
20
7.0836464527518928
30
0
0
ENDSEC
0
SECTION
2
OBJECTS
0
DICTIONARY
5
C
100
AcDbDictionary
3
ACAD_GROUP
350
D
3
ACAD_MLINESTYLE
350
17
0
DICTIONARY
5
D
100
AcDbDictionary
0
DICTIONARY
5
1A
330
C
100
AcDbDictionary
0
DICTIONARY
5
17
100
AcDbDictionary
0
ENDSEC
0
EOF
