0
SECTION
2
HEADER
9
$INSUNITS
70
4
9
$ACADVER
1
AC1014
9
$HANDSEED
5
FFFF
0
ENDSEC
0
SECTION
2
TABLES
0
TABLE
2
VPORT
5
8
100
AcDbSymbolTable
0
ENDTAB
0
TABLE
2
LTYPE
5
5
100
AcDbSymbolTable
0
LTYPE
5
14
100
AcDbSymbolTableRecord
100
AcDbLinetypeTableRecord
2
BYBLOCK
70
0
0
LTYPE
5
15
100
AcDbSymbolTableRecord
100
AcDbLinetypeTableRecord
2
BYLAYER
70
0
0
LTYPE
5
16
100
AcDbSymbolTableRecord
100
AcDbLinetypeTableRecord
2
DASHED
70
0
3
Dashed __ __ __ __ __ __ __ __ __ __ __ __ __ _
72
65
73
2
40
0.75
49
0.5
74
0
49
-0.25
74
0
0
ENDTAB
0
TABLE
2
LAYER
5
2
100
AcDbSymbolTable
70
2
0
LAYER
5
50
100
AcDbSymbolTableRecord
100
AcDbLayerTableRecord
2
0
70
0
62
7
6
CONTINUOUS
0
ENDTAB
0
TABLE
2
STYLE
5
3
100
AcDbSymbolTable
70
1
0
STYLE
5
11
100
AcDbSymbolTableRecord
100
AcDbTextStyleTableRecord
2
STANDARD
70
0
0
ENDTAB
0
TABLE
2
VIEW
5
6
100
AcDbSymbolTable
70
0
0
ENDTAB
0
TABLE
2
UCS
5
7
100
AcDbSymbolTable
70
0
0
ENDTAB
0
TABLE
2
APPID
5
9
100
AcDbSymbolTable
70
2
0
APPID
5
12
100
AcDbSymbolTableRecord
100
AcDbRegAppTableRecord
2
ACAD
70
0
0
ENDTAB
0
TABLE
2
DIMSTYLE
5
A
100
AcDbSymbolTable
70
1
0
ENDTAB
0
TABLE
2
BLOCK_RECORD
5
1
100
AcDbSymbolTable
70
1
0
BLOCK_RECORD
5
1F
100
AcDbSymbolTableRecord
100
AcDbBlockTableRecord
2
*MODEL_SPACE
0
BLOCK_RECORD
5
1B
100
AcDbSymbolTableRecord
100
AcDbBlockTableRecord
2
*PAPER_SPACE
0
ENDTAB
0
ENDSEC
0
SECTION
2
BLOCKS
0
BLOCK
5
20
100
AcDbEntity
100
AcDbBlockBegin
2
*MODEL_SPACE
0
ENDBLK
5
21
100
AcDbEntity
100
AcDbBlockEnd
0
BLOCK
5
1C
100
AcDbEntity
100
AcDbBlockBegin
2
*PAPER_SPACE
0
ENDBLK
5
1D
100
AcDbEntity
100
AcDbBlockEnd
0
ENDSEC
0
SECTION
2
ENTITIES
0
LINE
5
100
100
AcDbEntity
8
0
100
AcDbLine
10
1035.7645808064242
20
-0.042027520852254696
30
0
11
982.64682027851291
21
-11.98355674963965
31
0
0
LINE
5
101
100
AcDbEntity
8
0
100
AcDbLine
10
1034.1234740787106
20
7.2762226057846924
30
0
11
981.00519380826984
21
-4.6654234675470896
31
0
0
LINE
5
102
100
AcDbEntity
8
0
100
AcDbLine
10
982.80561593702441
20
-109.50908627658194
30
0
11
1073.5188961909644
21
-109.50908627658201
31
0
0
LINE
5
103
100
AcDbEntity
8
0
100
AcDbLine
10
982.80561593702464
20
-117.00908627658194
30
0
11
1073.2728106587792
21
-117.00908627658194
31
0
0
SPLINE
5
104
100
AcDbEntity
8
0
100
AcDbSpline
70
0
71
3
72
8
73
4
74
0
42
0.000000001
43
0.0000000001
44
0.0000000001
40
0
40
0
40
0
40
0
40
1
40
1
40
1
40
1
10
980.3053665829799
20
-107.0088315395757
30
0
10
980.3053665829799
20
-108.38193272598367
30
0
10
981.43251170020653
20
-109.50908627658194
30
0
10
982.80561593702441
20
-109.50908627658194
30
0
0
SPLINE
5
105
100
AcDbEntity
8
0
100
AcDbSpline
70
0
71
3
72
11
73
7
74
0
42
0.000000001
43
0.0000000001
44
0.0000000001
40
7.3938954816923832e-05
40
7.3938954816923832e-05
40
7.3938954816923832e-05
40
7.3938954816923832e-05
40
0.88979283506975204
40
0.88979283506975204
40
0.88979283506975204
40
1
40
1
40
1
40
1
10
1114.3284769201061
20
-93.872444558021684
30
0
10
1114.8750620580047
20
-92.916675403452373
30
0
10
1115.2779013192942
20
-91.476779606532332
30
0
10
1115.3683880609483
20
-90.30948735775695
30
0
10
1115.3795964182227
20
-90.164897903779604
30
0
10
1115.3856218582819
20
-90.024321879804347
30
0
10
1115.3856218582819
20
-89.888526414657235
30
0
0
SPLINE
5
106
100
AcDbEntity
8
0
100
AcDbSpline
70
0
71
3
72
14
73
10
74
0
42
0.000000001
43
0.0000000001
44
0.0000000001
40
0.00030592744441629652
40
0.00030592744441629652
40
0.00030592744441629652
40
0.00030592744441629652
40
0.42524123820044957
40
0.42524123820044957
40
0.42524123820044957
40
0.86139226277865255
40
0.86139226277865255
40
0.86139226277865255
40
1
40
1
40
1
40
1
10
981.00519392901344
20
-4.6654240201118746
30
0
10
978.82269297677999
20
-5.1546745649521775
30
0
10
977.05417384264365
20
-6.3068385988412423
30
0
10
975.78076474069178
20
-7.6304866237225077
30
0
10
974.48375578803518
20
-8.9786655677913707
30
0
10
973.46462591064324
20
-10.742048212311257
30
0
10
973.02914222231971
20
-12.78992827200069
30
0
10
972.88734763873038
20
-13.456723167171543
30
0
10
972.8053665829799
20
-14.167126011960232
30
0
10
972.8053665829799
20
-14.909134511309947
30
0
0
LINE
5
107
100
AcDbEntity
8
0
100
AcDbLine
10
972.8053665829799
20
-14.909134511309912
30
0
11
972.80536658298001
21
-107.00883153957562
31
0
0
LINE
5
108
100
AcDbEntity
8
0
100
AcDbLine
10
980.30536658298001
20
-14.909134511309876
30
0
11
980.3053665829799
21
-107.0088315395757
31
0
0
SPLINE
5
109
100
AcDbEntity
8
0
100
AcDbSpline
70
0
71
3
72
14
73
10
74
0
42
0.000000001
43
0.0000000001
44
0.0000000001
40
0.0005081523737224525
40
0.0005081523737224525
40
0.0005081523737224525
40
0.0005081523737224525
40
0.42285163248066354
40
0.42285163248066354
40
0.42285163248066354
40
0.86427712434814774
40
0.86427712434814774
40
0.86427712434814774
40
1
40
1
40
1
40
1
10
1120.841055522023
20
-97.592165921373706
30
0
10
1121.4953658686436
20
-96.44726376701513
30
0
10
1121.8880284109118
20
-95.363182958018697
30
0
10
1122.1724933694284
20
-94.410948481025443
30
0
10
1122.4782807998708
20
-93.387337926610883
30
0
10
1122.7172229733433
20
-92.293556287693974
30
0
10
1122.8276675189065
20
-91.103757717665133
30
0
10
1122.8621528809479
20
-90.732253319376071
30
0
10
1122.8856218582819
20
-90.3258955205402
30
0
10
1122.8856218582819
20
-89.888526414657193
30
0
0
LINE
5
110
100
AcDbEntity
8
0
100
AcDbLine
10
1114.1818461764458
20
-18.711200302945716
30
0
11
1110.1120604078089
21
-12.672003737243269
31
0
0
LINE
5
111
100
AcDbEntity
8
0
100
AcDbLine
10
1110.3563933912721
20
-10.140103566157954
30
0
11
1112.8777953689803
21
-7.6187015884498344
31
0
0
LINE
5
112
100
AcDbEntity
8
0
100
AcDbLine
10
1120.3998653373319
20
-14.517605459037828
30
0
11
1115.9505555309445
21
-7.9152286218780255
31
0
0
CIRCLE
5
113
100
AcDbEntity
8
0
100
AcDbCircle
10
978.45868110585798
20
-111.35576941382368
30
0
40
1.7000000000000002
210
0
220
0
230
1
0
ARC
5
114
100
AcDbEntity
8
0
100
AcDbCircle
10
1111.7706069536453
20
-11.554317128531082
30
0
40
2.0000000000000715
210
0
220
0
230
1
100
AcDbArc
50
134.9999999999996
51
213.97584222095685
0
SPLINE
5
115
100
AcDbEntity
8
0
100
AcDbSpline
70
0
71
3
72
14
73
10
74
0
42
0.000000001
43
0.0000000001
44
0.0000000001
40
0
40
0
40
0
40
0
40
0.47007901722014311
40
0.47007901722014311
40
0.47007901722014311
40
0.94729721732945216
40
0.94729721732945216
40
0.94729721732945216
40
1
40
1
40
1
40
1
10
972.80536658298001
20
-107.00883153957562
30
0
10
972.80536658298001
20
-109.58981096630168
30
0
10
973.79686566805708
20
-111.97015853428162
30
0
10
975.42120391303138
20
-113.74924596832869
30
0
10
977.06151169709779
20
-115.54582434455739
30
0
10
979.36609238748451
20
-116.74972372511377
30
0
10
981.94632860201546
20
-116.97213632298222
30
0
10
982.23110112201448
20
-116.99668329880481
30
0
10
982.51775942338827
20
-117.00908627658194
30
0
10
982.80561593702464
20
-117.00908627658194
30
0
0
ARC
5
116
100
AcDbEntity
8
0
100
AcDbCircle
10
1114.2920089313534
20
-9.0329151508228733
30
0
40
1.9999999999999882
210
0
220
-0
230
1
100
AcDbArc
50
33.975839465332989
51
135.00000000000136
0
CIRCLE
5
117
100
AcDbEntity
8
0
100
AcDbCircle
10
978.13493707131647
20
-10.771587692005529
30
0
40
1.7000000000000002
210
0
220
0
230
1
0
SPLINE
5
118
100
AcDbEntity
8
0
100
AcDbSpline
70
0
71
3
72
14
73
10
74
0
42
0.000000001
43
0.0000000001
44
0.0000000001
40
0
40
0
40
0
40
0
40
0.41555322172629761
40
0.41555322172629761
40
0.41555322172629761
40
0.84943484198512353
40
0.84943484198512353
40
0.84943484198512353
40
1
40
1
40
1
40
1
10
1122.8856218582819
20
-22.649079817028284
30
0
10
1122.8856218582819
20
-21.248162570257652
30
0
10
1122.6517797362501
20
-20.047111513817644
30
0
10
1122.3890101177958
20
-19.049020968035268
30
0
10
1122.1059807201548
20
-17.973976723477119
30
0
10
1121.7122595594694
20
-16.872980890836384
30
0
10
1121.1378806420585
20
-15.765212839851035
30
0
10
1120.9358370770615
20
-15.375544278861017
30
0
10
1120.6940833441631
20
-14.95385485175424
30
0
10
1120.3998653373319
20
-14.517605459037792
30
0
0
SPLINE
5
119
100
AcDbEntity
8
0
100
AcDbSpline
70
0
71
3
72
11
73
7
74
0
42
0.000000001
43
0.0000000001
44
0.0000000001
40
0
40
0
40
0
40
0
40
0.84632527465264906
40
0.84632527465264906
40
0.84632527465264906
40
1
40
1
40
1
40
1
10
1115.3856218582819
20
-22.649079817028248
30
0
10
1115.3856218582819
20
-21.58825805936436
30
0
10
1115.0100543477708
20
-20.245402898835447
30
0
10
1114.4854636822058
20
-19.228693232895484
30
0
10
1114.3902091401699
20
-19.044080314729417
30
0
10
1114.2892996496778
20
-18.87052607959534
30
0
10
1114.1818461764458
20
-18.711200302945752
30
0
0
LINE
5
120
100
AcDbEntity
8
0
100
AcDbLine
10
1122.8856218582819
20
-89.888526414657193
30
0
11
1122.8856218582819
21
-22.649079817028284
31
0
0
SPLINE
5
121
100
AcDbEntity
8
0
100
AcDbSpline
70
0
71
3
72
11
73
7
74
0
42
0.000000001
43
0.0000000001
44
0.0000000001
40
6.5548420699503259e-05
40
6.5548420699503259e-05
40
6.5548420699503259e-05
40
6.5548420699503259e-05
40
0.83908153091422077
40
0.83908153091422077
40
0.83908153091422077
40
1
40
1
40
1
40
1
10
982.64682028132165
20
-11.983556763436471
30
0
10
981.52877436571646
20
-12.23376132305896
30
0
10
980.65448663339362
20
-13.16737659713068
30
0
10
980.38522265281449
20
-14.262200451667244
30
0
10
980.33357936062589
20
-14.472181408248108
30
0
10
980.3053665829799
20
-14.689208560151119
30
0
10
980.3053665829799
20
-14.909134511309876
30
0
0
CIRCLE
5
122
100
AcDbEntity
8
0
100
AcDbCircle
10
1118.5293729246059
20
-19.535086579208869
30
0
40
1.7000000000000002
210
0
220
0
230
1
0
CIRCLE
5
123
100
AcDbEntity
8
0
100
AcDbCircle
10
1098.6509538432397
20
-125.06055669672423
30
0
40
1.7000000000000002
210
0
220
0
230
1
0
SPLINE
5
124
100
AcDbEntity
8
0
100
AcDbSpline
70
0
71
3
72
17
73
13
74
0
42
0.000000001
43
0.0000000001
44
0.0000000001
40
0.00013729868904704292
40
0.00013729868904704292
40
0.00013729868904704292
40
0.00013729868904704292
40
0.46850879666947803
40
0.46850879666947803
40
0.46850879666947803
40
0.94962922189638044
40
0.94962922189638044
40
0.94962922189638044
40
1
40
1
40
1
40
1.0001437314604993
40
1.0001437314604993
40
1.0001437314604993
40
1.0001437314604993
10
1092.0541005947609
20
-127.78694348971484
30
0
10
1094.28378968118
20
-129.07452092042365
30
0
10
1096.8372071362139
20
-129.40916812505864
30
0
10
1099.1919139125423
20
-128.89156683609019
30
0
10
1101.5976033454331
20
-128.36275876374768
30
0
10
1103.8079491459298
20
-126.94153001675662
30
0
10
1105.2857063967199
20
-124.78876160877161
30
0
10
1105.4401813149304
20
-124.56372551196179
30
0
10
1105.5858228733327
20
-124.33180859945625
30
0
10
1105.7221629840581
20
-124.09343218337992
30
0
10
1105.7224355180206
20
-124.09295568626621
30
0
10
1105.7227080519831
20
-124.09247918915281
30
0
10
1105.7229805859561
20
-124.09200269202046
30
0
0
SPLINE
5
125
100
AcDbEntity
8
0
100
AcDbSpline
70
0
71
3
72
8
73
4
74
0
42
0.000000001
43
0.0000000001
44
0.0000000001
40
3.0238697656692254e-05
40
3.0238697656692254e-05
40
3.0238697656692254e-05
40
3.0238697656692254e-05
40
1
40
1
40
1
40
1
10
1095.8043125189329
20
-121.29187526160543
30
0
10
1096.9928135247901
20
-121.97848163308322
30
0
10
1098.5300969103548
20
-121.56172180543518
30
0
10
1099.2118107174767
20
-120.36981655270374
30
0
0
LINE
5
126
100
AcDbEntity
8
0
100
AcDbLine
10
1115.3856218582819
20
-89.888526414657235
30
0
11
1115.3856218582819
21
-22.649079817028248
31
0
0
CIRCLE
5
127
100
AcDbEntity
8
0
100
AcDbCircle
10
1074.3670600743055
20
-113.31394377547149
30
0
40
1.7000000000000002
210
0
220
0
230
1
0
LINE
5
128
100
AcDbEntity
8
0
100
AcDbLine
10
1105.7229805859561
20
-124.09200269202043
30
0
11
1120.841055932573
21
-97.592166158279383
31
0
0
LINE
5
129
100
AcDbEntity
8
0
100
AcDbLine
10
1077.0012494421026
20
-110.440437528814
30
0
11
1095.8043125172969
21
-121.2918752642161
31
0
0
LINE
5
130
100
AcDbEntity
8
0
100
AcDbLine
10
1073.4601831741479
20
-117.05620596606735
30
0
11
1092.0541005335183
21
-127.7869435951191
31
0
0
SPLINE
5
131
100
AcDbEntity
8
0
100
AcDbSpline
70
0
71
3
72
11
73
7
74
0
42
0.000000001
43
0.0000000001
44
0.0000000001
40
0.35495894660622906
40
0.35495894660622906
40
0.35495894660622906
40
0.35495894660622906
40
0.53184469039110338
40
0.53184469039110338
40
0.53184469039110338
40
0.6307286939839517
40
0.6307286939839517
40
0.6307286939839517
40
0.6307286939839517
10
1073.2728106587792
20
-117.00908627658187
30
0
10
1073.334090115178
20
-117.02103549635432
30
0
10
1073.3949678738768
20
-117.03602104689125
30
0
10
1073.4038531148572
20
-117.03851979128096
30
0
10
1073.4132109861182
20
-117.04115145072208
30
0
10
1073.435000442375
20
-117.04774395817608
30
0
10
1073.4601831741479
20
-117.05620596606735
30
0
0
SPLINE
5
132
100
AcDbEntity
8
0
100
AcDbSpline
70
0
71
3
72
14
73
10
74
0
42
0.000000001
43
0.0000000001
44
0.0000000001
40
0
40
0
40
0
40
0
40
0.88837939672386546
40
0.88837939672386546
40
0.88837939672386546
40
1
40
1
40
1
40
1.0000381022571909
40
1.0000381022571909
40
1.0000381022571909
40
1.0000381022571909
10
1073.5188961909644
20
-109.50908627658201
30
0
10
1074.3761664466501
20
-109.50908627658201
30
0
10
1075.798972316137
20
-109.85354936506418
30
0
10
1076.6919761828278
20
-110.27887549115206
30
0
10
1076.8041778285385
20
-110.33231567555767
30
0
10
1076.9080644693026
20
-110.38659704143836
30
0
10
1077.0011405655966
20
-110.4403746220602
30
0
10
1077.0011768577488
20
-110.44039559096856
30
0
10
1077.0012131499011
20
-110.44041655987712
30
0
10
1077.0012494420553
20
-110.44043752878665
30
0
0
CIRCLE
5
133
100
AcDbEntity
8
0
100
AcDbCircle
10
1118.6087012295884
20
-92.876557026643098
30
0
40
1.7000000000000002
210
0
220
0
230
1
0
LINE
5
134
100
AcDbEntity
8
0
100
AcDbLine
10
1099.2118107174767
20
-120.36981655270374
30
0
11
1114.3284769277677
21
-93.872444561312776
31
0
0
SPLINE
5
135
100
AcDbEntity
8
0
100
AcDbSpline
70
0
71
3
72
17
73
13
74
0
42
0.000000001
43
0.0000000001
44
0.0000000001
40
0.7585906053972421
40
0.7585906053972421
40
0.7585906053972421
40
0.7585906053972421
40
0.85611647121063061
40
0.85611647121063061
40
0.85611647121063061
40
0.98795341962431782
40
0.98795341962431782
40
0.98795341962431782
40
1.0008140918953758
40
1.0008140918953758
40
1.0008140918953758
40
1.0013025470586079
40
1.0013025470586079
40
1.0013025470586079
40
1.0013025470586079
10
1035.5139610617284
20
7.5389838621627625
30
0
10
1035.3303557020288
20
7.5100939071773176
30
0
10
1035.1456204790516
20
7.4789802221014945
30
0
10
1034.9595680524185
20
7.4452192033595388
30
0
10
1034.708059552928
20
7.3995805448441665
30
0
10
1034.4542333363479
20
7.3490954166032729
30
0
10
1034.1979727487783
20
7.2927523407504502
30
0
10
1034.1729745713144
20
7.2872560831230793
30
0
10
1034.1388379236489
20
7.2796592644425395
30
0
10
1034.1250455982961
20
7.2765741308366039
30
0
10
1034.1245217584378
20
7.2764569558201053
30
0
10
1034.1239979185793
20
7.2763397808036068
30
0
10
1034.1234740787106
20
7.2762226057846924
30
0
0
LINE
5
136
100
AcDbEntity
8
0
100
AcDbLine
10
1037.8248324533026
20
2.0114130553580445
30
0
11
1037.824832453302
21
5.5632918370991646
31
0
0
ARC
5
137
100
AcDbEntity
8
0
100
AcDbCircle
10
1035.8248324533017
20
5.5632918370988271
30
0
40
2.0000000000000284
210
0
220
-0
230
1
100
AcDbArc
50
0
51
98.942066045950824
0
CIRCLE
5
138
100
AcDbEntity
8
0
100
AcDbCircle
10
1032.0636171416495
20
2.8670498153235791
30
0
40
1.7000000000000002
210
0
220
0
230
1
0
ARC
5
139
100
AcDbEntity
8
0
100
AcDbCircle
10
1035.8248324533024
20
2.0114130553577247
30
0
40
2.0000000000000191
210
0
220
0
230
1
100
AcDbArc
50
-79.36742776083176
51
0
0
SPLINE
5
140
100
AcDbEntity
8
0
100
AcDbSpline
70
0
71
3
72
11
73
7
74
0
42
0.000000001
43
0.0000000001
44
0.0000000001
40
0.880880486908312
40
0.880880486908312
40
0.880880486908312
40
0.880880486908312
40
1
40
1
40
1
40
1.0000814091900181
40
1.0000814091900181
40
1.0000814091900181
40
1.0000814091900181
10
1036.1938526783872
20
0.045751824759108217
30
0
10
1036.0431854599517
20
0.017466558714716029
30
0
10
1035.8994788639664
20
-0.011852875166624699
30
0
10
1035.7648427264533
20
-0.041968933321800961
30
0
10
1035.7647554198102
20
-0.041988462491193701
30
0
10
1035.7646681131682
20
-0.042007991660373278
30
0
10
1035.7645808065724
20
-0.042027520819214459
30
0
0
ENDSEC
0
SECTION
2
OBJECTS
0
DICTIONARY
5
C
100
AcDbDictionary
3
ACAD_GROUP
350
D
3
ACAD_MLINESTYLE
350
17
0
DICTIONARY
5
D
100
AcDbDictionary
0
DICTIONARY
5
1A
330
C
100
AcDbDictionary
0
DICTIONARY
5
17
100
AcDbDictionary
0
ENDSEC
0
EOF
