0
SECTION
2
HEADER
9
$INSUNITS
70
4
9
$ACADVER
1
AC1014
9
$HANDSEED
5
FFFF
0
ENDSEC
0
SECTION
2
TABLES
0
TABLE
2
VPORT
5
8
100
AcDbSymbolTable
0
ENDTAB
0
TABLE
2
LTYPE
5
5
100
AcDbSymbolTable
0
LTYPE
5
14
100
AcDbSymbolTableRecord
100
AcDbLinetypeTableRecord
2
BYBLOCK
70
0
0
LTYPE
5
15
100
AcDbSymbolTableRecord
100
AcDbLinetypeTableRecord
2
BYLAYER
70
0
0
LTYPE
5
16
100
AcDbSymbolTableRecord
100
AcDbLinetypeTableRecord
2
DASHED
70
0
3
Dashed __ __ __ __ __ __ __ __ __ __ __ __ __ _
72
65
73
2
40
0.75
49
0.5
74
0
49
-0.25
74
0
0
ENDTAB
0
TABLE
2
LAYER
5
2
100
AcDbSymbolTable
70
2
0
LAYER
5
50
100
AcDbSymbolTableRecord
100
AcDbLayerTableRecord
2
0
70
0
62
7
6
CONTINUOUS
0
ENDTAB
0
TABLE
2
STYLE
5
3
100
AcDbSymbolTable
70
1
0
STYLE
5
11
100
AcDbSymbolTableRecord
100
AcDbTextStyleTableRecord
2
STANDARD
70
0
0
ENDTAB
0
TABLE
2
VIEW
5
6
100
AcDbSymbolTable
70
0
0
ENDTAB
0
TABLE
2
UCS
5
7
100
AcDbSymbolTable
70
0
0
ENDTAB
0
TABLE
2
APPID
5
9
100
AcDbSymbolTable
70
2
0
APPID
5
12
100
AcDbSymbolTableRecord
100
AcDbRegAppTableRecord
2
ACAD
70
0
0
ENDTAB
0
TABLE
2
DIMSTYLE
5
A
100
AcDbSymbolTable
70
1
0
ENDTAB
0
TABLE
2
BLOCK_RECORD
5
1
100
AcDbSymbolTable
70
1
0
BLOCK_RECORD
5
1F
100
AcDbSymbolTableRecord
100
AcDbBlockTableRecord
2
*MODEL_SPACE
0
BLOCK_RECORD
5
1B
100
AcDbSymbolTableRecord
100
AcDbBlockTableRecord
2
*PAPER_SPACE
0
ENDTAB
0
ENDSEC
0
SECTION
2
BLOCKS
0
BLOCK
5
20
100
AcDbEntity
100
AcDbBlockBegin
2
*MODEL_SPACE
0
ENDBLK
5
21
100
AcDbEntity
100
AcDbBlockEnd
0
BLOCK
5
1C
100
AcDbEntity
100
AcDbBlockBegin
2
*PAPER_SPACE
0
ENDBLK
5
1D
100
AcDbEntity
100
AcDbBlockEnd
0
ENDSEC
0
SECTION
2
ENTITIES
0
SPLINE
5
100
100
AcDbEntity
8
0
100
AcDbSpline
70
0
71
3
72
14
73
10
74
0
42
0.000000001
43
0.0000000001
44
0.0000000001
40
0
40
0
40
0
40
0
40
0.47007901722014311
40
0.47007901722014311
40
0.47007901722014311
40
0.94729721732945216
40
0.94729721732945216
40
0.94729721732945216
40
1
40
1
40
1
40
1
10
972.8053665829799
20
67.991168460424319
30
0
10
972.8053665829799
20
65.410189033698259
30
0
10
973.79686566805674
20
63.02984146571832
30
0
10
975.42120391303115
20
61.250754031671249
30
0
10
977.06151169709756
20
59.454175655442555
30
0
10
979.36609238748417
20
58.250276274886147
30
0
10
981.94632860201534
20
58.027863677017692
30
0
10
982.23110112201425
20
58.003316701195132
30
0
10
982.51775942338804
20
57.990913723418004
30
0
10
982.80561593702441
20
57.990913723418004
30
0
0
LINE
5
101
100
AcDbEntity
8
0
100
AcDbLine
10
1077.0012494421026
20
64.559562471185941
30
0
11
1095.8043125172969
21
53.708124735783841
31
0
0
SPLINE
5
102
100
AcDbEntity
8
0
100
AcDbSpline
70
0
71
3
72
8
73
4
74
0
42
0.000000001
43
0.0000000001
44
0.0000000001
40
3.0238697656692254e-05
40
3.0238697656692254e-05
40
3.0238697656692254e-05
40
3.0238697656692254e-05
40
1
40
1
40
1
40
1
10
1095.8043125189329
20
53.708124738394488
30
0
10
1096.9928135247901
20
53.021518366916695
30
0
10
1098.5300969103546
20
53.438278194564752
30
0
10
1099.2118107174765
20
54.630183447296176
30
0
0
CIRCLE
5
103
100
AcDbEntity
8
0
100
AcDbCircle
10
1074.3670600743055
20
61.686056224528457
30
0
40
1.7000000000000002
210
0
220
0
230
1
0
LINE
5
104
100
AcDbEntity
8
0
100
AcDbLine
10
1073.4601831741477
20
57.943794033932591
30
0
11
1092.0541005335181
21
47.213056404880817
31
0
0
SPLINE
5
105
100
AcDbEntity
8
0
100
AcDbSpline
70
0
71
3
72
17
73
13
74
0
42
0.000000001
43
0.0000000001
44
0.0000000001
40
0.00013729868904704292
40
0.00013729868904704292
40
0.00013729868904704292
40
0.00013729868904704292
40
0.46850879666947803
40
0.46850879666947803
40
0.46850879666947803
40
0.94962922189638044
40
0.94962922189638044
40
0.94962922189638044
40
1
40
1
40
1
40
1.0001437314604993
40
1.0001437314604993
40
1.0001437314604993
40
1.0001437314604993
10
1092.0541005947607
20
47.213056510285071
30
0
10
1094.2837896811798
20
45.925479079576249
30
0
10
1096.8372071362139
20
45.590831874941259
30
0
10
1099.1919139125421
20
46.108433163909709
30
0
10
1101.5976033454331
20
46.637241236252237
30
0
10
1103.8079491459298
20
48.058469983243285
30
0
10
1105.2857063967197
20
50.211238391228306
30
0
10
1105.4401813149302
20
50.436274488038123
30
0
10
1105.5858228733327
20
50.668191400543648
30
0
10
1105.7221629840581
20
50.906567816619997
30
0
10
1105.7224355180206
20
50.907044313733692
30
0
10
1105.7227080519829
20
50.907520810847103
30
0
10
1105.7229805859561
20
50.907997307979457
30
0
0
LINE
5
106
100
AcDbEntity
8
0
100
AcDbLine
10
982.80561593702441
20
57.990913723418004
30
0
11
1073.2728106587792
21
57.990913723418004
31
0
0
SPLINE
5
107
100
AcDbEntity
8
0
100
AcDbSpline
70
0
71
3
72
11
73
7
74
0
42
0.000000001
43
0.0000000001
44
0.0000000001
40
0.35495894660622906
40
0.35495894660622906
40
0.35495894660622906
40
0.35495894660622906
40
0.53184469039110338
40
0.53184469039110338
40
0.53184469039110338
40
0.6307286939839517
40
0.6307286939839517
40
0.6307286939839517
40
0.6307286939839517
10
1073.2728106587792
20
57.990913723418075
30
0
10
1073.3340901151778
20
57.978964503645628
30
0
10
1073.3949678738768
20
57.963978953108665
30
0
10
1073.4038531148572
20
57.961480208718982
30
0
10
1073.413210986118
20
57.958848549277832
30
0
10
1073.4350004423748
20
57.952256041823858
30
0
10
1073.4601831741477
20
57.943794033932591
30
0
0
CIRCLE
5
108
100
AcDbEntity
8
0
100
AcDbCircle
10
1098.6509538432397
20
49.939443303275667
30
0
40
1.7000000000000002
210
0
220
0
230
1
0
CIRCLE
5
109
100
AcDbEntity
8
0
100
AcDbCircle
10
1118.6087012295884
20
82.123442973356873
30
0
40
1.7000000000000002
210
0
220
0
230
1
0
LINE
5
110
100
AcDbEntity
8
0
100
AcDbLine
10
982.8056159370243
20
65.490913723417975
30
0
11
1073.5188961909644
21
65.490913723417904
31
0
0
LINE
5
111
100
AcDbEntity
8
0
100
AcDbLine
10
1074.6548518319692
20
175.40753350109713
30
0
11
1039.8250979562367
21
175.40753350109713
31
0
0
SPLINE
5
112
100
AcDbEntity
8
0
100
AcDbSpline
70
0
71
3
72
14
73
10
74
0
42
0.000000001
43
0.0000000001
44
0.0000000001
40
0
40
0
40
0
40
0
40
0.88837939672386546
40
0.88837939672386546
40
0.88837939672386546
40
1
40
1
40
1
40
1.0000381022571909
40
1.0000381022571909
40
1.0000381022571909
40
1.0000381022571909
10
1073.5188961909644
20
65.490913723417904
30
0
10
1074.3761664466501
20
65.490913723417904
30
0
10
1075.798972316137
20
65.146450634935761
30
0
10
1076.6919761828278
20
64.721124508847851
30
0
10
1076.8041778285385
20
64.667684324442277
30
0
10
1076.9080644693026
20
64.613402958561579
30
0
10
1077.0011405655966
20
64.559625377939739
30
0
10
1077.0011768577485
20
64.55960440903138
30
0
10
1077.0012131499011
20
64.559583440122793
30
0
10
1077.001249442055
20
64.559562471213269
30
0
0
SPLINE
5
113
100
AcDbEntity
8
0
100
AcDbSpline
70
0
71
3
72
14
73
10
74
0
42
0.000000001
43
0.0000000001
44
0.0000000001
40
0.0005081523737224525
40
0.0005081523737224525
40
0.0005081523737224525
40
0.0005081523737224525
40
0.42285163248066354
40
0.42285163248066354
40
0.42285163248066354
40
0.86427712434814774
40
0.86427712434814774
40
0.86427712434814774
40
1
40
1
40
1
40
1
10
1120.841055522023
20
77.407834078626223
30
0
10
1121.4953658686436
20
78.552736232984842
30
0
10
1121.8880284109118
20
79.636817041981232
30
0
10
1122.1724933694284
20
80.589051518974514
30
0
10
1122.4782807998708
20
81.612662073389046
30
0
10
1122.7172229733433
20
82.706443712305997
30
0
10
1122.8276675189063
20
83.896242282334796
30
0
10
1122.8621528809479
20
84.267746680623858
30
0
10
1122.8856218582819
20
84.674104479459771
30
0
10
1122.8856218582819
20
85.111473585342736
30
0
0
LINE
5
114
100
AcDbEntity
8
0
100
AcDbLine
10
1074.6548518319692
20
182.90753350109711
30
0
11
1039.8250979562367
21
182.90753350109711
31
0
0
SPLINE
5
115
100
AcDbEntity
8
0
100
AcDbSpline
70
0
71
3
72
11
73
7
74
0
42
0.000000001
43
0.0000000001
44
0.0000000001
40
7.3938954816923832e-05
40
7.3938954816923832e-05
40
7.3938954816923832e-05
40
7.3938954816923832e-05
40
0.88979283506975204
40
0.88979283506975204
40
0.88979283506975204
40
1
40
1
40
1
40
1
10
1114.3284769201059
20
81.127555441978259
30
0
10
1114.8750620580045
20
82.083324596547584
30
0
10
1115.2779013192942
20
83.523220393467625
30
0
10
1115.3683880609483
20
84.690512642242993
30
0
10
1115.3795964182227
20
84.835102096220339
30
0
10
1115.3856218582819
20
84.975678120195596
30
0
10
1115.3856218582819
20
85.111473585342722
30
0
0
SPLINE
5
116
100
AcDbEntity
8
0
100
AcDbSpline
70
0
71
3
72
11
73
7
74
0
42
0.000000001
43
0.0000000001
44
0.0000000001
40
0
40
0
40
0
40
0
40
1
40
1
40
1
40
1.0000814091900181
40
1.0000814091900181
40
1.0000814091900181
40
1.0000814091900181
10
1039.8250979562367
20
175.40753350109713
30
0
10
1038.6646039157133
20
175.40753350109713
30
0
10
1036.8951037056881
20
175.21085327333049
30
0
10
1035.764842726453
20
174.95803106667822
30
0
10
1035.7647554198102
20
174.95801153750881
30
0
10
1035.764668113168
20
174.95799200833966
30
0
10
1035.7645808065722
20
174.9579724791808
30
0
0
LINE
5
117
100
AcDbEntity
8
0
100
AcDbLine
10
1105.7229805859561
20
50.907997307979485
30
0
11
1120.841055932573
21
77.407833841720546
31
0
0
LINE
5
118
100
AcDbEntity
8
0
100
AcDbLine
10
1099.2118107174767
20
54.630183447296176
30
0
11
1114.3284769277675
21
81.127555438687153
31
0
0
LINE
5
119
100
AcDbEntity
8
0
100
AcDbLine
10
1087.4950228667972
20
167.85123911604933
30
0
11
1078.576801075212
21
174.16243334517537
31
0
0
SPLINE
5
120
100
AcDbEntity
8
0
100
AcDbSpline
70
0
71
3
72
11
73
7
74
0
42
0.000000001
43
0.0000000001
44
0.0000000001
40
9.0036162567467575e-05
40
9.0036162567467575e-05
40
9.0036162567467575e-05
40
9.0036162567467575e-05
40
0.76093182100186874
40
0.76093182100186874
40
0.76093182100186874
40
1
40
1
40
1
40
1
10
1108.3718982093496
20
164.91024063870401
30
0
10
1107.8083557396872
20
165.74887857169219
30
0
10
1106.8115021712654
20
166.37468100068821
30
0
10
1105.7966752965019
20
166.65174678678579
30
0
10
1105.477801099813
20
166.73880511384525
30
0
10
1105.1555334414104
20
166.7891722823268
30
0
10
1104.8385068714383
20
166.7891722823268
30
0
0
LINE
5
121
100
AcDbEntity
8
0
100
AcDbLine
10
1120.3998653373319
20
160.48239454096219
30
0
11
1114.5941107598878
21
169.09761380245783
31
0
0
SPLINE
5
122
100
AcDbEntity
8
0
100
AcDbSpline
70
0
71
3
72
14
73
10
74
0
42
0.000000001
43
0.0000000001
44
0.0000000001
40
0.0004676471245364543
40
0.0004676471245364543
40
0.0004676471245364543
40
0.0004676471245364543
40
0.40699028356557293
40
0.40699028356557293
40
0.40699028356557293
40
0.82690897814119801
40
0.82690897814119801
40
0.82690897814119801
40
1
40
1
40
1
40
1
10
1114.5941099552022
20
169.09761326566439
30
0
10
1113.5665698521743
20
170.62529487012753
30
0
10
1112.2928250126697
20
171.67146537712725
30
0
10
1111.1654686022814
20
172.38462074616677
30
0
10
1109.9755718335903
20
173.13733857468605
30
0
10
1108.5936035002164
20
173.74341188370124
30
0
10
1107.0382775802636
20
174.0622615458004
30
0
10
1106.3844917207061
20
174.1962909461536
30
0
10
1105.6439566896515
20
174.28917228232677
30
0
10
1104.8385068714383
20
174.28917228232677
30
0
0
LINE
5
123
100
AcDbEntity
8
0
100
AcDbLine
10
1114.1818461764458
20
156.28879969705429
30
0
11
1108.3718982272831
21
164.91024065148693
31
0
0
SPLINE
5
124
100
AcDbEntity
8
0
100
AcDbSpline
70
0
71
3
72
14
73
10
74
0
42
0.000000001
43
0.0000000001
44
0.0000000001
40
0
40
0
40
0
40
0
40
0.41555322172629761
40
0.41555322172629761
40
0.41555322172629761
40
0.84943484198512353
40
0.84943484198512353
40
0.84943484198512353
40
1
40
1
40
1
40
1
10
1122.8856218582819
20
152.35092018297169
30
0
10
1122.8856218582819
20
153.75183742974232
30
0
10
1122.6517797362501
20
154.95288848618233
30
0
10
1122.3890101177958
20
155.95097903196475
30
0
10
1122.1059807201548
20
157.02602327652289
30
0
10
1121.7122595594694
20
158.12701910916363
30
0
10
1121.1378806420585
20
159.23478716014898
30
0
10
1120.9358370770615
20
159.62445572113899
30
0
10
1120.6940833441629
20
160.04614514824578
30
0
10
1120.3998653373319
20
160.48239454096222
30
0
0
LINE
5
125
100
AcDbEntity
8
0
100
AcDbLine
10
1104.8385068714383
20
174.28917228232677
30
0
11
1091.3811489954173
21
174.28917228232677
31
0
0
SPLINE
5
126
100
AcDbEntity
8
0
100
AcDbSpline
70
0
71
3
72
17
73
13
74
0
42
0.000000001
43
0.0000000001
44
0.0000000001
40
-0.00022330394316748676
40
-0.00022330394316748676
40
-0.00022330394316748676
40
-0.00022330394316748676
40
0
40
0
40
0
40
0.41562434359876882
40
0.41562434359876882
40
0.41562434359876882
40
0.84958604214270517
40
0.84958604214270517
40
0.84958604214270517
40
1
40
1
40
1
40
1
10
1082.903398952541
20
180.28865191843082
30
0
10
1082.90291185261
20
180.28899575517656
30
0
10
1082.9024247526831
20
180.28933959191926
30
0
10
1082.9019376527581
20
180.28968342866074
30
0
10
1081.7358588416846
20
181.11280147497928
30
0
10
1080.5944421061533
20
181.61785285320391
30
0
10
1079.6082640131126
20
181.97599716331746
30
0
10
1078.5463909389566
20
182.36163116011312
30
0
10
1077.3944628103593
20
182.66675474755738
30
0
10
1076.1303880597566
20
182.81745302902868
30
0
10
1075.6858816884951
20
182.87044542225567
30
0
10
1075.1913943750949
20
182.90753350109711
30
0
10
1074.6548518319692
20
182.90753350109711
30
0
0
SPLINE
5
127
100
AcDbEntity
8
0
100
AcDbSpline
70
0
71
3
72
11
73
7
74
0
42
0.000000001
43
0.0000000001
44
0.0000000001
40
0
40
0
40
0
40
0
40
0.83878329569131993
40
0.83878329569131993
40
0.83878329569131993
40
1
40
1
40
1
40
1
10
1090.840287233038
20
166.7891722823268
30
0
10
1090.0488001712624
20
166.7891722823268
30
0
10
1088.7731865214794
20
167.13839194578355
30
0
10
1087.9285299295473
20
167.5878082956001
30
0
10
1087.7661843598114
20
167.67418748692646
30
0
10
1087.6193860414762
20
167.76345296265771
30
0
10
1087.4950228667972
20
167.85123911604933
30
0
0
SPLINE
5
128
100
AcDbEntity
8
0
100
AcDbSpline
70
0
71
3
72
11
73
7
74
0
42
0.000000001
43
0.0000000001
44
0.0000000001
40
0
40
0
40
0
40
0
40
0.84632527465264906
40
0.84632527465264906
40
0.84632527465264906
40
1
40
1
40
1
40
1
10
1115.3856218582819
20
152.35092018297172
30
0
10
1115.3856218582819
20
153.41174194063564
30
0
10
1115.0100543477708
20
154.75459710116453
30
0
10
1114.4854636822056
20
155.77130676710453
30
0
10
1114.3902091401696
20
155.9559196852706
30
0
10
1114.2892996496776
20
156.12947392040468
30
0
10
1114.1818461764458
20
156.28879969705426
30
0
0
LINE
5
129
100
AcDbEntity
8
0
100
AcDbLine
10
1034.1234740787104
20
182.27622260578471
30
0
11
981.00519380826972
21
170.33457653245293
31
0
0
CIRCLE
5
130
100
AcDbEntity
8
0
100
AcDbCircle
10
978.45868110585775
20
63.644230586176235
30
0
40
1.7000000000000002
210
0
220
0
230
1
0
LINE
5
131
100
AcDbEntity
8
0
100
AcDbLine
10
972.80536658297956
20
160.0908654886901
30
0
11
972.8053665829799
21
67.991168460424319
31
0
0
SPLINE
5
132
100
AcDbEntity
8
0
100
AcDbSpline
70
0
71
3
72
11
73
7
74
0
42
0.000000001
43
0.0000000001
44
0.0000000001
40
0
40
0
40
0
40
0
40
0.83878329569136101
40
0.83878329569136101
40
0.83878329569136101
40
1
40
1
40
1
40
1
10
1078.5768010752238
20
174.1624333451671
30
0
10
1077.7147379559599
20
174.7709511432725
30
0
10
1076.4166222421425
20
175.22186567382121
30
0
10
1075.2861510892294
20
175.3648322809135
30
0
10
1075.0688710903014
20
175.39231089826316
30
0
10
1074.8576167575579
20
175.40753350109713
30
0
10
1074.6548518319692
20
175.40753350109713
30
0
0
CIRCLE
5
133
100
AcDbEntity
8
0
100
AcDbCircle
10
978.13493707131613
20
164.22841230799449
30
0
40
1.7000000000000002
210
0
220
0
230
1
0
LINE
5
134
100
AcDbEntity
8
0
100
AcDbLine
10
1115.3856218582819
20
85.111473585342722
30
0
11
1115.3856218582819
21
152.35092018297172
31
0
0
LINE
5
135
100
AcDbEntity
8
0
100
AcDbLine
10
1122.8856218582819
20
85.111473585342736
30
0
11
1122.8856218582819
21
152.35092018297169
31
0
0
SPLINE
5
136
100
AcDbEntity
8
0
100
AcDbSpline
70
0
71
3
72
11
73
7
74
0
42
0.000000001
43
0.0000000001
44
0.0000000001
40
6.5548420699503259e-05
40
6.5548420699503259e-05
40
6.5548420699503259e-05
40
6.5548420699503259e-05
40
0.83908153091422077
40
0.83908153091422077
40
0.83908153091422077
40
1
40
1
40
1
40
1
10
982.64682028132154
20
163.01644323656353
30
0
10
981.52877436571634
20
162.76623867694104
30
0
10
980.6544866333935
20
161.83262340286933
30
0
10
980.38522265281415
20
160.73779954833276
30
0
10
980.33357936062566
20
160.5278185917519
30
0
10
980.30536658297979
20
160.31079143984891
30
0
10
980.30536658297979
20
160.09086548869016
30
0
0
CIRCLE
5
137
100
AcDbEntity
8
0
100
AcDbCircle
10
1032.0636171416495
20
177.86704981532358
30
0
40
1.7000000000000002
210
0
220
0
230
1
0
CIRCLE
5
138
100
AcDbEntity
8
0
100
AcDbCircle
10
1118.5293729246057
20
155.46491342079111
30
0
40
1.7000000000000002
210
0
220
0
230
1
0
SPLINE
5
139
100
AcDbEntity
8
0
100
AcDbSpline
70
0
71
3
72
8
73
4
74
0
42
0.000000001
43
0.0000000001
44
0.0000000001
40
0
40
0
40
0
40
0
40
1
40
1
40
1
40
1
10
980.30536658297956
20
67.991168460424248
30
0
10
980.30536658297956
20
66.618067274016269
30
0
10
981.43251170020631
20
65.490913723417975
30
0
10
982.8056159370243
20
65.490913723417975
30
0
0
SPLINE
5
140
100
AcDbEntity
8
0
100
AcDbSpline
70
0
71
3
72
20
73
16
74
0
42
0.000000001
43
0.0000000001
44
0.0000000001
40
0
40
0
40
0
40
0
40
0.53021057109319303
40
0.53021057109319303
40
0.53021057109319303
40
0.85611647121063061
40
0.85611647121063061
40
0.85611647121063061
40
0.98795341962431782
40
0.98795341962431782
40
0.98795341962431782
40
1.0008140918953758
40
1.0008140918953758
40
1.0008140918953758
40
1.0013025470586079
40
1.0013025470586079
40
1.0013025470586079
40
1.0013025470586079
10
1039.8250979562367
20
182.90753350109711
30
0
10
1038.7650490854455
20
182.90753350109711
30
0
10
1037.7603645031936
20
182.82360435702131
30
0
10
1036.7876461592791
20
182.71079862645394
30
0
10
1036.1883355180473
20
182.64129682755828
30
0
10
1035.5813065324116
20
182.55803968549742
30
0
10
1034.9595680524185
20
182.44521920335956
30
0
10
1034.708059552928
20
182.39958054484418
30
0
10
1034.4542333363479
20
182.34909541660329
30
0
10
1034.1979727487781
20
182.29275234075047
30
0
10
1034.1729745713144
20
182.28725608312311
30
0
10
1034.1388379236487
20
182.27965926444256
30
0
10
1034.1250455982961
20
182.27657413083662
30
0
10
1034.1245217584378
20
182.27645695582012
30
0
10
1034.1239979185793
20
182.27633978080362
30
0
10
1034.1234740787104
20
182.27622260578471
30
0
0
LINE
5
141
100
AcDbEntity
8
0
100
AcDbLine
10
1091.3811489954173
20
174.28917228232677
30
0
11
1082.9033989525383
21
180.28865191843195
31
0
0
SPLINE
5
142
100
AcDbEntity
8
0
100
AcDbSpline
70
0
71
3
72
14
73
10
74
0
42
0.000000001
43
0.0000000001
44
0.0000000001
40
0.00030592744441629652
40
0.00030592744441629652
40
0.00030592744441629652
40
0.00030592744441629652
40
0.42524123820044957
40
0.42524123820044957
40
0.42524123820044957
40
0.86139226277865255
40
0.86139226277865255
40
0.86139226277865255
40
1
40
1
40
1
40
1
10
981.00519392901333
20
170.33457597988814
30
0
10
978.82269297677965
20
169.84532543504784
30
0
10
977.05417384264342
20
168.69316140115876
30
0
10
975.78076474069144
20
167.3695133762775
30
0
10
974.48375578803507
20
166.02133443220865
30
0
10
973.46462591064301
20
164.25795178768877
30
0
10
973.02914222231948
20
162.21007172799932
30
0
10
972.88734763873003
20
161.54327683282847
30
0
10
972.80536658297956
20
160.83287398803978
30
0
10
972.80536658297956
20
160.09086548869007
30
0
0
LINE
5
143
100
AcDbEntity
8
0
100
AcDbLine
10
980.3053665829799
20
160.09086548869016
30
0
11
980.30536658297956
21
67.991168460424248
31
0
0
LINE
5
144
100
AcDbEntity
8
0
100
AcDbLine
10
1035.764580806424
20
174.95797247914777
30
0
11
982.64682027851279
21
163.01644325036037
31
0
0
LINE
5
145
100
AcDbEntity
8
0
100
AcDbLine
10
1104.8385068714383
20
166.7891722823268
30
0
11
1090.840287233038
21
166.7891722823268
31
0
0
ENDSEC
0
SECTION
2
OBJECTS
0
DICTIONARY
5
C
100
AcDbDictionary
3
ACAD_GROUP
350
D
3
ACAD_MLINESTYLE
350
17
0
DICTIONARY
5
D
100
AcDbDictionary
0
DICTIONARY
5
1A
330
C
100
AcDbDictionary
0
DICTIONARY
5
17
100
AcDbDictionary
0
ENDSEC
0
EOF
