0
SECTION
2
HEADER
9
$INSUNITS
70
4
9
$ACADVER
1
AC1014
9
$HANDSEED
5
FFFF
0
ENDSEC
0
SECTION
2
TABLES
0
TABLE
2
VPORT
5
8
100
AcDbSymbolTable
0
ENDTAB
0
TABLE
2
LTYPE
5
5
100
AcDbSymbolTable
0
LTYPE
5
14
100
AcDbSymbolTableRecord
100
AcDbLinetypeTableRecord
2
BYBLOCK
70
0
0
LTYPE
5
15
100
AcDbSymbolTableRecord
100
AcDbLinetypeTableRecord
2
BYLAYER
70
0
0
LTYPE
5
16
100
AcDbSymbolTableRecord
100
AcDbLinetypeTableRecord
2
DASHED
70
0
3
Dashed __ __ __ __ __ __ __ __ __ __ __ __ __ _
72
65
73
2
40
0.75
49
0.5
74
0
49
-0.25
74
0
0
ENDTAB
0
TABLE
2
LAYER
5
2
100
AcDbSymbolTable
70
2
0
LAYER
5
50
100
AcDbSymbolTableRecord
100
AcDbLayerTableRecord
2
0
70
0
62
7
6
CONTINUOUS
0
ENDTAB
0
TABLE
2
STYLE
5
3
100
AcDbSymbolTable
70
1
0
STYLE
5
11
100
AcDbSymbolTableRecord
100
AcDbTextStyleTableRecord
2
STANDARD
70
0
0
ENDTAB
0
TABLE
2
VIEW
5
6
100
AcDbSymbolTable
70
0
0
ENDTAB
0
TABLE
2
UCS
5
7
100
AcDbSymbolTable
70
0
0
ENDTAB
0
TABLE
2
APPID
5
9
100
AcDbSymbolTable
70
2
0
APPID
5
12
100
AcDbSymbolTableRecord
100
AcDbRegAppTableRecord
2
ACAD
70
0
0
ENDTAB
0
TABLE
2
DIMSTYLE
5
A
100
AcDbSymbolTable
70
1
0
ENDTAB
0
TABLE
2
BLOCK_RECORD
5
1
100
AcDbSymbolTable
70
1
0
BLOCK_RECORD
5
1F
100
AcDbSymbolTableRecord
100
AcDbBlockTableRecord
2
*MODEL_SPACE
0
BLOCK_RECORD
5
1B
100
AcDbSymbolTableRecord
100
AcDbBlockTableRecord
2
*PAPER_SPACE
0
ENDTAB
0
ENDSEC
0
SECTION
2
BLOCKS
0
BLOCK
5
20
100
AcDbEntity
100
AcDbBlockBegin
2
*MODEL_SPACE
0
ENDBLK
5
21
100
AcDbEntity
100
AcDbBlockEnd
0
BLOCK
5
1C
100
AcDbEntity
100
AcDbBlockBegin
2
*PAPER_SPACE
0
ENDBLK
5
1D
100
AcDbEntity
100
AcDbBlockEnd
0
ENDSEC
0
SECTION
2
ENTITIES
0
LINE
5
100
100
AcDbEntity
8
0
100
AcDbLine
10
1532.1667728226248
20
175.04575190690673
30
0
11
1493.3365202617183
21
175.04575190692407
31
0
0
ARC
5
101
100
AcDbEntity
8
0
100
AcDbCircle
10
1491.336520261739
20
180.19157570980695
30
0
40
1.9999999999998863
210
-0
220
0
230
1
100
AcDbArc
50
0
51
108.90883270453772
0
LINE
5
102
100
AcDbEntity
8
0
100
AcDbLine
10
1493.3365202617183
20
175.04575190692407
30
0
11
1493.336520261739
21
180.19157570979894
31
0
0
ARC
5
103
100
AcDbEntity
8
0
100
AcDbCircle
10
1534.1667728226255
20
180.56329182462946
30
0
40
2.0000000000000302
210
0
220
-0
230
1
100
AcDbArc
50
81.057933974114661
51
180
0
LINE
5
104
100
AcDbEntity
8
0
100
AcDbLine
10
1447.1059832773383
20
85.111473442852628
30
0
11
1447.1059832773383
21
152.35092025746297
31
0
0
LINE
5
105
100
AcDbEntity
8
0
100
AcDbLine
10
1535.8681312053882
20
182.27622259202974
30
0
11
1588.9864114146444
21
170.33457653245293
31
0
0
ARC
5
106
100
AcDbEntity
8
0
100
AcDbCircle
10
1455.7031596859852
20
165.97236712343985
30
0
40
2.0000031784794721
210
0
220
-0
230
1
100
AcDbArc
50
44.960930686335587
51
146.02416053466769
0
LINE
5
107
100
AcDbEntity
8
0
100
AcDbLine
10
1487.0882063462932
20
180.28865200057808
30
0
11
1478.2756375398608
21
174.04900547884353
31
0
0
SPLINE
5
108
100
AcDbEntity
8
0
100
AcDbSpline
70
0
71
3
72
14
73
10
74
0
42
0.000000001
43
0.0000000001
44
0.0000000001
40
0.00030592744441629652
40
0.00030592744441629652
40
0.00030592744441629652
40
0.00030592744441629652
40
0.42524123820044957
40
0.42524123820044957
40
0.42524123820044957
40
0.86139226277865255
40
0.86139226277865255
40
0.86139226277865255
40
1
40
1
40
1
40
1
10
1588.9864113698177
20
170.33457606203427
30
0
10
1591.1689123220513
20
169.84532551719397
30
0
10
1592.9374314561874
20
168.69316148330489
30
0
10
1594.2108405581394
20
167.36951345842363
30
0
10
1595.5078495107959
20
166.02133451435478
30
0
10
1596.526979388188
20
164.25795186983493
30
0
10
1596.9624630765113
20
162.21007181014542
30
0
10
1597.1042576601008
20
161.54327691497457
30
0
10
1597.1862387158512
20
160.83287407018588
30
0
10
1597.1862387158512
20
160.0908655708362
30
0
0
LINE
5
109
100
AcDbEntity
8
0
100
AcDbLine
10
1457.6294483415854
20
166.87381191620076
30
0
11
1457.1183395040393
21
167.38561826761077
31
0
0
CIRCLE
5
110
100
AcDbEntity
8
0
100
AcDbCircle
10
1537.9279880812646
20
177.86704981532358
30
0
40
1.2
210
0
220
0
230
1
0
CIRCLE
5
111
100
AcDbEntity
8
0
100
AcDbCircle
10
1591.5329241170566
20
63.64423058617632
30
0
40
1.2
210
0
220
0
230
1
0
LINE
5
112
100
AcDbEntity
8
0
100
AcDbLine
10
1496.5314221019369
20
57.943794132970687
30
0
11
1477.9375049429357
21
47.213056619553946
31
0
0
LINE
5
113
100
AcDbEntity
8
0
100
AcDbLine
10
1532.1667728226248
20
175.04575190690673
30
0
11
1532.1667728226253
21
180.56329182462974
31
0
0
CIRCLE
5
114
100
AcDbEntity
8
0
100
AcDbCircle
10
1591.8566681515981
20
164.22841230799449
30
0
40
1.2
210
0
220
0
230
1
0
SPLINE
5
115
100
AcDbEntity
8
0
100
AcDbSpline
70
0
71
3
72
14
73
10
74
0
42
0.000000001
43
0.0000000001
44
0.0000000001
40
0
40
0
40
0
40
0
40
0.47007901722014311
40
0.47007901722014311
40
0.47007901722014311
40
0.94729721732945216
40
0.94729721732945216
40
0.94729721732945216
40
1
40
1
40
1
40
1
10
1597.1862387158512
20
67.99116854257062
30
0
10
1597.1862387158512
20
65.41018911584456
30
0
10
1596.1947396307742
20
63.029841547864613
30
0
10
1594.5704013857996
20
61.250754113817543
30
0
10
1592.9300936017332
20
59.454175737588884
30
0
10
1590.625512911347
20
58.250276357032433
30
0
10
1588.045276696816
20
58.027863759163978
30
0
10
1587.760504176817
20
58.003316783341461
30
0
10
1587.4738458754427
20
57.990913805564333
30
0
10
1587.1859893618068
20
57.990913805564333
30
0
0
CIRCLE
5
116
100
AcDbEntity
8
0
100
AcDbCircle
10
1451.3829039933262
20
82.123442973356973
30
0
40
1.2
210
0
220
0
230
1
0
CIRCLE
5
117
100
AcDbEntity
8
0
100
AcDbCircle
10
1495.6245451486088
20
61.686056224528549
30
0
40
1.2
210
0
220
0
230
1
0
LINE
5
118
100
AcDbEntity
8
0
100
AcDbLine
10
1449.5917397982882
20
160.48239461545342
30
0
11
1454.0446104505659
21
167.09005542865654
31
0
0
LINE
5
119
100
AcDbEntity
8
0
100
AcDbLine
10
1477.4313527886279
20
166.28673845584999
30
0
11
1477.4313527886279
21
172.41673029868309
31
0
0
SPLINE
5
120
100
AcDbEntity
8
0
100
AcDbSpline
70
0
71
3
72
11
73
7
74
0
42
0.000000001
43
0.0000000001
44
0.0000000001
40
0.35495894660622906
40
0.35495894660622906
40
0.35495894660622906
40
0.35495894660622906
40
0.53184469039110338
40
0.53184469039110338
40
0.53184469039110338
40
0.6307286939839517
40
0.6307286939839517
40
0.6307286939839517
40
0.6307286939839517
10
1496.7187946400522
20
57.990913805564404
30
0
10
1496.6575151836535
20
57.978964585791957
30
0
10
1496.5966374249545
20
57.963979035254951
30
0
10
1496.5877521839741
20
57.96148029086531
30
0
10
1496.5783943127133
20
57.958848631424118
30
0
10
1496.5566048564565
20
57.952256123970187
30
0
10
1496.5314221246833
20
57.943794116078919
30
0
0
SPLINE
5
121
100
AcDbEntity
8
0
100
AcDbSpline
70
0
71
3
72
17
73
13
74
0
42
0.000000001
43
0.0000000001
44
0.0000000001
40
0.00013729868904704292
40
0.00013729868904704292
40
0.00013729868904704292
40
0.00013729868904704292
40
0.46850879666947803
40
0.46850879666947803
40
0.46850879666947803
40
0.94962922189638044
40
0.94962922189638044
40
0.94962922189638044
40
1
40
1
40
1
40
1.0001437314604993
40
1.0001437314604993
40
1.0001437314604993
40
1.0001437314604993
10
1477.9375047040705
20
47.213056592431393
30
0
10
1475.7078156176512
20
45.925479161722613
30
0
10
1473.1543981626173
20
45.590831957087623
30
0
10
1470.7996913862892
20
46.108433246056073
30
0
10
1468.3940019533984
20
46.637241318398601
30
0
10
1466.1836561529017
20
48.058470065389649
30
0
10
1464.7058989021116
20
50.211238473374635
30
0
10
1464.5514239839008
20
50.436274570184452
30
0
10
1464.4057824254987
20
50.668191482689977
30
0
10
1464.2694423147732
20
50.906567898766326
30
0
10
1464.2691697808107
20
50.907044395880021
30
0
10
1464.2688972468482
20
50.907520892993432
30
0
10
1464.268624712875
20
50.907997390125743
30
0
0
LINE
5
122
100
AcDbEntity
8
0
100
AcDbLine
10
1459.0445908463516
20
166.28706081468772
30
0
11
1477.4313527886279
21
166.28673845584999
31
0
0
SPLINE
5
123
100
AcDbEntity
8
0
100
AcDbSpline
70
0
71
3
72
17
73
13
74
0
42
0.000000001
43
0.0000000001
44
0.0000000001
40
0.75859060382698729
40
0.75859060382698729
40
0.75859060382698729
40
0.75859060382698729
40
0.85611647121063061
40
0.85611647121063061
40
0.85611647121063061
40
0.98795341962431782
40
0.98795341962431782
40
0.98795341962431782
40
1.0008140918953758
40
1.0008140918953758
40
1.0008140918953758
40
1.0013025470586079
40
1.0013025470586079
40
1.0013025470586079
40
1.0013025470586079
10
1534.4776442282341
20
182.53898394570433
30
0
10
1534.6612495908539
20
182.5100939903254
30
0
10
1534.845984816784
20
182.47898030479121
30
0
10
1535.0320372464125
20
182.44521928550569
30
0
10
1535.2835457459032
20
182.39958062699031
30
0
10
1535.5373719624833
20
182.34909549874942
30
0
10
1535.7936325500532
20
182.2927524228966
30
0
10
1535.8186307275168
20
182.28725616526924
30
0
10
1535.8527673751826
20
182.27965934658869
30
0
10
1535.8665597005352
20
182.27657421298275
30
0
10
1535.8670835403932
20
182.27645703796625
30
0
10
1535.8676073802519
20
182.27633986294975
30
0
10
1535.8681312201206
20
182.27622268793084
30
0
0
LINE
5
124
100
AcDbEntity
8
0
100
AcDbLine
10
1597.1862387606782
20
160.09086604125486
30
0
11
1597.186238760678
21
67.991168559462409
31
0
0
LINE
5
125
100
AcDbEntity
8
0
100
AcDbLine
10
1587.1859894066336
20
57.990913822456172
30
0
11
1496.7187946173058
21
57.990913822456172
31
0
0
CIRCLE
5
126
100
AcDbEntity
8
0
100
AcDbCircle
10
1471.3406513796747
20
49.939443303275795
30
0
40
1.2
210
0
220
0
230
1
0
SPLINE
5
127
100
AcDbEntity
8
0
100
AcDbSpline
70
0
71
3
72
14
73
10
74
0
42
0.000000001
43
0.0000000001
44
0.0000000001
40
-0.00022330394316748676
40
-0.00022330394316748676
40
-0.00022330394316748676
40
-0.00022330394316748676
40
0
40
0
40
0
40
0.41562434359876882
40
0.41562434359876882
40
0.41562434359876882
40
0.45684553679617745
40
0.45684553679617745
40
0.45684553679617745
40
0.45684553679617745
10
1487.0882063462905
20
180.28865200057695
30
0
10
1487.0886934462212
20
180.28899583732269
30
0
10
1487.0891805461479
20
180.28933967406539
30
0
10
1487.0896676460732
20
180.28968351080687
30
0
10
1488.2557464571464
20
181.11280155712541
30
0
10
1489.3971631926777
20
181.61785293535004
30
0
10
1490.3833412857189
20
181.97599724546359
30
0
10
1490.484206581637
20
182.01262788254226
30
0
10
1490.5858844206616
20
182.04853209534079
30
0
10
1490.6883937364278
20
182.0836465349052
30
0
0
CIRCLE
5
128
100
AcDbEntity
8
0
100
AcDbCircle
10
1451.4622322983087
20
155.46491342079116
30
0
40
1.2
210
0
220
0
230
1
0
ARC
5
129
100
AcDbEntity
8
0
100
AcDbCircle
10
1459.0446259105829
20
168.28706081438071
30
0
40
2.0000000000001901
210
0
220
0
230
1
100
AcDbArc
50
224.96093068634806
51
269.99899548376817
0
SPLINE
5
130
100
AcDbEntity
8
0
100
AcDbSpline
70
0
71
3
72
14
73
10
74
0
42
0.000000001
43
0.0000000001
44
0.0000000001
40
0.0005081523737224525
40
0.0005081523737224525
40
0.0005081523737224525
40
0.0005081523737224525
40
0.42285163248066354
40
0.42285163248066354
40
0.42285163248066354
40
0.86427712434814774
40
0.86427712434814774
40
0.86427712434814774
40
1
40
1
40
1
40
1
10
1449.1505497768082
20
77.407834160772495
30
0
10
1448.4962394301876
20
78.552736315131142
30
0
10
1448.1035768879196
20
79.636817124127504
30
0
10
1447.8191119294029
20
80.589051601120829
30
0
10
1447.5133244989604
20
81.612662155535318
30
0
10
1447.2743823254882
20
82.706443794452298
30
0
10
1447.1639377799249
20
83.896242364481068
30
0
10
1447.1294524178836
20
84.26774676277013
30
0
10
1447.1059834405494
20
84.674104561606072
30
0
10
1447.1059834405494
20
85.111473667489008
30
0
0
ARC
5
131
100
AcDbEntity
8
0
100
AcDbCircle
10
1479.4313527886286
20
172.41673029868281
30
0
40
2.0000000000007265
210
0
220
0
230
1
100
AcDbArc
50
125.30000000001233
51
180
0
SPLINE
5
132
100
AcDbEntity
8
0
100
AcDbSpline
70
0
71
3
72
14
73
10
74
0
42
0.000000001
43
0.0000000001
44
0.0000000001
40
0
40
0
40
0
40
0
40
0.41555322172629761
40
0.41555322172629761
40
0.41555322172629761
40
0.84943484198512353
40
0.84943484198512353
40
0.84943484198512353
40
1
40
1
40
1
40
1
10
1447.1059834405494
20
152.35092026511779
30
0
10
1447.1059834405494
20
153.75183751188843
30
0
10
1447.3398255625812
20
154.95288856832843
30
0
10
1447.6025951810354
20
155.95097911411088
30
0
10
1447.8856245786765
20
157.02602335866899
30
0
10
1448.2793457393618
20
158.12701919130973
30
0
10
1448.853724656773
20
159.23478724229511
30
0
10
1449.0557682217698
20
159.62445580328512
30
0
10
1449.2975219546681
20
160.04614523039194
30
0
10
1449.5917399614993
20
160.48239462310832
30
0
0
LINE
5
133
100
AcDbEntity
8
0
100
AcDbLine
10
1464.2686249517401
20
50.907997417248296
30
0
11
1449.1505496135971
21
77.407833936136143
31
0
0
ENDSEC
0
SECTION
2
OBJECTS
0
DICTIONARY
5
C
100
AcDbDictionary
3
ACAD_GROUP
350
D
3
ACAD_MLINESTYLE
350
17
0
DICTIONARY
5
D
100
AcDbDictionary
0
DICTIONARY
5
1A
330
C
100
AcDbDictionary
0
DICTIONARY
5
17
100
AcDbDictionary
0
ENDSEC
0
EOF
