0
SECTION
2
HEADER
9
$INSUNITS
70
4
9
$ACADVER
1
AC1014
9
$HANDSEED
5
FFFF
0
ENDSEC
0
SECTION
2
TABLES
0
TABLE
2
VPORT
5
8
100
AcDbSymbolTable
0
ENDTAB
0
TABLE
2
LTYPE
5
5
100
AcDbSymbolTable
0
LTYPE
5
14
100
AcDbSymbolTableRecord
100
AcDbLinetypeTableRecord
2
BYBLOCK
70
0
0
LTYPE
5
15
100
AcDbSymbolTableRecord
100
AcDbLinetypeTableRecord
2
BYLAYER
70
0
0
LTYPE
5
16
100
AcDbSymbolTableRecord
100
AcDbLinetypeTableRecord
2
DASHED
70
0
3
Dashed __ __ __ __ __ __ __ __ __ __ __ __ __ _
72
65
73
2
40
0.75
49
0.5
74
0
49
-0.25
74
0
0
ENDTAB
0
TABLE
2
LAYER
5
2
100
AcDbSymbolTable
70
2
0
LAYER
5
50
100
AcDbSymbolTableRecord
100
AcDbLayerTableRecord
2
0
70
0
62
7
6
CONTINUOUS
0
ENDTAB
0
TABLE
2
STYLE
5
3
100
AcDbSymbolTable
70
1
0
STYLE
5
11
100
AcDbSymbolTableRecord
100
AcDbTextStyleTableRecord
2
STANDARD
70
0
0
ENDTAB
0
TABLE
2
VIEW
5
6
100
AcDbSymbolTable
70
0
0
ENDTAB
0
TABLE
2
UCS
5
7
100
AcDbSymbolTable
70
0
0
ENDTAB
0
TABLE
2
APPID
5
9
100
AcDbSymbolTable
70
2
0
APPID
5
12
100
AcDbSymbolTableRecord
100
AcDbRegAppTableRecord
2
ACAD
70
0
0
ENDTAB
0
TABLE
2
DIMSTYLE
5
A
100
AcDbSymbolTable
70
1
0
ENDTAB
0
TABLE
2
BLOCK_RECORD
5
1
100
AcDbSymbolTable
70
1
0
BLOCK_RECORD
5
1F
100
AcDbSymbolTableRecord
100
AcDbBlockTableRecord
2
*MODEL_SPACE
0
BLOCK_RECORD
5
1B
100
AcDbSymbolTableRecord
100
AcDbBlockTableRecord
2
*PAPER_SPACE
0
ENDTAB
0
ENDSEC
0
SECTION
2
BLOCKS
0
BLOCK
5
20
100
AcDbEntity
100
AcDbBlockBegin
2
*MODEL_SPACE
0
ENDBLK
5
21
100
AcDbEntity
100
AcDbBlockEnd
0
BLOCK
5
1C
100
AcDbEntity
100
AcDbBlockBegin
2
*PAPER_SPACE
0
ENDBLK
5
1D
100
AcDbEntity
100
AcDbBlockEnd
0
ENDSEC
0
SECTION
2
ENTITIES
0
LINE
5
100
100
AcDbEntity
8
0
100
AcDbLine
10
1295.336753390945
20
-174.59246649890287
30
0
11
1330.1665072666774
21
-174.59246649890287
31
0
0
LINE
5
101
100
AcDbEntity
8
0
100
AcDbLine
10
1387.1859892858897
20
-284.50908627658202
30
0
11
1296.4727090319498
21
-284.50908627658208
31
0
0
LINE
5
102
100
AcDbEntity
8
0
100
AcDbLine
10
1387.1859892858897
20
-292.00908627658202
30
0
11
1296.7187945641351
21
-292.00908627658202
31
0
0
LINE
5
103
100
AcDbEntity
8
0
100
AcDbLine
10
1295.336753390945
20
-167.09246649890289
30
0
11
1330.1665072666774
21
-167.09246649890289
31
0
0
SPLINE
5
104
100
AcDbEntity
8
0
100
AcDbSpline
70
0
71
3
72
14
73
10
74
0
42
0.000000001
43
0.0000000001
44
0.0000000001
40
0.00030592744441629652
40
0.00030592744441629652
40
0.00030592744441629652
40
0.00030592744441629652
40
0.42524123820044957
40
0.42524123820044957
40
0.42524123820044957
40
0.86139226277865255
40
0.86139226277865255
40
0.86139226277865255
40
1
40
1
40
1
40
1
10
1388.9864112939008
20
-179.66542402011186
30
0
10
1391.1689122461344
20
-180.15467456495216
30
0
10
1392.9374313802705
20
-181.30683859884124
30
0
10
1394.2108404822225
20
-182.6304866237225
30
0
10
1395.5078494348791
20
-183.97866556779135
30
0
10
1396.5269793122709
20
-185.74204821231123
30
0
10
1396.9624630005944
20
-187.78992827200068
30
0
10
1397.1042575841839
20
-188.45672316717153
30
0
10
1397.1862386399343
20
-189.16712601196022
30
0
10
1397.1862386399343
20
-189.90913451130993
30
0
0
SPLINE
5
105
100
AcDbEntity
8
0
100
AcDbSpline
70
0
71
3
72
11
73
7
74
0
42
0.000000001
43
0.0000000001
44
0.0000000001
40
6.5548420699503259e-05
40
6.5548420699503259e-05
40
6.5548420699503259e-05
40
6.5548420699503259e-05
40
0.83908153091422077
40
0.83908153091422077
40
0.83908153091422077
40
1
40
1
40
1
40
1
10
1387.3447849415925
20
-186.98355676343647
30
0
10
1388.4628308571978
20
-187.23376132305896
30
0
10
1389.3371185895205
20
-188.16737659713067
30
0
10
1389.6063825700999
20
-189.26220045166724
30
0
10
1389.6580258622885
20
-189.4721814082481
30
0
10
1389.6862386399343
20
-189.68920856015109
30
0
10
1389.6862386399343
20
-189.90913451130984
30
0
0
SPLINE
5
106
100
AcDbEntity
8
0
100
AcDbSpline
70
0
71
3
72
14
73
10
74
0
42
0.000000001
43
0.0000000001
44
0.0000000001
40
0
40
0
40
0
40
0
40
0.41555322172629761
40
0.41555322172629761
40
0.41555322172629761
40
0.84943484198512353
40
0.84943484198512353
40
0.84943484198512353
40
1
40
1
40
1
40
1
10
1247.1059833646323
20
-197.64907981702831
30
0
10
1247.1059833646323
20
-196.24816257025768
30
0
10
1247.339825486664
20
-195.04711151381767
30
0
10
1247.6025951051181
20
-194.04902096803525
30
0
10
1247.8856245027591
20
-192.97397672347711
30
0
10
1248.2793456634447
20
-191.87298089083637
30
0
10
1248.8537245808559
20
-190.76521283985102
30
0
10
1249.0557681458527
20
-190.37554427886101
30
0
10
1249.297521878751
20
-189.95385485175422
30
0
10
1249.591739885582
20
-189.51760545903778
30
0
0
SPLINE
5
107
100
AcDbEntity
8
0
100
AcDbSpline
70
0
71
3
72
11
73
7
74
0
42
0.000000001
43
0.0000000001
44
0.0000000001
40
0
40
0
40
0
40
0
40
1
40
1
40
1
40
1.0000814091900181
40
1.0000814091900181
40
1.0000814091900181
40
1.0000814091900181
10
1330.1665072666774
20
-174.59246649890287
30
0
10
1331.3270013072006
20
-174.59246649890287
30
0
10
1333.096501517226
20
-174.78914672666951
30
0
10
1334.2267624964611
20
-175.04196893332178
30
0
10
1334.226849803104
20
-175.04198846249119
30
0
10
1334.2269371097461
20
-175.04200799166034
30
0
10
1334.2270244163415
20
-175.0420275208192
30
0
0
SPLINE
5
108
100
AcDbEntity
8
0
100
AcDbSpline
70
0
71
3
72
11
73
7
74
0
42
0.000000001
43
0.0000000001
44
0.0000000001
40
0
40
0
40
0
40
0
40
0.84632527465264906
40
0.84632527465264906
40
0.84632527465264906
40
1
40
1
40
1
40
1
10
1254.605983364632
20
-197.64907981702828
30
0
10
1254.605983364632
20
-196.58825805936436
30
0
10
1254.9815508751433
20
-195.24540289883547
30
0
10
1255.5061415407085
20
-194.22869323289547
30
0
10
1255.6013960827445
20
-194.0440803147294
30
0
10
1255.7023055732363
20
-193.87052607959532
30
0
10
1255.8097590464681
20
-193.71120030294574
30
0
0
CIRCLE
5
109
100
AcDbEntity
8
0
100
AcDbCircle
10
1391.8566681515977
20
-185.77158769200551
30
0
40
1.2
210
0
220
0
230
1
0
LINE
5
110
100
AcDbEntity
8
0
100
AcDbLine
10
1334.2270244164899
20
-175.04202752085223
30
0
11
1387.344784944401
21
-186.98355674963963
31
0
0
CIRCLE
5
111
100
AcDbEntity
8
0
100
AcDbCircle
10
1337.9279880812646
20
-172.13295018467642
30
0
40
1.2
210
0
220
0
230
1
0
SPLINE
5
112
100
AcDbEntity
8
0
100
AcDbSpline
70
0
71
3
72
8
73
4
74
0
42
0.000000001
43
0.0000000001
44
0.0000000001
40
0
40
0
40
0
40
0
40
1
40
1
40
1
40
1
10
1389.6862386399343
20
-282.00883153957579
30
0
10
1389.6862386399343
20
-283.38193272598375
30
0
10
1388.5590935227078
20
-284.50908627658202
30
0
10
1387.1859892858897
20
-284.50908627658202
30
0
0
SPLINE
5
113
100
AcDbEntity
8
0
100
AcDbSpline
70
0
71
3
72
20
73
16
74
0
42
0.000000001
43
0.0000000001
44
0.0000000001
40
0
40
0
40
0
40
0
40
0.53021057109319303
40
0.53021057109319303
40
0.53021057109319303
40
0.85611647121063061
40
0.85611647121063061
40
0.85611647121063061
40
0.98795341962431782
40
0.98795341962431782
40
0.98795341962431782
40
1.0008140918953758
40
1.0008140918953758
40
1.0008140918953758
40
1.0013025470586079
40
1.0013025470586079
40
1.0013025470586079
40
1.0013025470586079
10
1330.1665072666774
20
-167.09246649890289
30
0
10
1331.2265561374684
20
-167.09246649890289
30
0
10
1332.2312407197205
20
-167.17639564297869
30
0
10
1333.203959063635
20
-167.28920137354606
30
0
10
1333.8032697048666
20
-167.35870317244172
30
0
10
1334.4102986905025
20
-167.44196031450258
30
0
10
1335.0320371704956
20
-167.55478079664044
30
0
10
1335.2835456699861
20
-167.60041945515582
30
0
10
1335.5373718865665
20
-167.65090458339671
30
0
10
1335.7936324741358
20
-167.70724765924953
30
0
10
1335.8186306515997
20
-167.71274391687689
30
0
10
1335.8527672992655
20
-167.72034073555744
30
0
10
1335.866559624618
20
-167.72342586916338
30
0
10
1335.8670834644763
20
-167.72354304417988
30
0
10
1335.8676073043348
20
-167.72366021919638
30
0
10
1335.8681311442035
20
-167.72377739421529
30
0
0
LINE
5
114
100
AcDbEntity
8
0
100
AcDbLine
10
1255.8097590464683
20
-193.71120030294571
30
0
11
1261.6197069956308
21
-185.08975934851307
31
0
0
CIRCLE
5
115
100
AcDbEntity
8
0
100
AcDbCircle
10
1391.5329241170562
20
-286.35576941382374
30
0
40
1.2
210
0
220
0
230
1
0
SPLINE
5
116
100
AcDbEntity
8
0
100
AcDbSpline
70
0
71
3
72
11
73
7
74
0
42
0.000000001
43
0.0000000001
44
0.0000000001
40
0
40
0
40
0
40
0
40
0.83878329569131993
40
0.83878329569131993
40
0.83878329569131993
40
1
40
1
40
1
40
1
10
1279.1513179898761
20
-183.2108277176732
30
0
10
1279.9428050516515
20
-183.2108277176732
30
0
10
1281.2184187014348
20
-182.86160805421645
30
0
10
1282.0630752933671
20
-182.4121917043999
30
0
10
1282.2254208631025
20
-182.32581251307354
30
0
10
1282.3722191814381
20
-182.23654703734229
30
0
10
1282.4965823561165
20
-182.14876088395067
30
0
0
SPLINE
5
117
100
AcDbEntity
8
0
100
AcDbSpline
70
0
71
3
72
11
73
7
74
0
42
0.000000001
43
0.0000000001
44
0.0000000001
40
0.35495894660622906
40
0.35495894660622906
40
0.35495894660622906
40
0.35495894660622906
40
0.53184469039110338
40
0.53184469039110338
40
0.53184469039110338
40
0.6307286939839517
40
0.6307286939839517
40
0.6307286939839517
40
0.6307286939839517
10
1296.7187945641351
20
-292.00908627658191
30
0
10
1296.6575151077361
20
-292.02103549635439
30
0
10
1296.5966373490371
20
-292.03602104689134
30
0
10
1296.587752108057
20
-292.03851979128103
30
0
10
1296.5783942367962
20
-292.04115145072217
30
0
10
1296.5566047805394
20
-292.04774395817617
30
0
10
1296.5314220487664
20
-292.05620596606741
30
0
0
LINE
5
118
100
AcDbEntity
8
0
100
AcDbLine
10
1278.6104562274966
20
-175.71082771767323
30
0
11
1287.0882062703758
21
-169.71134808156805
31
0
0
LINE
5
119
100
AcDbEntity
8
0
100
AcDbLine
10
1389.6862386399343
20
-189.90913451130984
30
0
11
1389.6862386399343
21
-282.00883153957579
31
0
0
SPLINE
5
120
100
AcDbEntity
8
0
100
AcDbSpline
70
0
71
3
72
14
73
10
74
0
42
0.000000001
43
0.0000000001
44
0.0000000001
40
0.0004676471245364543
40
0.0004676471245364543
40
0.0004676471245364543
40
0.0004676471245364543
40
0.40699028356557293
40
0.40699028356557293
40
0.40699028356557293
40
0.82690897814119801
40
0.82690897814119801
40
0.82690897814119801
40
1
40
1
40
1
40
1
10
1255.397495267712
20
-180.90238673433561
30
0
10
1256.4250353707396
20
-179.37470512987247
30
0
10
1257.6987802102444
20
-178.32853462287275
30
0
10
1258.8261366206327
20
-177.61537925383323
30
0
10
1260.0160333893236
20
-176.86266142531395
30
0
10
1261.3980017226977
20
-176.25658811629876
30
0
10
1262.9533276426505
20
-175.9377384541996
30
0
10
1263.607113502208
20
-175.8037090538464
30
0
10
1264.3476485332626
20
-175.71082771767323
30
0
10
1265.1530983514758
20
-175.71082771767323
30
0
0
SPLINE
5
121
100
AcDbEntity
8
0
100
AcDbSpline
70
0
71
3
72
11
73
7
74
0
42
0.000000001
43
0.0000000001
44
0.0000000001
40
7.3938954816923832e-05
40
7.3938954816923832e-05
40
7.3938954816923832e-05
40
7.3938954816923832e-05
40
0.88979283506975204
40
0.88979283506975204
40
0.88979283506975204
40
1
40
1
40
1
40
1
10
1255.663128302808
20
-268.87244455802175
30
0
10
1255.1165431649094
20
-267.91667540345242
30
0
10
1254.7137039036197
20
-266.47677960653238
30
0
10
1254.6232171619658
20
-265.30948735775701
30
0
10
1254.6120088046914
20
-265.16489790377966
30
0
10
1254.6059833646323
20
-265.0243218798044
30
0
10
1254.6059833646323
20
-264.88852641465724
30
0
0
LINE
5
122
100
AcDbEntity
8
0
100
AcDbLine
10
1270.7797945054376
20
-295.36981655270381
30
0
11
1255.6631282951462
21
-268.87244456131282
31
0
0
SPLINE
5
123
100
AcDbEntity
8
0
100
AcDbSpline
70
0
71
3
72
14
73
10
74
0
42
0.000000001
43
0.0000000001
44
0.0000000001
40
0
40
0
40
0
40
0
40
0.47007901722014311
40
0.47007901722014311
40
0.47007901722014311
40
0.94729721732945216
40
0.94729721732945216
40
0.94729721732945216
40
1
40
1
40
1
40
1
10
1397.1862386399343
20
-282.00883153957568
30
0
10
1397.1862386399343
20
-284.58981096630174
30
0
10
1396.1947395548573
20
-286.97015853428172
30
0
10
1394.5704013098828
20
-288.74924596832875
30
0
10
1392.9300935258163
20
-290.54582434455745
30
0
10
1390.6255128354296
20
-291.74972372511382
30
0
10
1388.0452766208987
20
-291.97213632298229
30
0
10
1387.7605041008997
20
-291.9966832988049
30
0
10
1387.4738457995261
20
-292.00908627658202
30
0
10
1387.1859892858897
20
-292.00908627658202
30
0
0
LINE
5
124
100
AcDbEntity
8
0
100
AcDbLine
10
1397.1862386399343
20
-189.9091345113099
30
0
11
1397.1862386399343
21
-282.00883153957568
31
0
0
LINE
5
125
100
AcDbEntity
8
0
100
AcDbLine
10
1264.2686246369581
20
-299.09200269202051
30
0
11
1249.1505492903411
21
-272.59216615827944
31
0
0
LINE
5
126
100
AcDbEntity
8
0
100
AcDbLine
10
1247.1059833646323
20
-264.88852641465724
30
0
11
1247.1059833646323
21
-197.64907981702831
31
0
0
CIRCLE
5
127
100
AcDbEntity
8
0
100
AcDbCircle
10
1251.382903993326
20
-267.87655702664313
30
0
40
1.2
210
0
220
0
230
1
0
SPLINE
5
128
100
AcDbEntity
8
0
100
AcDbSpline
70
0
71
3
72
8
73
4
74
0
42
0.000000001
43
0.0000000001
44
0.0000000001
40
3.0238697656692254e-05
40
3.0238697656692254e-05
40
3.0238697656692254e-05
40
3.0238697656692254e-05
40
1
40
1
40
1
40
1
10
1274.1872927039813
20
-296.29187526160547
30
0
10
1272.9987916981238
20
-296.97848163308328
30
0
10
1271.4615083125593
20
-296.56172180543524
30
0
10
1270.7797945054376
20
-295.36981655270381
30
0
0
LINE
5
129
100
AcDbEntity
8
0
100
AcDbLine
10
1296.5314220487664
20
-292.05620596606741
30
0
11
1277.9375046893958
21
-302.78694359511917
31
0
0
CIRCLE
5
130
100
AcDbEntity
8
0
100
AcDbCircle
10
1251.4622322983084
20
-194.53508657920889
30
0
40
1.2
210
0
220
0
230
1
0
SPLINE
5
131
100
AcDbEntity
8
0
100
AcDbSpline
70
0
71
3
72
14
73
10
74
0
42
0.000000001
43
0.0000000001
44
0.0000000001
40
0.0005081523737224525
40
0.0005081523737224525
40
0.0005081523737224525
40
0.0005081523737224525
40
0.42285163248066354
40
0.42285163248066354
40
0.42285163248066354
40
0.86427712434814774
40
0.86427712434814774
40
0.86427712434814774
40
1
40
1
40
1
40
1
10
1249.1505497008911
20
-272.59216592137375
30
0
10
1248.4962393542705
20
-271.44726376701516
30
0
10
1248.1035768120023
20
-270.3631829580188
30
0
10
1247.8191118534858
20
-269.41094848102546
30
0
10
1247.5133244230433
20
-268.38733792661094
30
0
10
1247.2743822495709
20
-267.293556287694
30
0
10
1247.1639377040078
20
-266.10375771766519
30
0
10
1247.1294523419665
20
-265.73225331937613
30
0
10
1247.1059833646323
20
-265.32589552054026
30
0
10
1247.1059833646323
20
-264.88852641465724
30
0
0
SPLINE
5
132
100
AcDbEntity
8
0
100
AcDbSpline
70
0
71
3
72
17
73
13
74
0
42
0.000000001
43
0.0000000001
44
0.0000000001
40
-0.00022330394316748676
40
-0.00022330394316748676
40
-0.00022330394316748676
40
-0.00022330394316748676
40
0
40
0
40
0
40
0.41562434359876882
40
0.41562434359876882
40
0.41562434359876882
40
0.84958604214270517
40
0.84958604214270517
40
0.84958604214270517
40
1
40
1
40
1
40
1
10
1287.0882062703731
20
-169.71134808156918
30
0
10
1287.0886933703041
20
-169.71100424482344
30
0
10
1287.0891804702308
20
-169.71066040808074
30
0
10
1287.0896675701558
20
-169.71031657133926
30
0
10
1288.2557463812293
20
-168.88719852502072
30
0
10
1289.3971631167606
20
-168.38214714679609
30
0
10
1290.3833412098015
20
-168.02400283668254
30
0
10
1291.4452142839577
20
-167.63836883988688
30
0
10
1292.5971424125551
20
-167.33324525244262
30
0
10
1293.8612171631573
20
-167.18254697097132
30
0
10
1294.305723534419
20
-167.12955457774433
30
0
10
1294.800210847819
20
-167.09246649890289
30
0
10
1295.336753390945
20
-167.09246649890289
30
0
0
SPLINE
5
133
100
AcDbEntity
8
0
100
AcDbSpline
70
0
71
3
72
17
73
13
74
0
42
0.000000001
43
0.0000000001
44
0.0000000001
40
0.00013729868904704292
40
0.00013729868904704292
40
0.00013729868904704292
40
0.00013729868904704292
40
0.46850879666947803
40
0.46850879666947803
40
0.46850879666947803
40
0.94962922189638044
40
0.94962922189638044
40
0.94962922189638044
40
1
40
1
40
1
40
1.0001437314604993
40
1.0001437314604993
40
1.0001437314604993
40
1.0001437314604993
10
1277.9375046281532
20
-302.78694348971493
30
0
10
1275.7078155417341
20
-304.07452092042377
30
0
10
1273.1543980867002
20
-304.40916812505873
30
0
10
1270.7996913103718
20
-303.89156683609031
30
0
10
1268.3940018774811
20
-303.36275876374776
30
0
10
1266.1836560769846
20
-301.9415300167567
30
0
10
1264.7058988261942
20
-299.78876160877172
30
0
10
1264.5514239079835
20
-299.56372551196188
30
0
10
1264.4057823495814
20
-299.33180859945639
30
0
10
1264.2694422388561
20
-299.09343218338
30
0
10
1264.2691697048936
20
-299.09295568626635
30
0
10
1264.268897170931
20
-299.09247918915293
30
0
10
1264.2686246369581
20
-299.09200269202051
30
0
0
SPLINE
5
134
100
AcDbEntity
8
0
100
AcDbSpline
70
0
71
3
72
11
73
7
74
0
42
0.000000001
43
0.0000000001
44
0.0000000001
40
0
40
0
40
0
40
0
40
0.83878329569136101
40
0.83878329569136101
40
0.83878329569136101
40
1
40
1
40
1
40
1
10
1291.4148041476903
20
-175.8375666548329
30
0
10
1292.2768672669542
20
-175.2290488567275
30
0
10
1293.5749829807717
20
-174.77813432617879
30
0
10
1294.7054541336847
20
-174.6351677190865
30
0
10
1294.9227341326127
20
-174.60768910173684
30
0
10
1295.1339884653562
20
-174.59246649890287
30
0
10
1295.336753390945
20
-174.59246649890287
30
0
0
LINE
5
135
100
AcDbEntity
8
0
100
AcDbLine
10
1249.591739885582
20
-189.51760545903781
30
0
11
1255.3974944630263
21
-180.90238619754217
31
0
0
LINE
5
136
100
AcDbEntity
8
0
100
AcDbLine
10
1265.1530983514758
20
-175.71082771767323
30
0
11
1278.6104562274966
21
-175.71082771767323
31
0
0
LINE
5
137
100
AcDbEntity
8
0
100
AcDbLine
10
1335.8681311442035
20
-167.72377739421529
30
0
11
1388.9864114146444
21
-179.66542346754707
31
0
0
LINE
5
138
100
AcDbEntity
8
0
100
AcDbLine
10
1282.4965823561165
20
-182.14876088395067
30
0
11
1291.4148041477019
21
-175.83756665482463
31
0
0
LINE
5
139
100
AcDbEntity
8
0
100
AcDbLine
10
1265.1530983514758
20
-183.2108277176732
30
0
11
1279.1513179898761
21
-183.2108277176732
31
0
0
CIRCLE
5
140
100
AcDbEntity
8
0
100
AcDbCircle
10
1295.6245451486086
20
-288.31394377547156
30
0
40
1.2
210
0
220
0
230
1
0
SPLINE
5
141
100
AcDbEntity
8
0
100
AcDbSpline
70
0
71
3
72
11
73
7
74
0
42
0.000000001
43
0.0000000001
44
0.0000000001
40
9.0036162567467575e-05
40
9.0036162567467575e-05
40
9.0036162567467575e-05
40
9.0036162567467575e-05
40
0.76093182100186874
40
0.76093182100186874
40
0.76093182100186874
40
1
40
1
40
1
40
1
10
1261.6197070135647
20
-185.08975936129599
30
0
10
1262.183249483227
20
-184.25112142830781
30
0
10
1263.1801030516485
20
-183.62531899931179
30
0
10
1264.194929926412
20
-183.34825321321421
30
0
10
1264.5138041231012
20
-183.26119488615475
30
0
10
1264.8360717815035
20
-183.2108277176732
30
0
10
1265.1530983514756
20
-183.2108277176732
30
0
0
SPLINE
5
142
100
AcDbEntity
8
0
100
AcDbSpline
70
0
71
3
72
14
73
10
74
0
42
0.000000001
43
0.0000000001
44
0.0000000001
40
0
40
0
40
0
40
0
40
0.88837939672386546
40
0.88837939672386546
40
0.88837939672386546
40
1
40
1
40
1
40
1.0000381022571909
40
1.0000381022571909
40
1.0000381022571909
40
1.0000381022571909
10
1296.47270903195
20
-284.50908627658208
30
0
10
1295.615438776264
20
-284.50908627658208
30
0
10
1294.1926329067771
20
-284.85354936506428
30
0
10
1293.2996290400863
20
-285.27887549115212
30
0
10
1293.1874273943754
20
-285.33231567555777
30
0
10
1293.0835407536115
20
-285.38659704143845
30
0
10
1292.9904646573175
20
-285.44037462206029
30
0
10
1292.9904283651654
20
-285.44039559096865
30
0
10
1292.990392073013
20
-285.44041655987718
30
0
10
1292.9903557808589
20
-285.44043752878673
30
0
0
LINE
5
143
100
AcDbEntity
8
0
100
AcDbLine
10
1292.9903557808118
20
-285.44043752881407
30
0
11
1274.1872927056172
21
-296.29187526421617
31
0
0
LINE
5
144
100
AcDbEntity
8
0
100
AcDbLine
10
1254.6059833646323
20
-264.88852641465724
30
0
11
1254.6059833646323
21
-197.64907981702828
31
0
0
CIRCLE
5
145
100
AcDbEntity
8
0
100
AcDbCircle
10
1271.3406513796745
20
-300.06055669672435
30
0
40
1.2
210
0
220
0
230
1
0
ENDSEC
0
SECTION
2
OBJECTS
0
DICTIONARY
5
C
100
AcDbDictionary
3
ACAD_GROUP
350
D
3
ACAD_MLINESTYLE
350
17
0
DICTIONARY
5
D
100
AcDbDictionary
0
DICTIONARY
5
1A
330
C
100
AcDbDictionary
0
DICTIONARY
5
17
100
AcDbDictionary
0
ENDSEC
0
EOF
