0
SECTION
2
HEADER
9
$INSUNITS
70
4
9
$ACADVER
1
AC1014
9
$HANDSEED
5
FFFF
0
ENDSEC
0
SECTION
2
TABLES
0
TABLE
2
VPORT
5
8
100
AcDbSymbolTable
0
ENDTAB
0
TABLE
2
LTYPE
5
5
100
AcDbSymbolTable
0
LTYPE
5
14
100
AcDbSymbolTableRecord
100
AcDbLinetypeTableRecord
2
BYBLOCK
70
0
0
LTYPE
5
15
100
AcDbSymbolTableRecord
100
AcDbLinetypeTableRecord
2
BYLAYER
70
0
0
LTYPE
5
16
100
AcDbSymbolTableRecord
100
AcDbLinetypeTableRecord
2
DASHED
70
0
3
Dashed __ __ __ __ __ __ __ __ __ __ __ __ __ _
72
65
73
2
40
0.75
49
0.5
74
0
49
-0.25
74
0
0
ENDTAB
0
TABLE
2
LAYER
5
2
100
AcDbSymbolTable
70
2
0
LAYER
5
50
100
AcDbSymbolTableRecord
100
AcDbLayerTableRecord
2
0
70
0
62
7
6
CONTINUOUS
0
ENDTAB
0
TABLE
2
STYLE
5
3
100
AcDbSymbolTable
70
1
0
STYLE
5
11
100
AcDbSymbolTableRecord
100
AcDbTextStyleTableRecord
2
STANDARD
70
0
0
ENDTAB
0
TABLE
2
VIEW
5
6
100
AcDbSymbolTable
70
0
0
ENDTAB
0
TABLE
2
UCS
5
7
100
AcDbSymbolTable
70
0
0
ENDTAB
0
TABLE
2
APPID
5
9
100
AcDbSymbolTable
70
2
0
APPID
5
12
100
AcDbSymbolTableRecord
100
AcDbRegAppTableRecord
2
ACAD
70
0
0
ENDTAB
0
TABLE
2
DIMSTYLE
5
A
100
AcDbSymbolTable
70
1
0
ENDTAB
0
TABLE
2
BLOCK_RECORD
5
1
100
AcDbSymbolTable
70
1
0
BLOCK_RECORD
5
1F
100
AcDbSymbolTableRecord
100
AcDbBlockTableRecord
2
*MODEL_SPACE
0
BLOCK_RECORD
5
1B
100
AcDbSymbolTableRecord
100
AcDbBlockTableRecord
2
*PAPER_SPACE
0
ENDTAB
0
ENDSEC
0
SECTION
2
BLOCKS
0
BLOCK
5
20
100
AcDbEntity
100
AcDbBlockBegin
2
*MODEL_SPACE
0
ENDBLK
5
21
100
AcDbEntity
100
AcDbBlockEnd
0
BLOCK
5
1C
100
AcDbEntity
100
AcDbBlockBegin
2
*PAPER_SPACE
0
ENDBLK
5
1D
100
AcDbEntity
100
AcDbBlockEnd
0
ENDSEC
0
SECTION
2
ENTITIES
0
CIRCLE
5
100
100
AcDbEntity
8
0
100
AcDbCircle
10
898.65095387055158
20
49.939443221630384
30
0
40
1.2
210
0
220
0
230
1
0
SPLINE
5
101
100
AcDbEntity
8
0
100
AcDbSpline
70
0
71
3
72
11
73
7
74
0
42
0.000000001
43
0.0000000001
44
0.0000000001
40
0.35495894660622906
40
0.35495894660622906
40
0.35495894660622906
40
0.35495894660622906
40
0.53184469039110338
40
0.53184469039110338
40
0.53184469039110338
40
0.6307286939839517
40
0.6307286939839517
40
0.6307286939839517
40
0.6307286939839517
10
873.27281061017391
20
57.990913723919029
30
0
10
873.3340900665728
20
57.978964504146582
30
0
10
873.39496782527181
20
57.963978953609576
30
0
10
873.40385306625205
20
57.961480209219935
30
0
10
873.41321093751287
20
57.958848549778743
30
0
10
873.43500039376966
20
57.952256042324812
30
0
10
873.46018312554281
20
57.943794034433544
30
0
0
LINE
5
102
100
AcDbEntity
8
0
100
AcDbLine
10
834.12347404483796
20
182.27622251038446
30
0
11
781.00519383558139
21
170.33457645080767
31
0
0
LINE
5
103
100
AcDbEntity
8
0
100
AcDbLine
10
892.56025246159857
20
166.28673837420473
30
0
11
892.56025246159857
21
172.41673021703781
31
0
0
LINE
5
104
100
AcDbEntity
8
0
100
AcDbLine
10
912.36215690864105
20
166.87381183455551
30
0
11
912.87326574618703
21
167.38561818596551
31
0
0
LINE
5
105
100
AcDbEntity
8
0
100
AcDbLine
10
837.82483242760134
20
175.04575182526145
30
0
11
876.65508498850795
21
175.04575182527878
31
0
0
SPLINE
5
106
100
AcDbEntity
8
0
100
AcDbSpline
70
0
71
3
72
14
73
10
74
0
42
0.000000001
43
0.0000000001
44
0.0000000001
40
0
40
0
40
0
40
0
40
0.41555322172629761
40
0.41555322172629761
40
0.41555322172629761
40
0.84943484198512353
40
0.84943484198512353
40
0.84943484198512353
40
1
40
1
40
1
40
1
10
922.88562180967688
20
152.35092018347251
30
0
10
922.88562180967688
20
153.75183743024314
30
0
10
922.6517796876451
20
154.95288848668315
30
0
10
922.38901006919093
20
155.95097903246563
30
0
10
922.1059806715499
20
157.02602327702374
30
0
10
921.71225951086421
20
158.12701910966445
30
0
10
921.13788059345325
20
159.23478716064983
30
0
10
920.93583702845649
20
159.62445572163986
30
0
10
920.69408329555813
20
160.04614514874669
30
0
10
920.39986528872703
20
160.48239454146307
30
0
0
LINE
5
107
100
AcDbEntity
8
0
100
AcDbLine
10
772.80536648954785
20
160.09086595960957
30
0
11
772.80536648954796
21
67.991168477817041
31
0
0
SPLINE
5
108
100
AcDbEntity
8
0
100
AcDbSpline
70
0
71
3
72
17
73
13
74
0
42
0.000000001
43
0.0000000001
44
0.0000000001
40
0.75859060382698729
40
0.75859060382698729
40
0.75859060382698729
40
0.75859060382698729
40
0.85611647121063061
40
0.85611647121063061
40
0.85611647121063061
40
0.98795341962431782
40
0.98795341962431782
40
0.98795341962431782
40
1.0008140918953758
40
1.0008140918953758
40
1.0008140918953758
40
1.0013025470586079
40
1.0013025470586079
40
1.0013025470586079
40
1.0013025470586079
10
835.5139610219918
20
182.53898386405908
30
0
10
835.33035565937223
20
182.51009390868012
30
0
10
835.14562043344188
20
182.47898022314592
30
0
10
834.95956800381339
20
182.4452192038604
30
0
10
834.70805950432282
20
182.39958054534503
30
0
10
834.45423328774257
20
182.34909541710414
30
0
10
834.19797270017295
20
182.29275234125134
30
0
10
834.17297452270918
20
182.28725608362396
30
0
10
834.13883787504358
20
182.2796592649434
30
0
10
834.12504554969087
20
182.2765741313375
30
0
10
834.12452170983261
20
182.276456956321
30
0
10
834.12399786997423
20
182.2763397813045
30
0
10
834.1234740301054
20
182.27622260628556
30
0
0
ARC
5
109
100
AcDbEntity
8
0
100
AcDbCircle
10
914.2884455642411
20
165.9723670417946
30
0
40
2.0000031784794876
210
0
220
-0
230
1
100
AcDbArc
50
33.975839465332342
51
135.03906931366211
0
CIRCLE
5
110
100
AcDbEntity
8
0
100
AcDbCircle
10
778.13493709862792
20
164.22841222634923
30
0
40
1.2
210
0
220
0
230
1
0
ARC
5
111
100
AcDbEntity
8
0
100
AcDbCircle
10
890.56025246159777
20
172.41673021703753
30
0
40
2.000000000000739
210
0
220
-0
230
1
100
AcDbArc
50
0
51
54.699999999990332
0
ARC
5
112
100
AcDbEntity
8
0
100
AcDbCircle
10
878.65508498848715
20
180.19157562816167
30
0
40
1.9999999999999705
210
0
220
-0
230
1
100
AcDbArc
50
71.091167295465368
51
180
0
SPLINE
5
113
100
AcDbEntity
8
0
100
AcDbSpline
70
0
71
3
72
14
73
10
74
0
42
0.000000001
43
0.0000000001
44
0.0000000001
40
0
40
0
40
0
40
0
40
0.47007901722014311
40
0.47007901722014311
40
0.47007901722014311
40
0.94729721732945216
40
0.94729721732945216
40
0.94729721732945216
40
1
40
1
40
1
40
1
10
772.8053665343748
20
67.991168460925238
30
0
10
772.8053665343748
20
65.410189034199178
30
0
10
773.79686561945175
20
63.029841466219239
30
0
10
775.42120386442616
20
61.250754032172168
30
0
10
777.06151164849257
20
59.454175655943509
30
0
10
779.36609233887918
20
58.250276275387058
30
0
10
781.94632855341024
20
58.027863677518603
30
0
10
782.23110107340926
20
58.003316701696086
30
0
10
782.51775937478317
20
57.990913723918958
30
0
10
782.80561588841931
20
57.990913723918958
30
0
0
LINE
5
114
100
AcDbEntity
8
0
100
AcDbLine
10
837.82483242760134
20
175.04575182526145
30
0
11
837.82483242760054
21
180.56329174298446
31
0
0
LINE
5
115
100
AcDbEntity
8
0
100
AcDbLine
10
882.90339890393295
20
180.28865191893283
30
0
11
891.71596771036548
21
174.04900539719824
31
0
0
ARC
5
116
100
AcDbEntity
8
0
100
AcDbCircle
10
910.94697933964312
20
168.28706073273543
30
0
40
2.0000000000003784
210
-0
220
0
230
1
100
AcDbArc
50
270.00100451623837
51
315.03906931366174
0
LINE
5
117
100
AcDbEntity
8
0
100
AcDbLine
10
922.88562197288798
20
85.111473361207288
30
0
11
922.88562197288798
21
152.35092017581769
31
0
0
LINE
5
118
100
AcDbEntity
8
0
100
AcDbLine
10
873.46018314828916
20
57.943794051325312
30
0
11
892.05410030729035
21
47.213056537908535
31
0
0
SPLINE
5
119
100
AcDbEntity
8
0
100
AcDbSpline
70
0
71
3
72
14
73
10
74
0
42
0.000000001
43
0.0000000001
44
0.0000000001
40
0.00030592744441629652
40
0.00030592744441629652
40
0.00030592744441629652
40
0.00030592744441629652
40
0.42524123820044957
40
0.42524123820044957
40
0.42524123820044957
40
0.86139226277865255
40
0.86139226277865255
40
0.86139226277865255
40
1
40
1
40
1
40
1
10
781.00519388040823
20
170.33457598038899
30
0
10
778.82269292817466
20
169.84532543554872
30
0
10
777.05417379403843
20
168.69316140165964
30
0
10
775.78076469208656
20
167.36951337677837
30
0
10
774.48375573942997
20
166.02133443270952
30
0
10
773.46462586203802
20
164.25795178818964
30
0
10
773.02914217371449
20
162.21007172850017
30
0
10
772.88734759012516
20
161.54327683332929
30
0
10
772.80536653437468
20
160.8328739885406
30
0
10
772.80536653437468
20
160.09086548919095
30
0
0
SPLINE
5
120
100
AcDbEntity
8
0
100
AcDbSpline
70
0
71
3
72
17
73
13
74
0
42
0.000000001
43
0.0000000001
44
0.0000000001
40
0.00013729868904704292
40
0.00013729868904704292
40
0.00013729868904704292
40
0.00013729868904704292
40
0.46850879666947803
40
0.46850879666947803
40
0.46850879666947803
40
0.94962922189638044
40
0.94962922189638044
40
0.94962922189638044
40
1
40
1
40
1
40
1.0001437314604993
40
1.0001437314604993
40
1.0001437314604993
40
1.0001437314604993
10
892.05410054615584
20
47.213056510785982
30
0
10
894.28378963257501
20
45.925479080077203
30
0
10
896.83720708760893
20
45.590831875442213
30
0
10
899.1919138639372
20
46.108433164410663
30
0
10
901.59760329682797
20
46.637241236753191
30
0
10
903.80794909732458
20
48.058469983744239
30
0
10
905.28570634811467
20
50.21123839172926
30
0
10
905.44018126632545
20
50.436274488539077
30
0
10
905.58582282472776
20
50.668191401044602
30
0
10
905.72216293545296
20
50.906567817120951
30
0
10
905.72243546941559
20
50.907044314234646
30
0
10
905.7227080033781
20
50.907520811348057
30
0
10
905.72298053735096
20
50.907997308480368
30
0
0
LINE
5
121
100
AcDbEntity
8
0
100
AcDbLine
10
876.65508498850795
20
175.04575182527878
30
0
11
876.65508498848703
21
180.19157562815366
31
0
0
LINE
5
122
100
AcDbEntity
8
0
100
AcDbLine
10
782.80561584359248
20
57.990913740810797
30
0
11
873.27281063292025
21
57.990913740810797
31
0
0
CIRCLE
5
123
100
AcDbEntity
8
0
100
AcDbCircle
10
918.60870125690008
20
82.123442891711591
30
0
40
1.2
210
0
220
0
230
1
0
CIRCLE
5
124
100
AcDbEntity
8
0
100
AcDbCircle
10
778.45868113316953
20
63.644230504530945
30
0
40
1.2
210
0
220
0
230
1
0
CIRCLE
5
125
100
AcDbEntity
8
0
100
AcDbCircle
10
918.52937295191737
20
155.46491333914588
30
0
40
1.2
210
0
220
0
230
1
0
LINE
5
126
100
AcDbEntity
8
0
100
AcDbLine
10
910.94701440387462
20
166.28706073304244
30
0
11
892.56025246159857
21
166.28673837420473
31
0
0
LINE
5
127
100
AcDbEntity
8
0
100
AcDbLine
10
920.39986545193813
20
160.48239453380816
30
0
11
915.94699479966039
21
167.09005534701129
31
0
0
SPLINE
5
128
100
AcDbEntity
8
0
100
AcDbSpline
70
0
71
3
72
14
73
10
74
0
42
0.000000001
43
0.0000000001
44
0.0000000001
40
0.0005081523737224525
40
0.0005081523737224525
40
0.0005081523737224525
40
0.0005081523737224525
40
0.42285163248066354
40
0.42285163248066354
40
0.42285163248066354
40
0.86427712434814774
40
0.86427712434814774
40
0.86427712434814774
40
1
40
1
40
1
40
1
10
920.84105547341801
20
77.407834079127127
30
0
10
921.49536582003861
20
78.552736233485774
30
0
10
921.88802836230684
20
79.636817042482136
30
0
10
922.17249332082338
20
80.589051519475447
30
0
10
922.47828075126586
20
81.612662073889936
30
0
10
922.71722292473805
20
82.70644371280693
30
0
10
922.82766747030132
20
83.896242282835686
30
0
10
922.86215283234264
20
84.267746681124748
30
0
10
922.88562180967688
20
84.674104479960704
30
0
10
922.88562180967688
20
85.11147358584364
30
0
0
LINE
5
129
100
AcDbEntity
8
0
100
AcDbLine
10
905.72298029848582
20
50.907997335602921
30
0
11
920.84105563662911
21
77.407833854490775
31
0
0
ARC
5
130
100
AcDbEntity
8
0
100
AcDbCircle
10
835.82483242760054
20
180.56329174298418
30
0
40
2.0000000000000284
210
0
220
-0
230
1
100
AcDbArc
50
0
51
98.942066025888579
0
CIRCLE
5
131
100
AcDbEntity
8
0
100
AcDbCircle
10
832.06361716896129
20
177.86704973367833
30
0
40
1.2
210
0
220
0
230
1
0
SPLINE
5
132
100
AcDbEntity
8
0
100
AcDbSpline
70
0
71
3
72
14
73
10
74
0
42
0.000000001
43
0.0000000001
44
0.0000000001
40
-0.00022330394316748676
40
-0.00022330394316748676
40
-0.00022330394316748676
40
-0.00022330394316748676
40
0
40
0
40
0
40
0.41562434359876882
40
0.41562434359876882
40
0.41562434359876882
40
0.45684553679617745
40
0.45684553679617745
40
0.45684553679617745
40
0.45684553679617745
10
882.90339890393579
20
180.28865191893169
30
0
10
882.90291180400482
20
180.28899575567743
30
0
10
882.90242470407816
20
180.28933959242011
30
0
10
882.90193760415309
20
180.28968342916158
30
0
10
881.73585879307961
20
181.11280147548015
30
0
10
880.59444205754846
20
181.61785285370479
30
0
10
879.60826396450739
20
181.97599716381831
30
0
10
879.50739866858896
20
182.01262780089701
30
0
10
879.40572082956442
20
182.04853201369554
30
0
10
879.30321151379826
20
182.08364645325992
30
0
0
CIRCLE
5
133
100
AcDbEntity
8
0
100
AcDbCircle
10
874.36706010161731
20
61.686056142883174
30
0
40
1.2
210
0
220
0
230
1
0
ENDSEC
0
SECTION
2
OBJECTS
0
DICTIONARY
5
C
100
AcDbDictionary
3
ACAD_GROUP
350
D
3
ACAD_MLINESTYLE
350
17
0
DICTIONARY
5
D
100
AcDbDictionary
0
DICTIONARY
5
1A
330
C
100
AcDbDictionary
0
DICTIONARY
5
17
100
AcDbDictionary
0
ENDSEC
0
EOF
