0
SECTION
2
HEADER
9
$INSUNITS
70
4
9
$ACADVER
1
AC1014
9
$HANDSEED
5
FFFF
0
ENDSEC
0
SECTION
2
TABLES
0
TABLE
2
VPORT
5
8
100
AcDbSymbolTable
0
ENDTAB
0
TABLE
2
LTYPE
5
5
100
AcDbSymbolTable
0
LTYPE
5
14
100
AcDbSymbolTableRecord
100
AcDbLinetypeTableRecord
2
BYBLOCK
70
0
0
LTYPE
5
15
100
AcDbSymbolTableRecord
100
AcDbLinetypeTableRecord
2
BYLAYER
70
0
0
LTYPE
5
16
100
AcDbSymbolTableRecord
100
AcDbLinetypeTableRecord
2
DASHED
70
0
3
Dashed __ __ __ __ __ __ __ __ __ __ __ __ __ _
72
65
73
2
40
0.75
49
0.5
74
0
49
-0.25
74
0
0
ENDTAB
0
TABLE
2
LAYER
5
2
100
AcDbSymbolTable
70
2
0
LAYER
5
50
100
AcDbSymbolTableRecord
100
AcDbLayerTableRecord
2
0
70
0
62
7
6
CONTINUOUS
0
ENDTAB
0
TABLE
2
STYLE
5
3
100
AcDbSymbolTable
70
1
0
STYLE
5
11
100
AcDbSymbolTableRecord
100
AcDbTextStyleTableRecord
2
STANDARD
70
0
0
ENDTAB
0
TABLE
2
VIEW
5
6
100
AcDbSymbolTable
70
0
0
ENDTAB
0
TABLE
2
UCS
5
7
100
AcDbSymbolTable
70
0
0
ENDTAB
0
TABLE
2
APPID
5
9
100
AcDbSymbolTable
70
2
0
APPID
5
12
100
AcDbSymbolTableRecord
100
AcDbRegAppTableRecord
2
ACAD
70
0
0
ENDTAB
0
TABLE
2
DIMSTYLE
5
A
100
AcDbSymbolTable
70
1
0
ENDTAB
0
TABLE
2
BLOCK_RECORD
5
1
100
AcDbSymbolTable
70
1
0
BLOCK_RECORD
5
1F
100
AcDbSymbolTableRecord
100
AcDbBlockTableRecord
2
*MODEL_SPACE
0
BLOCK_RECORD
5
1B
100
AcDbSymbolTableRecord
100
AcDbBlockTableRecord
2
*PAPER_SPACE
0
ENDTAB
0
ENDSEC
0
SECTION
2
BLOCKS
0
BLOCK
5
20
100
AcDbEntity
100
AcDbBlockBegin
2
*MODEL_SPACE
0
ENDBLK
5
21
100
AcDbEntity
100
AcDbBlockEnd
0
BLOCK
5
1C
100
AcDbEntity
100
AcDbBlockBegin
2
*PAPER_SPACE
0
ENDBLK
5
1D
100
AcDbEntity
100
AcDbBlockEnd
0
ENDSEC
0
SECTION
2
ENTITIES
0
CIRCLE
5
100
100
AcDbEntity
8
0
100
AcDbCircle
10
418.52831593186011
20
5.4603467639535097
30
0
40
1.7000000000000002
210
0
220
0
230
1
0
SPLINE
5
101
100
AcDbEntity
8
0
100
AcDbSpline
70
0
71
3
72
14
73
10
74
0
42
0.000000001
43
0.0000000001
44
0.0000000001
40
0.048365208156510832
40
0.048365208156510832
40
0.048365208156510832
40
0.048365208156510832
40
0.85185640395559159
40
0.85185640395559159
40
0.85185640395559159
40
1
40
1
40
1
40
1.0000465039515902
40
1.0000465039515902
40
1.0000465039515902
40
1.0000465039515902
10
415.38458430404972
20
-50.216829768867228
30
0
10
415.42366500990113
20
-51.00627343059486
30
0
10
415.82129915752091
20
-52.156479068340076
30
0
10
416.30901002100643
20
-52.885990569617718
30
0
10
416.39893165490179
20
-53.020494168064118
30
0
10
416.49105332524982
20
-53.140952169789273
30
0
10
416.58136288723483
20
-53.242604421113526
30
0
10
416.58139684753593
20
-53.242642646756053
30
0
10
416.58143080783674
20
-53.24268087239858
30
0
10
416.58146476841637
20
-53.24271909835474
30
0
0
LINE
5
102
100
AcDbEntity
8
0
100
AcDbLine
10
410.35109630429486
20
14.855264856520307
30
0
11
412.87110527287155
21
17.378712899251241
31
0
0
LINE
5
103
100
AcDbEntity
8
0
100
AcDbLine
10
410.10774693007448
20
12.324300261654315
30
0
11
414.18012123515666
21
6.2814912290249936
31
0
0
LINE
5
104
100
AcDbEntity
8
0
100
AcDbLine
10
415.3836628000056
20
2.3440852915813082
30
0
11
415.38458268650942
21
-50.124568230899342
31
0
0
SPLINE
5
105
100
AcDbEntity
8
0
100
AcDbSpline
70
0
71
3
72
14
73
10
74
0
42
0.000000001
43
0.0000000001
44
0.0000000001
40
-0.0001089844586432459
40
-0.0001089844586432459
40
-0.0001089844586432459
40
-0.0001089844586432459
40
0
40
0
40
0
40
0.85004694110565393
40
0.85004694110565393
40
0.85004694110565393
40
1
40
1
40
1
40
1
10
414.18012123518537
20
6.2814912289841551
30
0
10
414.18018813482348
20
6.2813916506684997
30
0
10
414.18025503449087
20
6.2812920723090748
30
0
10
414.18032193415979
20
6.2811924939476604
30
0
10
414.77360552690811
20
5.3981057906667917
30
0
10
415.21609017543909
20
4.0696430728476329
30
0
10
415.34766203168192
20
2.9288615816064123
30
0
10
415.37087204674594
20
2.7276213137228922
30
0
10
415.38365950470461
20
2.5320432692761763
30
0
10
415.3836628000056
20
2.3440852915816102
30
0
0
LINE
5
106
100
AcDbEntity
8
0
100
AcDbLine
10
415.94480950912828
20
17.08318010724156
30
0
11
420.40180133911122
21
10.469658332814049
31
0
0
ARC
5
107
100
AcDbEntity
8
0
100
AcDbCircle
10
411.76627387329262
20
13.442015958340789
30
0
40
1.9999999999999896
210
0
220
0
230
1
100
AcDbArc
50
135.03906931366632
51
213.97684709357671
0
LINE
5
108
100
AcDbEntity
8
0
100
AcDbLine
10
415.38458268650942
20
-50.124568230899342
30
0
11
415.38458430404972
21
-50.216829768867228
31
0
0
ARC
5
109
100
AcDbEntity
8
0
100
AcDbCircle
10
427.88453049535661
20
-47.147570209863261
30
0
40
4.9999999999999147
210
0
220
0
230
1
100
AcDbArc
50
180.00100451612676
51
221.58326803949203
0
SPLINE
5
110
100
AcDbEntity
8
0
100
AcDbSpline
70
0
71
3
72
17
73
13
74
0
42
0.000000001
43
0.0000000001
44
0.0000000001
40
-0.0021851623891537184
40
-0.0021851623891537184
40
-0.0021851623891537184
40
-0.0021851623891537184
40
0
40
0
40
0
40
0.34521356535394948
40
0.34521356535394948
40
0.34521356535394948
40
0.74612008656055573
40
0.74612008656055573
40
0.74612008656055573
40
1
40
1
40
1
40
1
10
420.40180133910997
20
10.469658332814351
30
0
10
420.40314269202639
20
10.467661765001868
30
0
10
420.40448404501575
20
10.465665197080956
30
0
10
420.40582539807815
20
10.463668629051472
30
0
10
421.08223197269933
20
9.4568555983857205
30
0
10
421.47040252447198
20
8.6008355258470637
30
0
10
421.80390361098915
20
7.7413291145520802
30
0
10
422.19120809097717
20
6.743159401975154
30
0
10
422.47342696837916
20
5.7645139366623344
30
0
10
422.66844546227856
20
4.670334842580699
30
0
10
422.79194377355878
20
3.9774299408178493
30
0
10
422.88364701919306
20
3.2442598837825543
30
0
10
422.88366279885281
20
2.3442167824494575
30
0
0
LINE
5
111
100
AcDbEntity
8
0
100
AcDbLine
10
422.88366279885281
20
2.3442167824489957
30
0
11
422.88453049612514
21
-47.147657870441861
31
0
0
ARC
5
112
100
AcDbEntity
8
0
100
AcDbCircle
10
414.28628284186942
20
15.965464001072007
30
0
40
1.9999999999998739
210
0
220
-0
230
1
100
AcDbArc
50
33.976861239657424
51
135.03906931367439
0
SPLINE
5
113
100
AcDbEntity
8
0
100
AcDbSpline
70
0
71
3
72
14
73
10
74
0
42
0.000000001
43
0.0000000001
44
0.0000000001
40
0.00021400728288045398
40
0.00021400728288045398
40
0.00021400728288045398
40
0.00021400728288045398
40
0.39654478103096191
40
0.39654478103096191
40
0.39654478103096191
40
0.84385328032283291
40
0.84385328032283291
40
0.84385328032283291
40
1
40
1
40
1
40
1
10
422.29758923780821
20
-108.70799555620067
30
0
10
421.21188354764143
20
-110.58558868678915
30
0
10
419.5511558075317
20
-112.01603923454428
30
0
10
417.70439312282417
20
-112.83650118018528
30
0
10
415.62009207995391
20
-113.7624943806631
30
0
10
413.25188032325752
20
-113.97217893771142
30
0
10
410.96062356851587
20
-113.33587173122709
30
0
10
410.16079028397644
20
-113.11374922929218
30
0
10
409.37486759796883
20
-112.78681590080026
30
0
10
408.6361719320372
20
-112.36001713381995
30
0
0
LINE
5
114
100
AcDbEntity
8
0
100
AcDbLine
10
373.28026313952449
20
-92.016648578224647
30
0
11
282.80179548262754
21
-92.018234857187622
31
0
0
SPLINE
5
115
100
AcDbEntity
8
0
100
AcDbSpline
70
0
71
3
72
11
73
7
74
0
42
0.000000001
43
0.0000000001
44
0.0000000001
40
3.9209371429575624e-05
40
3.9209371429575624e-05
40
3.9209371429575624e-05
40
3.9209371429575624e-05
40
0.82337742236486688
40
0.82337742236486688
40
0.82337742236486688
40
1
40
1
40
1
40
1
10
432.66138454041709
20
-71.364625046702344
30
0
10
433.4047064779179
20
-72.201357817341716
30
0
10
433.6222293556628
20
-73.443787046115858
30
0
10
433.32053609776239
20
-74.514737838872946
30
0
10
433.25581683655884
20
-74.744478286421838
30
0
10
433.16506937799818
20
-74.966906547472831
30
0
10
433.04505161467915
20
-75.174643967256429
30
0
0
LINE
5
116
100
AcDbEntity
8
0
100
AcDbLine
10
373.51142983064079
20
-84.516644524230884
30
0
11
282.80166399175982
21
-84.518234858340264
31
0
0
LINE
5
117
100
AcDbEntity
8
0
100
AcDbLine
10
433.04505161467915
20
-75.174643967256429
30
0
11
415.8052106547193
21
-104.95312912225259
31
0
0
LINE
5
118
100
AcDbEntity
8
0
100
AcDbLine
10
281.00413681552425
20
20.33000987561536
30
0
11
334.12105563373802
21
32.271532407747827
31
0
0
LINE
5
119
100
AcDbEntity
8
0
100
AcDbLine
10
282.64142165782698
20
13.010904852105512
30
0
11
335.76222943102391
21
24.953297346208387
31
0
0
LINE
5
120
100
AcDbEntity
8
0
100
AcDbLine
10
280.30137013028508
20
-82.018013190467514
30
0
11
280.29975536545436
21
10.085236578362924
31
0
0
LINE
5
121
100
AcDbEntity
8
0
100
AcDbLine
10
272.80137013143786
20
-82.018144681335343
30
0
11
272.79975536660714
21
10.085105087495236
31
0
0
LINE
5
122
100
AcDbEntity
8
0
100
AcDbLine
10
408.6361719320372
20
-112.36001713381995
30
0
11
373.44914155930394
21
-92.061571413622403
31
0
0
LINE
5
123
100
AcDbEntity
8
0
100
AcDbLine
10
412.38823300081992
20
-105.86601700014853
30
0
11
376.99383151085203
21
-85.44794250641317
31
0
0
CIRCLE
5
124
100
AcDbEntity
8
0
100
AcDbCircle
10
437.15399540001033
20
-72.803860286210522
30
0
40
1.7000000000000002
210
0
220
0
230
1
0
LINE
5
125
100
AcDbEntity
8
0
100
AcDbLine
10
416.58146476841637
20
-53.242719098354883
30
0
11
432.66138454404097
21
-71.364625043421626
31
0
0
ARC
5
126
100
AcDbEntity
8
0
100
AcDbCircle
10
335.82271846782191
20
30.559171733933397
30
0
40
2.0000000000000284
210
0
220
0
230
1
100
AcDbArc
50
0
51
98.909331690398275
0
SPLINE
5
127
100
AcDbEntity
8
0
100
AcDbSpline
70
0
71
3
72
8
73
4
74
0
42
0.000000001
43
0.0000000001
44
0.0000000001
40
0.40648069728705111
40
0.40648069728705111
40
0.40648069728705111
40
0.40648069728705111
40
0.59941312190361262
40
0.59941312190361262
40
0.59941312190361262
40
0.59941312190361262
10
373.44914155930394
20
-92.061571413622261
30
0
10
373.3979316100739
20
-92.04575650458878
30
0
10
373.33196824305458
20
-92.028229445359386
30
0
10
373.28026313952449
20
-92.016648578224647
30
0
0
SPLINE
5
128
100
AcDbEntity
8
0
100
AcDbSpline
70
0
71
3
72
8
73
4
74
0
42
0.000000001
43
0.0000000001
44
0.0000000001
40
0
40
0
40
0
40
0
40
1
40
1
40
1
40
1
10
282.80166399174971
20
-84.518234857999175
30
0
10
281.42855598839799
20
-84.518258931482393
30
0
10
280.30139420364844
20
-83.391114376313809
30
0
10
280.30137013028491
20
-82.018013190116577
30
0
0
CIRCLE
5
129
100
AcDbEntity
8
0
100
AcDbCircle
10
374.36600308156005
20
-88.318510432308841
30
0
40
1.7000000000000002
210
0
220
0
230
1
0
CIRCLE
5
130
100
AcDbEntity
8
0
100
AcDbCircle
10
278.13388007857088
20
14.223845651156921
30
0
40
1.7000000000000002
210
0
220
0
230
1
0
CIRCLE
5
131
100
AcDbEntity
8
0
100
AcDbCircle
10
415.21256253694969
20
-109.71676056010494
30
0
40
1.7000000000000002
210
0
220
0
230
1
0
ARC
5
132
100
AcDbEntity
8
0
100
AcDbCircle
10
335.82271846782476
20
27.006789268293829
30
0
40
2.0000000000000582
210
0
220
0
230
1
100
AcDbArc
50
-79.367445039349818
51
0
0
LINE
5
133
100
AcDbEntity
8
0
100
AcDbLine
10
337.82271846782191
20
30.559171733933113
30
0
11
337.82271846782464
21
27.00678926829525
31
0
0
CIRCLE
5
134
100
AcDbEntity
8
0
100
AcDbCircle
10
332.06256014890403
20
27.8624831584861
30
0
40
1.7000000000000002
210
0
220
0
230
1
0
SPLINE
5
135
100
AcDbEntity
8
0
100
AcDbSpline
70
0
71
3
72
11
73
7
74
0
42
0.000000001
43
0.0000000001
44
0.0000000001
40
-8.0502818458249887e-05
40
-8.0502818458249887e-05
40
-8.0502818458249887e-05
40
-8.0502818458249887e-05
40
0
40
0
40
0
40
0.11918317411406892
40
0.11918317411406892
40
0.11918317411406892
40
0.11918317411406892
10
335.7622294310745
20
24.953297346219756
30
0
10
335.76231576530449
20
24.953316659247804
30
0
10
335.76240209958928
20
24.953335972288073
30
0
10
335.76248843387816
20
24.953355285329337
30
0
10
335.89719587725199
20
24.98348943533145
30
0
10
336.040983505508
20
25.012826304004818
30
0
10
336.19173810013467
20
25.041127926411946
30
0
0
LINE
5
136
100
AcDbEntity
8
0
100
AcDbLine
10
424.1445707777487
20
-50.46610924242998
30
0
11
438.26973221765695
21
-66.385022436320895
31
0
0
SPLINE
5
137
100
AcDbEntity
8
0
100
AcDbSpline
70
0
71
3
72
8
73
4
74
0
42
0.000000001
43
0.0000000001
44
0.0000000001
40
5.33008608263004e-05
40
5.33008608263004e-05
40
5.33008608263004e-05
40
5.33008608263004e-05
40
1
40
1
40
1
40
1
10
415.80521064624281
20
-104.95312911774136
30
0
10
415.1181210517974
20
-106.14211053559117
30
0
10
413.57682518229342
20
-106.55275404341438
30
0
10
412.38823300081992
20
-105.86601700014853
30
0
0
SPLINE
5
138
100
AcDbEntity
8
0
100
AcDbSpline
70
0
71
3
72
14
73
10
74
0
42
0.000000001
43
0.0000000001
44
0.0000000001
40
-5.1161608889140504e-05
40
-5.1161608889140504e-05
40
-5.1161608889140504e-05
40
-5.1161608889140504e-05
40
0
40
0
40
0
40
0.88838609160554316
40
0.88838609160554316
40
0.88838609160554316
40
1
40
1
40
1
40
1
10
376.99383151009658
20
-85.447942506323358
30
0
10
376.99378277801191
20
-85.447914350217218
30
0
10
376.99373404587038
20
-85.447886194078109
30
0
10
376.99368531373023
20
-85.447858037939994
30
0
10
376.25288482202535
20
-85.019843158459764
30
0
10
374.84785636778099
20
-84.609198455245689
30
0
10
373.86047886882096
20
-84.531353176483393
30
0
10
373.73642800539471
20
-84.521572951539923
30
0
10
373.61913635035677
20
-84.516642635905754
30
0
10
373.51142982992837
20
-84.516644524230912
30
0
0
SPLINE
5
139
100
AcDbEntity
8
0
100
AcDbSpline
70
0
71
3
72
11
73
7
74
0
42
0.000000001
43
0.0000000001
44
0.0000000001
40
-0.0012880450509399784
40
-0.0012880450509399784
40
-0.0012880450509399784
40
-0.0012880450509399784
40
0
40
0
40
0
40
0.24162867991652001
40
0.24162867991652001
40
0.24162867991652001
40
0.24162867991652001
10
334.12105563375985
20
32.271532407753938
30
0
10
334.1224369820286
20
32.271841416335008
30
0
10
334.12381833031975
20
32.272150424921051
30
0
10
334.12519967861056
20
32.272459433507095
30
0
10
334.60785795989324
20
32.380430431127394
30
0
10
335.06367218226501
20
32.464606984340207
30
0
10
335.51297588380095
20
32.535041044299078
30
0
0
SPLINE
5
140
100
AcDbEntity
8
0
100
AcDbSpline
70
0
71
3
72
14
73
10
74
0
42
0.000000001
43
0.0000000001
44
0.0000000001
40
0.00016221504811703984
40
0.00016221504811703984
40
0.00016221504811703984
40
0.00016221504811703984
40
0.36867590397288497
40
0.36867590397288497
40
0.36867590397288497
40
0.75270538978271406
40
0.75270538978271406
40
0.75270538978271406
40
1
40
1
40
1
40
1
10
438.26973197574063
20
-66.38502265114596
30
0
10
439.5560517941027
20
-67.83350337648443
30
0
10
440.23819755641966
20
-69.37171348972754
30
0
10
440.61175400828051
20
-70.864935820965087
30
0
10
441.00103857610122
20
-72.42102836596132
30
0
10
441.06782039391146
20
-73.971783180091677
30
0
10
440.75598563927713
20
-75.625488330311867
30
0
10
440.55518060490101
20
-76.690386692674934
30
0
10
440.18644818575609
20
-77.806133704586244
30
0
10
439.53915207479599
20
-78.926531387463683
30
0
0
SPLINE
5
141
100
AcDbEntity
8
0
100
AcDbSpline
70
0
71
3
72
14
73
10
74
0
42
0.000000001
43
0.0000000001
44
0.0000000001
40
0
40
0
40
0
40
0
40
0.35737177311493251
40
0.35737177311493251
40
0.35737177311493251
40
0.75402780165018124
40
0.75402780165018124
40
0.75402780165018124
40
1
40
1
40
1
40
1
10
272.79975536658367
20
10.085105087645951
30
0
10
272.79972180187303
20
11.999574791216725
30
0
10
273.32049124980813
20
13.662212414029966
30
0
10
274.08458022026639
20
15.060710098550958
30
0
10
274.93266201986643
20
16.612938279928642
30
0
10
276.08997566016217
20
17.896965501454744
30
0
10
277.63541609449317
20
18.904548833834653
30
0
10
278.59376628635812
20
19.529365978808375
30
0
10
279.71644412244234
20
20.041952835883627
30
0
10
281.00413681546627
20
20.330009875794282
30
0
0
LINE
5
142
100
AcDbEntity
8
0
100
AcDbLine
10
439.53915207479611
20
-78.926531387463683
30
0
11
422.29758977149231
21
-108.7079958647945
31
0
0
CIRCLE
5
143
100
AcDbEntity
8
0
100
AcDbCircle
10
278.45762411311239
20
-86.360336070661106
30
0
40
1.7000000000000002
210
0
220
0
230
1
0
SPLINE
5
144
100
AcDbEntity
8
0
100
AcDbSpline
70
0
71
3
72
14
73
10
74
0
42
0.000000001
43
0.0000000001
44
0.0000000001
40
0
40
0
40
0
40
0
40
0.39950619035870588
40
0.39950619035870588
40
0.39950619035870588
40
0.84569619330265011
40
0.84569619330265011
40
0.84569619330265011
40
1
40
1
40
1
40
1
10
282.80179548262851
20
-92.018234857187622
30
0
10
280.62060210069916
20
-92.018273098122421
30
0
10
278.53701143786111
20
-91.288759010706258
30
0
10
276.8938969816756
20
-90.084398477973366
30
0
10
275.05877837341484
20
-88.739303852122475
30
0
10
273.69927554619096
20
-86.790226759833587
30
0
10
273.11186243666543
20
-84.490181227923642
30
0
10
272.90872010199689
20
-83.694767214141876
30
0
10
272.80138490126348
20
-82.860588660263232
30
0
10
272.80137013143786
20
-82.018144681336338
30
0
0
SPLINE
5
145
100
AcDbEntity
8
0
100
AcDbSpline
70
0
71
3
72
11
73
7
74
0
42
0.000000001
43
0.0000000001
44
0.0000000001
40
0
40
0
40
0
40
0
40
0.83937649406969683
40
0.83937649406969683
40
0.83937649406969683
40
1
40
1
40
1
40
1
10
280.29975536545436
20
10.085236578361636
30
0
10
280.29973525316689
20
11.23240485895578
30
0
10
281.01970398555682
20
12.290598898626879
30
0
10
282.02911289645795
20
12.792294884309996
30
0
10
282.22227389075738
20
12.888299679179642
30
0
10
282.42737353690973
20
12.963022256791739
30
0
10
282.64142165782562
20
13.010904852105432
30
0
0
ENDSEC
0
SECTION
2
OBJECTS
0
DICTIONARY
5
C
100
AcDbDictionary
3
ACAD_GROUP
350
D
3
ACAD_MLINESTYLE
350
17
0
DICTIONARY
5
D
100
AcDbDictionary
0
DICTIONARY
5
1A
330
C
100
AcDbDictionary
0
DICTIONARY
5
17
100
AcDbDictionary
0
ENDSEC
0
EOF
