0
SECTION
2
HEADER
9
$INSUNITS
70
4
9
$ACADVER
1
AC1014
9
$HANDSEED
5
FFFF
0
ENDSEC
0
SECTION
2
TABLES
0
TABLE
2
VPORT
5
8
100
AcDbSymbolTable
0
ENDTAB
0
TABLE
2
LTYPE
5
5
100
AcDbSymbolTable
0
LTYPE
5
14
100
AcDbSymbolTableRecord
100
AcDbLinetypeTableRecord
2
BYBLOCK
70
0
0
LTYPE
5
15
100
AcDbSymbolTableRecord
100
AcDbLinetypeTableRecord
2
BYLAYER
70
0
0
LTYPE
5
16
100
AcDbSymbolTableRecord
100
AcDbLinetypeTableRecord
2
DASHED
70
0
3
Dashed __ __ __ __ __ __ __ __ __ __ __ __ __ _
72
65
73
2
40
0.75
49
0.5
74
0
49
-0.25
74
0
0
ENDTAB
0
TABLE
2
LAYER
5
2
100
AcDbSymbolTable
70
2
0
LAYER
5
50
100
AcDbSymbolTableRecord
100
AcDbLayerTableRecord
2
0
70
0
62
7
6
CONTINUOUS
0
ENDTAB
0
TABLE
2
STYLE
5
3
100
AcDbSymbolTable
70
1
0
STYLE
5
11
100
AcDbSymbolTableRecord
100
AcDbTextStyleTableRecord
2
STANDARD
70
0
0
ENDTAB
0
TABLE
2
VIEW
5
6
100
AcDbSymbolTable
70
0
0
ENDTAB
0
TABLE
2
UCS
5
7
100
AcDbSymbolTable
70
0
0
ENDTAB
0
TABLE
2
APPID
5
9
100
AcDbSymbolTable
70
2
0
APPID
5
12
100
AcDbSymbolTableRecord
100
AcDbRegAppTableRecord
2
ACAD
70
0
0
ENDTAB
0
TABLE
2
DIMSTYLE
5
A
100
AcDbSymbolTable
70
1
0
ENDTAB
0
TABLE
2
BLOCK_RECORD
5
1
100
AcDbSymbolTable
70
1
0
BLOCK_RECORD
5
1F
100
AcDbSymbolTableRecord
100
AcDbBlockTableRecord
2
*MODEL_SPACE
0
BLOCK_RECORD
5
1B
100
AcDbSymbolTableRecord
100
AcDbBlockTableRecord
2
*PAPER_SPACE
0
ENDTAB
0
ENDSEC
0
SECTION
2
BLOCKS
0
BLOCK
5
20
100
AcDbEntity
100
AcDbBlockBegin
2
*MODEL_SPACE
0
ENDBLK
5
21
100
AcDbEntity
100
AcDbBlockEnd
0
BLOCK
5
1C
100
AcDbEntity
100
AcDbBlockBegin
2
*PAPER_SPACE
0
ENDBLK
5
1D
100
AcDbEntity
100
AcDbBlockEnd
0
ENDSEC
0
SECTION
2
ENTITIES
0
POINT
5
100
100
AcDbEntity
8
0
100
AcDbPoint
10
278.13493707131613
20
-185.77158769200551
30
0
0
POINT
5
101
100
AcDbEntity
8
0
100
AcDbPoint
10
278.13493707131613
20
-185.77158769200551
30
0
0
LINE
5
102
100
AcDbEntity
8
0
100
AcDbLine
10
373.51248682338621
20
-284.51207786739349
30
0
11
282.80272098450507
21
-284.5136682015027
31
0
0
LINE
5
103
100
AcDbEntity
8
0
100
AcDbLine
10
281.0051938082695
20
-179.66542346754707
30
0
11
334.12211262648339
21
-167.72390093541475
31
0
0
LINE
5
104
100
AcDbEntity
8
0
100
AcDbLine
10
373.28132013226991
20
-292.01208192138722
30
0
11
282.80285247537279
21
-292.0136682003502
31
0
0
LINE
5
105
100
AcDbEntity
8
0
100
AcDbLine
10
282.64247865057229
20
-186.98452849105678
30
0
11
335.76328642376939
21
-175.04213599695419
31
0
0
LINE
5
106
100
AcDbEntity
8
0
100
AcDbLine
10
378.57658914350839
20
-175.84122594070124
30
0
11
387.49384782844447
21
-182.15150916397775
31
0
0
SPLINE
5
107
100
AcDbEntity
8
0
100
AcDbSpline
70
0
71
1
72
4
73
2
74
0
42
0.000000001
43
0.0000000001
44
0.0000000001
40
0
40
0
40
0.0011478881703206895
40
0.0011478881703206895
10
382.90834238584023
20
-169.71864807985952
30
0
10
382.91770625238189
20
-169.72528756241076
30
0
0
LINE
5
108
100
AcDbEntity
8
0
100
AcDbLine
10
408.37047652164313
20
-185.0917089582417
30
0
11
414.18117822790208
21
-193.71394211413758
31
0
0
SPLINE
5
109
100
AcDbEntity
8
0
100
AcDbSpline
70
0
71
3
72
17
73
13
74
0
42
0.000000001
43
0.0000000001
44
0.0000000001
40
-0.0021851623891537184
40
-0.0021851623891537184
40
-0.0021851623891537184
40
-0.0021851623891537184
40
0
40
0
40
0
40
0.34521356535394948
40
0.34521356535394948
40
0.34521356535394948
40
0.74612008656055573
40
0.74612008656055573
40
0.74612008656055573
40
1
40
1
40
1
40
1
10
420.40285833185624
20
-189.52577501034824
30
0
10
420.40419968477266
20
-189.52777157816058
30
0
10
420.40554103776202
20
-189.52976814608164
30
0
10
420.40688239082442
20
-189.53176471411126
30
0
10
421.08328896544538
20
-190.53857774477706
30
0
10
421.47145951721797
20
-191.39459781731574
30
0
10
421.80496060373503
20
-192.2541042286106
30
0
10
422.19226508372287
20
-193.25227394118755
30
0
10
422.47448396112486
20
-194.23091940650039
30
0
10
422.66950245502414
20
-195.32509850058219
30
0
10
422.79300076630449
20
-196.01800340234504
30
0
10
422.88470401193848
20
-196.7511734593802
30
0
10
422.88471979159823
20
-197.65121656071329
30
0
0
LINE
5
110
100
AcDbEntity
8
0
100
AcDbLine
10
339.82366011797512
20
-167.09250806501984
30
0
11
374.65341398835437
21
-167.09189742574523
31
0
0
LINE
5
111
100
AcDbEntity
8
0
100
AcDbLine
10
339.82379160884278
20
-174.59250806386692
30
0
11
374.6535454792222
21
-174.59189742459259
31
0
0
LINE
5
112
100
AcDbEntity
8
0
100
AcDbLine
10
390.83913203814961
20
-183.21352494035096
30
0
11
404.83735167439875
21
-183.2132795219448
31
0
0
SPLINE
5
113
100
AcDbEntity
8
0
100
AcDbSpline
70
0
71
3
72
11
73
7
74
0
42
0.000000001
43
0.0000000001
44
0.0000000001
40
0
40
0
40
0
40
0
40
0.83878272991776315
40
0.83878272991776315
40
0.83878272991776315
40
1
40
1
40
1
40
1
10
387.49384782844447
20
-182.15150916397775
30
0
10
388.14089838702512
20
-182.60823282732517
30
0
10
389.38441228750065
20
-183.05874615915187
30
0
10
390.33329838355553
20
-183.17873396309693
30
0
10
390.51567794451756
20
-183.20179608097931
30
0
10
390.68700580585028
20
-183.21352760744574
30
0
10
390.83913203814961
20
-183.21352494035096
30
0
0
LINE
5
114
100
AcDbEntity
8
0
100
AcDbLine
10
414.58846775295274
20
-180.89807270227496
30
0
11
420.40285833185663
21
-189.52577501034824
31
0
0
LINE
5
115
100
AcDbEntity
8
0
100
AcDbLine
10
422.88471979159823
20
-197.65121656071344
30
0
11
422.88558748887067
21
-247.14309121360429
31
0
0
ARC
5
116
100
AcDbEntity
8
0
100
AcDbCircle
10
427.88558748810215
20
-247.14300355302584
30
0
40
4.9999999999999147
210
0
220
0
230
1
100
AcDbArc
50
180.00100451612676
51
221.58326803949117
0
SPLINE
5
117
100
AcDbEntity
8
0
100
AcDbSpline
70
0
71
3
72
14
73
10
74
0
42
0.000000001
43
0.0000000001
44
0.0000000001
40
0.00021400728288045398
40
0.00021400728288045398
40
0.00021400728288045398
40
0.00021400728288045398
40
0.39654478103096191
40
0.39654478103096191
40
0.39654478103096191
40
0.84385328032283291
40
0.84385328032283291
40
0.84385328032283291
40
1
40
1
40
1
40
1
10
422.29864623055363
20
-308.70342889936325
30
0
10
421.21294054038685
20
-310.58102202995173
30
0
10
419.55221280027718
20
-312.01147257770685
30
0
10
417.70545011556965
20
-312.83193452334785
30
0
10
415.62114907269927
20
-313.75792772382567
30
0
10
413.252937316003
20
-313.96761228087399
30
0
10
410.96168056126135
20
-313.33130507438966
30
0
10
410.1618472767218
20
-313.10918257245476
30
0
10
409.37592459071425
20
-312.78224924396284
30
0
10
408.63722892478268
20
-312.35545047698253
30
0
0
SPLINE
5
118
100
AcDbEntity
8
0
100
AcDbSpline
70
0
71
3
72
11
73
7
74
0
42
0.000000001
43
0.0000000001
44
0.0000000001
40
0
40
0
40
0
40
0
40
0.83797061345020218
40
0.83797061345020218
40
0.83797061345020218
40
1
40
1
40
1
40
1
10
374.6535454792222
20
-174.59189742459259
30
0
10
375.70747229975314
20
-174.59187894702566
30
0
10
377.02659646406971
20
-174.97161634733345
30
0
10
378.03288817950556
20
-175.5085938936503
30
0
10
378.22746401155155
20
-175.61242348030191
30
0
10
378.40996613850723
20
-175.72295627658704
30
0
10
378.5765891435085
20
-175.84122594070109
30
0
0
SPLINE
5
119
100
AcDbEntity
8
0
100
AcDbSpline
70
0
71
3
72
11
73
7
74
0
42
0.000000001
43
0.0000000001
44
0.0000000001
40
0
40
0
40
0
40
0
40
0.75924028193625148
40
0.75924028193625148
40
0.75924028193625148
40
1
40
1
40
1
40
1
10
404.83735167439875
20
-183.2132795219448
30
0
10
405.84498538902994
20
-183.21326185599389
30
0
10
406.91919810985962
20
-183.68775898854693
30
0
10
407.7158403523481
20
-184.37068099830384
30
0
10
407.9684604599247
20
-184.58723972739193
30
0
10
408.19219820731291
20
-184.82737201350872
30
0
10
408.37047652164313
20
-185.09170895824155
30
0
0
LINE
5
120
100
AcDbEntity
8
0
100
AcDbLine
10
382.91770625238189
20
-169.72528756241076
30
0
11
391.37987247596516
21
-175.71351545887438
31
0
0
LINE
5
121
100
AcDbEntity
8
0
100
AcDbLine
10
415.38471979275101
20
-197.65134805158112
30
0
11
415.38563967925495
21
-250.12000157406192
31
0
0
CIRCLE
5
122
100
AcDbEntity
8
0
100
AcDbCircle
10
332.06361714164939
20
-172.13295018467647
30
0
40
1.2
210
0
220
0
230
1
0
SPLINE
5
123
100
AcDbEntity
8
0
100
AcDbSpline
70
0
71
3
72
11
73
7
74
0
42
0.000000001
43
0.0000000001
44
0.0000000001
40
-8.0502818458249887e-05
40
-8.0502818458249887e-05
40
-8.0502818458249887e-05
40
-8.0502818458249887e-05
40
0
40
0
40
0
40
1
40
1
40
1
40
1
10
335.76328642381998
20
-175.04213599694282
30
0
10
335.76337275804985
20
-175.04211668391463
30
0
10
335.76345909233464
20
-175.04209737087436
30
0
10
335.76354542662358
20
-175.04207805783309
30
0
10
336.89380097129373
20
-174.78923909607403
30
0
10
338.66329777227475
20
-174.59252840977911
30
0
10
339.82379160884278
20
-174.59250806386706
30
0
0
SPLINE
5
124
100
AcDbEntity
8
0
100
AcDbSpline
70
0
71
3
72
14
73
10
74
0
42
0.000000001
43
0.0000000001
44
0.0000000001
40
-0.0001089844586432459
40
-0.0001089844586432459
40
-0.0001089844586432459
40
-0.0001089844586432459
40
0
40
0
40
0
40
0.85004694110565393
40
0.85004694110565393
40
0.85004694110565393
40
1
40
1
40
1
40
1
10
414.18117822793164
20
-193.71394211417822
30
0
10
414.18124512756975
20
-193.71404169249402
30
0
10
414.18131202723714
20
-193.7141412708533
30
0
10
414.18137892690623
20
-193.71424084921472
30
0
10
414.77466251965438
20
-194.5973275524959
30
0
10
415.21714716818479
20
-195.92579027031505
30
0
10
415.34871902442745
20
-197.06657176155645
30
0
10
415.37192903949131
20
-197.26781202943997
30
0
10
415.38471649744992
20
-197.46339007388656
30
0
10
415.38471979275101
20
-197.65134805158112
30
0
0
SPLINE
5
125
100
AcDbEntity
8
0
100
AcDbSpline
70
0
71
3
72
17
73
13
74
0
42
0.000000001
43
0.0000000001
44
0.0000000001
40
-0.0012880450509399784
40
-0.0012880450509399784
40
-0.0012880450509399784
40
-0.0012880450509399784
40
0
40
0
40
0
40
0.44532644559751117
40
0.44532644559751117
40
0.44532644559751117
40
0.90713310891006094
40
0.90713310891006094
40
0.90713310891006094
40
1
40
1
40
1
40
1
10
334.12211262650544
20
-167.72390093540864
30
0
10
334.12349397477414
20
-167.72359192682757
30
0
10
334.12487532306528
20
-167.72328291824152
30
0
10
334.12625667135615
20
-167.72297390965548
30
0
10
335.01580544891056
20
-167.52398122131041
30
0
10
335.81417241969814
20
-167.40581164690965
30
0
10
336.6486501284628
20
-167.30553769998934
30
0
10
337.5140093949135
20
-167.20155291017448
30
0
10
338.36838592629692
20
-167.1270893075706
30
0
10
339.2678253812457
20
-167.10089191719462
30
0
10
339.44869792497559
20
-167.09562375977697
30
0
10
339.63254681442163
20
-167.09251141564039
30
0
10
339.82366011797512
20
-167.09250806501984
30
0
0
LINE
5
126
100
AcDbEntity
8
0
100
AcDbLine
10
391.37987247596516
20
-175.71351545887438
30
0
11
404.83722018353103
21
-175.71327952309758
31
0
0
SPLINE
5
127
100
AcDbEntity
8
0
100
AcDbSpline
70
0
71
3
72
14
73
10
74
0
42
0.000000001
43
0.0000000001
44
0.0000000001
40
0.048365208156510832
40
0.048365208156510832
40
0.048365208156510832
40
0.048365208156510832
40
0.85185640395559159
40
0.85185640395559159
40
0.85185640395559159
40
1
40
1
40
1
40
1.0000465039515902
40
1.0000465039515902
40
1.0000465039515902
40
1.0000465039515902
10
415.38564129679514
20
-250.2122631120298
30
0
10
415.42472200264672
20
-251.00170677375729
30
0
10
415.8223561502665
20
-252.15191241150251
30
0
10
416.31006701375202
20
-252.88142391278015
30
0
10
416.39998864764721
20
-253.01592751122655
30
0
10
416.49211031799541
20
-253.13638551295185
30
0
10
416.58241987998042
20
-253.23803776427596
30
0
10
416.58245384028146
20
-253.23807598991863
30
0
10
416.58248780058227
20
-253.23811421556115
30
0
10
416.58252176116196
20
-253.23815244151717
30
0
0
LINE
5
128
100
AcDbEntity
8
0
100
AcDbLine
10
415.38563967925495
20
-250.12000157406192
30
0
11
415.38564129679514
21
-250.2122631120298
31
0
0
SPLINE
5
129
100
AcDbEntity
8
0
100
AcDbSpline
70
0
71
3
72
14
73
10
74
0
42
0.000000001
43
0.0000000001
44
0.0000000001
40
-5.1161608889140504e-05
40
-5.1161608889140504e-05
40
-5.1161608889140504e-05
40
-5.1161608889140504e-05
40
0
40
0
40
0
40
0.88838609160554316
40
0.88838609160554316
40
0.88838609160554316
40
1
40
1
40
1
40
1
10
376.99488850351474
20
-285.44337584954206
30
0
10
376.99483977143007
20
-285.44334769343578
30
0
10
376.99479103928854
20
-285.44331953729682
30
0
10
376.99474230714839
20
-285.44329138115859
30
0
10
376.2539418154505
20
-285.01527650166651
30
0
10
374.84891336121268
20
-284.60463179842975
30
0
10
373.86153586225407
20
-284.52678651965186
30
0
10
373.73748499882777
20
-284.51700629470622
30
0
10
373.62019334378988
20
-284.51207597907029
30
0
10
373.51248682336148
20
-284.5120778673936
30
0
0
SPLINE
5
130
100
AcDbEntity
8
0
100
AcDbSpline
70
0
71
3
72
14
73
10
74
0
42
0.000000001
43
0.0000000001
44
0.0000000001
40
0
40
0
40
0
40
0
40
0.34312636598822854
40
0.34312636598822854
40
0.34312636598822854
40
0.7427224299007007
40
0.7427224299007007
40
0.7427224299007007
40
0.99894491497656646
40
0.99894491497656646
40
0.99894491497656646
40
0.99894491497656646
10
374.65341398835437
20
-167.09189742574523
30
0
10
375.89328028708735
20
-167.09187568826593
30
0
10
376.83834587528196
20
-167.25640156763049
30
0
10
377.75030343365086
20
-167.47029294987811
30
0
10
378.81234554670709
20
-167.71938530454094
30
0
10
379.79333247071179
20
-168.04897537880123
30
0
10
380.81937311764523
20
-168.52222466468689
30
0
10
381.47727420348713
20
-168.82567387012386
30
0
10
382.15061550828625
20
-169.1819471499528
30
0
10
382.9083423858404
20
-169.71864807985938
30
0
0
SPLINE
5
131
100
AcDbEntity
8
0
100
AcDbSpline
70
0
71
3
72
14
73
10
74
0
42
0.000000001
43
0.0000000001
44
0.0000000001
40
0
40
0
40
0
40
0
40
0.34221160975963277
40
0.34221160975963277
40
0.34221160975963277
40
0.72015733636954704
40
0.72015733636954704
40
0.72015733636954704
40
1
40
1
40
1
40
1
10
404.83722018353103
20
-175.71327952309758
30
0
10
406.45403106480683
20
-175.71325117698208
30
0
10
407.71061383811411
20
-176.03807928883171
30
0
10
408.84286598199378
20
-176.46332409406398
30
0
10
410.09334915386773
20
-176.93297343475564
30
0
10
411.19092035425399
20
-177.54598971385235
30
0
10
412.26500601763792
20
-178.40203053701202
30
0
10
413.06029214431192
20
-179.03586954421058
30
0
10
413.84967488705126
20
-179.80264923646388
30
0
10
414.58846775295274
20
-180.89807270227482
30
0
0
CIRCLE
5
132
100
AcDbEntity
8
0
100
AcDbCircle
10
418.52937292460552
20
-194.53508657920878
30
0
40
1.2
210
0
220
0
230
1
0
CIRCLE
5
133
100
AcDbEntity
8
0
100
AcDbCircle
10
415.21361952969517
20
-309.71219390326752
30
0
40
1.2
210
0
220
0
230
1
0
CIRCLE
5
134
100
AcDbEntity
8
0
100
AcDbCircle
10
374.36706007430541
20
-288.31394377547144
30
0
40
1.2
210
0
220
0
230
1
0
LINE
5
135
100
AcDbEntity
8
0
100
AcDbLine
10
272.80242712418317
20
-282.01357802449775
30
0
11
272.80081235935245
21
-189.9103282556672
31
0
0
SPLINE
5
136
100
AcDbEntity
8
0
100
AcDbSpline
70
0
71
3
72
8
73
4
74
0
42
0.000000001
43
0.0000000001
44
0.0000000001
40
0.40648069728705111
40
0.40648069728705111
40
0.40648069728705111
40
0.40648069728705111
40
0.59941312190361262
40
0.59941312190361262
40
0.59941312190361262
40
0.59941312190361262
10
373.45019855204941
20
-292.05700475678486
30
0
10
373.39898860281937
20
-292.04118984775135
30
0
10
373.33302523580005
20
-292.02366278852196
30
0
10
373.28132013226991
20
-292.01208192138722
30
0
0
LINE
5
137
100
AcDbEntity
8
0
100
AcDbLine
10
280.30242712303038
20
-282.01344653363009
30
0
11
280.30081235819966
21
-189.91019676479937
31
0
0
SPLINE
5
138
100
AcDbEntity
8
0
100
AcDbSpline
70
0
71
3
72
8
73
4
74
0
42
0.000000001
43
0.0000000001
44
0.0000000001
40
5.33008608263004e-05
40
5.33008608263004e-05
40
5.33008608263004e-05
40
5.33008608263004e-05
40
1
40
1
40
1
40
1
10
415.80626763898817
20
-304.94856246090393
30
0
10
415.11917804454288
20
-306.13754387875372
30
0
10
413.57788217503878
20
-306.54818738657696
30
0
10
412.38928999356528
20
-305.86145034331111
30
0
0
CIRCLE
5
139
100
AcDbEntity
8
0
100
AcDbCircle
10
278.13493707131613
20
-185.77158769200551
30
0
40
1.2
210
0
220
0
230
1
0
LINE
5
140
100
AcDbEntity
8
0
100
AcDbLine
10
412.38928999356528
20
-305.86145034331111
30
0
11
376.99488850359739
21
-285.44337584957577
31
0
0
LINE
5
141
100
AcDbEntity
8
0
100
AcDbLine
10
408.63722892478268
20
-312.35545047698253
30
0
11
373.45019855204941
21
-292.05700475678498
31
0
0
CIRCLE
5
142
100
AcDbEntity
8
0
100
AcDbCircle
10
437.15505239275569
20
-272.79929362937321
30
0
40
1.2
210
0
220
0
230
1
0
SPLINE
5
143
100
AcDbEntity
8
0
100
AcDbSpline
70
0
71
3
72
8
73
4
74
0
42
0.000000001
43
0.0000000001
44
0.0000000001
40
0
40
0
40
0
40
0
40
1
40
1
40
1
40
1
10
282.80272098450496
20
-284.51366820149758
30
0
10
281.42961298115324
20
-284.51369227498589
30
0
10
280.30245119639915
20
-283.38654771982192
30
0
10
280.30242712303038
20
-282.0134465336248
30
0
0
CIRCLE
5
144
100
AcDbEntity
8
0
100
AcDbCircle
10
278.45868110585769
20
-286.35576941382368
30
0
40
1.2
210
0
220
0
230
1
0
SPLINE
5
145
100
AcDbEntity
8
0
100
AcDbSpline
70
0
71
3
72
14
73
10
74
0
42
0.000000001
43
0.0000000001
44
0.0000000001
40
0
40
0
40
0
40
0
40
0.39950619035870588
40
0.39950619035870588
40
0.39950619035870588
40
0.84569619330265011
40
0.84569619330265011
40
0.84569619330265011
40
1
40
1
40
1
40
1
10
282.8028524753725
20
-292.01366820034593
30
0
10
280.62165909344316
20
-292.01370644128065
30
0
10
278.53806843060511
20
-291.28419235386417
30
0
10
276.89495397441976
20
-290.07983182113105
30
0
10
275.05983536615918
20
-288.73473719527993
30
0
10
273.70033253893553
20
-286.78566010299079
30
0
10
273.11291942941023
20
-284.4856145710807
30
0
10
272.90977709474191
20
-283.69020055729891
30
0
10
272.80244189400844
20
-282.85602200342026
30
0
10
272.80242712418317
20
-282.01357802449337
30
0
0
SPLINE
5
146
100
AcDbEntity
8
0
100
AcDbSpline
70
0
71
3
72
11
73
7
74
0
42
0.000000001
43
0.0000000001
44
0.0000000001
40
0
40
0
40
0
40
0
40
0.83937649406969683
40
0.83937649406969683
40
0.83937649406969683
40
1
40
1
40
1
40
1
10
280.30081235819966
20
-189.91019676479937
30
0
10
280.30079224591259
20
-188.76302848420536
30
0
10
281.02076097830309
20
-187.70483444453447
30
0
10
282.03016988920456
20
-187.20313845885201
30
0
10
282.2233308835041
20
-187.10713366398238
30
0
10
282.4284305296564
20
-187.03241108637059
30
0
10
282.64247865057229
20
-186.98452849105678
30
0
0
SPLINE
5
147
100
AcDbEntity
8
0
100
AcDbSpline
70
0
71
3
72
14
73
10
74
0
42
0.000000001
43
0.0000000001
44
0.0000000001
40
0
40
0
40
0
40
0
40
0.35737177311493251
40
0.35737177311493251
40
0.35737177311493251
40
0.75402780165018124
40
0.75402780165018124
40
0.75402780165018124
40
1
40
1
40
1
40
1
10
272.80081235935245
20
-189.91032825566748
30
0
10
272.80077879464812
20
-187.99585855209671
30
0
10
273.32154824258879
20
-186.33322092928523
30
0
10
274.085637213052
20
-184.9347232447667
30
0
10
274.93371901265732
20
-183.38249506339196
30
0
10
276.09103265295744
20
-182.09846784186965
30
0
10
277.6364730872919
20
-181.09088450949528
30
0
10
278.59482327915885
20
-180.46606736452475
30
0
10
279.71750111524472
20
-179.95348050745321
30
0
10
281.00519380826967
20
-179.66542346754707
30
0
0
LINE
5
148
100
AcDbEntity
8
0
100
AcDbLine
10
424.14562777049412
20
-250.46154258559255
30
0
11
438.27078921040243
21
-266.38045577948361
31
0
0
SPLINE
5
149
100
AcDbEntity
8
0
100
AcDbSpline
70
0
71
3
72
14
73
10
74
0
42
0.000000001
43
0.0000000001
44
0.0000000001
40
0.00016221504811703984
40
0.00016221504811703984
40
0.00016221504811703984
40
0.00016221504811703984
40
0.36867590397288497
40
0.36867590397288497
40
0.36867590397288497
40
0.75270538978271406
40
0.75270538978271406
40
0.75270538978271406
40
1
40
1
40
1
40
1
10
438.27078896848604
20
-266.3804559943087
30
0
10
439.55710878684812
20
-267.828936719647
30
0
10
440.23925454916508
20
-269.36714683289011
30
0
10
440.61281100102588
20
-270.8603691641278
30
0
10
441.00209556884664
20
-272.41646170912389
30
0
10
441.06887738665694
20
-273.96721652325425
30
0
10
440.75704263202255
20
-275.62092167347458
30
0
10
440.55623759764643
20
-276.68582003583765
30
0
10
440.18750517850151
20
-277.80156704774896
30
0
10
439.54020906754135
20
-278.92196473062626
30
0
0
LINE
5
150
100
AcDbEntity
8
0
100
AcDbLine
10
433.04610860742457
20
-275.170077310419
30
0
11
415.80626764746467
21
-304.94856246541519
31
0
0
SPLINE
5
151
100
AcDbEntity
8
0
100
AcDbSpline
70
0
71
3
72
11
73
7
74
0
42
0.000000001
43
0.0000000001
44
0.0000000001
40
3.9209371429575624e-05
40
3.9209371429575624e-05
40
3.9209371429575624e-05
40
3.9209371429575624e-05
40
0.82337742236486688
40
0.82337742236486688
40
0.82337742236486688
40
1
40
1
40
1
40
1
10
432.66244153316251
20
-271.36005838986506
30
0
10
433.40576347066332
20
-272.19679116050429
30
0
10
433.62328634840821
20
-273.43922038927843
30
0
10
433.3215930905078
20
-274.51017118203566
30
0
10
433.25687382930425
20
-274.73991162958441
30
0
10
433.16612637074354
20
-274.96233989063541
30
0
10
433.04610860742457
20
-275.170077310419
30
0
0
LINE
5
152
100
AcDbEntity
8
0
100
AcDbLine
10
416.58252176116196
20
-253.23815244151731
30
0
11
432.66244153678645
21
-271.36005838658434
31
0
0
LINE
5
153
100
AcDbEntity
8
0
100
AcDbLine
10
439.54020906754153
20
-278.92196473062626
30
0
11
422.29864676423773
21
-308.70342920795707
31
0
0
ENDSEC
0
SECTION
2
OBJECTS
0
DICTIONARY
5
C
100
AcDbDictionary
3
ACAD_GROUP
350
D
3
ACAD_MLINESTYLE
350
17
0
DICTIONARY
5
D
100
AcDbDictionary
0
DICTIONARY
5
1A
330
C
100
AcDbDictionary
0
DICTIONARY
5
17
100
AcDbDictionary
0
ENDSEC
0
EOF
