0
SECTION
2
HEADER
9
$INSUNITS
70
4
9
$ACADVER
1
AC1014
9
$HANDSEED
5
FFFF
0
ENDSEC
0
SECTION
2
TABLES
0
TABLE
2
VPORT
5
8
100
AcDbSymbolTable
0
ENDTAB
0
TABLE
2
LTYPE
5
5
100
AcDbSymbolTable
0
LTYPE
5
14
100
AcDbSymbolTableRecord
100
AcDbLinetypeTableRecord
2
BYBLOCK
70
0
0
LTYPE
5
15
100
AcDbSymbolTableRecord
100
AcDbLinetypeTableRecord
2
BYLAYER
70
0
0
LTYPE
5
16
100
AcDbSymbolTableRecord
100
AcDbLinetypeTableRecord
2
DASHED
70
0
3
Dashed __ __ __ __ __ __ __ __ __ __ __ __ __ _
72
65
73
2
40
0.75
49
0.5
74
0
49
-0.25
74
0
0
ENDTAB
0
TABLE
2
LAYER
5
2
100
AcDbSymbolTable
70
2
0
LAYER
5
50
100
AcDbSymbolTableRecord
100
AcDbLayerTableRecord
2
0
70
0
62
7
6
CONTINUOUS
0
ENDTAB
0
TABLE
2
STYLE
5
3
100
AcDbSymbolTable
70
1
0
STYLE
5
11
100
AcDbSymbolTableRecord
100
AcDbTextStyleTableRecord
2
STANDARD
70
0
0
ENDTAB
0
TABLE
2
VIEW
5
6
100
AcDbSymbolTable
70
0
0
ENDTAB
0
TABLE
2
UCS
5
7
100
AcDbSymbolTable
70
0
0
ENDTAB
0
TABLE
2
APPID
5
9
100
AcDbSymbolTable
70
2
0
APPID
5
12
100
AcDbSymbolTableRecord
100
AcDbRegAppTableRecord
2
ACAD
70
0
0
ENDTAB
0
TABLE
2
DIMSTYLE
5
A
100
AcDbSymbolTable
70
1
0
ENDTAB
0
TABLE
2
BLOCK_RECORD
5
1
100
AcDbSymbolTable
70
1
0
BLOCK_RECORD
5
1F
100
AcDbSymbolTableRecord
100
AcDbBlockTableRecord
2
*MODEL_SPACE
0
BLOCK_RECORD
5
1B
100
AcDbSymbolTableRecord
100
AcDbBlockTableRecord
2
*PAPER_SPACE
0
ENDTAB
0
ENDSEC
0
SECTION
2
BLOCKS
0
BLOCK
5
20
100
AcDbEntity
100
AcDbBlockBegin
2
*MODEL_SPACE
0
ENDBLK
5
21
100
AcDbEntity
100
AcDbBlockEnd
0
BLOCK
5
1C
100
AcDbEntity
100
AcDbBlockBegin
2
*PAPER_SPACE
0
ENDBLK
5
1D
100
AcDbEntity
100
AcDbBlockEnd
0
ENDSEC
0
SECTION
2
ENTITIES
0
POINT
5
100
100
AcDbEntity
8
0
100
AcDbPoint
10
278.13493707131613
20
214.22841230799449
30
0
0
POINT
5
101
100
AcDbEntity
8
0
100
AcDbPoint
10
278.13493707131613
20
214.22841230799449
30
0
0
LINE
5
102
100
AcDbEntity
8
0
100
AcDbLine
10
373.51248682338621
20
115.48792213260654
30
0
11
282.80272098450524
21
115.48633179849723
31
0
0
LINE
5
103
100
AcDbEntity
8
0
100
AcDbLine
10
282.64247865057229
20
213.01547150894316
30
0
11
335.76328642376939
21
224.95786400304587
31
0
0
SPLINE
5
104
100
AcDbEntity
8
0
100
AcDbSpline
70
0
71
3
72
14
73
10
74
0
42
0.000000001
43
0.0000000001
44
0.0000000001
40
-0.0001089844586432459
40
-0.0001089844586432459
40
-0.0001089844586432459
40
-0.0001089844586432459
40
0
40
0
40
0
40
0.85004694110565393
40
0.85004694110565393
40
0.85004694110565393
40
1
40
1
40
1
40
1
10
414.18117822793351
20
206.2860578858224
30
0
10
414.18124512757163
20
206.28595830750663
30
0
10
414.18131202723896
20
206.28585872914726
30
0
10
414.18137892690811
20
206.28575915078585
30
0
10
414.77466251965581
20
205.40267244750447
30
0
10
415.21714716818553
20
204.07420972968509
30
0
10
415.34871902442774
20
202.93342823844367
30
0
10
415.37192903949148
20
202.73218797056012
30
0
10
415.38471649744992
20
202.53660992611358
30
0
10
415.38471979275101
20
202.34865194841902
30
0
0
LINE
5
105
100
AcDbEntity
8
0
100
AcDbLine
10
272.80242712418328
20
117.98642197550222
30
0
11
272.80081235935256
21
210.08967174433286
31
0
0
SPLINE
5
106
100
AcDbEntity
8
0
100
AcDbSpline
70
0
71
3
72
14
73
10
74
0
42
0.000000001
43
0.0000000001
44
0.0000000001
40
0
40
0
40
0
40
0
40
0.39950619035870588
40
0.39950619035870588
40
0.39950619035870588
40
0.84569619330265011
40
0.84569619330265011
40
0.84569619330265011
40
1
40
1
40
1
40
1
10
282.80285247531981
20
107.98633180013309
30
0
10
280.62165909339046
20
107.98629355921001
30
0
10
278.53806843055622
20
108.71580764663753
30
0
10
276.89495397437713
20
109.92016817937922
30
0
10
275.05983536612359
20
111.26526280524003
30
0
10
273.7003325389104
20
113.21433989753641
30
0
10
273.11291942939704
20
115.51438542944953
30
0
10
272.90977709473293
20
116.30979944323236
30
0
10
272.80244189400389
20
117.14397799711159
30
0
10
272.80242712418317
20
117.98642197603849
30
0
0
LINE
5
107
100
AcDbEntity
8
0
100
AcDbLine
10
280.3024271230305
20
117.98655346636991
30
0
11
280.30081235819978
21
210.08980323520058
31
0
0
CIRCLE
5
108
100
AcDbEntity
8
0
100
AcDbCircle
10
278.45868110585769
20
113.64423058617632
30
0
40
1.7000000000000002
210
0
220
0
230
1
0
LINE
5
109
100
AcDbEntity
8
0
100
AcDbLine
10
281.00519380826967
20
220.33457653245293
30
0
11
334.12211262648339
21
232.27609906458531
31
0
0
LINE
5
110
100
AcDbEntity
8
0
100
AcDbLine
10
373.28132013226991
20
107.98791807861278
30
0
11
282.80285247537279
21
107.98633179964988
31
0
0
LINE
5
111
100
AcDbEntity
8
0
100
AcDbLine
10
422.88471979159823
20
202.34878343928656
30
0
11
422.88558748887067
21
152.85690878639565
31
0
0
SPLINE
5
112
100
AcDbEntity
8
0
100
AcDbSpline
70
0
71
3
72
11
73
7
74
0
42
0.000000001
43
0.0000000001
44
0.0000000001
40
-8.0502818458249887e-05
40
-8.0502818458249887e-05
40
-8.0502818458249887e-05
40
-8.0502818458249887e-05
40
0
40
0
40
0
40
1
40
1
40
1
40
1
10
335.76328642381964
20
224.9578640030573
30
0
10
335.76337275804963
20
224.9578833160854
30
0
10
335.76345909233441
20
224.95790262912567
30
0
10
335.7635454266233
20
224.95792194216693
30
0
10
336.89380097129344
20
225.21076090392611
30
0
10
338.66329777227452
20
225.40747159022089
30
0
10
339.8237916088425
20
225.40749193613308
30
0
0
LINE
5
113
100
AcDbEntity
8
0
100
AcDbLine
10
415.38563967925495
20
149.87999842593808
30
0
11
415.38564129679514
21
149.7877368879702
31
0
0
SPLINE
5
114
100
AcDbEntity
8
0
100
AcDbSpline
70
0
71
3
72
14
73
10
74
0
42
0.000000001
43
0.0000000001
44
0.0000000001
40
-5.1161608889140504e-05
40
-5.1161608889140504e-05
40
-5.1161608889140504e-05
40
-5.1161608889140504e-05
40
0
40
0
40
0
40
0.88838609160554316
40
0.88838609160554316
40
0.88838609160554316
40
1
40
1
40
1
40
1
10
376.99488849676345
20
114.55662415141818
30
0
10
376.99483976467877
20
114.5566523075243
30
0
10
376.99479103253725
20
114.55668046366334
30
0
10
376.99474230039709
20
114.55670861980155
30
0
10
376.2539418085812
20
114.98472349908943
30
0
10
374.84891335423015
20
115.39536820193862
30
0
10
373.86153585525005
20
115.47321348044427
30
0
10
373.73748499182113
20
115.48299370535577
30
0
10
373.62019333678177
20
115.48792402095924
30
0
10
373.51248681635354
20
115.4879221326064
30
0
0
LINE
5
115
100
AcDbEntity
8
0
100
AcDbLine
10
414.58846775295274
20
219.10192729772504
30
0
11
420.40285833185663
21
210.47422498965176
31
0
0
SPLINE
5
116
100
AcDbEntity
8
0
100
AcDbSpline
70
0
71
3
72
14
73
10
74
0
42
0.000000001
43
0.0000000001
44
0.0000000001
40
0
40
0
40
0
40
0
40
0.34221160975963277
40
0.34221160975963277
40
0.34221160975963277
40
0.72015733636954704
40
0.72015733636954704
40
0.72015733636954704
40
1
40
1
40
1
40
1
10
404.83722018353092
20
224.28672047690247
30
0
10
406.45403106480671
20
224.28674882301792
30
0
10
407.710613838114
20
223.96192071116829
30
0
10
408.84286598199367
20
223.53667590593597
30
0
10
410.09334915386762
20
223.0670265652443
30
0
10
411.19092035425382
20
222.45401028614765
30
0
10
412.26500601763775
20
221.59796946298803
30
0
10
413.0602921443118
20
220.96413045578942
30
0
10
413.84967488705115
20
220.19735076353618
30
0
10
414.58846775295257
20
219.10192729772504
30
0
0
SPLINE
5
117
100
AcDbEntity
8
0
100
AcDbSpline
70
0
71
3
72
14
73
10
74
0
42
0.000000001
43
0.0000000001
44
0.0000000001
40
0.00021400728288045398
40
0.00021400728288045398
40
0.00021400728288045398
40
0.00021400728288045398
40
0.39654478103096191
40
0.39654478103096191
40
0.39654478103096191
40
0.84385328032283291
40
0.84385328032283291
40
0.84385328032283291
40
1
40
1
40
1
40
1
10
422.29864623055363
20
91.296571100636825
30
0
10
421.21294054038685
20
89.418977970048203
30
0
10
419.55221280027718
20
87.988527422293146
30
0
10
417.70545011556965
20
87.168065476652075
30
0
10
415.62114907269927
20
86.242072276174397
30
0
10
413.252937316003
20
86.032387719125936
30
0
10
410.96168056126135
20
86.668694925610339
30
0
10
410.1618472767218
20
86.890817427545315
30
0
10
409.37592459071425
20
87.217750756037233
30
0
10
408.63722892478268
20
87.644549523017474
30
0
0
LINE
5
118
100
AcDbEntity
8
0
100
AcDbLine
10
391.37987247596516
20
224.28648454112556
30
0
11
404.83722018353103
21
224.28672047690247
31
0
0
SPLINE
5
119
100
AcDbEntity
8
0
100
AcDbSpline
70
0
71
1
72
4
73
2
74
0
42
0.000000001
43
0.0000000001
44
0.0000000001
40
0
40
0
40
0.0011478881703206895
40
0.0011478881703206895
10
382.90834238584023
20
230.28135192014042
30
0
10
382.91770625238189
20
230.27471243758924
30
0
0
LINE
5
120
100
AcDbEntity
8
0
100
AcDbLine
10
408.63722892478268
20
87.644549523017474
30
0
11
373.45019855204941
21
107.94299524321502
31
0
0
LINE
5
121
100
AcDbEntity
8
0
100
AcDbLine
10
339.82366011797512
20
232.90749193498016
30
0
11
374.65341398835437
21
232.90810257425471
31
0
0
LINE
5
122
100
AcDbEntity
8
0
100
AcDbLine
10
382.91770625238189
20
230.27471243758924
30
0
11
391.37987247596516
21
224.28648454112556
31
0
0
SPLINE
5
123
100
AcDbEntity
8
0
100
AcDbSpline
70
0
71
3
72
14
73
10
74
0
42
0.000000001
43
0.0000000001
44
0.0000000001
40
0.00016221504811703984
40
0.00016221504811703984
40
0.00016221504811703984
40
0.00016221504811703984
40
0.36867590397288497
40
0.36867590397288497
40
0.36867590397288497
40
0.75270538978271406
40
0.75270538978271406
40
0.75270538978271406
40
1
40
1
40
1
40
1
10
438.27078896848604
20
133.61954400569132
30
0
10
439.55710878684812
20
132.171063280353
30
0
10
440.23925454916508
20
130.63285316710983
30
0
10
440.61281100102605
20
129.13963083587225
30
0
10
441.00209556884664
20
127.58353829087604
30
0
10
441.06887738665705
20
126.03278347674568
30
0
10
440.75704263202255
20
124.37907832652549
30
0
10
440.55623759764643
20
123.31417996416242
30
0
10
440.18750517850151
20
122.19843295225111
30
0
10
439.54020906754153
20
121.07803526937367
30
0
0
LINE
5
124
100
AcDbEntity
8
0
100
AcDbLine
10
416.58252176116196
20
146.76184755848269
30
0
11
432.66244153678656
21
128.63994161341571
31
0
0
SPLINE
5
125
100
AcDbEntity
8
0
100
AcDbSpline
70
0
71
3
72
8
73
4
74
0
42
0.000000001
43
0.0000000001
44
0.0000000001
40
0.40648069728705111
40
0.40648069728705111
40
0.40648069728705111
40
0.40648069728705111
40
0.59941312190361262
40
0.59941312190361262
40
0.59941312190361262
40
0.59941312190361262
10
373.45019855204941
20
107.94299524321517
30
0
10
373.39898860281937
20
107.95881015224872
30
0
10
373.33302523580005
20
107.97633721147804
30
0
10
373.28132013226991
20
107.98791807861271
30
0
0
LINE
5
126
100
AcDbEntity
8
0
100
AcDbLine
10
424.14562777049412
20
149.53845741440745
30
0
11
438.27078921040254
21
133.61954422051645
31
0
0
LINE
5
127
100
AcDbEntity
8
0
100
AcDbLine
10
412.38928999356528
20
94.138549656688966
30
0
11
376.99488850359739
21
114.55662415042426
31
0
0
SPLINE
5
128
100
AcDbEntity
8
0
100
AcDbSpline
70
0
71
3
72
17
73
13
74
0
42
0.000000001
43
0.0000000001
44
0.0000000001
40
-0.0021851623891537184
40
-0.0021851623891537184
40
-0.0021851623891537184
40
-0.0021851623891537184
40
0
40
0
40
0
40
0.34521356535394948
40
0.34521356535394948
40
0.34521356535394948
40
0.74612008656055573
40
0.74612008656055573
40
0.74612008656055573
40
1
40
1
40
1
40
1
10
420.40285833185567
20
210.47422498965176
30
0
10
420.4041996847721
20
210.47222842183936
30
0
10
420.40554103776145
20
210.47023185391836
30
0
10
420.40688239082385
20
210.4682352858888
30
0
10
421.08328896544504
20
209.46142225522306
30
0
10
421.47145951721768
20
208.60540218268432
30
0
10
421.80496060373468
20
207.74589577138948
30
0
10
422.19226508372276
20
206.74772605881256
30
0
10
422.47448396112475
20
205.76908059349972
30
0
10
422.66950245502403
20
204.67490149941793
30
0
10
422.79300076630449
20
203.9819965976551
30
0
10
422.88470401193848
20
203.24882654061994
30
0
10
422.88471979159823
20
202.34878343928685
30
0
0
SPLINE
5
129
100
AcDbEntity
8
0
100
AcDbSpline
70
0
71
3
72
8
73
4
74
0
42
0.000000001
43
0.0000000001
44
0.0000000001
40
0
40
0
40
0
40
0
40
1
40
1
40
1
40
1
10
282.80272098431101
20
115.486331805546
30
0
10
281.42961298095929
20
115.48630773216431
30
0
10
280.30245119629274
20
116.61345228741581
30
0
10
280.30242712303038
20
117.9865534736129
30
0
0
SPLINE
5
130
100
AcDbEntity
8
0
100
AcDbSpline
70
0
71
3
72
11
73
7
74
0
42
0.000000001
43
0.0000000001
44
0.0000000001
40
3.9209371429575624e-05
40
3.9209371429575624e-05
40
3.9209371429575624e-05
40
3.9209371429575624e-05
40
0.82337742236486688
40
0.82337742236486688
40
0.82337742236486688
40
1
40
1
40
1
40
1
10
432.66244153316251
20
128.639941610135
30
0
10
433.40576347066332
20
127.80320883949564
30
0
10
433.62328634840821
20
126.5607796107215
30
0
10
433.3215930905078
20
125.48982881796441
30
0
10
433.25687382930425
20
125.26008837041559
30
0
10
433.16612637074371
20
125.03766010936459
30
0
10
433.04610860742457
20
124.829922689581
30
0
0
LINE
5
131
100
AcDbEntity
8
0
100
AcDbLine
10
415.38471979275101
20
202.34865194841888
30
0
11
415.38563967925495
21
149.87999842593808
31
0
0
SPLINE
5
132
100
AcDbEntity
8
0
100
AcDbSpline
70
0
71
3
72
14
73
10
74
0
42
0.000000001
43
0.0000000001
44
0.0000000001
40
0
40
0
40
0
40
0
40
0.35737177311493251
40
0.35737177311493251
40
0.35737177311493251
40
0.75402780165018124
40
0.75402780165018124
40
0.75402780165018124
40
1
40
1
40
1
40
1
10
272.80081235935256
20
210.08967174433269
30
0
10
272.80077879464812
20
212.00414144790355
30
0
10
273.32154824258907
20
213.66677907071494
30
0
10
274.08563721305211
20
215.06527675523344
30
0
10
274.93371901265743
20
216.61750493660816
30
0
10
276.09103265295772
20
217.90153215813041
30
0
10
277.63647308729219
20
218.90911549050483
30
0
10
278.59482327915913
20
219.5339326354754
30
0
10
279.717501115245
20
220.04651949254691
30
0
10
281.00519380826995
20
220.33457653245293
30
0
0
SPLINE
5
133
100
AcDbEntity
8
0
100
AcDbSpline
70
0
71
3
72
8
73
4
74
0
42
0.000000001
43
0.0000000001
44
0.0000000001
40
5.33008608263004e-05
40
5.33008608263004e-05
40
5.33008608263004e-05
40
5.33008608263004e-05
40
1
40
1
40
1
40
1
10
415.80626763898817
20
95.051437539096142
30
0
10
415.11917804454288
20
93.862456121246254
30
0
10
413.57788217503878
20
93.451812613423044
30
0
10
412.38928999356528
20
94.138549656688966
30
0
0
LINE
5
134
100
AcDbEntity
8
0
100
AcDbLine
10
439.54020906754153
20
121.07803526937367
30
0
11
422.29864676423773
21
91.296570792042857
31
0
0
SPLINE
5
135
100
AcDbEntity
8
0
100
AcDbSpline
70
0
71
3
72
11
73
7
74
0
42
0.000000001
43
0.0000000001
44
0.0000000001
40
0
40
0
40
0
40
0
40
0.83937649406969683
40
0.83937649406969683
40
0.83937649406969683
40
1
40
1
40
1
40
1
10
280.30081235819978
20
210.0898032352008
30
0
10
280.30079224591276
20
211.23697151579489
30
0
10
281.0207609783032
20
212.2951655554657
30
0
10
282.03016988920467
20
212.79686154114825
30
0
10
282.22333088350422
20
212.89286633601779
30
0
10
282.42843052965657
20
212.96758891362967
30
0
10
282.64247865057246
20
213.01547150894334
30
0
0
CIRCLE
5
136
100
AcDbEntity
8
0
100
AcDbCircle
10
415.21361952969517
20
90.287806096732552
30
0
40
1.7000000000000002
210
0
220
0
230
1
0
CIRCLE
5
137
100
AcDbEntity
8
0
100
AcDbCircle
10
278.13493707131613
20
214.22841230799449
30
0
40
1.7000000000000002
210
0
220
0
230
1
0
LINE
5
138
100
AcDbEntity
8
0
100
AcDbLine
10
390.83913203814961
20
216.78647505964898
30
0
11
404.83735167439875
21
216.78672047805514
31
0
0
CIRCLE
5
139
100
AcDbEntity
8
0
100
AcDbCircle
10
437.15505239275586
20
127.20070637062676
30
0
40
1.7000000000000002
210
0
220
0
230
1
0
CIRCLE
5
140
100
AcDbEntity
8
0
100
AcDbCircle
10
418.52937292460552
20
205.46491342079116
30
0
40
1.7000000000000002
210
0
220
0
230
1
0
SPLINE
5
141
100
AcDbEntity
8
0
100
AcDbSpline
70
0
71
3
72
11
73
7
74
0
42
0.000000001
43
0.0000000001
44
0.0000000001
40
0
40
0
40
0
40
0
40
0.83878272991776315
40
0.83878272991776315
40
0.83878272991776315
40
1
40
1
40
1
40
1
10
387.4938478284443
20
217.84849083602217
30
0
10
388.140898387025
20
217.39176717267475
30
0
10
389.38441228750048
20
216.94125384084811
30
0
10
390.33329838355542
20
216.82126603690313
30
0
10
390.51567794451739
20
216.79820391902064
30
0
10
390.68700580585016
20
216.78647239255426
30
0
10
390.83913203814944
20
216.78647505964898
30
0
0
CIRCLE
5
142
100
AcDbEntity
8
0
100
AcDbCircle
10
332.06361714164939
20
227.86704981532358
30
0
40
1.7000000000000002
210
0
220
0
230
1
0
SPLINE
5
143
100
AcDbEntity
8
0
100
AcDbSpline
70
0
71
3
72
11
73
7
74
0
42
0.000000001
43
0.0000000001
44
0.0000000001
40
0
40
0
40
0
40
0
40
0.83797061345020218
40
0.83797061345020218
40
0.83797061345020218
40
1
40
1
40
1
40
1
10
374.65354547922175
20
225.40810257540741
30
0
10
375.70747229975268
20
225.40812105297434
30
0
10
377.02659646406926
20
225.02838365266666
30
0
10
378.03288817950533
20
224.49140610634993
30
0
10
378.22746401155132
20
224.38757651969831
30
0
10
378.40996613850689
20
224.2770437234131
30
0
10
378.57658914350822
20
224.15877405929905
30
0
0
LINE
5
144
100
AcDbEntity
8
0
100
AcDbLine
10
408.37047652164313
20
214.9082910417583
30
0
11
414.18117822790208
21
206.28605788586248
31
0
0
SPLINE
5
145
100
AcDbEntity
8
0
100
AcDbSpline
70
0
71
3
72
11
73
7
74
0
42
0.000000001
43
0.0000000001
44
0.0000000001
40
0
40
0
40
0
40
0
40
0.75924028193625148
40
0.75924028193625148
40
0.75924028193625148
40
1
40
1
40
1
40
1
10
404.83735167439846
20
216.78672047805514
30
0
10
405.8449853890296
20
216.78673814400599
30
0
10
406.91919810985939
20
216.31224101145293
30
0
10
407.71584035234781
20
215.6293190016961
30
0
10
407.96846045992436
20
215.41276027260801
30
0
10
408.19219820731263
20
215.17262798649119
30
0
10
408.3704765216429
20
214.90829104175833
30
0
0
ARC
5
146
100
AcDbEntity
8
0
100
AcDbCircle
10
427.88558748810215
20
152.85699644697416
30
0
40
4.9999999999999147
210
0
220
0
230
1
100
AcDbArc
50
180.00100451612676
51
221.58326803949117
0
CIRCLE
5
147
100
AcDbEntity
8
0
100
AcDbCircle
10
374.36706007430541
20
111.68605622452858
30
0
40
1.7000000000000002
210
0
220
0
230
1
0
LINE
5
148
100
AcDbEntity
8
0
100
AcDbLine
10
433.04610860742457
20
124.829922689581
30
0
11
415.80626764746467
21
95.051437534584835
31
0
0
SPLINE
5
149
100
AcDbEntity
8
0
100
AcDbSpline
70
0
71
3
72
14
73
10
74
0
42
0.000000001
43
0.0000000001
44
0.0000000001
40
0
40
0
40
0
40
0
40
0.34312636598822854
40
0.34312636598822854
40
0.34312636598822854
40
0.7427224299007007
40
0.7427224299007007
40
0.7427224299007007
40
0.99894491497656646
40
0.99894491497656646
40
0.99894491497656646
40
0.99894491497656646
10
374.65341398835403
20
232.90810257425471
30
0
10
375.89328028708707
20
232.9081243117341
30
0
10
376.83834587528168
20
232.74359843236951
30
0
10
377.75030343365063
20
232.52970705012191
30
0
10
378.81234554670687
20
232.28061469545912
30
0
10
379.79333247071156
20
231.95102462119874
30
0
10
380.81937311764489
20
231.47777533531303
30
0
10
381.4772742034869
20
231.17432612987602
30
0
10
382.15061550828591
20
230.81805285004714
30
0
10
382.90834238583983
20
230.28135192014054
30
0
0
SPLINE
5
150
100
AcDbEntity
8
0
100
AcDbSpline
70
0
71
3
72
14
73
10
74
0
42
0.000000001
43
0.0000000001
44
0.0000000001
40
0.048365208156510832
40
0.048365208156510832
40
0.048365208156510832
40
0.048365208156510832
40
0.85185640395559159
40
0.85185640395559159
40
0.85185640395559159
40
1
40
1
40
1
40
1.0000465039515902
40
1.0000465039515902
40
1.0000465039515902
40
1.0000465039515902
10
415.38564129679514
20
149.7877368879702
30
0
10
415.42472200264672
20
148.99829322624265
30
0
10
415.8223561502665
20
147.84808758849744
30
0
10
416.31006701375202
20
147.11857608721985
30
0
10
416.39998864764721
20
146.98407248877339
30
0
10
416.49211031799541
20
146.86361448704815
30
0
10
416.58241987998042
20
146.76196223572404
30
0
10
416.58245384028146
20
146.76192401008143
30
0
10
416.58248780058227
20
146.76188578443885
30
0
10
416.58252176116196
20
146.76184755848277
30
0
0
LINE
5
151
100
AcDbEntity
8
0
100
AcDbLine
10
378.57658914350839
20
224.15877405929882
30
0
11
387.49384782844447
21
217.84849083602225
31
0
0
SPLINE
5
152
100
AcDbEntity
8
0
100
AcDbSpline
70
0
71
3
72
17
73
13
74
0
42
0.000000001
43
0.0000000001
44
0.0000000001
40
-0.0012880450509399784
40
-0.0012880450509399784
40
-0.0012880450509399784
40
-0.0012880450509399784
40
0
40
0
40
0
40
0.44532644559751117
40
0.44532644559751117
40
0.44532644559751117
40
0.90713310891006094
40
0.90713310891006094
40
0.90713310891006094
40
1
40
1
40
1
40
1
10
334.12211262650499
20
232.27609906459122
30
0
10
334.12349397477374
20
232.27640807317221
30
0
10
334.12487532306488
20
232.27671708175833
30
0
10
334.12625667135569
20
232.27702609034429
30
0
10
335.0158054489101
20
232.47601877868954
30
0
10
335.81417241969791
20
232.59418835309026
30
0
10
336.64865012846246
20
232.69446230001063
30
0
10
337.51400939491316
20
232.7984470898254
30
0
10
338.36838592629658
20
232.87291069242946
30
0
10
339.2678253812453
20
232.89910808280538
30
0
10
339.44869792497525
20
232.90437624022303
30
0
10
339.6325468144214
20
232.90748858435961
30
0
10
339.82366011797478
20
232.90749193498016
30
0
0
LINE
5
153
100
AcDbEntity
8
0
100
AcDbLine
10
339.82379160884278
20
225.40749193613308
30
0
11
374.6535454792222
21
225.40810257540741
31
0
0
ENDSEC
0
SECTION
2
OBJECTS
0
DICTIONARY
5
C
100
AcDbDictionary
3
ACAD_GROUP
350
D
3
ACAD_MLINESTYLE
350
17
0
DICTIONARY
5
D
100
AcDbDictionary
0
DICTIONARY
5
1A
330
C
100
AcDbDictionary
0
DICTIONARY
5
17
100
AcDbDictionary
0
ENDSEC
0
EOF
