0
SECTION
2
HEADER
9
$INSUNITS
70
4
9
$ACADVER
1
AC1014
9
$HANDSEED
5
FFFF
0
ENDSEC
0
SECTION
2
TABLES
0
TABLE
2
VPORT
5
8
100
AcDbSymbolTable
0
ENDTAB
0
TABLE
2
LTYPE
5
5
100
AcDbSymbolTable
0
LTYPE
5
14
100
AcDbSymbolTableRecord
100
AcDbLinetypeTableRecord
2
BYBLOCK
70
0
0
LTYPE
5
15
100
AcDbSymbolTableRecord
100
AcDbLinetypeTableRecord
2
BYLAYER
70
0
0
LTYPE
5
16
100
AcDbSymbolTableRecord
100
AcDbLinetypeTableRecord
2
DASHED
70
0
3
Dashed __ __ __ __ __ __ __ __ __ __ __ __ __ _
72
65
73
2
40
0.75
49
0.5
74
0
49
-0.25
74
0
0
ENDTAB
0
TABLE
2
LAYER
5
2
100
AcDbSymbolTable
70
2
0
LAYER
5
50
100
AcDbSymbolTableRecord
100
AcDbLayerTableRecord
2
0
70
0
62
7
6
CONTINUOUS
0
ENDTAB
0
TABLE
2
STYLE
5
3
100
AcDbSymbolTable
70
1
0
STYLE
5
11
100
AcDbSymbolTableRecord
100
AcDbTextStyleTableRecord
2
STANDARD
70
0
0
ENDTAB
0
TABLE
2
VIEW
5
6
100
AcDbSymbolTable
70
0
0
ENDTAB
0
TABLE
2
UCS
5
7
100
AcDbSymbolTable
70
0
0
ENDTAB
0
TABLE
2
APPID
5
9
100
AcDbSymbolTable
70
2
0
APPID
5
12
100
AcDbSymbolTableRecord
100
AcDbRegAppTableRecord
2
ACAD
70
0
0
ENDTAB
0
TABLE
2
DIMSTYLE
5
A
100
AcDbSymbolTable
70
1
0
ENDTAB
0
TABLE
2
BLOCK_RECORD
5
1
100
AcDbSymbolTable
70
1
0
BLOCK_RECORD
5
1F
100
AcDbSymbolTableRecord
100
AcDbBlockTableRecord
2
*MODEL_SPACE
0
BLOCK_RECORD
5
1B
100
AcDbSymbolTableRecord
100
AcDbBlockTableRecord
2
*PAPER_SPACE
0
ENDTAB
0
ENDSEC
0
SECTION
2
BLOCKS
0
BLOCK
5
20
100
AcDbEntity
100
AcDbBlockBegin
2
*MODEL_SPACE
0
ENDBLK
5
21
100
AcDbEntity
100
AcDbBlockEnd
0
BLOCK
5
1C
100
AcDbEntity
100
AcDbBlockBegin
2
*PAPER_SPACE
0
ENDBLK
5
1D
100
AcDbEntity
100
AcDbBlockEnd
0
ENDSEC
0
SECTION
2
ENTITIES
0
POINT
5
100
100
AcDbEntity
8
0
100
AcDbPoint
10
758.21628718263423
20
216.28493845964005
30
0
0
POINT
5
101
100
AcDbEntity
8
0
100
AcDbPoint
10
891.85666815159777
20
214.22841230799446
30
0
0
ARC
5
102
100
AcDbEntity
8
0
100
AcDbCircle
10
759.04552782014298
20
218.28492392160501
30
0
40
2.0000000000003411
210
0
220
0
230
1
100
AcDbArc
50
224.96093068633715
51
269.99899548376163
0
ARC
5
103
100
AcDbEntity
8
0
100
AcDbCircle
10
779.4311829320128
20
222.41625225991245
30
0
40
2.0000000000001616
210
0
220
0
230
1
100
AcDbArc
50
125.28502537946787
51
179.99899548387324
0
LINE
5
104
100
AcDbEntity
8
0
100
AcDbLine
10
777.43107543089627
20
216.28460158374938
30
0
11
777.4311829323201
21
222.41628732414387
31
0
0
SPLINE
5
105
100
AcDbEntity
8
0
100
AcDbSpline
70
0
71
1
72
4
73
2
74
0
42
0.000000001
43
0.0000000001
44
0.0000000001
40
0
40
0
40
0.0011478881703206895
40
0.0011478881703206895
10
787.08326283707379
20
230.28135192014051
30
0
10
787.07389897053213
20
230.27471243758936
30
0
0
LINE
5
106
100
AcDbEntity
8
0
100
AcDbLine
10
759.04549275591148
20
216.28492392191202
30
0
11
777.43107543089627
21
216.28460158374938
31
0
0
ARC
5
107
100
AcDbEntity
8
0
100
AcDbCircle
10
755.70426538829929
20
215.97003065790975
30
0
40
1.999999999999889
210
0
220
-0
230
1
100
AcDbArc
50
44.96093068632446
51
146.02313876034168
0
LINE
5
108
100
AcDbEntity
8
0
100
AcDbLine
10
787.07389897053213
20
230.27471243758936
30
0
11
778.61173274694897
21
224.28648454112565
31
0
0
LINE
5
109
100
AcDbEntity
8
0
100
AcDbLine
10
757.63035025114505
20
216.87167502342515
30
0
11
757.11944295729722
21
217.38327955608898
31
0
0
CIRCLE
5
110
100
AcDbEntity
8
0
100
AcDbCircle
10
732.83655283015821
20
127.20070637062688
30
0
40
1.2
210
0
220
0
230
1
0
SPLINE
5
111
100
AcDbEntity
8
0
100
AcDbSpline
70
0
71
3
72
14
73
10
74
0
42
0.000000001
43
0.0000000001
44
0.0000000001
40
0
40
0
40
0
40
0
40
0.35737177311493251
40
0.35737177311493251
40
0.35737177311493251
40
0.75402780165018124
40
0.75402780165018124
40
0.75402780165018124
40
1
40
1
40
1
40
1
10
897.19079286356168
20
210.08967174433249
30
0
10
897.19082642826606
20
212.00414144790332
30
0
10
896.67005698032517
20
213.66677907071474
30
0
10
895.90596800986202
20
215.06527675523327
30
0
10
895.0578862102567
20
216.61750493660793
30
0
10
893.90057256995658
20
217.90153215813024
30
0
10
892.35513213562194
20
218.90911549050475
30
0
10
891.39678194375506
20
219.53393263547537
30
0
10
890.27410410766925
20
220.04651949254682
30
0
10
888.98641141464418
20
220.3345765324529
30
0
0
SPLINE
5
112
100
AcDbEntity
8
0
100
AcDbSpline
70
0
71
3
72
14
73
10
74
0
42
0.000000001
43
0.0000000001
44
0.0000000001
40
0.00016221504811703984
40
0.00016221504811703984
40
0.00016221504811703984
40
0.00016221504811703984
40
0.36867590397288497
40
0.36867590397288497
40
0.36867590397288497
40
0.75270538978271406
40
0.75270538978271406
40
0.75270538978271406
40
1
40
1
40
1
40
1
10
731.72081625442786
20
133.61954400569135
30
0
10
730.43449643606573
20
132.17106328035311
30
0
10
729.75235067374888
20
130.63285316710991
30
0
10
729.37879422188803
20
129.13963083587237
30
0
10
728.98950965406721
20
127.58353829087613
30
0
10
728.92272783625697
20
126.03278347674578
30
0
10
729.2345625908913
20
124.37907832652559
30
0
10
729.43536762526742
20
123.31417996416261
30
0
10
729.80410004441239
20
122.1984329522513
30
0
10
730.45139615537255
20
121.07803526937377
30
0
0
ARC
5
113
100
AcDbEntity
8
0
100
AcDbCircle
10
834.16782976234686
20
230.56373839077122
30
0
40
2.000000000000008
210
0
220
-0
230
1
100
AcDbArc
50
81.090668309603956
51
180
0
LINE
5
114
100
AcDbEntity
8
0
100
AcDbLine
10
745.84597745241979
20
149.53845741440747
30
0
11
731.72081601251148
21
133.6195442205165
31
0
0
CIRCLE
5
115
100
AcDbEntity
8
0
100
AcDbCircle
10
891.85666815159777
20
214.22841230799446
30
0
40
1.2
210
0
220
0
230
1
0
ARC
5
116
100
AcDbEntity
8
0
100
AcDbCircle
10
742.10601773481187
20
152.85699644697419
30
0
40
4.9999999999998739
210
0
220
0
230
1
100
AcDbArc
50
318.41673196050795
51
359.99899548387322
0
LINE
5
117
100
AcDbEntity
8
0
100
AcDbLine
10
730.45139615537232
20
121.07803526937377
30
0
11
747.69295845867623
21
91.296570792042957
31
0
0
SPLINE
5
118
100
AcDbEntity
8
0
100
AcDbSpline
70
0
71
3
72
14
73
10
74
0
42
0.000000001
43
0.0000000001
44
0.0000000001
40
0.00021400728288045398
40
0.00021400728288045398
40
0.00021400728288045398
40
0.00021400728288045398
40
0.39654478103096191
40
0.39654478103096191
40
0.39654478103096191
40
0.84385328032283291
40
0.84385328032283291
40
0.84385328032283291
40
1
40
1
40
1
40
1
10
747.69295899236022
20
91.296571100636925
30
0
10
748.77866468252705
20
89.418977970048303
30
0
10
750.43939242263696
20
87.988527422293259
30
0
10
752.28615510734448
20
87.168065476652174
30
0
10
754.37045615021475
20
86.242072276174497
30
0
10
756.73866790691113
20
86.032387719126035
30
0
10
759.02992466165279
20
86.668694925610453
30
0
10
759.82975794619222
20
86.890817427545414
30
0
10
760.61568063219977
20
87.217750756037333
30
0
10
761.35437629813146
20
87.644549523017588
30
0
0
CIRCLE
5
119
100
AcDbEntity
8
0
100
AcDbCircle
10
837.92798808126463
20
227.86704981532364
30
0
40
1.2
210
0
220
0
230
1
0
SPLINE
5
120
100
AcDbEntity
8
0
100
AcDbSpline
70
0
71
3
72
11
73
7
74
0
42
0.000000001
43
0.0000000001
44
0.0000000001
40
-0.0012880450509399784
40
-0.0012880450509399784
40
-0.0012880450509399784
40
-0.0012880450509399784
40
0
40
0
40
0
40
0.24162867991649323
40
0.24162867991649323
40
0.24162867991649323
40
0.24162867991649323
10
835.86949259640869
20
232.27609906459162
30
0
10
835.86811124814005
20
232.2764080731726
30
0
10
835.86672989984891
20
232.27671708175873
30
0
10
835.8653485515581
20
232.27702609034469
30
0
10
835.38269027027536
20
232.38499708796508
30
0
10
834.92687604790365
20
232.46917364117789
30
0
10
834.47757234636788
20
232.53960770113667
30
0
0
LINE
5
121
100
AcDbEntity
8
0
100
AcDbLine
10
747.10688543131573
20
202.34878343928659
30
0
11
747.10601773404335
21
152.85690878639568
31
0
0
CIRCLE
5
122
100
AcDbEntity
8
0
100
AcDbCircle
10
795.6245451486086
20
111.6860562245287
30
0
40
1.2
210
0
220
0
230
1
0
LINE
5
123
100
AcDbEntity
8
0
100
AcDbLine
10
897.18917809873096
20
117.98642197550225
30
0
11
897.19079286356168
21
210.08967174433283
31
0
0
CIRCLE
5
124
100
AcDbEntity
8
0
100
AcDbCircle
10
891.53292411705615
20
113.64423058617635
30
0
40
1.2
210
0
220
0
230
1
0
SPLINE
5
125
100
AcDbEntity
8
0
100
AcDbSpline
70
0
71
3
72
8
73
4
74
0
42
0.000000001
43
0.0000000001
44
0.0000000001
40
0.40648069728705111
40
0.40648069728705111
40
0.40648069728705111
40
0.40648069728705111
40
0.59941312190361262
40
0.59941312190361262
40
0.59941312190361262
40
0.59941312190361262
10
796.54140667086472
20
107.94299524321528
30
0
10
796.59261662009476
20
107.95881015224882
30
0
10
796.65857998711408
20
107.97633721147815
30
0
10
796.71028509064399
20
107.98791807861281
30
0
0
CIRCLE
5
126
100
AcDbEntity
8
0
100
AcDbCircle
10
754.77798569321885
20
90.287806096732652
30
0
40
1.2
210
0
220
0
230
1
0
LINE
5
127
100
AcDbEntity
8
0
100
AcDbLine
10
832.16782976234754
20
225.04575182476063
30
0
11
832.16782976234663
21
230.56373839077094
31
0
0
SPLINE
5
128
100
AcDbEntity
8
0
100
AcDbSpline
70
0
71
3
72
11
73
7
74
0
42
0.000000001
43
0.0000000001
44
0.0000000001
40
0.54313325882531405
40
0.54313325882531405
40
0.54313325882531405
40
0.54313325882531405
40
0.7427224299007007
40
0.7427224299007007
40
0.7427224299007007
40
0.99894491497656646
40
0.99894491497656646
40
0.99894491497656646
40
0.99894491497656646
10
790.69167874943685
20
232.0872583796766
30
0
10
790.18596027593981
20
231.91469015094836
30
0
10
789.68471613778411
20
231.71415262030709
30
0
10
789.1722321052689
20
231.47777533531308
30
0
10
788.51433101942689
20
231.17432612987611
30
0
10
787.84098971462777
20
230.81805285004717
30
0
10
787.08326283707379
20
230.28135192014051
30
0
0
LINE
5
129
100
AcDbEntity
8
0
100
AcDbLine
10
793.33757717852404
20
225.04575182476063
30
0
11
793.33757717852291
21
230.19442578821409
31
0
0
CIRCLE
5
130
100
AcDbEntity
8
0
100
AcDbCircle
10
751.46223229830855
20
205.46491342079119
30
0
40
1.2
210
0
220
0
230
1
0
LINE
5
131
100
AcDbEntity
8
0
100
AcDbLine
10
754.04573872104049
20
217.0877467640793
30
0
11
749.58874689105744
21
210.47422498965179
31
0
0
LINE
5
132
100
AcDbEntity
8
0
100
AcDbLine
10
778.61173274694897
20
224.28648454112565
30
0
11
778.27589432833065
21
224.04882943793584
31
0
0
LINE
5
133
100
AcDbEntity
8
0
100
AcDbLine
10
754.04573872104049
20
217.0877467640793
30
0
11
749.58874689105755
21
210.47422498965179
31
0
0
LINE
5
134
100
AcDbEntity
8
0
100
AcDbLine
10
761.35437629813146
20
87.644549523017588
30
0
11
796.54140667086472
21
107.94299524321514
31
0
0
LINE
5
135
100
AcDbEntity
8
0
100
AcDbLine
10
832.16782976234754
20
225.04575182476063
30
0
11
793.33757717852404
21
225.04575182476063
31
0
0
LINE
5
136
100
AcDbEntity
8
0
100
AcDbLine
10
796.71028509064399
20
107.98791807861289
30
0
11
887.18875274754112
21
107.98633179964992
31
0
0
SPLINE
5
137
100
AcDbEntity
8
0
100
AcDbSpline
70
0
71
3
72
17
73
13
74
0
42
0.000000001
43
0.0000000001
44
0.0000000001
40
-0.0021851623891537184
40
-0.0021851623891537184
40
-0.0021851623891537184
40
-0.0021851623891537184
40
0
40
0
40
0
40
0.34521356535394948
40
0.34521356535394948
40
0.34521356535394948
40
0.74612008656055573
40
0.74612008656055573
40
0.74612008656055573
40
1
40
1
40
1
40
1
10
749.58874689105778
20
210.47422498965193
30
0
10
749.58740553814141
20
210.47222842183953
30
0
10
749.58606418515205
20
210.47023185391853
30
0
10
749.5847228320896
20
210.46823528588899
30
0
10
748.90831625746853
20
209.46142225522325
30
0
10
748.520145705696
20
208.60540218268451
30
0
10
748.18664461917888
20
207.74589577138957
30
0
10
747.79934013919103
20
206.74772605881262
30
0
10
747.51712126178904
20
205.76908059349987
30
0
10
747.32210276788976
20
204.67490149941807
30
0
10
747.19860445660947
20
203.98199659765521
30
0
10
747.10690121097537
20
203.24882654061997
30
0
10
747.10688543131573
20
202.34878343928688
30
0
0
LINE
5
138
100
AcDbEntity
8
0
100
AcDbLine
10
888.98641141464452
20
220.3345765324529
30
0
11
835.86949259643063
21
232.27609906458542
31
0
0
SPLINE
5
139
100
AcDbEntity
8
0
100
AcDbSpline
70
0
71
3
72
14
73
10
74
0
42
0.000000001
43
0.0000000001
44
0.0000000001
40
0
40
0
40
0
40
0
40
0.39950619035870588
40
0.39950619035870588
40
0.39950619035870588
40
0.84569619330265011
40
0.84569619330265011
40
0.84569619330265011
40
1
40
1
40
1
40
1
10
887.18875274754168
20
107.9863317996541
30
0
10
889.36994612947103
20
107.98629355871941
30
0
10
891.45353679230902
20
108.71580764613594
30
0
10
893.09665124849425
20
109.92016817886903
30
0
10
894.93176985675495
20
111.26526280472018
30
0
10
896.29127268397849
20
113.21433989700932
30
0
10
896.87868579350379
20
115.51438542891933
30
0
10
897.08182812817222
20
116.30979944270112
30
0
10
897.18916332890558
20
117.14397799657976
30
0
10
897.18917809873096
20
117.98642197550666
30
0
0
ARC
5
140
100
AcDbEntity
8
0
100
AcDbCircle
10
791.33757717852291
20
230.19442578821366
30
0
40
2.0000000000000284
210
0
220
-0
230
1
100
AcDbArc
50
0
51
108.84137497510312
0
ENDSEC
0
SECTION
2
OBJECTS
0
DICTIONARY
5
C
100
AcDbDictionary
3
ACAD_GROUP
350
D
3
ACAD_MLINESTYLE
350
17
0
DICTIONARY
5
D
100
AcDbDictionary
0
DICTIONARY
5
1A
330
C
100
AcDbDictionary
0
DICTIONARY
5
17
100
AcDbDictionary
0
ENDSEC
0
EOF
