0
SECTION
2
HEADER
9
$INSUNITS
70
4
9
$ACADVER
1
AC1014
9
$HANDSEED
5
FFFF
0
ENDSEC
0
SECTION
2
TABLES
0
TABLE
2
VPORT
5
8
100
AcDbSymbolTable
0
ENDTAB
0
TABLE
2
LTYPE
5
5
100
AcDbSymbolTable
0
LTYPE
5
14
100
AcDbSymbolTableRecord
100
AcDbLinetypeTableRecord
2
BYBLOCK
70
0
0
LTYPE
5
15
100
AcDbSymbolTableRecord
100
AcDbLinetypeTableRecord
2
BYLAYER
70
0
0
LTYPE
5
16
100
AcDbSymbolTableRecord
100
AcDbLinetypeTableRecord
2
DASHED
70
0
3
Dashed __ __ __ __ __ __ __ __ __ __ __ __ __ _
72
65
73
2
40
0.75
49
0.5
74
0
49
-0.25
74
0
0
ENDTAB
0
TABLE
2
LAYER
5
2
100
AcDbSymbolTable
70
2
0
LAYER
5
50
100
AcDbSymbolTableRecord
100
AcDbLayerTableRecord
2
0
70
0
62
7
6
CONTINUOUS
0
ENDTAB
0
TABLE
2
STYLE
5
3
100
AcDbSymbolTable
70
1
0
STYLE
5
11
100
AcDbSymbolTableRecord
100
AcDbTextStyleTableRecord
2
STANDARD
70
0
0
ENDTAB
0
TABLE
2
VIEW
5
6
100
AcDbSymbolTable
70
0
0
ENDTAB
0
TABLE
2
UCS
5
7
100
AcDbSymbolTable
70
0
0
ENDTAB
0
TABLE
2
APPID
5
9
100
AcDbSymbolTable
70
2
0
APPID
5
12
100
AcDbSymbolTableRecord
100
AcDbRegAppTableRecord
2
ACAD
70
0
0
ENDTAB
0
TABLE
2
DIMSTYLE
5
A
100
AcDbSymbolTable
70
1
0
ENDTAB
0
TABLE
2
BLOCK_RECORD
5
1
100
AcDbSymbolTable
70
1
0
BLOCK_RECORD
5
1F
100
AcDbSymbolTableRecord
100
AcDbBlockTableRecord
2
*MODEL_SPACE
0
BLOCK_RECORD
5
1B
100
AcDbSymbolTableRecord
100
AcDbBlockTableRecord
2
*PAPER_SPACE
0
ENDTAB
0
ENDSEC
0
SECTION
2
BLOCKS
0
BLOCK
5
20
100
AcDbEntity
100
AcDbBlockBegin
2
*MODEL_SPACE
0
ENDBLK
5
21
100
AcDbEntity
100
AcDbBlockEnd
0
BLOCK
5
1C
100
AcDbEntity
100
AcDbBlockBegin
2
*PAPER_SPACE
0
ENDBLK
5
1D
100
AcDbEntity
100
AcDbBlockEnd
0
ENDSEC
0
SECTION
2
ENTITIES
0
POINT
5
100
100
AcDbEntity
8
0
100
AcDbPoint
10
887.88668305567376
20
16.062847173487
30
0
0
POINT
5
101
100
AcDbEntity
8
0
100
AcDbPoint
10
891.85772514434325
20
14.223845651156921
30
0
0
ARC
5
102
100
AcDbEntity
8
0
100
AcDbCircle
10
755.70426538829929
20
15.970030657909717
30
0
40
1.999999999999889
210
0
220
-0
230
1
100
AcDbArc
50
44.96093068632446
51
146.02313876034168
0
LINE
5
103
100
AcDbEntity
8
0
100
AcDbLine
10
777.43081770451818
20
1.584357617184935
30
0
11
765.27057803980483
21
1.584357617184935
31
0
0
ARC
5
104
100
AcDbEntity
8
0
100
AcDbCircle
10
779.43118293201269
20
22.416252259912426
30
0
40
2.0000000000001616
210
0
220
0
230
1
100
AcDbArc
50
125.28502537946787
51
179.99899548387324
0
ARC
5
105
100
AcDbEntity
8
0
100
AcDbCircle
10
742.10601773481187
20
-47.143003553025835
30
0
40
4.9999999999998739
210
0
220
0
230
1
100
AcDbArc
50
318.41673196050795
51
359.99899548387322
0
CIRCLE
5
106
100
AcDbEntity
8
0
100
AcDbCircle
10
732.83655283015833
20
-72.799293629373238
30
0
40
1.7000000000000002
210
0
220
0
230
1
0
LINE
5
107
100
AcDbEntity
8
0
100
AcDbLine
10
745.84597745241979
20
-50.461542585592554
30
0
11
731.7208160125117
21
-66.380455779483611
31
0
0
SPLINE
5
108
100
AcDbEntity
8
0
100
AcDbSpline
70
0
71
3
72
14
73
10
74
0
42
0.000000001
43
0.0000000001
44
0.0000000001
40
0
40
0
40
0
40
0
40
0.35737177311493251
40
0.35737177311493251
40
0.35737177311493251
40
0.75402780165018124
40
0.75402780165018124
40
0.75402780165018124
40
1
40
1
40
1
40
1
10
897.19079286356168
20
10.089671744332378
30
0
10
897.19082642826606
20
12.004141447903294
30
0
10
896.67005698032517
20
13.666779070714625
30
0
10
895.90596800986214
20
15.065276755233157
30
0
10
895.05788621025681
20
16.617504936607901
30
0
10
893.90057256995669
20
17.901532158130209
30
0
10
892.35513213562228
20
18.909115490504718
30
0
10
891.39678194375529
20
19.533932635475253
30
0
10
890.27410410766947
20
20.046519492546793
30
0
10
888.98641141464452
20
20.334576532452928
30
0
0
SPLINE
5
109
100
AcDbEntity
8
0
100
AcDbSpline
70
0
71
3
72
14
73
10
74
0
42
0.000000001
43
0.0000000001
44
0.0000000001
40
0
40
0
40
0
40
0
40
0.39950619035870588
40
0.39950619035870588
40
0.39950619035870588
40
0.84569619330265011
40
0.84569619330265011
40
0.84569619330265011
40
1
40
1
40
1
40
1
10
887.18875274754146
20
-92.013668200350054
30
0
10
889.36994612947069
20
-92.013706441284739
30
0
10
891.4535367923088
20
-91.284192353868292
30
0
10
893.09665124849403
20
-90.079831821135201
30
0
10
894.93176985675461
20
-88.734737195284197
30
0
10
896.29127268397838
20
-86.785660102995053
30
0
10
896.87868579350379
20
-84.485614571085108
30
0
10
897.08182812817199
20
-83.690200557303314
30
0
10
897.18916332890558
20
-82.85602200342467
30
0
10
897.18917809873096
20
-82.013578024497775
30
0
0
CIRCLE
5
110
100
AcDbEntity
8
0
100
AcDbCircle
10
891.53398110980163
20
-86.36033607066139
30
0
40
1.7000000000000002
210
0
220
0
230
1
0
LINE
5
111
100
AcDbEntity
8
0
100
AcDbLine
10
897.18917809873096
20
-82.013578024497775
30
0
11
897.19079286356168
21
10.089671744332804
31
0
0
CIRCLE
5
112
100
AcDbEntity
8
0
100
AcDbCircle
10
891.5329241170565
20
-86.35576941382368
30
0
40
1.7000000000000002
210
0
220
0
230
1
0
CIRCLE
5
113
100
AcDbEntity
8
0
100
AcDbCircle
10
891.85772514434325
20
14.223845651156921
30
0
40
1.7000000000000002
210
0
220
0
230
1
0
CIRCLE
5
114
100
AcDbEntity
8
0
100
AcDbCircle
10
891.85666815159777
20
14.228412307994489
30
0
40
1.7000000000000002
210
0
220
0
230
1
0
LINE
5
115
100
AcDbEntity
8
0
100
AcDbLine
10
888.98641141464452
20
20.334576532452928
30
0
11
835.86949259643063
21
32.276099064585395
31
0
0
LINE
5
116
100
AcDbEntity
8
0
100
AcDbLine
10
796.71028509064422
20
-92.012081921387221
30
0
11
887.18875274754112
21
-92.013668200350054
31
0
0
SPLINE
5
117
100
AcDbEntity
8
0
100
AcDbSpline
70
0
71
1
72
4
73
2
74
0
42
0.000000001
43
0.0000000001
44
0.0000000001
40
0
40
0
40
0.0011478881703206895
40
0.0011478881703206895
10
787.08326283707379
20
30.28135192014048
30
0
10
787.07389897053213
20
30.274712437589244
30
0
0
SPLINE
5
118
100
AcDbEntity
8
0
100
AcDbSpline
70
0
71
3
72
11
73
7
74
0
42
0.000000001
43
0.0000000001
44
0.0000000001
40
-0.0012880450509399784
40
-0.0012880450509399784
40
-0.0012880450509399784
40
-0.0012880450509399784
40
0
40
0
40
0
40
0.24162867654643008
40
0.24162867654643008
40
0.24162867654643008
40
0.24162867654643008
10
835.86949259640869
20
32.276099064591506
30
0
10
835.86811124814005
20
32.276408073172576
30
0
10
835.86672989984891
20
32.276717081758761
30
0
10
835.8653485515581
20
32.277026090344663
30
0
10
835.38269027700721
20
32.38499708645918
30
0
10
834.92687606061838
20
32.469173638829716
30
0
10
834.47757236516759
20
32.539607698189457
30
0
0
CIRCLE
5
119
100
AcDbEntity
8
0
100
AcDbCircle
10
837.92904507400988
20
27.862483158485958
30
0
40
1.7000000000000002
210
0
220
0
230
1
0
CIRCLE
5
120
100
AcDbEntity
8
0
100
AcDbCircle
10
795.6245451486086
20
-88.313943775471273
30
0
40
1.7000000000000002
210
0
220
0
230
1
0
ARC
5
121
100
AcDbEntity
8
0
100
AcDbCircle
10
791.33757717852291
20
30.19442578821355
30
0
40
2.0000000000000284
210
0
220
-0
230
1
100
AcDbArc
50
0
51
108.84137497487293
0
CIRCLE
5
122
100
AcDbEntity
8
0
100
AcDbCircle
10
837.92798808126463
20
27.867049815323526
30
0
40
1.7000000000000002
210
0
220
0
230
1
0
ARC
5
123
100
AcDbEntity
8
0
100
AcDbCircle
10
834.16782976234686
20
30.563738390771107
30
0
40
2.0000000000000169
210
0
220
-0
230
1
100
AcDbArc
50
81.090667764293016
51
180
0
SPLINE
5
124
100
AcDbEntity
8
0
100
AcDbSpline
70
0
71
3
72
11
73
7
74
0
42
0.000000001
43
0.0000000001
44
0.0000000001
40
0.54313325882531205
40
0.54313325882531205
40
0.54313325882531205
40
0.54313325882531205
40
0.7427224299007007
40
0.7427224299007007
40
0.7427224299007007
40
0.99894491497656646
40
0.99894491497656646
40
0.99894491497656646
40
0.99894491497656646
10
790.69167874943685
20
32.087258379676484
30
0
10
790.18596027593981
20
31.914690150948388
30
0
10
789.68471613778411
20
31.714152620307061
30
0
10
789.1722321052689
20
31.47777533531297
30
0
10
788.51433101942689
20
31.174326129876135
30
0
10
787.84098971462777
20
30.818052850047195
30
0
10
787.08326283707379
20
30.28135192014048
30
0
0
CIRCLE
5
125
100
AcDbEntity
8
0
100
AcDbCircle
10
795.62560214135385
20
-88.318510432309267
30
0
40
1.7000000000000002
210
0
220
0
230
1
0
LINE
5
126
100
AcDbEntity
8
0
100
AcDbLine
10
832.1678297623522
20
-9.5881085761200779
30
0
11
793.33757717853109
21
-9.5881085761202201
31
0
0
SPLINE
5
127
100
AcDbEntity
8
0
100
AcDbSpline
70
0
71
3
72
8
73
4
74
0
42
0.000000001
43
0.0000000001
44
0.0000000001
40
0.40648069728705111
40
0.40648069728705111
40
0.40648069728705111
40
0.40648069728705111
40
0.59941312190361262
40
0.59941312190361262
40
0.59941312190361262
40
0.59941312190361262
10
796.54140667086472
20
-92.057004756784693
30
0
10
796.59261662009476
20
-92.041189847751212
30
0
10
796.65857998711408
20
-92.02366278852196
30
0
10
796.71028509064422
20
-92.012081921387221
30
0
0
LINE
5
128
100
AcDbEntity
8
0
100
AcDbLine
10
793.33757717853109
20
-9.5881085761202201
30
0
11
793.33757717852291
21
30.194425788214119
31
0
0
LINE
5
129
100
AcDbEntity
8
0
100
AcDbLine
10
832.1678297623522
20
-9.5881085761200779
30
0
11
832.16782976234663
21
30.563738390770823
31
0
0
LINE
5
130
100
AcDbEntity
8
0
100
AcDbLine
10
787.07389897053213
20
30.274712437589244
30
0
11
778.61173274694897
21
24.286484541125617
31
0
0
CIRCLE
5
131
100
AcDbEntity
8
0
100
AcDbCircle
10
751.4632892910538
20
5.4603467639535097
30
0
40
1.7000000000000002
210
0
220
0
230
1
0
LINE
5
132
100
AcDbEntity
8
0
100
AcDbLine
10
730.45139615537255
20
-78.921964730626399
30
0
11
747.69295845867634
21
-108.70342920795707
31
0
0
LINE
5
133
100
AcDbEntity
8
0
100
AcDbLine
10
754.04573872104049
20
17.08774676407927
30
0
11
749.58874689105755
21
10.474224989651759
31
0
0
LINE
5
134
100
AcDbEntity
8
0
100
AcDbLine
10
761.35437629813157
20
-112.35545047698253
30
0
11
796.54140667086472
21
-92.057004756784977
31
0
0
CIRCLE
5
135
100
AcDbEntity
8
0
100
AcDbCircle
10
751.46223229830855
20
5.4649134207912198
30
0
40
1.7000000000000002
210
0
220
0
230
1
0
SPLINE
5
136
100
AcDbEntity
8
0
100
AcDbSpline
70
0
71
3
72
14
73
10
74
0
42
0.000000001
43
0.0000000001
44
0.0000000001
40
0.00021400728288045398
40
0.00021400728288045398
40
0.00021400728288045398
40
0.00021400728288045398
40
0.39654478103096191
40
0.39654478103096191
40
0.39654478103096191
40
0.84385328032283291
40
0.84385328032283291
40
0.84385328032283291
40
1
40
1
40
1
40
1
10
747.69295899236045
20
-108.70342889936325
30
0
10
748.77866468252716
20
-110.58102202995173
30
0
10
750.43939242263707
20
-112.01147257770685
30
0
10
752.2861551073446
20
-112.83193452334785
30
0
10
754.37045615021486
20
-113.75792772382567
30
0
10
756.73866790691125
20
-113.96761228087399
30
0
10
759.0299246616529
20
-113.33130507438966
30
0
10
759.82975794619233
20
-113.10918257245476
30
0
10
760.61568063219988
20
-112.78224924396284
30
0
10
761.35437629813157
20
-112.35545047698253
30
0
0
CIRCLE
5
137
100
AcDbEntity
8
0
100
AcDbCircle
10
754.77798569321908
20
-109.71219390326752
30
0
40
1.7000000000000002
210
0
220
0
230
1
0
LINE
5
138
100
AcDbEntity
8
0
100
AcDbLine
10
765.27057803980483
20
1.584357617184935
30
0
11
765.27057803980483
21
8.393392205738337
31
0
0
LINE
5
139
100
AcDbEntity
8
0
100
AcDbLine
10
764.68575560880265
20
9.8066411039178547
30
0
11
757.11944295729722
21
17.383279556088951
31
0
0
ARC
5
140
100
AcDbEntity
8
0
100
AcDbCircle
10
763.27057803980449
20
8.393392205738337
30
0
40
2.0000000000003126
210
0
220
-0
230
1
100
AcDbArc
50
0
51
44.960930686325618
0
LINE
5
141
100
AcDbEntity
8
0
100
AcDbLine
10
778.61173274694897
20
24.286484541125617
30
0
11
778.27589432833054
21
24.048829437935808
31
0
0
LINE
5
142
100
AcDbEntity
8
0
100
AcDbLine
10
777.43081770451818
20
1.584357617184935
30
0
11
777.43118293231998
21
22.416287324143838
31
0
0
SPLINE
5
143
100
AcDbEntity
8
0
100
AcDbSpline
70
0
71
3
72
14
73
10
74
0
42
0.000000001
43
0.0000000001
44
0.0000000001
40
0.00016221504811703984
40
0.00016221504811703984
40
0.00016221504811703984
40
0.00016221504811703984
40
0.36867590397288497
40
0.36867590397288497
40
0.36867590397288497
40
0.75270538978271406
40
0.75270538978271406
40
0.75270538978271406
40
1
40
1
40
1
40
1
10
731.72081625442786
20
-66.380455994308676
30
0
10
730.43449643606573
20
-67.828936719647004
30
0
10
729.75235067374888
20
-69.367146832890114
30
0
10
729.37879422188814
20
-70.860369164127803
30
0
10
728.98950965406721
20
-72.416461709123894
30
0
10
728.92272783625708
20
-73.967216523254251
30
0
10
729.23456259089153
20
-75.620921673474584
30
0
10
729.43536762526765
20
-76.685820035837651
30
0
10
729.80410004441251
20
-77.801567047748961
30
0
10
730.45139615537266
20
-78.921964730626399
30
0
0
LINE
5
144
100
AcDbEntity
8
0
100
AcDbLine
10
747.10688543131573
20
2.3487834392865636
30
0
11
747.10601773404335
21
-47.143091213604293
31
0
0
SPLINE
5
145
100
AcDbEntity
8
0
100
AcDbSpline
70
0
71
3
72
17
73
13
74
0
42
0.000000001
43
0.0000000001
44
0.0000000001
40
-0.0021851623891537184
40
-0.0021851623891537184
40
-0.0021851623891537184
40
-0.0021851623891537184
40
0
40
0
40
0
40
0.34521356535394948
40
0.34521356535394948
40
0.34521356535394948
40
0.74612008656055573
40
0.74612008656055573
40
0.74612008656055573
40
1
40
1
40
1
40
1
10
749.58874689105755
20
10.474224989651759
30
0
10
749.58740553814096
20
10.472228421839276
30
0
10
749.5860641851516
20
10.470231853918222
30
0
10
749.58472283208926
20
10.468235285888738
30
0
10
748.90831625746819
20
9.4614222552229421
30
0
10
748.52014570569565
20
8.6054021826842586
30
0
10
748.18664461917876
20
7.7458957713892573
30
0
10
747.79934013919069
20
6.7477260588123045
30
0
10
747.51712126178882
20
5.7690805934996092
30
0
10
747.32210276788976
20
4.6749014994176719
30
0
10
747.19860445660947
20
3.9819965976548133
30
0
10
747.10690121097537
20
3.2488265406196604
30
0
10
747.10688543131573
20
2.3487834392865636
30
0
0
ENDSEC
0
SECTION
2
OBJECTS
0
DICTIONARY
5
C
100
AcDbDictionary
3
ACAD_GROUP
350
D
3
ACAD_MLINESTYLE
350
17
0
DICTIONARY
5
D
100
AcDbDictionary
0
DICTIONARY
5
1A
330
C
100
AcDbDictionary
0
DICTIONARY
5
17
100
AcDbDictionary
0
ENDSEC
0
EOF
