0
SECTION
2
HEADER
9
$INSUNITS
70
4
9
$ACADVER
1
AC1014
9
$HANDSEED
5
FFFF
0
ENDSEC
0
SECTION
2
TABLES
0
TABLE
2
VPORT
5
8
100
AcDbSymbolTable
0
ENDTAB
0
TABLE
2
LTYPE
5
5
100
AcDbSymbolTable
0
LTYPE
5
14
100
AcDbSymbolTableRecord
100
AcDbLinetypeTableRecord
2
BYBLOCK
70
0
0
LTYPE
5
15
100
AcDbSymbolTableRecord
100
AcDbLinetypeTableRecord
2
BYLAYER
70
0
0
LTYPE
5
16
100
AcDbSymbolTableRecord
100
AcDbLinetypeTableRecord
2
DASHED
70
0
3
Dashed __ __ __ __ __ __ __ __ __ __ __ __ __ _
72
65
73
2
40
0.75
49
0.5
74
0
49
-0.25
74
0
0
ENDTAB
0
TABLE
2
LAYER
5
2
100
AcDbSymbolTable
70
2
0
LAYER
5
50
100
AcDbSymbolTableRecord
100
AcDbLayerTableRecord
2
0
70
0
62
7
6
CONTINUOUS
0
ENDTAB
0
TABLE
2
STYLE
5
3
100
AcDbSymbolTable
70
1
0
STYLE
5
11
100
AcDbSymbolTableRecord
100
AcDbTextStyleTableRecord
2
STANDARD
70
0
0
ENDTAB
0
TABLE
2
VIEW
5
6
100
AcDbSymbolTable
70
0
0
ENDTAB
0
TABLE
2
UCS
5
7
100
AcDbSymbolTable
70
0
0
ENDTAB
0
TABLE
2
APPID
5
9
100
AcDbSymbolTable
70
2
0
APPID
5
12
100
AcDbSymbolTableRecord
100
AcDbRegAppTableRecord
2
ACAD
70
0
0
ENDTAB
0
TABLE
2
DIMSTYLE
5
A
100
AcDbSymbolTable
70
1
0
ENDTAB
0
TABLE
2
BLOCK_RECORD
5
1
100
AcDbSymbolTable
70
1
0
BLOCK_RECORD
5
1F
100
AcDbSymbolTableRecord
100
AcDbBlockTableRecord
2
*MODEL_SPACE
0
BLOCK_RECORD
5
1B
100
AcDbSymbolTableRecord
100
AcDbBlockTableRecord
2
*PAPER_SPACE
0
ENDTAB
0
ENDSEC
0
SECTION
2
BLOCKS
0
BLOCK
5
20
100
AcDbEntity
100
AcDbBlockBegin
2
*MODEL_SPACE
0
ENDBLK
5
21
100
AcDbEntity
100
AcDbBlockEnd
0
BLOCK
5
1C
100
AcDbEntity
100
AcDbBlockBegin
2
*PAPER_SPACE
0
ENDBLK
5
1D
100
AcDbEntity
100
AcDbBlockEnd
0
ENDSEC
0
SECTION
2
ENTITIES
0
POINT
5
100
100
AcDbEntity
8
0
100
AcDbPoint
10
78.134937071316202
20
214.22841230799449
30
0
0
POINT
5
101
100
AcDbEntity
8
0
100
AcDbPoint
10
211.7753180402799
20
216.28493845964002
30
0
0
LINE
5
102
100
AcDbEntity
8
0
100
AcDbLine
10
215.94586650187355
20
217.08774676407927
30
0
11
220.40285833185658
21
210.47422498965176
31
0
0
ARC
5
103
100
AcDbEntity
8
0
100
AcDbCircle
10
190.56042229090136
20
222.41625225991243
30
0
40
2.0000000000000586
210
0
220
-0
230
1
100
AcDbArc
50
0.001004516126751393
51
54.714974620531457
0
LINE
5
104
100
AcDbEntity
8
0
100
AcDbLine
10
212.36125497176911
20
216.8716750234251
30
0
11
212.87216226561691
21
217.38327955608895
31
0
0
SPLINE
5
105
100
AcDbEntity
8
0
100
AcDbSpline
70
0
71
3
72
17
73
13
74
0
42
0.000000001
43
0.0000000001
44
0.0000000001
40
-0.0021851623891537184
40
-0.0021851623891537184
40
-0.0021851623891537184
40
-0.0021851623891537184
40
0
40
0
40
0
40
0.34521356535394948
40
0.34521356535394948
40
0.34521356535394948
40
0.74612008656055573
40
0.74612008656055573
40
0.74612008656055573
40
1
40
1
40
1
40
1
10
220.40285833185629
20
210.4742249896519
30
0
10
220.40419968477272
20
210.47222842183947
30
0
10
220.40554103776208
20
210.47023185391851
30
0
10
220.40688239082448
20
210.46823528588897
30
0
10
221.0832889654456
20
209.46142225522323
30
0
10
221.47145951721814
20
208.60540218268449
30
0
10
221.8049606037352
20
207.74589577138954
30
0
10
222.19226508372313
20
206.74772605881259
30
0
10
222.47448396112506
20
205.76908059349984
30
0
10
222.6695024550244
20
204.67490149941801
30
0
10
222.79300076630463
20
203.98199659765515
30
0
10
222.88470401193865
20
203.24882654061994
30
0
10
222.88471979159846
20
202.34878343928685
30
0
0
CIRCLE
5
106
100
AcDbEntity
8
0
100
AcDbCircle
10
78.134937071316202
20
214.22841230799449
30
0
40
1.2
210
0
220
0
230
1
0
SPLINE
5
107
100
AcDbEntity
8
0
100
AcDbSpline
70
0
71
3
72
14
73
10
74
0
42
0.000000001
43
0.0000000001
44
0.0000000001
40
0.00021400728288045398
40
0.00021400728288045398
40
0.00021400728288045398
40
0.00021400728288045398
40
0.39654478103096191
40
0.39654478103096191
40
0.39654478103096191
40
0.84385328032283291
40
0.84385328032283291
40
0.84385328032283291
40
1
40
1
40
1
40
1
10
222.2986462305538
20
91.296571100636825
30
0
10
221.21294054038702
20
89.418977970048203
30
0
10
219.55221280027718
20
87.988527422293146
30
0
10
217.70545011556965
20
87.168065476652075
30
0
10
215.62114907269932
20
86.242072276174397
30
0
10
213.252937316003
20
86.032387719125936
30
0
10
210.96168056126135
20
86.668694925610339
30
0
10
210.16184727672186
20
86.890817427545315
30
0
10
209.37592459071428
20
87.217750756037233
30
0
10
208.63722892478268
20
87.644549523017474
30
0
0
LINE
5
108
100
AcDbEntity
8
0
100
AcDbLine
10
72.802427124183211
20
117.98642197550222
30
0
11
72.800812359352491
21
210.08967174433286
31
0
0
LINE
5
109
100
AcDbEntity
8
0
100
AcDbLine
10
182.91770625238189
20
230.2747124375893
30
0
11
191.37987247596513
21
224.28648454112562
31
0
0
SPLINE
5
110
100
AcDbEntity
8
0
100
AcDbSpline
70
0
71
3
72
14
73
10
74
0
42
0.000000001
43
0.0000000001
44
0.0000000001
40
0
40
0
40
0
40
0
40
0.35737177311493251
40
0.35737177311493251
40
0.35737177311493251
40
0.75402780165018124
40
0.75402780165018124
40
0.75402780165018124
40
1
40
1
40
1
40
1
10
72.800812359352491
20
210.08967174433252
30
0
10
72.800778794648053
20
212.00414144790335
30
0
10
73.321548242588932
20
213.66677907071477
30
0
10
74.085637213051996
20
215.0652767552333
30
0
10
74.93371901265732
20
216.61750493660799
30
0
10
76.091032652957438
20
217.90153215813029
30
0
10
77.636473087291975
20
218.9091154905048
30
0
10
78.594823279158916
20
219.5339326354754
30
0
10
79.717501115244787
20
220.04651949254685
30
0
10
81.005193808269738
20
220.33457653245293
30
0
0
ARC
5
111
100
AcDbEntity
8
0
100
AcDbCircle
10
210.94607740277115
20
218.28492392160499
30
0
40
2.0000000000003784
210
-0
220
0
230
1
100
AcDbArc
50
270.00100451623837
51
315.03906931366282
0
SPLINE
5
112
100
AcDbEntity
8
0
100
AcDbSpline
70
0
71
1
72
4
73
2
74
0
42
0.000000001
43
0.0000000001
44
0.0000000001
40
0
40
0
40
0.0011478881703206895
40
0.0011478881703206895
10
182.90834238584029
20
230.28135192014048
30
0
10
182.91770625238189
20
230.2747124375893
30
0
0
LINE
5
113
100
AcDbEntity
8
0
100
AcDbLine
10
191.37987247596513
20
224.28648454112562
30
0
11
191.71571089458354
21
224.04882943793581
31
0
0
ARC
5
114
100
AcDbEntity
8
0
100
AcDbCircle
10
178.65402804439114
20
230.19442578821361
30
0
40
2.0000000000000226
210
0
220
-0
230
1
100
AcDbArc
50
71.15862502489766
51
180
0
LINE
5
115
100
AcDbEntity
8
0
100
AcDbLine
10
192.56052979201786
20
216.28460158374935
30
0
11
192.56042229059403
21
222.41628732414384
31
0
0
LINE
5
116
100
AcDbEntity
8
0
100
AcDbLine
10
215.94586650187355
20
217.08774676407927
30
0
11
220.40285833185666
21
210.47422498965176
31
0
0
CIRCLE
5
117
100
AcDbEntity
8
0
100
AcDbCircle
10
218.52937292460564
20
205.46491342079116
30
0
40
1.2
210
0
220
0
230
1
0
LINE
5
118
100
AcDbEntity
8
0
100
AcDbLine
10
210.94611246700265
20
216.28492392191197
30
0
11
192.56052979201786
21
216.28460158374935
31
0
0
LINE
5
119
100
AcDbEntity
8
0
100
AcDbLine
10
176.65402804439003
20
225.0457518247606
30
0
11
176.65402804439111
21
230.19442578821406
31
0
0
SPLINE
5
120
100
AcDbEntity
8
0
100
AcDbSpline
70
0
71
3
72
11
73
7
74
0
42
0.000000001
43
0.0000000001
44
0.0000000001
40
0.54313325882531405
40
0.54313325882531405
40
0.54313325882531405
40
0.54313325882531405
40
0.7427224299007007
40
0.7427224299007007
40
0.7427224299007007
40
0.99894491497656646
40
0.99894491497656646
40
0.99894491497656646
40
0.99894491497656646
10
179.29992647347717
20
232.08725837967654
30
0
10
179.80564494697427
20
231.91469015094833
30
0
10
180.30688908512997
20
231.71415262030706
30
0
10
180.81937311764523
20
231.47777533531303
30
0
10
181.47727420348718
20
231.17432612987608
30
0
10
182.15061550828625
20
230.81805285004714
30
0
10
182.90834238584029
20
230.28135192014048
30
0
0
ARC
5
121
100
AcDbEntity
8
0
100
AcDbCircle
10
214.2873398346147
20
215.97003065790972
30
0
40
1.9999999999999036
210
0
220
-0
230
1
100
AcDbArc
50
33.976861239657424
51
135.03906931367266
0
LINE
5
122
100
AcDbEntity
8
0
100
AcDbLine
10
239.5402090675417
20
121.07803526937367
30
0
11
222.2986467642379
21
91.296570792042857
31
0
0
CIRCLE
5
123
100
AcDbEntity
8
0
100
AcDbCircle
10
237.15505239275589
20
127.20070637062683
30
0
40
1.2
210
0
220
0
230
1
0
SPLINE
5
124
100
AcDbEntity
8
0
100
AcDbSpline
70
0
71
3
72
11
73
7
74
0
42
0.000000001
43
0.0000000001
44
0.0000000001
40
-0.0012880450509399784
40
-0.0012880450509399784
40
-0.0012880450509399784
40
-0.0012880450509399784
40
0
40
0
40
0
40
0.24162867991649323
40
0.24162867991649323
40
0.24162867991649323
40
0.24162867991649323
10
134.12211262650538
20
232.27609906459156
30
0
10
134.12349397477408
20
232.27640807317258
30
0
10
134.12487532306523
20
232.2767170817587
30
0
10
134.12625667135609
20
232.27702609034466
30
0
10
134.60891495263866
20
232.38499708796502
30
0
10
135.06472917501043
20
232.46917364117786
30
0
10
135.51403287654622
20
232.53960770113665
30
0
0
CIRCLE
5
125
100
AcDbEntity
8
0
100
AcDbCircle
10
132.0636171416495
20
227.86704981532358
30
0
40
1.2
210
0
220
0
230
1
0
ARC
5
126
100
AcDbEntity
8
0
100
AcDbCircle
10
227.88558748810229
20
152.85699644697416
30
0
40
4.9999999999999147
210
0
220
0
230
1
100
AcDbArc
50
180.00100451612676
51
221.58326803949143
0
CIRCLE
5
127
100
AcDbEntity
8
0
100
AcDbCircle
10
78.458681105857764
20
113.64423058617632
30
0
40
1.2
210
0
220
0
230
1
0
CIRCLE
5
128
100
AcDbEntity
8
0
100
AcDbCircle
10
215.21361952969517
20
90.287806096732552
30
0
40
1.2
210
0
220
0
230
1
0
SPLINE
5
129
100
AcDbEntity
8
0
100
AcDbSpline
70
0
71
3
72
14
73
10
74
0
42
0.000000001
43
0.0000000001
44
0.0000000001
40
0
40
0
40
0
40
0
40
0.39950619035870588
40
0.39950619035870588
40
0.39950619035870588
40
0.84569619330265011
40
0.84569619330265011
40
0.84569619330265011
40
1
40
1
40
1
40
1
10
82.802852475372362
20
107.98633179965407
30
0
10
80.621659093443014
20
107.98629355871938
30
0
10
78.538068430604966
20
108.7158076461359
30
0
10
76.894953974419664
20
109.92016817886899
30
0
10
75.059835366159078
20
111.26526280472014
30
0
10
73.700332538935527
20
113.21433989700928
30
0
10
73.112919429410184
20
115.5143854289193
30
0
10
72.909777094741841
20
116.30979944270109
30
0
10
72.802441894008396
20
117.14397799657974
30
0
10
72.80242712418314
20
117.98642197550663
30
0
0
LINE
5
130
100
AcDbEntity
8
0
100
AcDbLine
10
224.14562777049429
20
149.53845741440745
30
0
11
238.27078921040257
21
133.61954422051645
31
0
0
LINE
5
131
100
AcDbEntity
8
0
100
AcDbLine
10
137.82377546056651
20
225.0457518247606
30
0
11
176.65402804439003
21
225.0457518247606
31
0
0
CIRCLE
5
132
100
AcDbEntity
8
0
100
AcDbCircle
10
174.36706007430553
20
111.68605622452858
30
0
40
1.2
210
0
220
0
230
1
0
SPLINE
5
133
100
AcDbEntity
8
0
100
AcDbSpline
70
0
71
3
72
14
73
10
74
0
42
0.000000001
43
0.0000000001
44
0.0000000001
40
0.00016221504811703984
40
0.00016221504811703984
40
0.00016221504811703984
40
0.00016221504811703984
40
0.36867590397288497
40
0.36867590397288497
40
0.36867590397288497
40
0.75270538978271406
40
0.75270538978271406
40
0.75270538978271406
40
1
40
1
40
1
40
1
10
238.27078896848622
20
133.61954400569132
30
0
10
239.55710878684829
20
132.17106328035305
30
0
10
240.23925454916525
20
130.63285316710989
30
0
10
240.61281100102607
20
129.13963083587234
30
0
10
241.00209556884681
20
127.58353829087611
30
0
10
241.06887738665708
20
126.03278347674575
30
0
10
240.75704263202272
20
124.37907832652556
30
0
10
240.5562375976466
20
123.31417996416249
30
0
10
240.18750517850168
20
122.19843295225118
30
0
10
239.54020906754155
20
121.07803526937367
30
0
0
LINE
5
134
100
AcDbEntity
8
0
100
AcDbLine
10
173.28132013226997
20
107.98791807861278
30
0
11
82.802852475372859
21
107.98633179964988
31
0
0
SPLINE
5
135
100
AcDbEntity
8
0
100
AcDbSpline
70
0
71
3
72
8
73
4
74
0
42
0.000000001
43
0.0000000001
44
0.0000000001
40
0.40648069728705111
40
0.40648069728705111
40
0.40648069728705111
40
0.40648069728705111
40
0.59941312190361262
40
0.59941312190361262
40
0.59941312190361262
40
0.59941312190361262
10
173.45019855204947
20
107.94299524321517
30
0
10
173.39898860281943
20
107.95881015224872
30
0
10
173.33302523580011
20
107.97633721147804
30
0
10
173.28132013226997
20
107.98791807861271
30
0
0
LINE
5
136
100
AcDbEntity
8
0
100
AcDbLine
10
222.8847197915984
20
202.34878343928656
30
0
11
222.88558748887081
21
152.85690878639565
31
0
0
LINE
5
137
100
AcDbEntity
8
0
100
AcDbLine
10
81.005193808269595
20
220.33457653245293
30
0
11
134.1221126264835
21
232.2760990645854
31
0
0
ARC
5
138
100
AcDbEntity
8
0
100
AcDbCircle
10
135.82377546056728
20
230.56373839077116
30
0
40
2.0000000000000284
210
0
220
0
230
1
100
AcDbArc
50
0
51
98.909331690397551
0
LINE
5
139
100
AcDbEntity
8
0
100
AcDbLine
10
137.82377546056651
20
225.0457518247606
30
0
11
137.82377546056728
21
230.56373839077088
31
0
0
LINE
5
140
100
AcDbEntity
8
0
100
AcDbLine
10
208.63722892478268
20
87.644549523017474
30
0
11
173.45019855204947
21
107.94299524321502
31
0
0
ENDSEC
0
SECTION
2
OBJECTS
0
DICTIONARY
5
C
100
AcDbDictionary
3
ACAD_GROUP
350
D
3
ACAD_MLINESTYLE
350
17
0
DICTIONARY
5
D
100
AcDbDictionary
0
DICTIONARY
5
1A
330
C
100
AcDbDictionary
0
DICTIONARY
5
17
100
AcDbDictionary
0
ENDSEC
0
EOF
