0
SECTION
2
HEADER
9
$INSUNITS
70
4
9
$ACADVER
1
AC1014
9
$HANDSEED
5
FFFF
0
ENDSEC
0
SECTION
2
TABLES
0
TABLE
2
VPORT
5
8
100
AcDbSymbolTable
0
ENDTAB
0
TABLE
2
LTYPE
5
5
100
AcDbSymbolTable
0
LTYPE
5
14
100
AcDbSymbolTableRecord
100
AcDbLinetypeTableRecord
2
BYBLOCK
70
0
0
LTYPE
5
15
100
AcDbSymbolTableRecord
100
AcDbLinetypeTableRecord
2
BYLAYER
70
0
0
LTYPE
5
16
100
AcDbSymbolTableRecord
100
AcDbLinetypeTableRecord
2
DASHED
70
0
3
Dashed __ __ __ __ __ __ __ __ __ __ __ __ __ _
72
65
73
2
40
0.75
49
0.5
74
0
49
-0.25
74
0
0
ENDTAB
0
TABLE
2
LAYER
5
2
100
AcDbSymbolTable
70
2
0
LAYER
5
50
100
AcDbSymbolTableRecord
100
AcDbLayerTableRecord
2
0
70
0
62
7
6
CONTINUOUS
0
ENDTAB
0
TABLE
2
STYLE
5
3
100
AcDbSymbolTable
70
1
0
STYLE
5
11
100
AcDbSymbolTableRecord
100
AcDbTextStyleTableRecord
2
STANDARD
70
0
0
ENDTAB
0
TABLE
2
VIEW
5
6
100
AcDbSymbolTable
70
0
0
ENDTAB
0
TABLE
2
UCS
5
7
100
AcDbSymbolTable
70
0
0
ENDTAB
0
TABLE
2
APPID
5
9
100
AcDbSymbolTable
70
2
0
APPID
5
12
100
AcDbSymbolTableRecord
100
AcDbRegAppTableRecord
2
ACAD
70
0
0
ENDTAB
0
TABLE
2
DIMSTYLE
5
A
100
AcDbSymbolTable
70
1
0
ENDTAB
0
TABLE
2
BLOCK_RECORD
5
1
100
AcDbSymbolTable
70
1
0
BLOCK_RECORD
5
1F
100
AcDbSymbolTableRecord
100
AcDbBlockTableRecord
2
*MODEL_SPACE
0
BLOCK_RECORD
5
1B
100
AcDbSymbolTableRecord
100
AcDbBlockTableRecord
2
*PAPER_SPACE
0
ENDTAB
0
ENDSEC
0
SECTION
2
BLOCKS
0
BLOCK
5
20
100
AcDbEntity
100
AcDbBlockBegin
2
*MODEL_SPACE
0
ENDBLK
5
21
100
AcDbEntity
100
AcDbBlockEnd
0
BLOCK
5
1C
100
AcDbEntity
100
AcDbBlockBegin
2
*PAPER_SPACE
0
ENDBLK
5
1D
100
AcDbEntity
100
AcDbBlockEnd
0
ENDSEC
0
SECTION
2
ENTITIES
0
LINE
5
100
100
AcDbEntity
8
0
100
AcDbLine
10
559.88385829283959
20
12.324300261654386
30
0
11
555.81148398775758
21
6.2814912290250646
31
0
0
LINE
5
101
100
AcDbEntity
8
0
100
AcDbLine
10
559.64050891861916
20
14.855264856520378
30
0
11
557.12049995004247
21
17.378712899251312
31
0
0
LINE
5
102
100
AcDbEntity
8
0
100
AcDbLine
10
545.84703444516538
20
-50.466109242429908
30
0
11
531.72187300525707
21
-66.385022436320824
31
0
0
CIRCLE
5
103
100
AcDbEntity
8
0
100
AcDbCircle
10
554.77904268596433
20
-109.71676056010473
30
0
40
1.7000000000000002
210
0
220
0
230
1
0
SPLINE
5
104
100
AcDbEntity
8
0
100
AcDbSpline
70
0
71
3
72
14
73
10
74
0
42
0.000000001
43
0.0000000001
44
0.0000000001
40
-0.0001089844586432459
40
-0.0001089844586432459
40
-0.0001089844586432459
40
-0.0001089844586432459
40
0
40
0
40
0
40
0.85004694110565393
40
0.85004694110565393
40
0.85004694110565393
40
1
40
1
40
1
40
1
10
555.8114839877295
20
6.2814912289835689
30
0
10
555.81141708809139
20
6.2813916506679135
30
0
10
555.81135018842406
20
6.2812920723084886
30
0
10
555.81128328875502
20
6.2811924939470742
30
0
10
555.21799969600647
20
5.398105790666321
30
0
10
554.77551504747544
20
4.0696430728473132
30
0
10
554.64394319123232
20
2.928861581606057
30
0
10
554.6207331761683
20
2.7276213137225369
30
0
10
554.60794571820952
20
2.5320432692759454
30
0
10
554.60794242290842
20
2.3440852915813792
30
0
0
LINE
5
105
100
AcDbEntity
8
0
100
AcDbLine
10
554.04679571378574
20
17.083180107241631
30
0
11
549.5898038838028
21
10.46965833281412
31
0
0
ARC
5
106
100
AcDbEntity
8
0
100
AcDbCircle
10
558.22533134962146
20
13.44201595834086
30
0
40
1.9999999999999551
210
0
220
0
230
1
100
AcDbArc
50
-33.976847093576701
51
44.960930686334827
0
ARC
5
107
100
AcDbEntity
8
0
100
AcDbCircle
10
555.70532238104477
20
15.965464001072078
30
0
40
1.9999999999997886
210
0
220
-0
230
1
100
AcDbArc
50
44.960930686329064
51
146.02313876034529
0
LINE
5
108
100
AcDbEntity
8
0
100
AcDbLine
10
554.60702253640466
20
-50.124568230899271
30
0
11
554.60702091886446
21
-50.216829768867157
31
0
0
LINE
5
109
100
AcDbEntity
8
0
100
AcDbLine
10
530.45245314811791
20
-78.926531387463612
30
0
11
547.69401545142171
21
-108.70799586479428
31
0
0
SPLINE
5
110
100
AcDbEntity
8
0
100
AcDbSpline
70
0
71
3
72
14
73
10
74
0
42
0.000000001
43
0.0000000001
44
0.0000000001
40
0.00016221504811703984
40
0.00016221504811703984
40
0.00016221504811703984
40
0.00016221504811703984
40
0.36867590397288497
40
0.36867590397288497
40
0.36867590397288497
40
0.75270538978271406
40
0.75270538978271406
40
0.75270538978271406
40
1
40
1
40
1
40
1
10
531.72187324717345
20
-66.385022651145889
30
0
10
530.43555342881132
20
-67.833503376484359
30
0
10
529.75340766649435
20
-69.371713489727469
30
0
10
529.37985121463362
20
-70.864935820965016
30
0
10
528.99056664681279
20
-72.421028365961249
30
0
10
528.92378482900256
20
-73.971783180091606
30
0
10
529.23561958363689
20
-75.625488330311796
30
0
10
529.43642461801301
20
-76.690386692674863
30
0
10
529.80515703715798
20
-77.806133704586173
30
0
10
530.45245314811814
20
-78.926531387463612
30
0
0
SPLINE
5
111
100
AcDbEntity
8
0
100
AcDbSpline
70
0
71
3
72
17
73
13
74
0
42
0.000000001
43
0.0000000001
44
0.0000000001
40
-0.0021851623891537184
40
-0.0021851623891537184
40
-0.0021851623891537184
40
-0.0021851623891537184
40
0
40
0
40
0
40
0.34521356535394948
40
0.34521356535394948
40
0.34521356535394948
40
0.74612008656055573
40
0.74612008656055573
40
0.74612008656055573
40
1
40
1
40
1
40
1
10
549.58980388380292
20
10.469658332814262
30
0
10
549.58846253088655
20
10.467661765001779
30
0
10
549.58712117789719
20
10.465665197080867
30
0
10
549.58577982483473
20
10.463668629051384
30
0
10
548.90937325021378
20
9.4568555983855873
30
0
10
548.52120269844136
20
8.6008355258467617
30
0
10
548.18770161192424
20
7.7413291145519025
30
0
10
547.80039713193651
20
6.7431594019749497
30
0
10
547.51817825453463
20
5.7645139366619702
30
0
10
547.32315976063524
20
4.6703348425803171
30
0
10
547.19966144935506
20
3.9774299408174585
30
0
10
547.10795820372095
20
3.2442598837821635
30
0
10
547.10794242406121
20
2.3442167824490667
30
0
0
ARC
5
112
100
AcDbEntity
8
0
100
AcDbCircle
10
542.10707472755746
20
-47.14757020986319
30
0
40
4.9999999999998739
210
0
220
0
230
1
100
AcDbArc
50
318.41673196050795
51
359.99899548387322
0
LINE
5
113
100
AcDbEntity
8
0
100
AcDbLine
10
697.19023509147621
20
-82.018144681335272
30
0
11
697.19184985630693
21
10.085105087495307
31
0
0
LINE
5
114
100
AcDbEntity
8
0
100
AcDbLine
10
557.60337222209409
20
-105.86601700014832
30
0
11
592.9977737120621
21
-85.447942506413099
31
0
0
SPLINE
5
115
100
AcDbEntity
8
0
100
AcDbSpline
70
0
71
3
72
11
73
7
74
0
42
0.000000001
43
0.0000000001
44
0.0000000001
40
-8.0502818458249887e-05
40
-8.0502818458249887e-05
40
-8.0502818458249887e-05
40
-8.0502818458249887e-05
40
0
40
0
40
0
40
0.11918317411406892
40
0.11918317411406892
40
0.11918317411406892
40
0.11918317411406892
10
634.22937579183952
20
24.953297346219827
30
0
10
634.22928945760964
20
24.953316659247875
30
0
10
634.22920312332485
20
24.953335972288144
30
0
10
634.22911678903586
20
24.953355285329408
30
0
10
634.09440934566203
20
24.983489435331521
30
0
10
633.95062171740608
20
25.012826304004889
30
0
10
633.79986712277946
20
25.041127926412017
30
0
0
CIRCLE
5
116
100
AcDbEntity
8
0
100
AcDbCircle
10
637.92904507400999
20
27.862483158486171
30
0
40
1.7000000000000002
210
0
220
0
230
1
0
SPLINE
5
117
100
AcDbEntity
8
0
100
AcDbSpline
70
0
71
3
72
8
73
4
74
0
42
0.000000001
43
0.0000000001
44
0.0000000001
40
0
40
0
40
0
40
0
40
1
40
1
40
1
40
1
10
687.18994123115419
20
-84.518234858340193
30
0
10
688.56304923450591
20
-84.51825893182864
30
0
10
689.69021101926
20
-83.391114376664675
30
0
10
689.690235092629
20
-82.018013190467443
30
0
0
LINE
5
118
100
AcDbEntity
8
0
100
AcDbLine
10
536.94655360823492
20
-75.174643967256358
30
0
11
554.18639456819483
21
-104.95312912225238
31
0
0
SPLINE
5
119
100
AcDbEntity
8
0
100
AcDbSpline
70
0
71
3
72
14
73
10
74
0
42
0.000000001
43
0.0000000001
44
0.0000000001
40
0.048365208156510832
40
0.048365208156510832
40
0.048365208156510832
40
0.048365208156510832
40
0.85185640395559159
40
0.85185640395559159
40
0.85185640395559159
40
1
40
1
40
1
40
1.0000465039515902
40
1.0000465039515902
40
1.0000465039515902
40
1.0000465039515902
10
554.60702091886446
20
-50.216829768867157
30
0
10
554.56794021301289
20
-51.006273430594788
30
0
10
554.17030606539311
20
-52.156479068340005
30
0
10
553.68259520190759
20
-52.885990569617647
30
0
10
553.5926735680124
20
-53.020494168064047
30
0
10
553.5005518976642
20
-53.140952169789202
30
0
10
553.41024233567919
20
-53.242604421113455
30
0
10
553.41020837537815
20
-53.242642646755982
30
0
10
553.41017441507734
20
-53.242680872398509
30
0
10
553.41014045449765
20
-53.242719098354669
30
0
0
CIRCLE
5
120
100
AcDbEntity
8
0
100
AcDbCircle
10
691.85772514434325
20
14.223845651156992
30
0
40
1.7000000000000002
210
0
220
0
230
1
0
SPLINE
5
121
100
AcDbEntity
8
0
100
AcDbSpline
70
0
71
3
72
14
73
10
74
0
42
0.000000001
43
0.0000000001
44
0.0000000001
40
0
40
0
40
0
40
0
40
0.35737177311493251
40
0.35737177311493251
40
0.35737177311493251
40
0.75402780165018124
40
0.75402780165018124
40
0.75402780165018124
40
1
40
1
40
1
40
1
10
697.19184985630693
20
10.085105087494881
30
0
10
697.19188342101131
20
11.999574791065655
30
0
10
696.67111397307053
20
13.662212413877128
30
0
10
695.9070250026075
20
15.06071009839566
30
0
10
695.05894320300217
20
16.612938279770404
30
0
10
693.90162956270206
20
17.896965501292712
30
0
10
692.35618912836753
20
18.904548833667221
30
0
10
691.39783893650065
20
19.529365978637756
30
0
10
690.27516110041472
20
20.041952835709296
30
0
10
688.98746840738977
20
20.330009875615431
30
0
0
SPLINE
5
122
100
AcDbEntity
8
0
100
AcDbSpline
70
0
71
3
72
11
73
7
74
0
42
0.000000001
43
0.0000000001
44
0.0000000001
40
-0.0012880450509399784
40
-0.0012880450509399784
40
-0.0012880450509399784
40
-0.0012880450509399784
40
0
40
0
40
0
40
0.24162867991652001
40
0.24162867991652001
40
0.24162867991652001
40
0.24162867991652001
10
635.87054958915417
20
32.271532407754009
30
0
10
635.86916824088553
20
32.271841416335079
30
0
10
635.86778689259427
20
32.272150424921122
30
0
10
635.86640554430346
20
32.272459433507166
30
0
10
635.38374726302084
20
32.380430431127465
30
0
10
634.92793304064901
20
32.464606984340278
30
0
10
634.47862933911324
20
32.535041044299149
30
0
0
SPLINE
5
123
100
AcDbEntity
8
0
100
AcDbSpline
70
0
71
3
72
14
73
10
74
0
42
0.000000001
43
0.0000000001
44
0.0000000001
40
0.00021400728288045398
40
0.00021400728288045398
40
0.00021400728288045398
40
0.00021400728288045398
40
0.39654478103096191
40
0.39654478103096191
40
0.39654478103096191
40
0.84385328032283291
40
0.84385328032283291
40
0.84385328032283291
40
1
40
1
40
1
40
1
10
547.69401598510581
20
-108.70799555620046
30
0
10
548.77972167527264
20
-110.58558868678894
30
0
10
550.44044941538232
20
-112.01603923454407
30
0
10
552.28721210008985
20
-112.83650118018507
30
0
10
554.37151314296011
20
-113.76249438066289
30
0
10
556.73972489965649
20
-113.97217893771121
30
0
10
559.03098165439815
20
-113.33587173122687
30
0
10
559.83081493893769
20
-113.11374922929197
30
0
10
560.61673762494524
20
-112.78681590080005
30
0
10
561.35543329087682
20
-112.36001713381974
30
0
0
SPLINE
5
124
100
AcDbEntity
8
0
100
AcDbSpline
70
0
71
3
72
14
73
10
74
0
42
0.000000001
43
0.0000000001
44
0.0000000001
40
-5.1161608889140504e-05
40
-5.1161608889140504e-05
40
-5.1161608889140504e-05
40
-5.1161608889140504e-05
40
0
40
0
40
0
40
0.88838609160554316
40
0.88838609160554316
40
0.88838609160554316
40
1
40
1
40
1
40
1
10
592.99777371212008
20
-85.44794250637942
30
0
10
592.99782244420476
20
-85.44791435027328
30
0
10
592.99787117634628
20
-85.447886194134171
30
0
10
592.99791990848632
20
-85.447858037996056
30
0
10
593.73872040018432
20
-85.019843158503861
30
0
10
595.14374885442203
20
-84.609198455267247
30
0
10
596.13112635338075
20
-84.531353176489219
30
0
10
596.25517721680694
20
-84.521572951543575
30
0
10
596.37246887184483
20
-84.516642635907644
30
0
10
596.48017539227328
20
-84.516644524230955
30
0
0
LINE
5
125
100
AcDbEntity
8
0
100
AcDbLine
10
554.60794242290854
20
2.3440852915813792
30
0
11
554.60702253640466
21
-50.124568230899271
31
0
0
SPLINE
5
126
100
AcDbEntity
8
0
100
AcDbSpline
70
0
71
3
72
11
73
7
74
0
42
0.000000001
43
0.0000000001
44
0.0000000001
40
0
40
0
40
0
40
0
40
0.83937649406969683
40
0.83937649406969683
40
0.83937649406969683
40
1
40
1
40
1
40
1
10
689.69184985745972
20
10.085236578362995
30
0
10
689.69186996974668
20
11.232404858956997
30
0
10
688.97190123735629
20
12.290598898627891
30
0
10
687.96249232645482
20
12.792294884310351
30
0
10
687.76933133215516
20
12.88829967917998
30
0
10
687.56423168600293
20
12.963022256791916
30
0
10
687.35018356508704
20
13.010904852105583
30
0
0
LINE
5
127
100
AcDbEntity
8
0
100
AcDbLine
10
689.690235092629
20
-82.018013190467443
30
0
11
689.69184985745972
21
10.085236578362995
31
0
0
CIRCLE
5
128
100
AcDbEntity
8
0
100
AcDbCircle
10
551.46328929105391
20
5.4603467639535808
30
0
40
1.7000000000000002
210
0
220
0
230
1
0
CIRCLE
5
129
100
AcDbEntity
8
0
100
AcDbCircle
10
691.53398110980163
20
-86.360336070661035
30
0
40
1.7000000000000002
210
0
220
0
230
1
0
CIRCLE
5
130
100
AcDbEntity
8
0
100
AcDbCircle
10
532.83760982290369
20
-72.803860286210451
30
0
40
1.7000000000000002
210
0
220
0
230
1
0
SPLINE
5
131
100
AcDbEntity
8
0
100
AcDbSpline
70
0
71
3
72
14
73
10
74
0
42
0.000000001
43
0.0000000001
44
0.0000000001
40
0
40
0
40
0
40
0
40
0.39950619035870588
40
0.39950619035870588
40
0.39950619035870588
40
0.84569619330265011
40
0.84569619330265011
40
0.84569619330265011
40
1
40
1
40
1
40
1
10
687.18980974028671
20
-92.018234857187551
30
0
10
689.37100312221605
20
-92.018273098122236
30
0
10
691.45459378505404
20
-91.288759010705789
30
0
10
693.09770824123939
20
-90.08439847797284
30
0
10
694.93282684950009
20
-88.739303852121694
30
0
10
696.29232967672363
20
-86.790226759832549
30
0
10
696.87974278624904
20
-84.490181227922605
30
0
10
697.08288512091735
20
-83.694767214140811
30
0
10
697.19022032165083
20
-82.860588660262167
30
0
10
697.19023509147621
20
-82.018144681335272
30
0
0
LINE
5
132
100
AcDbEntity
8
0
100
AcDbLine
10
547.10794242406121
20
2.3442167824490667
30
0
11
547.10707472678894
21
-47.14765787044179
31
0
0
SPLINE
5
133
100
AcDbEntity
8
0
100
AcDbSpline
70
0
71
3
72
11
73
7
74
0
42
0.000000001
43
0.0000000001
44
0.0000000001
40
3.9209371429575624e-05
40
3.9209371429575624e-05
40
3.9209371429575624e-05
40
3.9209371429575624e-05
40
0.82337742236486688
40
0.82337742236486688
40
0.82337742236486688
40
1
40
1
40
1
40
1
10
537.33022068249693
20
-71.364625046702272
30
0
10
536.58689874499612
20
-72.201357817341645
30
0
10
536.36937586725128
20
-73.443787046115787
30
0
10
536.67106912515169
20
-74.514737838872875
30
0
10
536.73578838635524
20
-74.744478286421767
30
0
10
536.82653584491595
20
-74.96690654747276
30
0
10
536.94655360823492
20
-75.174643967256358
30
0
0
LINE
5
134
100
AcDbEntity
8
0
100
AcDbLine
10
632.1688867550921
20
30.559171733933184
30
0
11
632.16888675508926
21
27.006789268295321
31
0
0
LINE
5
135
100
AcDbEntity
8
0
100
AcDbLine
10
553.41014045449765
20
-53.242719098354812
30
0
11
537.33022067887305
21
-71.364625043421555
31
0
0
SPLINE
5
136
100
AcDbEntity
8
0
100
AcDbSpline
70
0
71
3
72
8
73
4
74
0
42
0.000000001
43
0.0000000001
44
0.0000000001
40
5.33008608263004e-05
40
5.33008608263004e-05
40
5.33008608263004e-05
40
5.33008608263004e-05
40
1
40
1
40
1
40
1
10
554.18639457667132
20
-104.95312911774114
30
0
10
554.87348417111662
20
-106.14211053559096
30
0
10
556.4147800406206
20
-106.55275404341417
30
0
10
557.60337222209409
20
-105.86601700014832
30
0
0
SPLINE
5
137
100
AcDbEntity
8
0
100
AcDbSpline
70
0
71
3
72
8
73
4
74
0
42
0.000000001
43
0.0000000001
44
0.0000000001
40
0.40648069728705111
40
0.40648069728705111
40
0.40648069728705111
40
0.40648069728705111
40
0.59941312190361262
40
0.59941312190361262
40
0.59941312190361262
40
0.59941312190361262
10
596.54246366361008
20
-92.06157141362219
30
0
10
596.59367361284012
20
-92.045756504588709
30
0
10
596.65963697985944
20
-92.028229445359315
30
0
10
596.71134208338958
20
-92.016648578224576
30
0
0
CIRCLE
5
138
100
AcDbEntity
8
0
100
AcDbCircle
10
595.62560214135397
20
-88.31851043230877
30
0
40
1.7000000000000002
210
0
220
0
230
1
0
ARC
5
139
100
AcDbEntity
8
0
100
AcDbCircle
10
634.16888675508926
20
27.0067892682939
30
0
40
2.0000000000000284
210
0
220
0
230
1
100
AcDbArc
50
180
51
259.3674450393562
0
LINE
5
140
100
AcDbEntity
8
0
100
AcDbLine
10
687.35018356508704
20
13.010904852105583
30
0
11
634.22937579189011
21
24.953297346208458
31
0
0
ARC
5
141
100
AcDbEntity
8
0
100
AcDbCircle
10
634.1688867550921
20
30.559171733933468
30
0
40
2.0000000000002185
210
0
220
-0
230
1
100
AcDbArc
50
81.090668309604951
51
180
0
LINE
5
142
100
AcDbEntity
8
0
100
AcDbLine
10
596.48017539227328
20
-84.516644524230813
30
0
11
687.18994123115419
21
-84.518234858340193
31
0
0
LINE
5
143
100
AcDbEntity
8
0
100
AcDbLine
10
596.71134208338958
20
-92.016648578224576
30
0
11
687.18980974028659
21
-92.018234857187551
31
0
0
LINE
5
144
100
AcDbEntity
8
0
100
AcDbLine
10
561.35543329087682
20
-112.36001713381974
30
0
11
596.54246366361008
21
-92.061571413622332
31
0
0
LINE
5
145
100
AcDbEntity
8
0
100
AcDbLine
10
688.98746840738977
20
20.330009875615431
30
0
11
635.87054958917611
21
32.271532407747898
31
0
0
ENDSEC
0
SECTION
2
OBJECTS
0
DICTIONARY
5
C
100
AcDbDictionary
3
ACAD_GROUP
350
D
3
ACAD_MLINESTYLE
350
17
0
DICTIONARY
5
D
100
AcDbDictionary
0
DICTIONARY
5
1A
330
C
100
AcDbDictionary
0
DICTIONARY
5
17
100
AcDbDictionary
0
ENDSEC
0
EOF
