0
SECTION
2
HEADER
9
$INSUNITS
70
4
9
$ACADVER
1
AC1014
9
$HANDSEED
5
FFFF
0
ENDSEC
0
SECTION
2
TABLES
0
TABLE
2
VPORT
5
8
100
AcDbSymbolTable
0
ENDTAB
0
TABLE
2
LTYPE
5
5
100
AcDbSymbolTable
0
LTYPE
5
14
100
AcDbSymbolTableRecord
100
AcDbLinetypeTableRecord
2
BYBLOCK
70
0
0
LTYPE
5
15
100
AcDbSymbolTableRecord
100
AcDbLinetypeTableRecord
2
BYLAYER
70
0
0
LTYPE
5
16
100
AcDbSymbolTableRecord
100
AcDbLinetypeTableRecord
2
DASHED
70
0
3
Dashed __ __ __ __ __ __ __ __ __ __ __ __ __ _
72
65
73
2
40
0.75
49
0.5
74
0
49
-0.25
74
0
0
ENDTAB
0
TABLE
2
LAYER
5
2
100
AcDbSymbolTable
70
2
0
LAYER
5
50
100
AcDbSymbolTableRecord
100
AcDbLayerTableRecord
2
0
70
0
62
7
6
CONTINUOUS
0
ENDTAB
0
TABLE
2
STYLE
5
3
100
AcDbSymbolTable
70
1
0
STYLE
5
11
100
AcDbSymbolTableRecord
100
AcDbTextStyleTableRecord
2
STANDARD
70
0
0
ENDTAB
0
TABLE
2
VIEW
5
6
100
AcDbSymbolTable
70
0
0
ENDTAB
0
TABLE
2
UCS
5
7
100
AcDbSymbolTable
70
0
0
ENDTAB
0
TABLE
2
APPID
5
9
100
AcDbSymbolTable
70
2
0
APPID
5
12
100
AcDbSymbolTableRecord
100
AcDbRegAppTableRecord
2
ACAD
70
0
0
ENDTAB
0
TABLE
2
DIMSTYLE
5
A
100
AcDbSymbolTable
70
1
0
ENDTAB
0
TABLE
2
BLOCK_RECORD
5
1
100
AcDbSymbolTable
70
1
0
BLOCK_RECORD
5
1F
100
AcDbSymbolTableRecord
100
AcDbBlockTableRecord
2
*MODEL_SPACE
0
BLOCK_RECORD
5
1B
100
AcDbSymbolTableRecord
100
AcDbBlockTableRecord
2
*PAPER_SPACE
0
ENDTAB
0
ENDSEC
0
SECTION
2
BLOCKS
0
BLOCK
5
20
100
AcDbEntity
100
AcDbBlockBegin
2
*MODEL_SPACE
0
ENDBLK
5
21
100
AcDbEntity
100
AcDbBlockEnd
0
BLOCK
5
1C
100
AcDbEntity
100
AcDbBlockBegin
2
*PAPER_SPACE
0
ENDBLK
5
1D
100
AcDbEntity
100
AcDbBlockEnd
0
ENDSEC
0
SECTION
2
ENTITIES
0
POINT
5
100
100
AcDbEntity
8
0
100
AcDbPoint
10
78.133880078570854
20
14.223845651156921
30
0
0
POINT
5
101
100
AcDbEntity
8
0
100
AcDbPoint
10
82.104922167240346
20
16.062847173487
30
0
0
LINE
5
102
100
AcDbEntity
8
0
100
AcDbLine
10
137.82377546056182
20
-9.5881085761200779
30
0
11
176.6540280443831
21
-9.5881085761202201
31
0
0
SPLINE
5
103
100
AcDbEntity
8
0
100
AcDbSpline
70
0
71
3
72
14
73
10
74
0
42
0.000000001
43
0.0000000001
44
0.0000000001
40
0
40
0
40
0
40
0
40
0.35737177311493251
40
0.35737177311493251
40
0.35737177311493251
40
0.75402780165018124
40
0.75402780165018124
40
0.75402780165018124
40
1
40
1
40
1
40
1
10
72.800812359354268
20
10.089671744306372
30
0
10
72.800778794646277
20
12.004141447877146
30
0
10
73.321548242584029
20
13.666779070689543
30
0
10
74.085637213044464
20
15.065276755209567
30
0
10
74.933719012647018
20
16.617504936585838
30
0
10
76.091032652944719
20
17.901532158110207
30
0
10
77.636473087277409
20
18.909115490487487
30
0
10
78.594823279143142
20
19.53393263545987
30
0
10
79.717501115228089
20
20.046519492533399
30
0
10
81.005193808252542
20
20.334576532441986
30
0
0
LINE
5
104
100
AcDbEntity
8
0
100
AcDbLine
10
72.80242712418314
20
-82.013578024497775
30
0
11
72.800812359352491
21
10.089671744332804
31
0
0
LINE
5
105
100
AcDbEntity
8
0
100
AcDbLine
10
81.005193808269595
20
20.334576532452928
30
0
11
134.12211262648341
21
32.276099064585395
31
0
0
SPLINE
5
106
100
AcDbEntity
8
0
100
AcDbSpline
70
0
71
3
72
14
73
10
74
0
42
0.000000001
43
0.0000000001
44
0.0000000001
40
0.00021400728288045398
40
0.00021400728288045398
40
0.00021400728288045398
40
0.00021400728288045398
40
0.39654478103096191
40
0.39654478103096191
40
0.39654478103096191
40
0.84385328032283291
40
0.84385328032283291
40
0.84385328032283291
40
1
40
1
40
1
40
1
10
222.29864623055363
20
-108.70342889936325
30
0
10
221.21294054038685
20
-110.58102202995173
30
0
10
219.552212800277
20
-112.01147257770685
30
0
10
217.70545011556948
20
-112.83193452334785
30
0
10
215.62114907269915
20
-113.75792772382567
30
0
10
213.25293731600283
20
-113.96761228087399
30
0
10
210.96168056126118
20
-113.33130507438966
30
0
10
210.16184727672169
20
-113.10918257245476
30
0
10
209.37592459071411
20
-112.78224924396284
30
0
10
208.63722892478251
20
-112.35545047698253
30
0
0
SPLINE
5
107
100
AcDbEntity
8
0
100
AcDbSpline
70
0
71
3
72
11
73
7
74
0
42
0.000000001
43
0.0000000001
44
0.0000000001
40
-0.0012880450509399784
40
-0.0012880450509399784
40
-0.0012880450509399784
40
-0.0012880450509399784
40
0
40
0
40
0
40
0.24162867654643008
40
0.24162867654643008
40
0.24162867654643008
40
0.24162867654643008
10
134.1221126265053
20
32.276099064591506
30
0
10
134.12349397477399
20
32.276408073172576
30
0
10
134.12487532306514
20
32.276717081758761
30
0
10
134.126256671356
20
32.277026090344663
30
0
10
134.60891494590683
20
32.38499708645918
30
0
10
135.06472916229569
20
32.469173638829716
30
0
10
135.51403285774649
20
32.539607698189457
30
0
0
ARC
5
108
100
AcDbEntity
8
0
100
AcDbCircle
10
135.82377546056728
20
30.563738390771107
30
0
40
2.0000000000000284
210
0
220
0
230
1
100
AcDbArc
50
0
51
98.909332235708604
0
CIRCLE
5
109
100
AcDbEntity
8
0
100
AcDbCircle
10
78.134937071316202
20
14.228412307994489
30
0
40
1.7000000000000002
210
0
220
0
230
1
0
LINE
5
110
100
AcDbEntity
8
0
100
AcDbLine
10
137.82377546056182
20
-9.5881085761200779
30
0
11
137.82377546056728
21
30.563738390770823
31
0
0
CIRCLE
5
111
100
AcDbEntity
8
0
100
AcDbCircle
10
132.06361714164942
20
27.867049815323526
30
0
40
1.7000000000000002
210
0
220
0
230
1
0
CIRCLE
5
112
100
AcDbEntity
8
0
100
AcDbCircle
10
132.06256014890414
20
27.862483158485958
30
0
40
1.7000000000000002
210
0
220
0
230
1
0
SPLINE
5
113
100
AcDbEntity
8
0
100
AcDbSpline
70
0
71
3
72
14
73
10
74
0
42
0.000000001
43
0.0000000001
44
0.0000000001
40
0
40
0
40
0
40
0
40
0.39950619035870588
40
0.39950619035870588
40
0.39950619035870588
40
0.84569619330265011
40
0.84569619330265011
40
0.84569619330265011
40
1
40
1
40
1
40
1
10
82.802852475371935
20
-92.013668200350054
30
0
10
80.621659093442588
20
-92.013706441284768
30
0
10
78.538068430604682
20
-91.284192353868079
30
0
10
76.894953974419309
20
-90.079831821134917
30
0
10
75.059835366158865
20
-88.734737195283842
30
0
10
73.700332538935385
20
-86.785660102994484
30
0
10
73.11291942940997
20
-84.485614571084511
30
0
10
72.90977709474177
20
-83.690200557302717
30
0
10
72.802441894008325
20
-82.856022003424073
30
0
10
72.802427124183069
20
-82.013578024497178
30
0
0
CIRCLE
5
114
100
AcDbEntity
8
0
100
AcDbCircle
10
78.133880078570854
20
14.223845651156921
30
0
40
1.7000000000000002
210
0
220
0
230
1
0
LINE
5
115
100
AcDbEntity
8
0
100
AcDbLine
10
176.6540280443831
20
-9.5881085761202201
30
0
11
176.65402804439111
21
30.194425788214119
31
0
0
LINE
5
116
100
AcDbEntity
8
0
100
AcDbLine
10
222.88471979159829
20
2.3487834392865636
30
0
11
222.8855874888707
21
-47.143091213604293
31
0
0
CIRCLE
5
117
100
AcDbEntity
8
0
100
AcDbCircle
10
78.457624113112416
20
-86.36033607066139
30
0
40
1.7000000000000002
210
0
220
0
230
1
0
CIRCLE
5
118
100
AcDbEntity
8
0
100
AcDbCircle
10
78.458681105857693
20
-86.35576941382368
30
0
40
1.7000000000000002
210
0
220
0
230
1
0
ARC
5
119
100
AcDbEntity
8
0
100
AcDbCircle
10
206.72102718310953
20
8.393392205738337
30
0
40
2.0000000000002909
210
0
220
0
230
1
100
AcDbArc
50
135.03906931367439
51
180
0
ARC
5
120
100
AcDbEntity
8
0
100
AcDbCircle
10
178.65402804439114
20
30.19442578821355
30
0
40
1.9999999999999882
210
0
220
-0
230
1
100
AcDbArc
50
71.158625025127847
51
180
0
CIRCLE
5
121
100
AcDbEntity
8
0
100
AcDbCircle
10
237.15505239275581
20
-72.799293629373238
30
0
40
1.7000000000000002
210
0
220
0
230
1
0
LINE
5
122
100
AcDbEntity
8
0
100
AcDbLine
10
208.63722892478251
20
-112.35545047698253
30
0
11
173.4501985520493
21
-92.057004756784977
31
0
0
CIRCLE
5
123
100
AcDbEntity
8
0
100
AcDbCircle
10
218.52831593186025
20
5.4603467639535097
30
0
40
1.7000000000000002
210
0
220
0
230
1
0
ARC
5
124
100
AcDbEntity
8
0
100
AcDbCircle
10
190.56042229090139
20
22.416252259912426
30
0
40
2.0000000000000231
210
0
220
-0
230
1
100
AcDbArc
50
0.001004516126751393
51
54.714974620532132
0
LINE
5
125
100
AcDbEntity
8
0
100
AcDbLine
10
224.14562777049417
20
-50.461542585592554
30
0
11
238.27078921040248
21
-66.380455779483611
31
0
0
CIRCLE
5
126
100
AcDbEntity
8
0
100
AcDbCircle
10
174.36600308156017
20
-88.318510432309267
30
0
40
1.7000000000000002
210
0
220
0
230
1
0
CIRCLE
5
127
100
AcDbEntity
8
0
100
AcDbCircle
10
215.21361952969499
20
-109.71219390326752
30
0
40
1.7000000000000002
210
0
220
0
230
1
0
SPLINE
5
128
100
AcDbEntity
8
0
100
AcDbSpline
70
0
71
3
72
14
73
10
74
0
42
0.000000001
43
0.0000000001
44
0.0000000001
40
0.00016221504811703984
40
0.00016221504811703984
40
0.00016221504811703984
40
0.00016221504811703984
40
0.36867590397288497
40
0.36867590397288497
40
0.36867590397288497
40
0.75270538978271406
40
0.75270538978271406
40
0.75270538978271406
40
1
40
1
40
1
40
1
10
238.2707889684861
20
-66.380455994308676
30
0
10
239.55710878684818
20
-67.828936719647004
30
0
10
240.23925454916514
20
-69.367146832890114
30
0
10
240.61281100102599
20
-70.860369164127803
30
0
10
241.0020955688467
20
-72.416461709123894
30
0
10
241.06887738665691
20
-73.967216523254251
30
0
10
240.75704263202255
20
-75.620921673474584
30
0
10
240.55623759764643
20
-76.685820035837651
30
0
10
240.18750517850151
20
-77.801567047748961
30
0
10
239.54020906754138
20
-78.921964730626399
30
0
0
LINE
5
129
100
AcDbEntity
8
0
100
AcDbLine
10
239.54020906754153
20
-78.921964730626399
30
0
11
222.29864676423773
21
-108.70342920795707
31
0
0
ARC
5
130
100
AcDbEntity
8
0
100
AcDbCircle
10
227.88558748810217
20
-47.143003553025835
30
0
40
4.9999999999999147
210
0
220
0
230
1
100
AcDbArc
50
180.00100451612676
51
221.58326803949143
0
LINE
5
131
100
AcDbEntity
8
0
100
AcDbLine
10
192.56078751839581
20
1.584357617184935
30
0
11
192.56042229059403
21
22.416287324143838
31
0
0
SPLINE
5
132
100
AcDbEntity
8
0
100
AcDbSpline
70
0
71
3
72
8
73
4
74
0
42
0.000000001
43
0.0000000001
44
0.0000000001
40
0.40648069728705111
40
0.40648069728705111
40
0.40648069728705111
40
0.40648069728705111
40
0.59941312190361262
40
0.59941312190361262
40
0.59941312190361262
40
0.59941312190361262
10
173.4501985520493
20
-92.057004756784693
30
0
10
173.39898860281926
20
-92.041189847751212
30
0
10
173.33302523579994
20
-92.02366278852196
30
0
10
173.28132013226985
20
-92.012081921387221
30
0
0
CIRCLE
5
133
100
AcDbEntity
8
0
100
AcDbCircle
10
174.36706007430536
20
-88.313943775471273
30
0
40
1.7000000000000002
210
0
220
0
230
1
0
LINE
5
134
100
AcDbEntity
8
0
100
AcDbLine
10
215.94586650187352
20
17.08774676407927
30
0
11
220.40285833185658
21
10.474224989651759
31
0
0
SPLINE
5
135
100
AcDbEntity
8
0
100
AcDbSpline
70
0
71
1
72
4
73
2
74
0
42
0.000000001
43
0.0000000001
44
0.0000000001
40
0
40
0
40
0.0011478881703206895
40
0.0011478881703206895
10
182.90834238584026
20
30.28135192014048
30
0
10
182.91770625238186
20
30.274712437589244
30
0
0
CIRCLE
5
136
100
AcDbEntity
8
0
100
AcDbCircle
10
218.52937292460552
20
5.4649134207912198
30
0
40
1.7000000000000002
210
0
220
0
230
1
0
LINE
5
137
100
AcDbEntity
8
0
100
AcDbLine
10
182.91770625238186
20
30.274712437589244
30
0
11
191.37987247596513
21
24.286484541125617
31
0
0
SPLINE
5
138
100
AcDbEntity
8
0
100
AcDbSpline
70
0
71
3
72
17
73
13
74
0
42
0.000000001
43
0.0000000001
44
0.0000000001
40
-0.0021851623891537184
40
-0.0021851623891537184
40
-0.0021851623891537184
40
-0.0021851623891537184
40
0
40
0
40
0
40
0.34521356535394948
40
0.34521356535394948
40
0.34521356535394948
40
0.74612008656055573
40
0.74612008656055573
40
0.74612008656055573
40
1
40
1
40
1
40
1
10
220.40285833185641
20
10.474224989652221
30
0
10
220.40419968477289
20
10.47222842183988
30
0
10
220.40554103776225
20
10.470231853918968
30
0
10
220.40688239082465
20
10.468235285889342
30
0
10
221.08328896544577
20
9.4614222552236527
30
0
10
221.47145951721819
20
8.605402182684827
30
0
10
221.80496060373528
20
7.7458957713899679
30
0
10
222.19226508372316
20
6.7477260588129795
30
0
10
222.47448396112503
20
5.7690805935002842
30
0
10
222.66950245502437
20
4.6749014994183469
30
0
10
222.79300076630454
20
3.9819965976554528
30
0
10
222.88470401193848
20
3.2488265406202999
30
0
10
222.88471979159829
20
2.3487834392872031
30
0
0
LINE
5
139
100
AcDbEntity
8
0
100
AcDbLine
10
191.37987247596513
20
24.286484541125617
30
0
11
191.71571089458354
21
24.048829437935808
31
0
0
ARC
5
140
100
AcDbEntity
8
0
100
AcDbCircle
10
214.2873398346147
20
15.970030657909717
30
0
40
1.9999999999998739
210
0
220
-0
230
1
100
AcDbArc
50
33.976861239657872
51
135.03906931367266
0
SPLINE
5
141
100
AcDbEntity
8
0
100
AcDbSpline
70
0
71
3
72
11
73
7
74
0
42
0.000000001
43
0.0000000001
44
0.0000000001
40
0.54313325882531205
40
0.54313325882531205
40
0.54313325882531205
40
0.54313325882531205
40
0.7427224299007007
40
0.7427224299007007
40
0.7427224299007007
40
0.99894491497656646
40
0.99894491497656646
40
0.99894491497656646
40
0.99894491497656646
10
179.29992647347717
20
32.087258379676484
30
0
10
179.80564494697427
20
31.914690150948388
30
0
10
180.30688908512991
20
31.714152620307061
30
0
10
180.8193731176452
20
31.47777533531297
30
0
10
181.47727420348716
20
31.174326129876135
30
0
10
182.15061550828622
20
30.818052850047195
30
0
10
182.90834238584026
20
30.28135192014048
30
0
0
LINE
5
142
100
AcDbEntity
8
0
100
AcDbLine
10
205.30584961411137
20
9.8066411039178547
30
0
11
212.87216226561691
21
17.383279556088951
31
0
0
LINE
5
143
100
AcDbEntity
8
0
100
AcDbLine
10
204.72102718310921
20
1.584357617184935
30
0
11
204.72102718310921
21
8.393392205738337
31
0
0
LINE
5
144
100
AcDbEntity
8
0
100
AcDbLine
10
192.56078751839581
20
1.584357617184935
30
0
11
204.72102718310921
21
1.584357617184935
31
0
0
LINE
5
145
100
AcDbEntity
8
0
100
AcDbLine
10
173.28132013226985
20
-92.012081921387221
30
0
11
82.802852475372788
21
-92.013668200350054
31
0
0
ENDSEC
0
SECTION
2
OBJECTS
0
DICTIONARY
5
C
100
AcDbDictionary
3
ACAD_GROUP
350
D
3
ACAD_MLINESTYLE
350
17
0
DICTIONARY
5
D
100
AcDbDictionary
0
DICTIONARY
5
1A
330
C
100
AcDbDictionary
0
DICTIONARY
5
17
100
AcDbDictionary
0
ENDSEC
0
EOF
