0
SECTION
2
HEADER
9
$INSUNITS
70
4
9
$ACADVER
1
AC1014
9
$HANDSEED
5
FFFF
0
ENDSEC
0
SECTION
2
TABLES
0
TABLE
2
VPORT
5
8
100
AcDbSymbolTable
0
ENDTAB
0
TABLE
2
LTYPE
5
5
100
AcDbSymbolTable
0
LTYPE
5
14
100
AcDbSymbolTableRecord
100
AcDbLinetypeTableRecord
2
BYBLOCK
70
0
0
LTYPE
5
15
100
AcDbSymbolTableRecord
100
AcDbLinetypeTableRecord
2
BYLAYER
70
0
0
LTYPE
5
16
100
AcDbSymbolTableRecord
100
AcDbLinetypeTableRecord
2
DASHED
70
0
3
Dashed __ __ __ __ __ __ __ __ __ __ __ __ __ _
72
65
73
2
40
0.75
49
0.5
74
0
49
-0.25
74
0
0
ENDTAB
0
TABLE
2
LAYER
5
2
100
AcDbSymbolTable
70
2
0
LAYER
5
50
100
AcDbSymbolTableRecord
100
AcDbLayerTableRecord
2
0
70
0
62
7
6
CONTINUOUS
0
ENDTAB
0
TABLE
2
STYLE
5
3
100
AcDbSymbolTable
70
1
0
STYLE
5
11
100
AcDbSymbolTableRecord
100
AcDbTextStyleTableRecord
2
STANDARD
70
0
0
ENDTAB
0
TABLE
2
VIEW
5
6
100
AcDbSymbolTable
70
0
0
ENDTAB
0
TABLE
2
UCS
5
7
100
AcDbSymbolTable
70
0
0
ENDTAB
0
TABLE
2
APPID
5
9
100
AcDbSymbolTable
70
2
0
APPID
5
12
100
AcDbSymbolTableRecord
100
AcDbRegAppTableRecord
2
ACAD
70
0
0
ENDTAB
0
TABLE
2
DIMSTYLE
5
A
100
AcDbSymbolTable
70
1
0
ENDTAB
0
TABLE
2
BLOCK_RECORD
5
1
100
AcDbSymbolTable
70
1
0
BLOCK_RECORD
5
1F
100
AcDbSymbolTableRecord
100
AcDbBlockTableRecord
2
*MODEL_SPACE
0
BLOCK_RECORD
5
1B
100
AcDbSymbolTableRecord
100
AcDbBlockTableRecord
2
*PAPER_SPACE
0
ENDTAB
0
ENDSEC
0
SECTION
2
BLOCKS
0
BLOCK
5
20
100
AcDbEntity
100
AcDbBlockBegin
2
*MODEL_SPACE
0
ENDBLK
5
21
100
AcDbEntity
100
AcDbBlockEnd
0
BLOCK
5
1C
100
AcDbEntity
100
AcDbBlockBegin
2
*PAPER_SPACE
0
ENDBLK
5
1D
100
AcDbEntity
100
AcDbBlockEnd
0
ENDSEC
0
SECTION
2
ENTITIES
0
POINT
5
100
100
AcDbEntity
8
0
100
AcDbPoint
10
691.85666815159777
20
214.22841230799449
30
0
0
POINT
5
101
100
AcDbEntity
8
0
100
AcDbPoint
10
691.85666815159777
20
214.22841230799449
30
0
0
SPLINE
5
102
100
AcDbEntity
8
0
100
AcDbSpline
70
0
71
3
72
8
73
4
74
0
42
0.000000001
43
0.0000000001
44
0.0000000001
40
0.40648069728705111
40
0.40648069728705111
40
0.40648069728705111
40
0.40648069728705111
40
0.59941312190361262
40
0.59941312190361262
40
0.59941312190361262
40
0.59941312190361262
10
596.54140667086472
20
107.94299524321517
30
0
10
596.59261662009476
20
107.95881015224872
30
0
10
596.65857998711408
20
107.97633721147804
30
0
10
596.71028509064411
20
107.98791807861271
30
0
0
SPLINE
5
103
100
AcDbEntity
8
0
100
AcDbSpline
70
0
71
3
72
17
73
13
74
0
42
0.000000001
43
0.0000000001
44
0.0000000001
40
-0.0021851623891537184
40
-0.0021851623891537184
40
-0.0021851623891537184
40
-0.0021851623891537184
40
0
40
0
40
0
40
0.34521356535394948
40
0.34521356535394948
40
0.34521356535394948
40
0.74612008656055573
40
0.74612008656055573
40
0.74612008656055573
40
1
40
1
40
1
40
1
10
549.58874689105744
20
210.47422498965176
30
0
10
549.58740553814096
20
210.47222842183936
30
0
10
549.5860641851516
20
210.47023185391836
30
0
10
549.58472283208926
20
210.4682352858888
30
0
10
548.90831625746819
20
209.461422255223
30
0
10
548.52014570569565
20
208.60540218268426
30
0
10
548.18664461917876
20
207.74589577138931
30
0
10
547.79934013919069
20
206.74772605881236
30
0
10
547.51712126178882
20
205.76908059349955
30
0
10
547.32210276788976
20
204.67490149941773
30
0
10
547.19860445660947
20
203.98199659765487
30
0
10
547.10690121097537
20
203.24882654061966
30
0
10
547.10688543131573
20
202.34878343928656
30
0
0
SPLINE
5
104
100
AcDbEntity
8
0
100
AcDbSpline
70
0
71
3
72
14
73
10
74
0
42
0.000000001
43
0.0000000001
44
0.0000000001
40
0.00016221504811703984
40
0.00016221504811703984
40
0.00016221504811703984
40
0.00016221504811703984
40
0.36867590397288497
40
0.36867590397288497
40
0.36867590397288497
40
0.75270538978271406
40
0.75270538978271406
40
0.75270538978271406
40
1
40
1
40
1
40
1
10
531.72081625442786
20
133.61954400569132
30
0
10
530.43449643606573
20
132.171063280353
30
0
10
529.75235067374888
20
130.63285316710983
30
0
10
529.37879422188814
20
129.13963083587225
30
0
10
528.98950965406721
20
127.58353829087604
30
0
10
528.92272783625708
20
126.03278347674568
30
0
10
529.2345625908913
20
124.37907832652549
30
0
10
529.43536762526742
20
123.31417996416242
30
0
10
529.80410004441239
20
122.19843295225111
30
0
10
530.45139615537266
20
121.07803526937367
30
0
0
CIRCLE
5
105
100
AcDbEntity
8
0
100
AcDbCircle
10
532.83655283015833
20
127.20070637062676
30
0
40
1.7000000000000002
210
0
220
0
230
1
0
SPLINE
5
106
100
AcDbEntity
8
0
100
AcDbSpline
70
0
71
3
72
14
73
10
74
0
42
0.000000001
43
0.0000000001
44
0.0000000001
40
0
40
0
40
0
40
0
40
0.39950619035870588
40
0.39950619035870588
40
0.39950619035870588
40
0.84569619330265011
40
0.84569619330265011
40
0.84569619330265011
40
1
40
1
40
1
40
1
10
687.18875274754146
20
107.98633179964988
30
0
10
689.36994612947069
20
107.98629355871519
30
0
10
691.4535367923088
20
108.71580764613164
30
0
10
693.09665124849403
20
109.92016817886466
30
0
10
694.93176985675461
20
111.26526280471573
30
0
10
696.29127268397838
20
113.21433989700488
30
0
10
696.87868579350379
20
115.51438542891489
30
0
10
697.08182812817199
20
116.30979944269669
30
0
10
697.18916332890558
20
117.14397799657533
30
0
10
697.18917809873096
20
117.98642197550222
30
0
0
SPLINE
5
107
100
AcDbEntity
8
0
100
AcDbSpline
70
0
71
3
72
8
73
4
74
0
42
0.000000001
43
0.0000000001
44
0.0000000001
40
0
40
0
40
0
40
0
40
1
40
1
40
1
40
1
10
687.18888423840895
20
115.48633179849723
30
0
10
688.56199224176066
20
115.48630772500886
30
0
10
689.68915402651476
20
116.61345228017282
30
0
10
689.68917809988375
20
117.98655346636991
30
0
0
CIRCLE
5
108
100
AcDbEntity
8
0
100
AcDbCircle
10
595.6245451486086
20
111.68605622452858
30
0
40
1.7000000000000002
210
0
220
0
230
1
0
LINE
5
109
100
AcDbEntity
8
0
100
AcDbLine
10
554.60596554365907
20
149.87999842593808
30
0
11
554.60596392611887
21
149.7877368879702
31
0
0
LINE
5
110
100
AcDbEntity
8
0
100
AcDbLine
10
630.16794510493901
20
232.90749193498016
30
0
11
595.33819123455964
21
232.90810257425471
31
0
0
LINE
5
111
100
AcDbEntity
8
0
100
AcDbLine
10
587.07389897053213
20
230.27471243758924
30
0
11
578.61173274694897
21
224.28648454112556
31
0
0
LINE
5
112
100
AcDbEntity
8
0
100
AcDbLine
10
688.98641141464452
20
220.33457653245293
30
0
11
635.86949259643063
21
232.27609906458531
31
0
0
SPLINE
5
113
100
AcDbEntity
8
0
100
AcDbSpline
70
0
71
3
72
11
73
7
74
0
42
0.000000001
43
0.0000000001
44
0.0000000001
40
0
40
0
40
0
40
0
40
0.83878272991776315
40
0.83878272991776315
40
0.83878272991776315
40
1
40
1
40
1
40
1
10
582.49775739446955
20
217.84849083602225
30
0
10
581.8507068358889
20
217.39176717267483
30
0
10
580.60719293541342
20
216.94125384084813
30
0
10
579.65830683935849
20
216.82126603690313
30
0
10
579.47592727839651
20
216.79820391902064
30
0
10
579.30459941706374
20
216.78647239255426
30
0
10
579.1524731847644
20
216.78647505964898
30
0
0
SPLINE
5
114
100
AcDbEntity
8
0
100
AcDbSpline
70
0
71
3
72
11
73
7
74
0
42
0.000000001
43
0.0000000001
44
0.0000000001
40
0
40
0
40
0
40
0
40
0.75924028193625148
40
0.75924028193625148
40
0.75924028193625148
40
1
40
1
40
1
40
1
10
565.15425354851527
20
216.78672047805514
30
0
10
564.14661983388419
20
216.78673814400597
30
0
10
563.0724071130544
20
216.31224101145293
30
0
10
562.27576487056592
20
215.6293190016961
30
0
10
562.02314476298943
20
215.41276027260801
30
0
10
561.7994070156011
20
215.17262798649114
30
0
10
561.62112870127089
20
214.90829104175822
30
0
0
SPLINE
5
115
100
AcDbEntity
8
0
100
AcDbSpline
70
0
71
3
72
17
73
13
74
0
42
0.000000001
43
0.0000000001
44
0.0000000001
40
-0.0012880450509399784
40
-0.0012880450509399784
40
-0.0012880450509399784
40
-0.0012880450509399784
40
0
40
0
40
0
40
0.44532644559751117
40
0.44532644559751117
40
0.44532644559751117
40
0.90713310891006094
40
0.90713310891006094
40
0.90713310891006094
40
1
40
1
40
1
40
1
10
635.86949259640869
20
232.27609906459151
30
0
10
635.86811124814005
20
232.27640807317249
30
0
10
635.86672989984891
20
232.27671708175862
30
0
10
635.8653485515581
20
232.27702609034458
30
0
10
634.97579977400369
20
232.47601877868982
30
0
10
634.17743280321588
20
232.59418835309049
30
0
10
633.34295509445133
20
232.69446230001074
30
0
10
632.47759582800063
20
232.79844708982552
30
0
10
631.62321929661721
20
232.87291069242954
30
0
10
630.72377984166837
20
232.89910808280538
30
0
10
630.54290729793843
20
232.90437624022303
30
0
10
630.35905840849239
20
232.90748858435967
30
0
10
630.16794510493901
20
232.90749193498021
30
0
0
SPLINE
5
116
100
AcDbEntity
8
0
100
AcDbSpline
70
0
71
3
72
14
73
10
74
0
42
0.000000001
43
0.0000000001
44
0.0000000001
40
0
40
0
40
0
40
0
40
0.34312636598822854
40
0.34312636598822854
40
0.34312636598822854
40
0.7427224299007007
40
0.7427224299007007
40
0.7427224299007007
40
0.99894491497656646
40
0.99894491497656646
40
0.99894491497656646
40
0.99894491497656646
10
595.33819123455964
20
232.90810257425471
30
0
10
594.09832493582667
20
232.90812431173407
30
0
10
593.15325934763212
20
232.74359843236942
30
0
10
592.24130178926316
20
232.52970705012189
30
0
10
591.17925967620693
20
232.28061469545906
30
0
10
590.19827275220223
20
231.95102462119863
30
0
10
589.1722321052689
20
231.47777533531297
30
0
10
588.51433101942689
20
231.17432612987599
30
0
10
587.84098971462777
20
230.81805285004705
30
0
10
587.08326283707379
20
230.28135192014042
30
0
0
LINE
5
117
100
AcDbEntity
8
0
100
AcDbLine
10
536.94549661548933
20
124.829922689581
30
0
11
554.18533757544935
21
95.051437534584835
31
0
0
CIRCLE
5
118
100
AcDbEntity
8
0
100
AcDbCircle
10
637.92798808126463
20
227.86704981532358
30
0
40
1.7000000000000002
210
0
220
0
230
1
0
LINE
5
119
100
AcDbEntity
8
0
100
AcDbLine
10
630.16781361407129
20
225.40749193613308
30
0
11
595.33805974369193
21
225.40810257540741
31
0
0
LINE
5
120
100
AcDbEntity
8
0
100
AcDbLine
10
557.60231522934873
20
94.138549656688966
30
0
11
592.99671671931662
21
114.55662415042426
31
0
0
LINE
5
121
100
AcDbEntity
8
0
100
AcDbLine
10
687.34912657234167
20
213.01547150894316
30
0
11
634.22831879914474
21
224.95786400304587
31
0
0
CIRCLE
5
122
100
AcDbEntity
8
0
100
AcDbCircle
10
691.85666815159777
20
214.22841230799449
30
0
40
1.7000000000000002
210
0
220
0
230
1
0
SPLINE
5
123
100
AcDbEntity
8
0
100
AcDbSpline
70
0
71
3
72
8
73
4
74
0
42
0.000000001
43
0.0000000001
44
0.0000000001
40
5.33008608263004e-05
40
5.33008608263004e-05
40
5.33008608263004e-05
40
5.33008608263004e-05
40
1
40
1
40
1
40
1
10
554.18533758392584
20
95.051437539096142
30
0
10
554.87242717837125
20
93.862456121246254
30
0
10
556.41372304787524
20
93.451812613423044
30
0
10
557.60231522934873
20
94.138549656688966
30
0
0
SPLINE
5
124
100
AcDbEntity
8
0
100
AcDbSpline
70
0
71
1
72
4
73
2
74
0
42
0.000000001
43
0.0000000001
44
0.0000000001
40
0
40
0
40
0.0011478881703206895
40
0.0011478881703206895
10
587.08326283707379
20
230.28135192014042
30
0
10
587.07389897053213
20
230.27471243758924
30
0
0
LINE
5
125
100
AcDbEntity
8
0
100
AcDbLine
10
591.41501607940563
20
224.15877405929882
30
0
11
582.49775739446955
21
217.84849083602225
31
0
0
LINE
5
126
100
AcDbEntity
8
0
100
AcDbLine
10
553.40908346175206
20
146.76184755848269
30
0
11
537.32916368612769
21
128.63994161341571
31
0
0
SPLINE
5
127
100
AcDbEntity
8
0
100
AcDbSpline
70
0
71
3
72
11
73
7
74
0
42
0.000000001
43
0.0000000001
44
0.0000000001
40
3.9209371429575624e-05
40
3.9209371429575624e-05
40
3.9209371429575624e-05
40
3.9209371429575624e-05
40
0.82337742236486688
40
0.82337742236486688
40
0.82337742236486688
40
1
40
1
40
1
40
1
10
537.32916368975134
20
128.639941610135
30
0
10
536.58584175225064
20
127.80320883949564
30
0
10
536.36831887450569
20
126.5607796107215
30
0
10
536.6700121324061
20
125.48982881796441
30
0
10
536.73473139360965
20
125.26008837041559
30
0
10
536.82547885217048
20
125.03766010936459
30
0
10
536.94549661548933
20
124.829922689581
30
0
0
CIRCLE
5
128
100
AcDbEntity
8
0
100
AcDbCircle
10
551.46223229830844
20
205.46491342079116
30
0
40
1.7000000000000002
210
0
220
0
230
1
0
LINE
5
129
100
AcDbEntity
8
0
100
AcDbLine
10
545.84597745241979
20
149.53845741440745
30
0
11
531.7208160125117
21
133.61954422051645
31
0
0
LINE
5
130
100
AcDbEntity
8
0
100
AcDbLine
10
547.10688543131573
20
202.34878343928656
30
0
11
547.10601773404335
21
152.85690878639565
31
0
0
ARC
5
131
100
AcDbEntity
8
0
100
AcDbCircle
10
542.10601773481187
20
152.85699644697416
30
0
40
4.9999999999998739
210
0
220
0
230
1
100
AcDbArc
50
318.41673196050795
51
359.99899548387322
0
SPLINE
5
132
100
AcDbEntity
8
0
100
AcDbSpline
70
0
71
3
72
11
73
7
74
0
42
0.000000001
43
0.0000000001
44
0.0000000001
40
0
40
0
40
0
40
0
40
0.83937649406969683
40
0.83937649406969683
40
0.83937649406969683
40
1
40
1
40
1
40
1
10
689.69079286471447
20
210.08980323520049
30
0
10
689.69081297700143
20
211.23697151579455
30
0
10
688.97084424461104
20
212.29516555546539
30
0
10
687.96143533370946
20
212.7968615411479
30
0
10
687.7682743394098
20
212.89286633601748
30
0
10
687.56317469325745
20
212.96758891362947
30
0
10
687.34912657234167
20
213.01547150894316
30
0
0
SPLINE
5
133
100
AcDbEntity
8
0
100
AcDbSpline
70
0
71
3
72
14
73
10
74
0
42
0.000000001
43
0.0000000001
44
0.0000000001
40
0.00021400728288045398
40
0.00021400728288045398
40
0.00021400728288045398
40
0.00021400728288045398
40
0.39654478103096191
40
0.39654478103096191
40
0.39654478103096191
40
0.84385328032283291
40
0.84385328032283291
40
0.84385328032283291
40
1
40
1
40
1
40
1
10
547.69295899236022
20
91.296571100636825
30
0
10
548.77866468252705
20
89.418977970048203
30
0
10
550.43939242263696
20
87.988527422293146
30
0
10
552.28615510734448
20
87.168065476652075
30
0
10
554.37045615021475
20
86.242072276174397
30
0
10
556.73866790691113
20
86.032387719125936
30
0
10
559.02992466165279
20
86.668694925610339
30
0
10
559.82975794619222
20
86.890817427545315
30
0
10
560.61568063219977
20
87.217750756037233
30
0
10
561.35437629813146
20
87.644549523017474
30
0
0
LINE
5
134
100
AcDbEntity
8
0
100
AcDbLine
10
561.62112870127089
20
214.9082910417583
30
0
11
555.81042699501199
21
206.28605788586248
31
0
0
LINE
5
135
100
AcDbEntity
8
0
100
AcDbLine
10
555.40313746996139
20
219.10192729772504
30
0
11
549.58874689105744
21
210.47422498965176
31
0
0
SPLINE
5
136
100
AcDbEntity
8
0
100
AcDbSpline
70
0
71
3
72
14
73
10
74
0
42
0.000000001
43
0.0000000001
44
0.0000000001
40
0
40
0
40
0
40
0
40
0.35737177311493251
40
0.35737177311493251
40
0.35737177311493251
40
0.75402780165018124
40
0.75402780165018124
40
0.75402780165018124
40
1
40
1
40
1
40
1
10
697.19079286356168
20
210.08967174433238
30
0
10
697.19082642826606
20
212.00414144790324
30
0
10
696.67005698032517
20
213.66677907071463
30
0
10
695.90596800986214
20
215.06527675523316
30
0
10
695.05788621025681
20
216.6175049366079
30
0
10
693.90057256995669
20
217.90153215813021
30
0
10
692.35513213562228
20
218.90911549050472
30
0
10
691.39678194375529
20
219.53393263547531
30
0
10
690.27410410766947
20
220.04651949254685
30
0
10
688.98641141464452
20
220.33457653245293
30
0
0
CIRCLE
5
137
100
AcDbEntity
8
0
100
AcDbCircle
10
554.77798569321885
20
90.287806096732552
30
0
40
1.7000000000000002
210
0
220
0
230
1
0
SPLINE
5
138
100
AcDbEntity
8
0
100
AcDbSpline
70
0
71
3
72
14
73
10
74
0
42
0.000000001
43
0.0000000001
44
0.0000000001
40
0
40
0
40
0
40
0
40
0.34221160975963277
40
0.34221160975963277
40
0.34221160975963277
40
0.72015733636954704
40
0.72015733636954704
40
0.72015733636954704
40
1
40
1
40
1
40
1
10
565.15438503938299
20
224.28672047690247
30
0
10
563.53757415810719
20
224.28674882301792
30
0
10
562.2809913847999
20
223.96192071116829
30
0
10
561.14873924092024
20
223.53667590593597
30
0
10
559.89825606904628
20
223.0670265652443
30
0
10
558.80068486866003
20
222.45401028614765
30
0
10
557.72659920527622
20
221.59796946298803
30
0
10
556.9313130786021
20
220.96413045578942
30
0
10
556.14193033586275
20
220.19735076353618
30
0
10
555.40313746996139
20
219.10192729772513
30
0
0
LINE
5
139
100
AcDbEntity
8
0
100
AcDbLine
10
561.35437629813146
20
87.644549523017474
30
0
11
596.54140667086472
21
107.94299524321502
31
0
0
LINE
5
140
100
AcDbEntity
8
0
100
AcDbLine
10
578.61173274694897
20
224.28648454112556
30
0
11
565.15438503938299
21
224.28672047690247
31
0
0
SPLINE
5
141
100
AcDbEntity
8
0
100
AcDbSpline
70
0
71
3
72
11
73
7
74
0
42
0.000000001
43
0.0000000001
44
0.0000000001
40
-8.0502818458249887e-05
40
-8.0502818458249887e-05
40
-8.0502818458249887e-05
40
-8.0502818458249887e-05
40
0
40
0
40
0
40
1
40
1
40
1
40
1
10
634.22831879909404
20
224.95786400305724
30
0
10
634.22823246486416
20
224.95788331608537
30
0
10
634.22814613057938
20
224.95790262912564
30
0
10
634.22805979629049
20
224.95792194216691
30
0
10
633.09780425162035
20
225.21076090392603
30
0
10
631.32830745063927
20
225.40747159022084
30
0
10
630.16781361407129
20
225.407491936133
30
0
0
SPLINE
5
142
100
AcDbEntity
8
0
100
AcDbSpline
70
0
71
3
72
11
73
7
74
0
42
0.000000001
43
0.0000000001
44
0.0000000001
40
0
40
0
40
0
40
0
40
0.83797061345020218
40
0.83797061345020218
40
0.83797061345020218
40
1
40
1
40
1
40
1
10
595.33805974369193
20
225.40810257540741
30
0
10
594.284132923161
20
225.40812105297434
30
0
10
592.96500875884431
20
225.02838365266649
30
0
10
591.95871704340846
20
224.4914061063497
30
0
10
591.76414121136247
20
224.38757651969809
30
0
10
591.58163908440679
20
224.27704372341287
30
0
10
591.41501607940552
20
224.15877405929882
30
0
0
LINE
5
143
100
AcDbEntity
8
0
100
AcDbLine
10
530.45139615537232
20
121.07803526937367
30
0
11
547.69295845867623
21
91.296570792042857
31
0
0
LINE
5
144
100
AcDbEntity
8
0
100
AcDbLine
10
579.1524731847644
20
216.78647505964898
30
0
11
565.15425354851527
21
216.78672047805514
31
0
0
LINE
5
145
100
AcDbEntity
8
0
100
AcDbLine
10
596.71028509064411
20
107.98791807861278
30
0
11
687.18875274754112
21
107.98633179964988
31
0
0
LINE
5
146
100
AcDbEntity
8
0
100
AcDbLine
10
596.47911839952781
20
115.48792213260654
30
0
11
687.18888423840895
21
115.48633179849723
31
0
0
SPLINE
5
147
100
AcDbEntity
8
0
100
AcDbSpline
70
0
71
3
72
14
73
10
74
0
42
0.000000001
43
0.0000000001
44
0.0000000001
40
0.048365208156510832
40
0.048365208156510832
40
0.048365208156510832
40
0.048365208156510832
40
0.85185640395559159
40
0.85185640395559159
40
0.85185640395559159
40
1
40
1
40
1
40
1.0000465039515902
40
1.0000465039515902
40
1.0000465039515902
40
1.0000465039515902
10
554.60596392611887
20
149.7877368879702
30
0
10
554.5668832202673
20
148.99829322624265
30
0
10
554.16924907264752
20
147.84808758849744
30
0
10
553.681538209162
20
147.11857608721985
30
0
10
553.59161657526681
20
146.98407248877339
30
0
10
553.49949490491872
20
146.86361448704815
30
0
10
553.4091853429336
20
146.76196223572404
30
0
10
553.40915138263256
20
146.76192401008143
30
0
10
553.40911742233175
20
146.76188578443885
30
0
10
553.40908346175206
20
146.76184755848277
30
0
0
SPLINE
5
148
100
AcDbEntity
8
0
100
AcDbSpline
70
0
71
3
72
14
73
10
74
0
42
0.000000001
43
0.0000000001
44
0.0000000001
40
-5.1161608889140504e-05
40
-5.1161608889140504e-05
40
-5.1161608889140504e-05
40
-5.1161608889140504e-05
40
0
40
0
40
0
40
0.88838609160554316
40
0.88838609160554316
40
0.88838609160554316
40
1
40
1
40
1
40
1
10
592.9967167193746
20
114.55662415045794
30
0
10
592.99676545145928
20
114.55665230656408
30
0
10
592.9968141836008
20
114.55668046270311
30
0
10
592.99686291574085
20
114.55670861884137
30
0
10
593.73766340743884
20
114.98472349833349
30
0
10
595.14269186167667
20
115.39536820157011
30
0
10
596.13006936063528
20
115.47321348034814
30
0
10
596.25412022406158
20
115.48299370529378
30
0
10
596.37141187909947
20
115.48792402092964
30
0
10
596.47911839952781
20
115.48792213260647
30
0
0
LINE
5
149
100
AcDbEntity
8
0
100
AcDbLine
10
554.60688543016306
20
202.34865194841888
30
0
11
554.60596554365907
21
149.87999842593808
31
0
0
SPLINE
5
150
100
AcDbEntity
8
0
100
AcDbSpline
70
0
71
3
72
14
73
10
74
0
42
0.000000001
43
0.0000000001
44
0.0000000001
40
-0.0001089844586432459
40
-0.0001089844586432459
40
-0.0001089844586432459
40
-0.0001089844586432459
40
0
40
0
40
0
40
0.85004694110565393
40
0.85004694110565393
40
0.85004694110565393
40
1
40
1
40
1
40
1
10
555.81042699498403
20
206.28605788582115
30
0
10
555.81036009534591
20
206.28595830750533
30
0
10
555.81029319567847
20
206.28585872914599
30
0
10
555.81022629600955
20
206.28575915078457
30
0
10
555.21694270326088
20
205.40267244750373
30
0
10
554.77445805472985
20
204.07420972968481
30
0
10
554.64288619848674
20
202.93342823844347
30
0
10
554.61967618342271
20
202.73218797055995
30
0
10
554.60688872546393
20
202.53660992611344
30
0
10
554.60688543016295
20
202.34865194841888
30
0
0
CIRCLE
5
151
100
AcDbEntity
8
0
100
AcDbCircle
10
691.53292411705615
20
113.64423058617632
30
0
40
1.7000000000000002
210
0
220
0
230
1
0
LINE
5
152
100
AcDbEntity
8
0
100
AcDbLine
10
689.68917809988375
20
117.98655346636991
30
0
11
689.69079286471447
21
210.08980323520058
31
0
0
LINE
5
153
100
AcDbEntity
8
0
100
AcDbLine
10
697.18917809873096
20
117.98642197550222
30
0
11
697.19079286356168
21
210.08967174433286
31
0
0
ENDSEC
0
SECTION
2
OBJECTS
0
DICTIONARY
5
C
100
AcDbDictionary
3
ACAD_GROUP
350
D
3
ACAD_MLINESTYLE
350
17
0
DICTIONARY
5
D
100
AcDbDictionary
0
DICTIONARY
5
1A
330
C
100
AcDbDictionary
0
DICTIONARY
5
17
100
AcDbDictionary
0
ENDSEC
0
EOF
