0
SECTION
2
HEADER
9
$INSUNITS
70
4
9
$ACADVER
1
AC1014
9
$HANDSEED
5
FFFF
0
ENDSEC
0
SECTION
2
TABLES
0
TABLE
2
VPORT
5
8
100
AcDbSymbolTable
0
ENDTAB
0
TABLE
2
LTYPE
5
5
100
AcDbSymbolTable
0
LTYPE
5
14
100
AcDbSymbolTableRecord
100
AcDbLinetypeTableRecord
2
BYBLOCK
70
0
0
LTYPE
5
15
100
AcDbSymbolTableRecord
100
AcDbLinetypeTableRecord
2
BYLAYER
70
0
0
LTYPE
5
16
100
AcDbSymbolTableRecord
100
AcDbLinetypeTableRecord
2
DASHED
70
0
3
Dashed __ __ __ __ __ __ __ __ __ __ __ __ __ _
72
65
73
2
40
0.75
49
0.5
74
0
49
-0.25
74
0
0
ENDTAB
0
TABLE
2
LAYER
5
2
100
AcDbSymbolTable
70
2
0
LAYER
5
50
100
AcDbSymbolTableRecord
100
AcDbLayerTableRecord
2
0
70
0
62
7
6
CONTINUOUS
0
ENDTAB
0
TABLE
2
STYLE
5
3
100
AcDbSymbolTable
70
1
0
STYLE
5
11
100
AcDbSymbolTableRecord
100
AcDbTextStyleTableRecord
2
STANDARD
70
0
0
ENDTAB
0
TABLE
2
VIEW
5
6
100
AcDbSymbolTable
70
0
0
ENDTAB
0
TABLE
2
UCS
5
7
100
AcDbSymbolTable
70
0
0
ENDTAB
0
TABLE
2
APPID
5
9
100
AcDbSymbolTable
70
2
0
APPID
5
12
100
AcDbSymbolTableRecord
100
AcDbRegAppTableRecord
2
ACAD
70
0
0
ENDTAB
0
TABLE
2
DIMSTYLE
5
A
100
AcDbSymbolTable
70
1
0
ENDTAB
0
TABLE
2
BLOCK_RECORD
5
1
100
AcDbSymbolTable
70
1
0
BLOCK_RECORD
5
1F
100
AcDbSymbolTableRecord
100
AcDbBlockTableRecord
2
*MODEL_SPACE
0
BLOCK_RECORD
5
1B
100
AcDbSymbolTableRecord
100
AcDbBlockTableRecord
2
*PAPER_SPACE
0
ENDTAB
0
ENDSEC
0
SECTION
2
BLOCKS
0
BLOCK
5
20
100
AcDbEntity
100
AcDbBlockBegin
2
*MODEL_SPACE
0
ENDBLK
5
21
100
AcDbEntity
100
AcDbBlockEnd
0
BLOCK
5
1C
100
AcDbEntity
100
AcDbBlockBegin
2
*PAPER_SPACE
0
ENDBLK
5
1D
100
AcDbEntity
100
AcDbBlockEnd
0
ENDSEC
0
SECTION
2
ENTITIES
0
POINT
5
100
100
AcDbEntity
8
0
100
AcDbPoint
10
691.8566681515972
20
-185.77158769200551
30
0
0
POINT
5
101
100
AcDbEntity
8
0
100
AcDbPoint
10
691.8566681515972
20
-185.77158769200551
30
0
0
SPLINE
5
102
100
AcDbEntity
8
0
100
AcDbSpline
70
0
71
3
72
8
73
4
74
0
42
0.000000001
43
0.0000000001
44
0.0000000001
40
5.33008608263004e-05
40
5.33008608263004e-05
40
5.33008608263004e-05
40
5.33008608263004e-05
40
1
40
1
40
1
40
1
10
554.18533758392539
20
-304.94856246090393
30
0
10
554.87242717837069
20
-306.1375438787536
30
0
10
556.41372304787478
20
-306.54818738657684
30
0
10
557.60231522934828
20
-305.86145034331093
30
0
0
SPLINE
5
103
100
AcDbEntity
8
0
100
AcDbSpline
70
0
71
3
72
14
73
10
74
0
42
0.000000001
43
0.0000000001
44
0.0000000001
40
0
40
0
40
0
40
0
40
0.34221160975963277
40
0.34221160975963277
40
0.34221160975963277
40
0.72015733636954704
40
0.72015733636954704
40
0.72015733636954704
40
1
40
1
40
1
40
1
10
565.15438503938253
20
-175.71327952309758
30
0
10
563.53757415810674
20
-175.71325117698208
30
0
10
562.28099138479945
20
-176.03807928883171
30
0
10
561.14873924091978
20
-176.46332409406398
30
0
10
559.89825606904583
20
-176.93297343475564
30
0
10
558.80068486865957
20
-177.54598971385235
30
0
10
557.72659920527565
20
-178.40203053701202
30
0
10
556.93131307860165
20
-179.03586954421058
30
0
10
556.1419303358623
20
-179.80264923646388
30
0
10
555.40313746996083
20
-180.89807270227482
30
0
0
CIRCLE
5
104
100
AcDbEntity
8
0
100
AcDbCircle
10
554.7779856932184
20
-309.71219390326735
30
0
40
1.2
210
0
220
0
230
1
0
LINE
5
105
100
AcDbEntity
8
0
100
AcDbLine
10
530.45139615537198
20
-278.92196473062626
30
0
11
547.69295845867578
21
-308.7034292079569
31
0
0
CIRCLE
5
106
100
AcDbEntity
8
0
100
AcDbCircle
10
532.83655283015787
20
-272.79929362937321
30
0
40
1.2
210
0
220
0
230
1
0
SPLINE
5
107
100
AcDbEntity
8
0
100
AcDbSpline
70
0
71
3
72
11
73
7
74
0
42
0.000000001
43
0.0000000001
44
0.0000000001
40
0
40
0
40
0
40
0
40
0.83797061345020218
40
0.83797061345020218
40
0.83797061345020218
40
1
40
1
40
1
40
1
10
595.33805974369136
20
-174.59189742459259
30
0
10
594.28413292316043
20
-174.59187894702566
30
0
10
592.96500875884374
20
-174.97161634733345
30
0
10
591.958717043408
20
-175.5085938936503
30
0
10
591.76414121136202
20
-175.61242348030191
30
0
10
591.58163908440622
20
-175.72295627658704
30
0
10
591.41501607940495
20
-175.84122594070109
30
0
0
LINE
5
108
100
AcDbEntity
8
0
100
AcDbLine
10
587.07389897053167
20
-169.72528756241076
30
0
11
578.61173274694841
21
-175.71351545887438
31
0
0
SPLINE
5
109
100
AcDbEntity
8
0
100
AcDbSpline
70
0
71
3
72
11
73
7
74
0
42
0.000000001
43
0.0000000001
44
0.0000000001
40
0
40
0
40
0
40
0
40
0.83878272991776315
40
0.83878272991776315
40
0.83878272991776315
40
1
40
1
40
1
40
1
10
582.49775739446909
20
-182.15150916397775
30
0
10
581.85070683588845
20
-182.60823282732517
30
0
10
580.60719293541285
20
-183.05874615915187
30
0
10
579.65830683935803
20
-183.17873396309693
30
0
10
579.47592727839594
20
-183.20179608097931
30
0
10
579.30459941706329
20
-183.21352760744574
30
0
10
579.15247318476395
20
-183.21352494035096
30
0
0
SPLINE
5
110
100
AcDbEntity
8
0
100
AcDbSpline
70
0
71
3
72
11
73
7
74
0
42
0.000000001
43
0.0000000001
44
0.0000000001
40
3.9209371429575624e-05
40
3.9209371429575624e-05
40
3.9209371429575624e-05
40
3.9209371429575624e-05
40
0.82337742236486688
40
0.82337742236486688
40
0.82337742236486688
40
1
40
1
40
1
40
1
10
537.329163689751
20
-271.36005838986506
30
0
10
536.58584175225019
20
-272.19679116050429
30
0
10
536.36831887450535
20
-273.43922038927843
30
0
10
536.67001213240576
20
-274.51017118203566
30
0
10
536.73473139360931
20
-274.73991162958441
30
0
10
536.82547885217002
20
-274.96233989063541
30
0
10
536.94549661548899
20
-275.170077310419
30
0
0
SPLINE
5
111
100
AcDbEntity
8
0
100
AcDbSpline
70
0
71
3
72
14
73
10
74
0
42
0.000000001
43
0.0000000001
44
0.0000000001
40
0
40
0
40
0
40
0
40
0.34312636598822854
40
0.34312636598822854
40
0.34312636598822854
40
0.7427224299007007
40
0.7427224299007007
40
0.7427224299007007
40
0.99894491497656646
40
0.99894491497656646
40
0.99894491497656646
40
0.99894491497656646
10
595.33819123455919
20
-167.09189742574523
30
0
10
594.09832493582621
20
-167.09187568826593
30
0
10
593.15325934763155
20
-167.25640156763049
30
0
10
592.24130178926271
20
-167.47029294987811
30
0
10
591.17925967620647
20
-167.71938530454094
30
0
10
590.19827275220177
20
-168.04897537880123
30
0
10
589.17223210526834
20
-168.52222466468689
30
0
10
588.51433101942621
20
-168.82567387012386
30
0
10
587.8409897146272
20
-169.1819471499528
30
0
10
587.08326283707311
20
-169.71864807985938
30
0
0
SPLINE
5
112
100
AcDbEntity
8
0
100
AcDbSpline
70
0
71
3
72
8
73
4
74
0
42
0.000000001
43
0.0000000001
44
0.0000000001
40
0.40648069728705111
40
0.40648069728705111
40
0.40648069728705111
40
0.40648069728705111
40
0.59941312190361262
40
0.59941312190361262
40
0.59941312190361262
40
0.59941312190361262
10
596.54140667086415
20
-292.05700475678486
30
0
10
596.59261662009419
20
-292.04118984775135
30
0
10
596.65857998711351
20
-292.02366278852196
30
0
10
596.71028509064365
20
-292.01208192138722
30
0
0
SPLINE
5
113
100
AcDbEntity
8
0
100
AcDbSpline
70
0
71
3
72
14
73
10
74
0
42
0.000000001
43
0.0000000001
44
0.0000000001
40
-5.1161608889140504e-05
40
-5.1161608889140504e-05
40
-5.1161608889140504e-05
40
-5.1161608889140504e-05
40
0
40
0
40
0
40
0.88838609160554316
40
0.88838609160554316
40
0.88838609160554316
40
1
40
1
40
1
40
1
10
592.99671671939871
20
-285.44337584954206
30
0
10
592.99676545148338
20
-285.44334769343578
30
0
10
592.99681418362491
20
-285.44331953729682
30
0
10
592.99686291576495
20
-285.44329138115859
30
0
10
593.73766340746306
20
-285.01527650166651
30
0
10
595.14269186170088
20
-284.60463179842975
30
0
10
596.13006936065949
20
-284.52678651965186
30
0
10
596.2541202240858
20
-284.51700629470622
30
0
10
596.37141187912368
20
-284.51207597907029
30
0
10
596.47911839955202
20
-284.5120778673936
30
0
0
LINE
5
114
100
AcDbEntity
8
0
100
AcDbLine
10
561.35437629813089
20
-312.35545047698236
30
0
11
596.54140667086415
21
-292.05700475678498
31
0
0
CIRCLE
5
115
100
AcDbEntity
8
0
100
AcDbCircle
10
637.92798808126417
20
-172.13295018467647
30
0
40
1.2
210
0
220
0
230
1
0
LINE
5
116
100
AcDbEntity
8
0
100
AcDbLine
10
630.16794510493844
20
-167.09250806501984
30
0
11
595.33819123455919
21
-167.09189742574523
31
0
0
LINE
5
117
100
AcDbEntity
8
0
100
AcDbLine
10
630.16781361407072
20
-174.59250806386692
30
0
11
595.33805974369136
21
-174.59189742459259
31
0
0
SPLINE
5
118
100
AcDbEntity
8
0
100
AcDbSpline
70
0
71
1
72
4
73
2
74
0
42
0.000000001
43
0.0000000001
44
0.0000000001
40
0
40
0
40
0.0011478881703206895
40
0.0011478881703206895
10
587.08326283707333
20
-169.71864807985952
30
0
10
587.07389897053167
20
-169.72528756241076
30
0
0
SPLINE
5
119
100
AcDbEntity
8
0
100
AcDbSpline
70
0
71
3
72
17
73
13
74
0
42
0.000000001
43
0.0000000001
44
0.0000000001
40
-0.0012880450509399784
40
-0.0012880450509399784
40
-0.0012880450509399784
40
-0.0012880450509399784
40
0
40
0
40
0
40
0.44532644559751117
40
0.44532644559751117
40
0.44532644559751117
40
0.90713310891006094
40
0.90713310891006094
40
0.90713310891006094
40
1
40
1
40
1
40
1
10
635.86949259640812
20
-167.72390093540864
30
0
10
635.86811124813937
20
-167.72359192682757
30
0
10
635.86672989984822
20
-167.72328291824152
30
0
10
635.86534855155742
20
-167.72297390965548
30
0
10
634.97579977400301
20
-167.52398122131041
30
0
10
634.1774328032152
20
-167.40581164690965
30
0
10
633.34295509445064
20
-167.30553769998934
30
0
10
632.47759582799995
20
-167.20155291017448
30
0
10
631.62321929661653
20
-167.1270893075706
30
0
10
630.72377984166769
20
-167.10089191719462
30
0
10
630.54290729793786
20
-167.09562375977697
30
0
10
630.35905840849171
20
-167.09251141564039
30
0
10
630.16794510493833
20
-167.09250806501984
30
0
0
SPLINE
5
120
100
AcDbEntity
8
0
100
AcDbSpline
70
0
71
3
72
11
73
7
74
0
42
0.000000001
43
0.0000000001
44
0.0000000001
40
-8.0502818458249887e-05
40
-8.0502818458249887e-05
40
-8.0502818458249887e-05
40
-8.0502818458249887e-05
40
0
40
0
40
0
40
1
40
1
40
1
40
1
10
634.22831879909347
20
-175.04213599694282
30
0
10
634.22823246486348
20
-175.04211668391463
30
0
10
634.22814613057869
20
-175.04209737087436
30
0
10
634.22805979628981
20
-175.04207805783309
30
0
10
633.09780425161966
20
-174.78923909607403
30
0
10
631.32830745063859
20
-174.59252840977911
30
0
10
630.16781361407061
20
-174.59250806386706
30
0
0
LINE
5
121
100
AcDbEntity
8
0
100
AcDbLine
10
591.41501607940518
20
-175.84122594070124
30
0
11
582.49775739446909
21
-182.15150916397775
31
0
0
SPLINE
5
122
100
AcDbEntity
8
0
100
AcDbSpline
70
0
71
3
72
14
73
10
74
0
42
0.000000001
43
0.0000000001
44
0.0000000001
40
0
40
0
40
0
40
0
40
0.35737177311493251
40
0.35737177311493251
40
0.35737177311493251
40
0.75402780165018124
40
0.75402780165018124
40
0.75402780165018124
40
1
40
1
40
1
40
1
10
697.190792863561
20
-189.91032825566748
30
0
10
697.1908264282655
20
-187.99585855209671
30
0
10
696.67005698032449
20
-186.33322092928523
30
0
10
695.90596800986168
20
-184.9347232447667
30
0
10
695.05788621025636
20
-183.38249506339196
30
0
10
693.9005725699559
20
-182.09846784186965
30
0
10
692.35513213562149
20
-181.09088450949528
30
0
10
691.39678194375449
20
-180.46606736452475
30
0
10
690.27410410766856
20
-179.95348050745321
30
0
10
688.98641141464373
20
-179.66542346754707
30
0
0
LINE
5
123
100
AcDbEntity
8
0
100
AcDbLine
10
557.60231522934828
20
-305.86145034331093
30
0
11
592.99671671931617
21
-285.44337584957577
31
0
0
LINE
5
124
100
AcDbEntity
8
0
100
AcDbLine
10
536.94549661548899
20
-275.170077310419
30
0
11
554.1853375754489
21
-304.94856246541519
31
0
0
SPLINE
5
125
100
AcDbEntity
8
0
100
AcDbSpline
70
0
71
3
72
14
73
10
74
0
42
0.000000001
43
0.0000000001
44
0.0000000001
40
0.048365208156510832
40
0.048365208156510832
40
0.048365208156510832
40
0.048365208156510832
40
0.85185640395559159
40
0.85185640395559159
40
0.85185640395559159
40
1
40
1
40
1
40
1.0000465039515902
40
1.0000465039515902
40
1.0000465039515902
40
1.0000465039515902
10
554.60596392611842
20
-250.2122631120298
30
0
10
554.56688322026685
20
-251.00170677375729
30
0
10
554.16924907264706
20
-252.15191241150251
30
0
10
553.68153820916154
20
-252.88142391278015
30
0
10
553.59161657526636
20
-253.01592751122655
30
0
10
553.49949490491815
20
-253.13638551295185
30
0
10
553.40918534293314
20
-253.23803776427596
30
0
10
553.4091513826321
20
-253.23807598991863
30
0
10
553.40911742233129
20
-253.23811421556115
30
0
10
553.40908346175161
20
-253.23815244151717
30
0
0
CIRCLE
5
126
100
AcDbEntity
8
0
100
AcDbCircle
10
551.46223229830798
20
-194.53508657920878
30
0
40
1.2
210
0
220
0
230
1
0
SPLINE
5
127
100
AcDbEntity
8
0
100
AcDbSpline
70
0
71
3
72
11
73
7
74
0
42
0.000000001
43
0.0000000001
44
0.0000000001
40
0
40
0
40
0
40
0
40
0.83937649406969683
40
0.83937649406969683
40
0.83937649406969683
40
1
40
1
40
1
40
1
10
689.69079286471379
20
-189.91019676479937
30
0
10
689.69081297700086
20
-188.76302848420536
30
0
10
688.97084424461036
20
-187.70483444453447
30
0
10
687.96143533370901
20
-187.20313845885201
30
0
10
687.76827433940923
20
-187.10713366398238
30
0
10
687.563174693257
20
-187.03241108637059
30
0
10
687.34912657234099
20
-186.98452849105678
30
0
0
SPLINE
5
128
100
AcDbEntity
8
0
100
AcDbSpline
70
0
71
3
72
14
73
10
74
0
42
0.000000001
43
0.0000000001
44
0.0000000001
40
0
40
0
40
0
40
0
40
0.39950619035870588
40
0.39950619035870588
40
0.39950619035870588
40
0.84569619330265011
40
0.84569619330265011
40
0.84569619330265011
40
1
40
1
40
1
40
1
10
687.18875274754078
20
-292.01366820034593
30
0
10
689.36994612947024
20
-292.01370644128065
30
0
10
691.45353679230823
20
-291.28419235386417
30
0
10
693.0966512484938
20
-290.07983182113105
30
0
10
694.93176985675427
20
-288.73473719527993
30
0
10
696.29127268397781
20
-286.78566010299079
30
0
10
696.87868579350322
20
-284.4856145710807
30
0
10
697.08182812817142
20
-283.69020055729891
30
0
10
697.18916332890501
20
-282.85602200342026
30
0
10
697.18917809873028
20
-282.01357802449337
30
0
0
ARC
5
129
100
AcDbEntity
8
0
100
AcDbCircle
10
542.10601773481142
20
-247.14300355302584
30
0
40
4.9999999999999805
210
0
220
0
230
1
100
AcDbArc
50
318.4167319605088
51
359.99899548387322
0
LINE
5
130
100
AcDbEntity
8
0
100
AcDbLine
10
554.60688543016249
20
-197.65134805158112
30
0
11
554.60596554365861
21
-250.12000157406192
31
0
0
LINE
5
131
100
AcDbEntity
8
0
100
AcDbLine
10
554.60596554365861
20
-250.12000157406192
30
0
11
554.60596392611842
21
-250.2122631120298
31
0
0
SPLINE
5
132
100
AcDbEntity
8
0
100
AcDbSpline
70
0
71
3
72
14
73
10
74
0
42
0.000000001
43
0.0000000001
44
0.0000000001
40
0.00021400728288045398
40
0.00021400728288045398
40
0.00021400728288045398
40
0.00021400728288045398
40
0.39654478103096191
40
0.39654478103096191
40
0.39654478103096191
40
0.84385328032283291
40
0.84385328032283291
40
0.84385328032283291
40
1
40
1
40
1
40
1
10
547.69295899235988
20
-308.70342889936308
30
0
10
548.77866468252671
20
-310.58102202995155
30
0
10
550.43939242263639
20
-312.01147257770674
30
0
10
552.28615510734392
20
-312.83193452334774
30
0
10
554.3704561502143
20
-313.75792772382556
30
0
10
556.73866790691056
20
-313.96761228087382
30
0
10
559.02992466165222
20
-313.33130507438955
30
0
10
559.82975794619176
20
-313.10918257245464
30
0
10
560.61568063219931
20
-312.78224924396272
30
0
10
561.35437629813089
20
-312.35545047698236
30
0
0
LINE
5
133
100
AcDbEntity
8
0
100
AcDbLine
10
596.47911839952735
20
-284.51207786739349
30
0
11
687.18888423840838
21
-284.5136682015027
31
0
0
LINE
5
134
100
AcDbEntity
8
0
100
AcDbLine
10
687.34912657234099
20
-186.98452849105678
30
0
11
634.22831879914418
21
-175.04213599695419
31
0
0
LINE
5
135
100
AcDbEntity
8
0
100
AcDbLine
10
596.71028509064365
20
-292.01208192138722
30
0
11
687.18875274754055
21
-292.0136682003502
31
0
0
LINE
5
136
100
AcDbEntity
8
0
100
AcDbLine
10
688.98641141464395
20
-179.66542346754707
30
0
11
635.86949259643018
21
-167.72390093541475
31
0
0
SPLINE
5
137
100
AcDbEntity
8
0
100
AcDbSpline
70
0
71
3
72
11
73
7
74
0
42
0.000000001
43
0.0000000001
44
0.0000000001
40
0
40
0
40
0
40
0
40
0.75924028193625148
40
0.75924028193625148
40
0.75924028193625148
40
1
40
1
40
1
40
1
10
565.15425354851482
20
-183.2132795219448
30
0
10
564.14661983388362
20
-183.21326185599389
30
0
10
563.07240711305394
20
-183.68775898854693
30
0
10
562.27576487056547
20
-184.37068099830384
30
0
10
562.02314476298886
20
-184.58723972739193
30
0
10
561.79940701560065
20
-184.82737201350872
30
0
10
561.62112870127044
20
-185.09170895824155
30
0
0
LINE
5
138
100
AcDbEntity
8
0
100
AcDbLine
10
547.10688543131528
20
-197.65121656071344
30
0
11
547.10601773404289
21
-247.14309121360429
31
0
0
SPLINE
5
139
100
AcDbEntity
8
0
100
AcDbSpline
70
0
71
3
72
17
73
13
74
0
42
0.000000001
43
0.0000000001
44
0.0000000001
40
-0.0021851623891537184
40
-0.0021851623891537184
40
-0.0021851623891537184
40
-0.0021851623891537184
40
0
40
0
40
0
40
0.34521356535394948
40
0.34521356535394948
40
0.34521356535394948
40
0.74612008656055573
40
0.74612008656055573
40
0.74612008656055573
40
1
40
1
40
1
40
1
10
549.58874689105733
20
-189.52577501034824
30
0
10
549.58740553814084
20
-189.52777157816058
30
0
10
549.58606418515149
20
-189.52976814608164
30
0
10
549.58472283208914
20
-189.53176471411126
30
0
10
548.90831625746819
20
-190.53857774477706
30
0
10
548.52014570569554
20
-191.39459781731574
30
0
10
548.18664461917854
20
-192.2541042286106
30
0
10
547.79934013919058
20
-193.25227394118755
30
0
10
547.5171212617887
20
-194.23091940650039
30
0
10
547.32210276788942
20
-195.32509850058219
30
0
10
547.19860445660925
20
-196.01800340234504
30
0
10
547.10690121097502
20
-196.7511734593802
30
0
10
547.10688543131528
20
-197.65121656071329
30
0
0
SPLINE
5
140
100
AcDbEntity
8
0
100
AcDbSpline
70
0
71
3
72
14
73
10
74
0
42
0.000000001
43
0.0000000001
44
0.0000000001
40
0.00016221504811703984
40
0.00016221504811703984
40
0.00016221504811703984
40
0.00016221504811703984
40
0.36867590397288497
40
0.36867590397288497
40
0.36867590397288497
40
0.75270538978271406
40
0.75270538978271406
40
0.75270538978271406
40
1
40
1
40
1
40
1
10
531.72081625442752
20
-266.3804559943087
30
0
10
530.43449643606539
20
-267.828936719647
30
0
10
529.75235067374842
20
-269.36714683289011
30
0
10
529.37879422188769
20
-270.8603691641278
30
0
10
528.98950965406686
20
-272.41646170912389
30
0
10
528.92272783625663
20
-273.96721652325425
30
0
10
529.23456259089096
20
-275.62092167347458
30
0
10
529.43536762526708
20
-276.68582003583765
30
0
10
529.80410004441205
20
-277.80156704774896
30
0
10
530.45139615537221
20
-278.92196473062626
30
0
0
LINE
5
141
100
AcDbEntity
8
0
100
AcDbLine
10
555.40313746996083
20
-180.89807270227496
30
0
11
549.58874689105687
21
-189.52577501034824
31
0
0
LINE
5
142
100
AcDbEntity
8
0
100
AcDbLine
10
697.18917809873028
20
-282.01357802449775
30
0
11
697.190792863561
21
-189.9103282556672
31
0
0
SPLINE
5
143
100
AcDbEntity
8
0
100
AcDbSpline
70
0
71
3
72
8
73
4
74
0
42
0.000000001
43
0.0000000001
44
0.0000000001
40
0
40
0
40
0
40
0
40
1
40
1
40
1
40
1
10
687.18888423840838
20
-284.51366820149758
30
0
10
688.56199224176009
20
-284.51369227498589
30
0
10
689.68915402651419
20
-283.38654771982192
30
0
10
689.68917809988307
20
-282.0134465336248
30
0
0
LINE
5
144
100
AcDbEntity
8
0
100
AcDbLine
10
553.40908346175161
20
-253.23815244151731
30
0
11
537.32916368612712
21
-271.36005838658434
31
0
0
LINE
5
145
100
AcDbEntity
8
0
100
AcDbLine
10
579.15247318476395
20
-183.21352494035096
30
0
11
565.15425354851482
21
-183.2132795219448
31
0
0
SPLINE
5
146
100
AcDbEntity
8
0
100
AcDbSpline
70
0
71
3
72
14
73
10
74
0
42
0.000000001
43
0.0000000001
44
0.0000000001
40
-0.0001089844586432459
40
-0.0001089844586432459
40
-0.0001089844586432459
40
-0.0001089844586432459
40
0
40
0
40
0
40
0.85004694110565393
40
0.85004694110565393
40
0.85004694110565393
40
1
40
1
40
1
40
1
10
555.81042699498175
20
-193.71394211417822
30
0
10
555.81036009534364
20
-193.71404169249402
30
0
10
555.81029319567631
20
-193.7141412708533
30
0
10
555.81022629600727
20
-193.71424084921472
30
0
10
555.21694270325918
20
-194.5973275524959
30
0
10
554.77445805472871
20
-195.92579027031505
30
0
10
554.64288619848605
20
-197.06657176155645
30
0
10
554.61967618342226
20
-197.26781202943997
30
0
10
554.60688872546359
20
-197.46339007388656
30
0
10
554.60688543016249
20
-197.65134805158112
30
0
0
LINE
5
147
100
AcDbEntity
8
0
100
AcDbLine
10
545.84597745241945
20
-250.46154258559255
30
0
11
531.72081601251114
21
-266.38045577948361
31
0
0
LINE
5
148
100
AcDbEntity
8
0
100
AcDbLine
10
561.62112870127044
20
-185.0917089582417
30
0
11
555.81042699501143
21
-193.71394211413758
31
0
0
CIRCLE
5
149
100
AcDbEntity
8
0
100
AcDbCircle
10
691.8566681515972
20
-185.77158769200551
30
0
40
1.2
210
0
220
0
230
1
0
CIRCLE
5
150
100
AcDbEntity
8
0
100
AcDbCircle
10
595.62454514860815
20
-288.31394377547144
30
0
40
1.2
210
0
220
0
230
1
0
LINE
5
151
100
AcDbEntity
8
0
100
AcDbLine
10
689.68917809988307
20
-282.01344653363009
30
0
11
689.69079286471379
21
-189.91019676479937
31
0
0
CIRCLE
5
152
100
AcDbEntity
8
0
100
AcDbCircle
10
691.5329241170557
20
-286.35576941382368
30
0
40
1.2
210
0
220
0
230
1
0
LINE
5
153
100
AcDbEntity
8
0
100
AcDbLine
10
578.61173274694841
20
-175.71351545887438
30
0
11
565.15438503938253
21
-175.71327952309758
31
0
0
ENDSEC
0
SECTION
2
OBJECTS
0
DICTIONARY
5
C
100
AcDbDictionary
3
ACAD_GROUP
350
D
3
ACAD_MLINESTYLE
350
17
0
DICTIONARY
5
D
100
AcDbDictionary
0
DICTIONARY
5
1A
330
C
100
AcDbDictionary
0
DICTIONARY
5
17
100
AcDbDictionary
0
ENDSEC
0
EOF
