0
SECTION
2
HEADER
9
$INSUNITS
70
4
9
$ACADVER
1
AC1014
9
$HANDSEED
5
FFFF
0
ENDSEC
0
SECTION
2
TABLES
0
TABLE
2
VPORT
5
8
100
AcDbSymbolTable
0
ENDTAB
0
TABLE
2
LTYPE
5
5
100
AcDbSymbolTable
0
LTYPE
5
14
100
AcDbSymbolTableRecord
100
AcDbLinetypeTableRecord
2
BYBLOCK
70
0
0
LTYPE
5
15
100
AcDbSymbolTableRecord
100
AcDbLinetypeTableRecord
2
BYLAYER
70
0
0
LTYPE
5
16
100
AcDbSymbolTableRecord
100
AcDbLinetypeTableRecord
2
DASHED
70
0
3
Dashed __ __ __ __ __ __ __ __ __ __ __ __ __ _
72
65
73
2
40
0.75
49
0.5
74
0
49
-0.25
74
0
0
ENDTAB
0
TABLE
2
LAYER
5
2
100
AcDbSymbolTable
70
2
0
LAYER
5
50
100
AcDbSymbolTableRecord
100
AcDbLayerTableRecord
2
0
70
0
62
7
6
CONTINUOUS
0
ENDTAB
0
TABLE
2
STYLE
5
3
100
AcDbSymbolTable
70
1
0
STYLE
5
11
100
AcDbSymbolTableRecord
100
AcDbTextStyleTableRecord
2
STANDARD
70
0
0
ENDTAB
0
TABLE
2
VIEW
5
6
100
AcDbSymbolTable
70
0
0
ENDTAB
0
TABLE
2
UCS
5
7
100
AcDbSymbolTable
70
0
0
ENDTAB
0
TABLE
2
APPID
5
9
100
AcDbSymbolTable
70
2
0
APPID
5
12
100
AcDbSymbolTableRecord
100
AcDbRegAppTableRecord
2
ACAD
70
0
0
ENDTAB
0
TABLE
2
DIMSTYLE
5
A
100
AcDbSymbolTable
70
1
0
ENDTAB
0
TABLE
2
BLOCK_RECORD
5
1
100
AcDbSymbolTable
70
1
0
BLOCK_RECORD
5
1F
100
AcDbSymbolTableRecord
100
AcDbBlockTableRecord
2
*MODEL_SPACE
0
BLOCK_RECORD
5
1B
100
AcDbSymbolTableRecord
100
AcDbBlockTableRecord
2
*PAPER_SPACE
0
ENDTAB
0
ENDSEC
0
SECTION
2
BLOCKS
0
BLOCK
5
20
100
AcDbEntity
100
AcDbBlockBegin
2
*MODEL_SPACE
0
ENDBLK
5
21
100
AcDbEntity
100
AcDbBlockEnd
0
BLOCK
5
1C
100
AcDbEntity
100
AcDbBlockBegin
2
*PAPER_SPACE
0
ENDBLK
5
1D
100
AcDbEntity
100
AcDbBlockEnd
0
ENDSEC
0
SECTION
2
ENTITIES
0
POINT
5
100
100
AcDbEntity
8
0
100
AcDbPoint
10
229.91222543140969
20
-274.18950399524635
30
0
0
POINT
5
101
100
AcDbEntity
8
0
100
AcDbPoint
10
187.05102569014281
20
-282.27383791019349
30
0
0
POINT
5
102
100
AcDbEntity
8
0
100
AcDbPoint
10
203.57262127119333
20
-291.81103665199419
30
0
0
POINT
5
103
100
AcDbEntity
8
0
100
AcDbPoint
10
203.57262127119333
20
-291.81103665199419
30
0
0
POINT
5
104
100
AcDbEntity
8
0
100
AcDbPoint
10
215.47244037198107
20
-271.1999453685512
30
0
0
POINT
5
105
100
AcDbEntity
8
0
100
AcDbPoint
10
187.05102569014281
20
-282.27383791019349
30
0
0
POINT
5
106
100
AcDbEntity
8
0
100
AcDbPoint
10
198.96962507065197
20
-261.67378959820223
30
0
0
LWPOLYLINE
5
107
100
AcDbEntity
8
0
100
AcDbPolyline
90
4
70
1
43
0.0
10
140.69119765363183
20
-183.84311510635769
10
154.70353098696506
20
-183.84311510635769
10
154.70353098696512
20
-197.83428177302426
10
140.69119765363189
20
-197.83428177302426
0
SPLINE
5
108
100
AcDbEntity
8
0
100
AcDbSpline
70
0
71
3
72
14
73
10
74
0
42
0.000000001
43
0.0000000001
44
0.0000000001
40
0.00021400728288045398
40
0.00021400728288045398
40
0.00021400728288045398
40
0.00021400728288045398
40
0.39654478103096191
40
0.39654478103096191
40
0.39654478103096191
40
0.84385328032283291
40
0.84385328032283291
40
0.84385328032283291
40
1
40
1
40
1
40
1
10
222.2986462305534
20
-308.70342889936296
30
0
10
221.21294054038663
20
-310.58102202995144
30
0
10
219.55221280027686
20
-312.01147257770657
30
0
10
217.70545011556933
20
-312.83193452334757
30
0
10
215.62114907269901
20
-313.75792772382539
30
0
10
213.25293731600269
20
-313.96761228087371
30
0
10
210.96168056126103
20
-313.33130507438938
30
0
10
210.16184727672155
20
-313.10918257245447
30
0
10
209.37592459071396
20
-312.78224924396255
30
0
10
208.63722892478236
20
-312.35545047698224
30
0
0
CIRCLE
5
109
100
AcDbEntity
8
0
100
AcDbCircle
10
215.21361952969505
20
-309.71219390326723
30
0
40
1.7000000000000002
210
0
220
0
230
1
0
LWPOLYLINE
5
110
100
AcDbEntity
8
0
100
AcDbPolyline
90
12
70
1
43
0.0
10
213.99359119212377
20
-272.25138728479533
10
215.64359119212384
20
-269.39350345230679
10
216.297440371981
20
-269.77100345230679
10
217.78786977842771
20
-267.18950399524647
10
229.91222543140969
20
-274.18950399524635
10
213.36472543140985
20
-302.85061473349219
10
201.24036977842786
20
-295.85061473349231
10
202.7476212711934
20
-293.23997856823837
10
202.09377209133606
20
-292.86247856823832
10
203.74377209133613
20
-290.00459473574978
10
204.39762127119332
20
-290.38209473574977
10
214.64744037198108
20
-272.62888728479538
0
LINE
5
111
100
AcDbEntity
8
0
100
AcDbLine
10
199.79558630535882
20
-260.24620227895582
30
0
11
199.14239698282876
21
-259.8675616724006
31
0
0
LINE
5
112
100
AcDbEntity
8
0
100
AcDbLine
10
196.83578098696535
20
-293.31358732857962
30
0
11
184.72139209807642
21
-286.3003651063575
31
0
0
LINE
5
113
100
AcDbEntity
8
0
100
AcDbLine
10
239.5402090675413
20
-278.92196473062609
30
0
11
222.2986467642375
21
-308.70342920795679
31
0
0
LINE
5
114
100
AcDbEntity
8
0
100
AcDbLine
10
200.42353098696532
20
-289.10847621746871
30
0
11
199.42516987585412
21
-290.84061510635752
31
0
0
CIRCLE
5
115
100
AcDbEntity
8
0
100
AcDbCircle
10
217.78372287450247
20
-262.1280120175544
30
0
40
1.2
210
0
220
0
230
1
0
LINE
5
116
100
AcDbEntity
8
0
100
AcDbLine
10
197.48978160979311
20
-262.72393392209165
30
0
11
198.1432847327597
21
-263.10203215752239
31
0
0
LINE
5
117
100
AcDbEntity
8
0
100
AcDbLine
10
211.88175320918754
20
-267.31386510635741
30
0
11
212.52028098696528
21
-268.20639288413531
31
0
0
ARC
5
118
100
AcDbEntity
8
0
100
AcDbCircle
10
227.88558748810189
20
-247.14300355302569
30
0
40
4.9999999999999147
210
0
220
0
230
1
100
AcDbArc
50
180.00100451612676
51
221.58326803949143
0
LINE
5
119
100
AcDbEntity
8
0
100
AcDbLine
10
224.14562777049389
20
-250.46154258559241
30
0
11
238.2707892104022
21
-266.38045577948333
31
0
0
LINE
5
120
100
AcDbEntity
8
0
100
AcDbLine
10
198.33861432029869
20
-290.73478177302422
30
0
11
196.83578098696535
21
-293.31358732857962
31
0
0
LWPOLYLINE
5
121
100
AcDbEntity
8
0
100
AcDbPolyline
90
8
70
1
43
0.0
10
148.31119765363169
20
-276.42611510635732
10
162.32353098696501
20
-276.42611510635732
10
162.32353098696507
20
-262.4137817730238
10
154.70353098696506
20
-262.4137817730238
10
154.70353098696506
20
-260.04311510635728
10
140.69119765363183
20
-260.04311510635728
10
140.69119765363178
20
-274.03428177302385
10
148.31119765363169
20
-274.03428177302385
0
SPLINE
5
122
100
AcDbEntity
8
0
100
AcDbSpline
70
0
71
3
72
8
73
4
74
0
42
0.000000001
43
0.0000000001
44
0.0000000001
40
0.40648069728705111
40
0.40648069728705111
40
0.40648069728705111
40
0.40648069728705111
40
0.59941312190361262
40
0.59941312190361262
40
0.59941312190361262
40
0.59941312190361262
10
173.45019855204919
20
-292.05700475678452
30
0
10
173.39898860281914
20
-292.04118984775107
30
0
10
173.33302523579982
20
-292.02366278852168
30
0
10
173.28132013226968
20
-292.01208192138694
30
0
0
LWPOLYLINE
5
123
100
AcDbEntity
8
0
100
AcDbPolyline
90
4
70
1
43
0.0
10
211.85353098696487
20
-250.22178177302422
10
197.84119765363164
20
-250.22178177302422
10
197.84119765363181
20
-236.23061510635765
10
211.85353098696504
20
-236.23061510635765
0
LINE
5
124
100
AcDbEntity
8
0
100
AcDbLine
10
197.48978160979311
20
-262.72393392209165
30
0
11
199.14239698282876
21
-259.8675616724006
31
0
0
SPLINE
5
125
100
AcDbEntity
8
0
100
AcDbSpline
70
0
71
3
72
14
73
10
74
0
42
0.000000001
43
0.0000000001
44
0.0000000001
40
0
40
0
40
0
40
0
40
0.39950619035870588
40
0.39950619035870588
40
0.39950619035870588
40
0.84569619330265011
40
0.84569619330265011
40
0.84569619330265011
40
1
40
1
40
1
40
1
10
82.802852475372717
20
-292.01366820034991
30
0
10
80.62165909344337
20
-292.01370644128446
30
0
10
78.538068430605321
20
-291.28419235386815
30
0
10
76.894953974419806
20
-290.07983182113503
30
0
10
75.05983536615922
20
-288.73473719528391
30
0
10
73.70033253893574
20
-286.78566010299477
30
0
10
73.112919429410326
20
-284.48561457108485
30
0
10
72.909777094741841
20
-283.69020055730317
30
0
10
72.802441894008538
20
-282.85602200342453
30
0
10
72.802427124183211
20
-282.01357802449763
30
0
0
LWPOLYLINE
5
126
100
AcDbEntity
8
0
100
AcDbPolyline
90
4
70
1
43
0.0
10
154.70353098696512
20
-254.98428177302415
10
140.69119765363189
20
-254.98428177302415
10
140.69119765363189
20
-240.99311510635744
10
154.70353098696512
20
-240.99311510635744
0
LINE
5
127
100
AcDbEntity
8
0
100
AcDbLine
10
201.29489209807639
20
-257.65480955080221
30
0
11
199.79558630535882
21
-260.24620227895582
31
0
0
LINE
5
128
100
AcDbEntity
8
0
100
AcDbLine
10
208.63722892478236
20
-312.35545047698224
30
0
11
173.45019855204919
21
-292.05700475678469
31
0
0
LINE
5
129
100
AcDbEntity
8
0
100
AcDbLine
10
139.8236601179749
20
-167.0925080650197
30
0
11
174.65341398835406
21
-167.09189742574523
31
0
0
LINE
5
130
100
AcDbEntity
8
0
100
AcDbLine
10
211.51839209807639
20
-269.93500399524646
30
0
11
210.42830876474306
21
-269.82564288413539
31
0
0
LWPOLYLINE
5
131
100
AcDbEntity
8
0
100
AcDbPolyline
90
4
70
1
43
0.0
10
140.69119765363183
20
-221.94311510635757
10
154.70353098696506
20
-221.94311510635757
10
154.70353098696521
20
-235.93428177302414
10
140.69119765363197
20
-235.93428177302414
0
LINE
5
132
100
AcDbEntity
8
0
100
AcDbLine
10
199.42516987585412
20
-290.84061510635752
30
0
11
198.33861432029869
21
-290.73478177302422
31
0
0
LINE
5
133
100
AcDbEntity
8
0
100
AcDbLine
10
201.29489209807639
20
-257.65480955080221
30
0
11
213.41280876474309
21
-264.66450399524649
31
0
0
LINE
5
134
100
AcDbEntity
8
0
100
AcDbLine
10
210.42830876474306
20
-269.82564288413539
30
0
11
199.79205876474305
21
-288.22300399524647
31
0
0
LINE
5
135
100
AcDbEntity
8
0
100
AcDbLine
10
173.28132013226968
20
-292.01208192138694
30
0
11
82.802852475372717
21
-292.01366820034991
31
0
0
LWPOLYLINE
5
136
100
AcDbEntity
8
0
100
AcDbPolyline
90
4
70
1
43
0.0
10
140.69119765363183
20
-202.89311510635756
10
154.70353098696506
20
-202.89311510635756
10
154.70353098696512
20
-216.88428177302427
10
140.69119765363189
20
-216.88428177302427
0
LINE
5
137
100
AcDbEntity
8
0
100
AcDbLine
10
213.41280876474309
20
-264.66450399524649
30
0
11
211.88175320918754
21
-267.31386510635741
31
0
0
CIRCLE
5
138
100
AcDbEntity
8
0
100
AcDbCircle
10
237.15505239275581
20
-272.79929362937298
30
0
40
1.7000000000000002
210
0
220
0
230
1
0
LINE
5
139
100
AcDbEntity
8
0
100
AcDbLine
10
199.79205876474305
20
-288.22300399524647
30
0
11
200.42353098696532
21
-289.10847621746871
31
0
0
LINE
5
140
100
AcDbEntity
8
0
100
AcDbLine
10
72.802427124183211
20
-282.01357802449763
30
0
11
72.800812359352491
21
-189.91032825566705
31
0
0
LWPOLYLINE
5
141
100
AcDbEntity
8
0
100
AcDbPolyline
90
4
70
1
43
0.0
10
135.65353098696511
20
-224.3137817730242
10
135.65353098696528
20
-238.32611510635743
10
121.64119765363218
20
-238.32611510635743
10
121.64119765363203
20
-224.3137817730242
0
LINE
5
142
100
AcDbEntity
8
0
100
AcDbLine
10
212.52028098696528
20
-268.20639288413531
30
0
11
211.51839209807639
21
-269.93500399524646
31
0
0
LWPOLYLINE
5
143
100
AcDbEntity
8
0
100
AcDbPolyline
90
4
70
1
43
0.0
10
102.59119765363209
20
-243.08861510635751
10
102.59119765363202
20
-229.07628177302428
10
116.60353098696532
20
-229.07628177302428
10
116.6035309869654
20
-243.08861510635751
0
LINE
5
144
100
AcDbEntity
8
0
100
AcDbLine
10
222.88471979159795
20
-197.65121656071344
30
0
11
222.88558748887041
21
-247.14309121360415
31
0
0
LWPOLYLINE
5
145
100
AcDbEntity
8
0
100
AcDbPolyline
90
4
70
1
43
0.0
10
175.27753098696502
20
-264.61511510635728
10
187.40603098696505
20
-271.62128177302395
10
180.39986432029826
20
-283.74978177302398
10
168.29253098696506
20
-276.7436151063572
0
LINE
5
146
100
AcDbEntity
8
0
100
AcDbLine
10
198.1432847327597
20
-263.10203215752239
30
0
11
187.87698692484975
21
-280.84625059094708
31
0
0
LWPOLYLINE
5
147
100
AcDbEntity
8
0
100
AcDbPolyline
90
4
70
1
43
0.0
10
192.80353098696503
20
-207.65561510635777
10
178.79119765363171
20
-207.65561510635777
10
178.79119765363171
20
-221.64678177302434
10
192.80353098696503
20
-221.64678177302434
0
CIRCLE
5
148
100
AcDbEntity
8
0
100
AcDbCircle
10
174.34769745412785
20
-288.3121743705189
30
0
40
1.7000000000000002
210
0
220
0
230
1
0
LWPOLYLINE
5
149
100
AcDbEntity
8
0
100
AcDbPolyline
90
4
70
1
43
0.0
10
192.80353098696503
20
-202.59678177302433
10
178.79119765363171
20
-202.59678177302433
10
178.79119765363171
20
-188.60561510635776
10
192.80353098696503
20
-188.60561510635776
0
SPLINE
5
150
100
AcDbEntity
8
0
100
AcDbSpline
70
0
71
3
72
14
73
10
74
0
42
0.000000001
43
0.0000000001
44
0.0000000001
40
0.00016221504811703984
40
0.00016221504811703984
40
0.00016221504811703984
40
0.00016221504811703984
40
0.36867590397288497
40
0.36867590397288497
40
0.36867590397288497
40
0.75270538978271406
40
0.75270538978271406
40
0.75270538978271406
40
1
40
1
40
1
40
1
10
238.27078896848582
20
-266.38045599430836
30
0
10
239.55710878684789
20
-267.82893671964672
30
0
10
240.23925454916485
20
-269.36714683288983
30
0
10
240.6128110010257
20
-270.86036916412752
30
0
10
241.00209556884641
20
-272.41646170912361
30
0
10
241.06887738665671
20
-273.96721652325397
30
0
10
240.75704263202232
20
-275.6209216734743
30
0
10
240.5562375976462
20
-276.68582003583737
30
0
10
240.18750517850128
20
-277.80156704774868
30
0
10
239.54020906754118
20
-278.92196473062609
30
0
0
LWPOLYLINE
5
151
100
AcDbEntity
8
0
100
AcDbPolyline
90
4
70
1
43
0.0
10
83.541197653632082
20
-229.07628177302428
10
83.541197653632082
20
-243.08861510635751
10
97.553530986965384
20
-243.08861510635751
10
97.553530986965384
20
-229.07628177302428
0
LINE
5
152
100
AcDbEntity
8
0
100
AcDbLine
10
185.57118222928403
20
-283.32398223408291
30
0
11
186.22468535225053
21
-283.70208046951359
31
0
0
LWPOLYLINE
5
153
100
AcDbEntity
8
0
100
AcDbPolyline
90
4
70
1
43
0.0
10
173.75353098696513
20
-243.36378177302421
10
173.75353098696513
20
-257.37611510635759
10
159.74119765363179
20
-257.37611510635747
10
159.74119765363179
20
-243.36378177302407
0
LWPOLYLINE
5
154
100
AcDbEntity
8
0
100
AcDbPolyline
90
4
70
1
43
0.0
10
102.59119765363202
20
-248.12628177302415
10
116.60353098696532
20
-248.12628177302415
10
116.60353098696532
20
-262.13861510635724
10
102.59119765363202
20
-262.13861510635724
0
LWPOLYLINE
5
155
100
AcDbEntity
8
0
100
AcDbPolyline
90
4
70
1
43
0.0
10
178.79119765363171
20
-245.75561510635751
10
178.79119765363171
20
-259.74678177302405
10
192.80353098696503
20
-259.74678177302405
10
192.80353098696503
20
-245.75561510635751
0
LWPOLYLINE
5
156
100
AcDbEntity
8
0
100
AcDbPolyline
90
4
70
1
43
0.0
10
192.80353098696503
20
-226.70561510635764
10
178.79119765363171
20
-226.70561510635764
10
178.7911976536318
20
-240.69678177302421
10
192.80353098696514
20
-240.69678177302421
0
LINE
5
157
100
AcDbEntity
8
0
100
AcDbLine
10
185.57118222928403
20
-283.32398223408291
30
0
11
187.22379760231951
21
-280.46760998439169
31
0
0
LINE
5
158
100
AcDbEntity
8
0
100
AcDbLine
10
81.005193808269595
20
-179.66542346754707
30
0
11
134.12211262648322
21
-167.7239009354146
31
0
0
LWPOLYLINE
5
159
100
AcDbEntity
8
0
100
AcDbPolyline
90
4
70
1
43
0.0
10
116.60353098696532
20
-281.18861510635725
10
102.59119765363202
20
-281.18861510635725
10
102.59119765363195
20
-267.1762817730239
10
116.60353098696525
20
-267.1762817730239
0
SPLINE
5
160
100
AcDbEntity
8
0
100
AcDbSpline
70
0
71
3
72
14
73
10
74
0
42
0.000000001
43
0.0000000001
44
0.0000000001
40
0
40
0
40
0
40
0
40
0.34312636598822854
40
0.34312636598822854
40
0.34312636598822854
40
0.7427224299007007
40
0.7427224299007007
40
0.7427224299007007
40
0.99894491497656646
40
0.99894491497656646
40
0.99894491497656646
40
0.99894491497656646
10
174.65341398835406
20
-167.09189742574523
30
0
10
175.89328028708707
20
-167.09187568826579
30
0
10
176.83834587528168
20
-167.25640156763049
30
0
10
177.7503034336506
20
-167.47029294987797
30
0
10
178.81234554670684
20
-167.71938530454079
30
0
10
179.79333247071153
20
-168.04897537880137
30
0
10
180.81937311764483
20
-168.52222466468689
30
0
10
181.47727420348679
20
-168.82567387012401
30
0
10
182.15061550828585
20
-169.18194714995295
30
0
10
182.90834238583989
20
-169.71864807985952
30
0
0
LWPOLYLINE
5
161
100
AcDbEntity
8
0
100
AcDbPolyline
90
4
70
1
43
0.0
10
197.84119765363164
20
-212.12178177302434
10
197.84119765363164
20
-198.13061510635762
10
211.85353098696496
20
-198.13061510635762
10
211.85353098696487
20
-212.12178177302434
0
LWPOLYLINE
5
162
100
AcDbEntity
8
0
100
AcDbPolyline
90
4
70
1
43
0.0
10
116.6035309869654
20
-224.03861510635764
10
102.59119765363209
20
-224.03861510635764
10
102.59119765363202
20
-210.02628177302427
10
116.60353098696532
20
-210.02628177302427
0
LINE
5
163
100
AcDbEntity
8
0
100
AcDbLine
10
186.22468535225053
20
-283.70208046951359
30
0
11
184.72139209807642
21
-286.3003651063575
31
0
0
LWPOLYLINE
5
164
100
AcDbEntity
8
0
100
AcDbPolyline
90
4
70
1
43
0.0
10
159.74119765363179
20
-219.27611510635757
10
159.74119765363179
20
-205.26378177302419
10
173.75353098696513
20
-205.26378177302433
10
173.75353098696513
20
-219.27611510635771
0
LINE
5
165
100
AcDbEntity
8
0
100
AcDbLine
10
187.87698692484975
20
-280.84625059094708
30
0
11
187.22379760231951
21
-280.46760998439169
31
0
0
CIRCLE
5
166
100
AcDbEntity
8
0
100
AcDbCircle
10
138.67331091792764
20
-257.34436639826822
30
0
40
1.2
210
0
220
0
230
1
0
LWPOLYLINE
5
167
100
AcDbEntity
8
0
100
AcDbPolyline
90
4
70
1
43
0.0
10
197.84119765363164
20
-217.18061510635764
10
211.85353098696496
20
-217.18061510635764
10
211.85353098696487
20
-231.17178177302421
10
197.84119765363164
20
-231.17178177302421
0
LINE
5
168
100
AcDbEntity
8
0
100
AcDbLine
10
214.58846775295234
20
-180.89807270227496
30
0
11
220.40285833185621
21
-189.52577501034824
31
0
0
LWPOLYLINE
5
169
100
AcDbEntity
8
0
100
AcDbPolyline
90
4
70
1
43
0.0
10
121.6411976536321
20
-257.37611510635747
10
121.64119765363203
20
-243.36378177302407
10
135.65353098696511
20
-243.36378177302407
10
135.65353098696519
20
-257.37611510635747
0
LWPOLYLINE
5
170
100
AcDbEntity
8
0
100
AcDbPolyline
90
4
70
1
43
0.0
10
159.74119765363184
20
-238.32611510635743
10
159.74119765363179
20
-224.3137817730242
10
173.75353098696513
20
-224.31378177302435
10
173.75353098696522
20
-238.32611510635772
0
CIRCLE
5
171
100
AcDbEntity
8
0
100
AcDbCircle
10
138.16531005665377
20
-221.78436532167609
30
0
40
1.2
210
0
220
0
230
1
0
LWPOLYLINE
5
172
100
AcDbEntity
8
0
100
AcDbPolyline
90
4
70
1
43
0.0
10
83.541197653632082
20
-248.12628177302415
10
83.541197653632011
20
-262.13861510635724
10
97.553530986965313
20
-262.13861510635724
10
97.553530986965384
20
-248.12628177302415
0
LWPOLYLINE
5
173
100
AcDbEntity
8
0
100
AcDbPolyline
90
4
70
1
43
0.0
10
173.75353098696513
20
-186.21378177302446
10
173.75353098696513
20
-200.2261151063577
10
159.74119765363179
20
-200.22611510635755
10
159.74119765363179
20
-186.21378177302432
0
CIRCLE
5
174
100
AcDbEntity
8
0
100
AcDbCircle
10
189.34630531964723
20
-264.71036812081593
30
0
40
1.2
210
0
220
0
230
1
0
LWPOLYLINE
5
175
100
AcDbEntity
8
0
100
AcDbPolyline
90
4
70
1
43
0.0
10
116.6035309869654
20
-204.98861510635763
10
102.59119765363209
20
-204.98861510635763
10
102.59119765363202
20
-190.9762817730244
10
116.60353098696532
20
-190.9762817730244
0
LWPOLYLINE
5
176
100
AcDbEntity
8
0
100
AcDbPolyline
90
4
70
1
43
0.0
10
121.64119765363203
20
-219.27611510635757
10
135.65353098696511
20
-219.27611510635757
10
135.65353098696519
20
-205.26378177302419
10
121.6411976536321
20
-205.26378177302419
0
SPLINE
5
177
100
AcDbEntity
8
0
100
AcDbSpline
70
0
71
3
72
17
73
13
74
0
42
0.000000001
43
0.0000000001
44
0.0000000001
40
-0.0021851623891537184
40
-0.0021851623891537184
40
-0.0021851623891537184
40
-0.0021851623891537184
40
0
40
0
40
0
40
0.34521356535394948
40
0.34521356535394948
40
0.34521356535394948
40
0.74612008656055573
40
0.74612008656055573
40
0.74612008656055573
40
1
40
1
40
1
40
1
10
220.40285833185621
20
-189.52577501034824
30
0
10
220.40419968477266
20
-189.52777157816072
30
0
10
220.40554103776202
20
-189.52976814608164
30
0
10
220.40688239082442
20
-189.53176471411112
30
0
10
221.08328896544549
20
-190.53857774477692
30
0
10
221.47145951721797
20
-191.39459781731574
30
0
10
221.804960603735
20
-192.2541042286106
30
0
10
222.19226508372287
20
-193.25227394118755
30
0
10
222.47448396112475
20
-194.23091940650039
30
0
10
222.669502455024
20
-195.32509850058219
30
0
10
222.7930007663042
20
-196.01800340234504
30
0
10
222.8847040119382
20
-196.75117345938034
30
0
10
222.88471979159795
20
-197.65121656071344
30
0
0
LINE
5
178
100
AcDbEntity
8
0
100
AcDbLine
10
191.37987247596476
20
-175.71351545887453
30
0
11
204.83722018353069
21
-175.71327952309744
31
0
0
LINE
5
179
100
AcDbEntity
8
0
100
AcDbLine
10
182.91770625238149
20
-169.72528756241061
30
0
11
191.37987247596476
21
-175.71351545887453
31
0
0
LWPOLYLINE
5
180
100
AcDbEntity
8
0
100
AcDbPolyline
90
4
70
1
43
0.0
10
83.541197653632082
20
-210.02628177302427
10
83.541197653632082
20
-224.03861510635764
10
97.553530986965384
20
-224.03861510635764
10
97.553530986965384
20
-210.02628177302427
0
LWPOLYLINE
5
181
100
AcDbEntity
8
0
100
AcDbPolyline
90
4
70
1
43
0.0
10
83.541197653632082
20
-190.9762817730244
10
83.541197653632082
20
-204.98861510635763
10
97.553530986965384
20
-204.98861510635763
10
97.553530986965384
20
-190.9762817730244
0
LWPOLYLINE
5
182
100
AcDbEntity
8
0
100
AcDbPolyline
90
4
70
1
43
0.0
10
121.64119765363203
20
-262.4137817730238
10
121.64119765363196
20
-276.42611510635732
10
135.65353098696505
20
-276.42611510635732
10
135.65353098696511
20
-262.4137817730238
0
LWPOLYLINE
5
183
100
AcDbEntity
8
0
100
AcDbPolyline
90
4
70
1
43
0.0
10
83.541197653632011
20
-267.1762817730239
10
83.541197653632011
20
-281.18861510635725
10
97.553530986965313
20
-281.18861510635725
10
97.553530986965313
20
-267.1762817730239
0
CIRCLE
5
184
100
AcDbEntity
8
0
100
AcDbCircle
10
131.94231027197219
20
-182.66836494486896
30
0
40
1.2
210
0
220
0
230
1
0
SPLINE
5
185
100
AcDbEntity
8
0
100
AcDbSpline
70
0
71
3
72
17
73
13
74
0
42
0.000000001
43
0.0000000001
44
0.0000000001
40
-0.0012880450509399784
40
-0.0012880450509399784
40
-0.0012880450509399784
40
-0.0012880450509399784
40
0
40
0
40
0
40
0.44532644559751117
40
0.44532644559751117
40
0.44532644559751117
40
0.90713310891006094
40
0.90713310891006094
40
0.90713310891006094
40
1
40
1
40
1
40
1
10
134.1221126265051
20
-167.72390093540835
30
0
10
134.12349397477379
20
-167.72359192682742
30
0
10
134.12487532306494
20
-167.72328291824138
30
0
10
134.1262566713558
20
-167.72297390965534
30
0
10
135.01580544891021
20
-167.52398122131012
30
0
10
135.81417241969797
20
-167.40581164690937
30
0
10
136.64865012846258
20
-167.3055376999892
30
0
10
137.51400939491327
20
-167.20155291017434
30
0
10
138.3683859262967
20
-167.12708930757046
30
0
10
139.26782538124547
20
-167.10089191719462
30
0
10
139.44869792497536
20
-167.09562375977683
30
0
10
139.63254681442146
20
-167.09251141564025
30
0
10
139.8236601179749
20
-167.0925080650197
30
0
0
LWPOLYLINE
5
186
100
AcDbEntity
8
0
100
AcDbPolyline
90
4
70
1
43
0.0
10
135.65353098696519
20
-186.21378177302432
10
121.6411976536321
20
-186.21378177302432
10
121.64119765363203
20
-200.22611510635755
10
135.65353098696511
20
-200.22611510635755
0
SPLINE
5
187
100
AcDbEntity
8
0
100
AcDbSpline
70
0
71
1
72
4
73
2
74
0
42
0.000000001
43
0.0000000001
44
0.0000000001
40
0
40
0
40
0.0011478881703206895
40
0.0011478881703206895
10
182.90834238583989
20
-169.71864807985952
30
0
10
182.91770625238149
20
-169.72528756241061
30
0
0
SPLINE
5
188
100
AcDbEntity
8
0
100
AcDbSpline
70
0
71
1
72
4
73
2
74
0
42
0.000000001
43
0.0000000001
44
0.0000000001
40
0
40
0
40
0.0055081754604556152
40
0.0055081754604556152
10
191.32695026305009
20
-175.73997147683471
30
0
10
191.37944807143919
20
-175.75664420320621
30
0
0
CIRCLE
5
189
100
AcDbEntity
8
0
100
AcDbCircle
10
195.31177883378029
20
-205.02036381444682
30
0
40
1.2
210
0
220
0
230
1
0
CIRCLE
5
190
100
AcDbEntity
8
0
100
AcDbCircle
10
100.06530736517313
20
-207.56036542933529
30
0
40
1.2
210
0
220
0
230
1
0
CIRCLE
5
191
100
AcDbEntity
8
0
100
AcDbCircle
10
218.51001030442796
20
-194.53331717425655
30
0
40
1.7000000000000002
210
0
220
0
230
1
0
CIRCLE
5
192
100
AcDbEntity
8
0
100
AcDbCircle
10
78.115574451138841
20
-185.76981828705328
30
0
40
1.7000000000000002
210
0
220
0
230
1
0
CIRCLE
5
193
100
AcDbEntity
8
0
100
AcDbCircle
10
100.0617809869653
20
-264.96436510635732
30
0
40
1.2
210
0
220
0
230
1
0
SPLINE
5
194
100
AcDbEntity
8
0
100
AcDbSpline
70
0
71
3
72
14
73
10
74
0
42
0.000000001
43
0.0000000001
44
0.0000000001
40
0
40
0
40
0
40
0
40
0.34221160975963277
40
0.34221160975963277
40
0.34221160975963277
40
0.72015733636954704
40
0.72015733636954704
40
0.72015733636954704
40
1
40
1
40
1
40
1
10
204.83722018353069
20
-175.71327952309744
30
0
10
206.45403106480649
20
-175.71325117698208
30
0
10
207.71061383811377
20
-176.03807928883171
30
0
10
208.84286598199344
20
-176.46332409406412
30
0
10
210.09334915386739
20
-176.93297343475578
30
0
10
211.19092035425359
20
-177.54598971385235
30
0
10
212.26500601763752
20
-178.40203053701188
30
0
10
213.06029214431157
20
-179.03586954421058
30
0
10
213.84967488705092
20
-179.80264923646374
30
0
10
214.58846775295234
20
-180.89807270227496
30
0
0
CIRCLE
5
195
100
AcDbEntity
8
0
100
AcDbCircle
10
78.439318485680474
20
-286.35400000887131
30
0
40
1.7000000000000002
210
0
220
0
230
1
0
CIRCLE
5
196
100
AcDbEntity
8
0
100
AcDbCircle
10
132.04425452147191
20
-172.13118077972425
30
0
40
1.7000000000000002
210
0
220
0
230
1
0
SPLINE
5
197
100
AcDbEntity
8
0
100
AcDbSpline
70
0
71
3
72
14
73
10
74
0
42
0.000000001
43
0.0000000001
44
0.0000000001
40
0
40
0
40
0
40
0
40
0.35737177311493251
40
0.35737177311493251
40
0.35737177311493251
40
0.75402780165018124
40
0.75402780165018124
40
0.75402780165018124
40
1
40
1
40
1
40
1
10
72.800812359352491
20
-189.91032825566762
30
0
10
72.800778794648053
20
-187.99585855209685
30
0
10
73.321548242588719
20
-186.33322092928537
30
0
10
74.085637213051925
20
-184.93472324476684
30
0
10
74.933719012657249
20
-183.3824950633921
30
0
10
76.091032652957367
20
-182.09846784186979
30
0
10
77.636473087291833
20
-181.09088450949528
30
0
10
78.594823279158774
20
-180.4660673645246
30
0
10
79.717501115244644
20
-179.95348050745307
30
0
10
81.005193808269595
20
-179.66542346754707
30
0
0
ENDSEC
0
SECTION
2
OBJECTS
0
DICTIONARY
5
C
100
AcDbDictionary
3
ACAD_GROUP
350
D
3
ACAD_MLINESTYLE
350
17
0
DICTIONARY
5
D
100
AcDbDictionary
0
DICTIONARY
5
1A
330
C
100
AcDbDictionary
0
DICTIONARY
5
17
100
AcDbDictionary
0
ENDSEC
0
EOF
